<?xml version="1.0" encoding="utf-8"?>
<!-- Generator: Adobe Illustrator 16.0.3, SVG Export Plug-In . SVG Version: 6.00 Build 0)  -->
<!DOCTYPE svg PUBLIC "-//W3C//DTD SVG 1.1//EN" "http://www.w3.org/Graphics/SVG/1.1/DTD/svg11.dtd">
<svg version="1.1" id="Layer_1" xmlns="http://www.w3.org/2000/svg" xmlns:xlink="http://www.w3.org/1999/xlink" x="0px" y="0px"
	 width="32px" height="32px" viewBox="0 0 32 32" enable-background="new 0 0 32 32" xml:space="preserve">
<path fill="#407CCA" d="M25.6,0H6.4C2.88,0,0,2.88,0,6.4v19.2C0,29.122,2.88,32,6.4,32h19.2c3.521,0,6.4-2.878,6.4-6.4V6.4
	C32,2.88,29.12,0,25.6,0z M18.498,12.44c-0.311-0.184-0.47-0.387-0.354-0.454c0.116-0.067,0.463,0.028,0.769,0.213
	c0.309,0.183,0.941,0.113,1.408-0.155c0.469-0.27,0.469-0.711,0-0.983c-0.467-0.27-1.1-0.341-1.408-0.159
	c-0.306,0.184-0.652,0.279-0.769,0.213c-0.115-0.065,0.044-0.269,0.354-0.453c0.31-0.182,0.257-0.51-0.12-0.727
	C18,9.719,17.737,9.459,17.794,9.362c0.055-0.099,0.407-0.001,0.784,0.215c0.377,0.217,0.689,0.1,0.695-0.258
	c0.003-0.36,0.1-0.603,0.211-0.537c0.111,0.066,0.2,0.413,0.198,0.774c-0.003,0.36,0.364,0.868,0.814,1.13s0.818,0.045,0.818-0.479
	c0-0.525-0.259-1.099-0.573-1.274c-0.317-0.178-0.572-0.43-0.57-0.558c0.003-0.13,0.261-0.093,0.575,0.081
	c0.313,0.174,0.568-0.038,0.568-0.469c0-0.434,0.089-0.787,0.198-0.787s0.2,0.356,0.2,0.793c0,0.437,0.257,0.645,0.57,0.465
	c0.312-0.18,0.567-0.218,0.567-0.082c0,0.134-0.256,0.387-0.567,0.561c-0.313,0.174-0.57,0.745-0.57,1.27
	c0,0.524,0.369,0.741,0.819,0.479c0.449-0.262,0.818-0.77,0.815-1.13c-0.002-0.361,0.086-0.708,0.196-0.774
	c0.109-0.066,0.205,0.176,0.213,0.537c0.005,0.358,0.315,0.476,0.692,0.258c0.375-0.217,0.728-0.314,0.786-0.215
	c0.055,0.098-0.208,0.357-0.585,0.574c-0.375,0.217-0.428,0.545-0.114,0.727c0.312,0.185,0.474,0.388,0.355,0.453
	c-0.114,0.066-0.465-0.029-0.773-0.213c-0.313-0.182-0.947-0.11-1.413,0.159c-0.466,0.272-0.466,0.713,0,0.983
	c0.466,0.268,1.101,0.337,1.413,0.155c0.309-0.186,0.659-0.281,0.773-0.213c0.118,0.066-0.044,0.27-0.355,0.454
	c-0.313,0.182-0.261,0.51,0.114,0.728c0.377,0.219,0.64,0.478,0.585,0.577c-0.059,0.098-0.411,0-0.786-0.216
	c-0.377-0.218-0.688-0.103-0.692,0.252c-0.008,0.358-0.104,0.599-0.213,0.534c-0.11-0.063-0.198-0.409-0.196-0.771
	c0.003-0.363-0.366-0.871-0.815-1.131c-0.45-0.261-0.819-0.046-0.819,0.478s0.257,1.095,0.57,1.269
	c0.312,0.176,0.567,0.432,0.567,0.566c0,0.135-0.256,0.099-0.567-0.08c-0.313-0.18-0.57,0.025-0.57,0.458
	c0,0.433-0.091,0.785-0.2,0.785s-0.198-0.351-0.198-0.781c0-0.429-0.256-0.637-0.568-0.461c-0.314,0.175-0.572,0.211-0.575,0.08
	c-0.002-0.13,0.253-0.384,0.57-0.561c0.314-0.177,0.573-0.75,0.573-1.273s-0.368-0.738-0.818-0.478
	c-0.45,0.26-0.817,0.768-0.814,1.131c0.002,0.362-0.087,0.708-0.198,0.771c-0.111,0.064-0.208-0.176-0.211-0.534
	c-0.006-0.355-0.318-0.47-0.695-0.252c-0.377,0.216-0.729,0.314-0.784,0.216c-0.057-0.1,0.206-0.358,0.584-0.577
	C18.755,12.951,18.808,12.623,18.498,12.44z M14.917,13.819l8.302,6.917v-2.074h0.692v3.459h-3.46v-0.69h2.075l-8.3-6.919
	L14.917,13.819z M6.616,10.36c0.547,0.543,0.962,1.427,1.383,2.076c0.651,0.999,1.025,2.054,2.077,2.766
	c1.448,0.984,2.805,0.938,4.151,2.076c0.845,0.716,2.938,3.018,2.075,4.152c-3.703-0.474-5.099-2.479-6.227-3.46
	c-1.153-0.999-3.164-1.519-4.15-2.769c-1.276-1.613-1.253-4.258-1.384-6.226C4.561,9.3,6.349,10.095,6.616,10.36z M25.6,30.4H6.4
	c-2.647,0-4.8-2.153-4.8-4.801V7.402l1.611,0.406C1.938,17.725,8.69,17.971,8.69,17.971c5.188,6.632,8.994,4.15,8.994,4.15
	c0.392,0.359,6.495,5.947,8.92,8.17C26.279,30.359,25.945,30.4,25.6,30.4z"/>
</svg>
