<?xml version="1.0" encoding="utf-8"?>
<!-- Generator: Adobe Illustrator 16.0.3, SVG Export Plug-In . SVG Version: 6.00 Build 0)  -->
<!DOCTYPE svg PUBLIC "-//W3C//DTD SVG 1.1//EN" "http://www.w3.org/Graphics/SVG/1.1/DTD/svg11.dtd">
<svg version="1.1" id="Layer_1" xmlns="http://www.w3.org/2000/svg" xmlns:xlink="http://www.w3.org/1999/xlink" x="0px" y="0px"
	 width="32px" height="32px" viewBox="0 0 32 32" enable-background="new 0 0 32 32" xml:space="preserve">
<path fill-rule="evenodd" clip-rule="evenodd" fill="#407CCA" d="M25.073,16.138c0,0-4.399-8.62-14.063-7.536
	c0,0,9.05-1.411,14.447,7.67L25.073,16.138z M25.073,16.138c-0.222-0.085-0.149,0.017-0.375,0.052
	c-0.216,0.038-0.497-0.056-0.685,0.115c-0.053,0.047-0.037,0.123-0.112,0.087c-0.06-0.02-0.112-0.05-0.175-0.067
	c-0.15-0.032-0.275-0.035-0.425-0.023c-0.794,0.07-1.554-0.097-2.338-0.035c-0.987,0.076-1.975,0.05-2.966,0.09
	c-0.131,0.005-0.256,0.017-0.381,0.017c-0.166,0-0.225,0.053-0.341-0.081c-0.169-0.188-0.31-0.413-0.487-0.595
	c-0.369-0.383-0.75-0.714-1.072-1.145c-0.156-0.201-0.31-0.404-0.466-0.608c-0.15-0.199-0.334-0.333-0.509-0.515
	c-0.388-0.396-0.803-0.89-1.35-1.042c-0.281-0.079-0.469,0.152-0.5,0.439c-0.016,0.164-0.594,1.47-0.556,1.46
	c-0.094,0.021-0.016,0.231-0.175,0.241c-0.522,0.041-0.644-1.034-1.253-0.814c-0.293,0.103-0.519,0.548-0.387,0.84
	c0.072,0.167,0.181,0.281,0,0.422c-0.147,0.114-0.772,0.919-0.697,0.898c-0.05,0.012-0.153,0.217-0.2,0.264
	c-0.091,0.085-0.178,0.134-0.3,0.167c-0.256,0.069-0.584,0.038-0.847,0.005c-0.253-0.026-0.491-0.085-0.744-0.059
	c-0.266,0.021-0.506,0.123-0.722,0.287c-0.106,0.079-0.188,0.159-0.271,0.258c-0.084,0.097-0.091,0.284-0.116,0.407
	c-0.253,1.095,0.872,0.857,1.381,1.177c0.172,0.104-0.303,0.644-0.341,0.758c-0.019,0.059-0.038,0.114-0.063,0.169
	c-0.053,0.114-0.05,0.094-0.166,0.054c-0.832-0.3-1.647-0.615-2.435-1.016c-0.065-0.033-0.1-0.073-0.137,0.009
	c-0.016,0.038-0.025,0.085-0.01,0.125c0.3,0.721,1.31,0.875,1.906,1.267c0.094,0.06,0.185,0.122,0.285,0.174
	c0.228,0.117,0.222,0.11,0.125,0.354c-0.109,0.278-0.253,0.56-0.391,0.831c-0.1,0.188-0.222,0.416-0.288,0.614
	c-0.05,0.144-0.065,0.383-0.175,0.498c-0.106,0.105-0.332,0.179-0.459,0.254c-0.212,0.129-0.453,0.206-0.656,0.344
	c-0.266,0.184-0.422,0.23-0.738,0.262c-0.09,0.013-0.628,0.218-0.412,0.41c0.05,0.047,0.456-0.246,0.547-0.272
	c-0.066,0.094,0.709-0.204,0.75-0.237c0.1-0.081,0.853-0.341,0.956-0.38c0.091-0.032,0.563,0.039,0.594-0.167
	c0.025-0.146,0.016-0.31,0.063-0.45c0.041-0.123,0.206-0.532,0.247-0.638c0.078-0.188,0.44-1.125,0.506-1.142
	c0.038-0.011,0.153,0.091,0.203,0.104c0.775,0.24,1.584,0.362,2.391,0.258c0.047-0.008,0.469-0.088,0.457-0.023
	c-0.044,0.175-0.222,0.875,0.059,1.002c-0.197,0.107-0.494,0.222-0.715,0.258c-0.278,0.05-0.572,0.145-0.856,0.172
	c-0.168,0.02-0.94,0.506-0.987,0.634c0.394-0.209,0.806-0.297,1.231-0.409c0.128-0.034,1.616-0.49,1.606-0.416
	c0.019-0.137,0.028-0.271,0.069-0.402c0.038-0.117,0.022-0.247,0.059-0.356c0.041-0.125,0.078-0.25,0.116-0.378
	c0.038-0.129,0.056-0.272,0.212-0.221c0.363,0.123,0.688,0.336,1.053,0.455c1.006,0.318,4.91,0.5,5.282,0.191
	c0.021,0.184-0.16,0.255-0.16,0.393c0,0.084,0.101,0.112,0.119,0.188c-0.01-0.031-1.641,0.372-1.791,0.459
	c-0.144,0.085-0.244,0.15-0.391,0.223c-0.185,0.09-0.35,0.203-0.435,0.404c0.328,0.005,0.522-0.117,0.681-0.248
	c0.066-0.054,0.231-0.101,0.3-0.145c0.35-0.193,1.363-0.352,1.462-0.386c0.057-0.017,0.106-0.039,0.159-0.063
	c0.091-0.044,0.109-0.066,0.175-0.007c0.038,0.031,0.153-0.068,0.156-0.091c0.013-0.115,0.035-0.23,0.044-0.348
	c0.013-0.174-0.024-0.671,0.19-0.687c1.969-0.144,4.385-0.825,4.463-0.834c0.175-0.022,0.185,0.079,0.263,0.224
	c0.053,0.094,0.094,0.217,0.112,0.321c0.025,0.138,0.053,0.275,0.091,0.411c0.044,0.182,0.178,0.146,0.259,0.159
	c0.679,0.159,1.382,0.063,2.066,0.036c-0.041,0.08,0.384,0,0.594,0.036c0.222,0.037,0.306,0.195,0.5,0.287
	c0.152,0.075,0.331,0.05,0.487,0.119c0.169,0.075,0.675,0.04,0.722,0.11c0.05-0.058,0.057-0.136-0.013-0.18
	c-0.294-0.137-0.594-0.162-0.884-0.277c-0.322-0.132-0.613-0.319-0.919-0.476c-0.159-0.083-0.135-0.56-0.172-0.727
	c-0.054-0.24-0.088-0.556-0.229-0.761c-0.091-0.127-0.125-0.182-0.047-0.319c0.057-0.103,0.144-0.205,0.175-0.315
	c0.141-0.495,0.223-1.086,0.013-1.575c-0.071-0.176-0.341-0.565-0.428-0.729 M10.217,15.977c-0.05,0.108-0.106,0.22-0.156,0.328
	c0.391-0.038,0.778-0.053,1.168-0.053c0.097,0,0.222,0.021,0.222-0.087c0-0.073,0.156-0.138,0.203-0.205
	c0.119-0.179,0.175-0.372,0.241-0.58c-0.041,0.076,0.056-0.185,0.103-0.234c-0.175-0.121-0.413-0.357-0.622-0.404
	c-0.206-0.043-0.628,0.548-0.659,0.58 M13.217,13.603c-0.181,0.372-0.31,0.77-0.475,1.147c-0.072,0.164,0.006,0.164,0.141,0.258
	c0.075,0.05,0.141,0.114,0.212,0.173c0.16,0.134,0.319,0.216,0.509,0.298c0.397,0.167,0.675,0.465,1.028,0.694
	c0.159,0.102,0.362,0.263,0.55,0.295c0.25,0.045,0.416,0.038,0.663,0c-0.284-0.766-0.575-1.521-1.028-2.204
	c-0.188-0.284-0.444-0.656-0.753-0.813c-0.175-0.085-0.309-0.231-0.512-0.246c-0.144-0.012-0.141,0.035-0.209,0.161
	C13.302,13.445,13.258,13.524,13.217,13.603 M12.705,15.707c-0.094-0.073-0.184-0.14-0.284-0.202
	c-0.091,0.243-0.166,0.48-0.297,0.708c0.475,0.05,0.962,0.077,1.428,0.182C13.286,16.155,13.017,15.883,12.705,15.707 M8.136,19.456
	c-0.019,0.018-0.034,0.054-0.053,0.073c0.547,0.057,1.094,0.074,1.634,0.132c0.272,0.026,0.563,0.021,0.834-0.007
	c0.103-0.008,0.318-0.019,0.391-0.087c0.112-0.094,0.168-0.564,0.159-0.6c-0.034-0.117-0.372-0.1-0.456-0.108
	c-0.172-0.026-0.344-0.091-0.516-0.091c-0.175,0-0.344-0.003-0.519-0.032c-0.325-0.047-0.709-0.242-1.031-0.076
	c-0.122,0.062-0.281,0.258-0.281,0.398C8.298,19.231,8.167,19.287,8.136,19.456 M25.564,20.836c0.05-0.016,0.162-0.006,0.156-0.068
	c-0.016-0.088-0.025-0.179-0.041-0.266c-0.019-0.125-0.047-0.255-0.072-0.382c-0.05-0.242-0.134-0.453-0.237-0.685
	c-0.078,0.109-0.165,0.294-0.271,0.356c-0.138,0.077-0.3,0.077-0.456,0.097c-0.132,0.02-0.21-0.289-0.226-0.378
	c-0.024-0.172-0.031-0.303-0.087-0.473c-0.122,0.053-0.163,0.006-0.285,0.067c-0.087,0.044-0.188,0.072-0.277,0.117
	c-0.119,0.046-0.194,0.14-0.304,0.198c-0.024,0.015-0.04,0.043-0.071,0.053c-0.02,0.009-0.066-0.028-0.088-0.018
	c-0.041,0.018-0.068,0.047-0.088,0.091c-0.034,0.1,0.057,0.217,0.098,0.311c0.078,0.172,0.152,0.346,0.23,0.521
	c0.031,0.077,0.066,0.221,0.132,0.271c0.081,0.063,0.35,0.159,0.497,0.169"/>
</svg>
