<?xml version="1.0" encoding="utf-8"?>
<!-- Generator: Adobe Illustrator 16.0.3, SVG Export Plug-In . SVG Version: 6.00 Build 0)  -->
<!DOCTYPE svg PUBLIC "-//W3C//DTD SVG 1.1//EN" "http://www.w3.org/Graphics/SVG/1.1/DTD/svg11.dtd">
<svg version="1.1" id="Layer_1" xmlns="http://www.w3.org/2000/svg" xmlns:xlink="http://www.w3.org/1999/xlink" x="0px" y="0px"
	 width="32px" height="32px" viewBox="0 0 32 32" enable-background="new 0 0 32 32" xml:space="preserve">
<path fill="#407CCA" d="M25.6,0H6.4C2.88,0,0,2.88,0,6.4v19.2C0,29.122,2.88,32,6.4,32h19.2c3.521,0,6.4-2.878,6.4-6.4V6.4
	C32,2.88,29.12,0,25.6,0z M30.4,19.342H26.85l-2.688,5.065c-0.225,0.423-0.678,0.661-1.156,0.633
	c-0.475-0.038-0.884-0.354-1.04-0.807l-2.007-5.875l-1.801,4.28c-0.208,0.488-0.705,0.779-1.238,0.727
	c-0.527-0.057-0.955-0.457-1.048-0.979l-1.68-10.362l-2.003,15.738c-0.08,0.584-0.57,1.021-1.158,1.037c-0.009,0-0.022,0-0.031,0
	c-0.575,0-1.069-0.406-1.178-0.972l-2.34-12.193l-1.45,3.025c-0.2,0.417-0.622,0.682-1.083,0.682H1.6v-2.4h2.594l2.698-5.626
	c0.224-0.468,0.731-0.738,1.236-0.671c0.514,0.066,0.928,0.455,1.025,0.963l1.65,8.597l2.034-16.018
	c0.08-0.584,0.572-0.972,1.163-0.985c0.556-0.035,1.1,0.406,1.206,0.985l2.305,13.803l1.46-3.468
	c0.193-0.458,0.636-0.749,1.148-0.734c0.496,0.018,0.931,0.34,1.094,0.811l2.128,6.235l1.728-3.255
	c0.208-0.393,0.616-0.638,1.06-0.638H30.4V19.342z"/>
<g>
</g>
<g>
</g>
<g>
</g>
<g>
</g>
<g>
</g>
<g>
</g>
<g>
</g>
<g>
</g>
<g>
</g>
<g>
</g>
<g>
</g>
<g>
</g>
<g>
</g>
<g>
</g>
<g>
</g>
</svg>
