<?xml version="1.0" encoding="utf-8"?>
<!-- Generator: Adobe Illustrator 16.0.3, SVG Export Plug-In . SVG Version: 6.00 Build 0)  -->
<!DOCTYPE svg PUBLIC "-//W3C//DTD SVG 1.1//EN" "http://www.w3.org/Graphics/SVG/1.1/DTD/svg11.dtd">
<svg version="1.1" id="Layer_1" xmlns="http://www.w3.org/2000/svg" xmlns:xlink="http://www.w3.org/1999/xlink" x="0px" y="0px"
	 width="32px" height="32px" viewBox="0 0 32 32" enable-background="new 0 0 32 32" xml:space="preserve">
<path fill="#407CCA" d="M25.6,0H6.4C2.88,0,0,2.88,0,6.4v19.201C0,29.119,2.88,32,6.4,32h19.2c3.521,0,6.4-2.881,6.4-6.399V6.4
	C32,2.88,29.12,0,25.6,0z M21.76,12.819c0.523,0.943,0.821,2.026,0.821,3.181c0,0.131-0.013,0.258-0.021,0.388
	c0.008,0,0.013,0,0.021,0C22.581,27.225,13.291,28,13.291,28s4.205-0.5,5.891-6.24c-0.942,0.522-2.027,0.822-3.18,0.822
	c-0.131,0-0.259-0.014-0.387-0.021c0,0.008,0,0.012,0,0.021C4.773,22.582,4,13.29,4,13.29s0.501,4.204,6.241,5.892
	C9.719,18.238,9.42,17.154,9.42,16c0-0.131,0.011-0.259,0.019-0.388c-0.008,0-0.012,0-0.019,0C9.42,4.774,18.711,4,18.711,4
	s-4.206,0.501-5.892,6.241c0.944-0.523,2.026-0.822,3.183-0.822c0.13,0,0.258,0.013,0.386,0.02c0-0.007,0-0.012,0-0.02
	C27.227,9.419,28,18.71,28,18.71S27.5,14.505,21.76,12.819z"/>
</svg>
