<?xml version="1.0" encoding="utf-8"?>
<!-- Generator: Adobe Illustrator 16.0.3, SVG Export Plug-In . SVG Version: 6.00 Build 0)  -->
<!DOCTYPE svg PUBLIC "-//W3C//DTD SVG 1.1//EN" "http://www.w3.org/Graphics/SVG/1.1/DTD/svg11.dtd">
<svg version="1.1" id="Layer_1" xmlns="http://www.w3.org/2000/svg" xmlns:xlink="http://www.w3.org/1999/xlink" x="0px" y="0px"
	 width="32px" height="32px" viewBox="0 0 32 32" enable-background="new 0 0 32 32" xml:space="preserve">
 <path fill="#407CCA" d="M27.828,12.87c0,2.451-1.986,4.436-4.438,4.436c-0.177,0-1.852,0-4.07,0c-1.347,0-2.889,0-4.431,0
 	c-3.891,0-7.733,0-8.13,0c-1.43,0-2.587-0.542-2.587-1.972c0-1.428,1.158-2.587,2.587-2.587c0.259,0,0.506,0.051,0.746,0.123
 	c0-0.02-0.006-0.04-0.006-0.061c0-1.666,1.352-3.018,3.019-3.018c0.069,0,0.138,0.016,0.207,0.021
 	c-0.003-0.07-0.022-0.135-0.022-0.206C10.702,6.509,13.211,4,16.308,4c2.796,0,5.097,2.056,5.519,4.734
 	c0.486-0.185,1.012-0.299,1.564-0.299C25.842,8.435,27.828,10.42,27.828,12.87z M18.839,18.369h-4.426
 	c-1.298,1.306-3.405,3.421-3.428,3.421h3.547L10.984,28l7.981-7.098h-2.661L18.839,18.369z"/>
 </svg>
