<?xml version="1.0" encoding="utf-8"?>
<!-- Generator: Adobe Illustrator 16.0.3, SVG Export Plug-In . SVG Version: 6.00 Build 0)  -->
<!DOCTYPE svg PUBLIC "-//W3C//DTD SVG 1.1//EN" "http://www.w3.org/Graphics/SVG/1.1/DTD/svg11.dtd">
<svg version="1.1" id="Layer_1" xmlns="http://www.w3.org/2000/svg" xmlns:xlink="http://www.w3.org/1999/xlink" x="0px" y="0px"
	 width="32px" height="32px" viewBox="0 0 32 32" enable-background="new 0 0 32 32" xml:space="preserve">
<path fill="#407CCA" d="M32,16.514v5.918c-0.714-0.305-1.561-0.802-1.776-1.471c-0.278-0.844-0.643-2.531,0.889-2.667
	c0,0-1.931-2.253-3.556,0.891c-1.229,2.396-2.102,3.442-2.666,3.555h-0.889c-0.563-0.136-1.45-0.769-1.778-1.778
	c-0.278-0.844-0.643-2.531,0.889-2.667c0,0-1.933-2.253-3.556,0.891c-1.234,2.396-2.099,3.442-2.668,3.555h-0.887
	c-0.564-0.136-1.45-0.769-1.778-1.778c-0.278-0.844-0.643-2.531,0.889-2.667c0,0-1.934-2.253-3.556,0.891
	c-1.234,2.396-2.098,3.442-2.666,3.555H8c-0.56-0.136-1.448-0.769-1.776-1.778c-0.275-0.844-0.646-2.531,0.889-2.667
	c0,0-1.936-2.253-3.556,0.891C2.664,20.912,1.048,21.928,0,22.408v-8.4C2.011,7.097,7.181,1.259,12.445,1.259
	c2.695,0,4.648,0.595,5.334,1.781c0.655,1.108,0.68,3.153-0.891,3.553c-0.657,0.169-2.265-0.291-2.665-0.889
	c-0.278-0.417-0.833-0.695,0-1.778C9.597,2.745,6.17,13.991,16.889,15.483c1.422-5.444,5.614-9.778,9.778-9.778
	c2.075,0,3.028,0.863,3.557,1.777c0.498,0.853,0.315,2.362-0.89,2.667c-0.506,0.136-1.529-0.391-1.777-0.886
	c-0.249-0.5-0.194-1.417,0.889-1.781C24.711,6.525,22.135,16.008,32,16.514z M6.224,22.739c0,0-1.936-2.255-3.557,0.889
	C2.003,24.916,0.938,25.803,0,26.375v3.475h32v-2.667c-0.564-0.136-2.339-0.767-2.666-1.776c-0.277-0.847-0.642-2.531,0.89-2.667
	c0,0-1.93-2.255-3.557,0.889c-1.228,2.397-2.102,3.442-2.665,3.555h-0.89c-0.563-0.136-1.45-0.767-1.778-1.776
	c-0.277-0.847-0.642-2.531,0.89-2.667c0,0-1.933-2.255-3.557,0.889c-1.234,2.397-2.099,3.442-2.666,3.555h-0.889
	c-0.564-0.136-1.45-0.767-1.778-1.776c-0.277-0.847-0.642-2.531,0.889-2.667c0,0-1.935-2.255-3.555,0.889
	C9.433,26.025,8.57,27.07,8,27.183H7.112c-0.561-0.136-1.45-0.767-1.778-1.776C5.06,24.56,4.689,22.875,6.224,22.739z"/>
</svg>
