<?xml version="1.0" encoding="utf-8"?>
<!-- Generator: Adobe Illustrator 16.0.3, SVG Export Plug-In . SVG Version: 6.00 Build 0)  -->
<!DOCTYPE svg PUBLIC "-//W3C//DTD SVG 1.1//EN" "http://www.w3.org/Graphics/SVG/1.1/DTD/svg11.dtd">
<svg version="1.1" id="Layer_1" xmlns="http://www.w3.org/2000/svg" xmlns:xlink="http://www.w3.org/1999/xlink" x="0px" y="0px"
	 width="32px" height="32px" viewBox="0 0 32 32" enable-background="new 0 0 32 32" xml:space="preserve">
<path fill="#407CCA" d="M26.128,16.941c-0.443,0-0.852,0.245-1.06,0.638l-1.728,3.255l-2.128-6.235
	c-0.163-0.471-0.598-0.793-1.094-0.811c-0.513-0.015-0.955,0.275-1.148,0.734l-1.46,3.468L15.206,4.188
	C15.1,3.608,14.556,3.167,14,3.202c-0.591,0.014-1.083,0.401-1.163,0.985l-2.034,16.018l-1.65-8.597
	c-0.097-0.509-0.511-0.897-1.025-0.963c-0.504-0.067-1.012,0.203-1.236,0.671l-2.698,5.626H0v2.4h4.948
	c0.461,0,0.883-0.265,1.083-0.682l1.45-3.025l2.34,12.193C9.931,28.394,10.425,28.8,11,28.8c0.009,0,0.022,0,0.031,0
	c0.587-0.016,1.078-0.453,1.158-1.037l2.003-15.738l1.68,10.362c0.094,0.521,0.521,0.922,1.048,0.979
	c0.533,0.053,1.03-0.238,1.238-0.727l1.801-4.28l2.007,5.875c0.156,0.452,0.565,0.769,1.04,0.807
	c0.479,0.028,0.932-0.21,1.156-0.633l2.688-5.065H32v-2.4H26.128z"/>
</svg>
