<?xml version="1.0" encoding="utf-8"?>
<!-- Generator: Adobe Illustrator 16.0.3, SVG Export Plug-In . SVG Version: 6.00 Build 0)  -->
<!DOCTYPE svg PUBLIC "-//W3C//DTD SVG 1.1//EN" "http://www.w3.org/Graphics/SVG/1.1/DTD/svg11.dtd">
<svg version="1.1" id="Layer_1" xmlns="http://www.w3.org/2000/svg" xmlns:xlink="http://www.w3.org/1999/xlink" x="0px" y="0px"
	 width="32px" height="32px" viewBox="0 0 32 32" enable-background="new 0 0 32 32" xml:space="preserve">
<path fill="#407CCA" d="M32,30H0v-3.198c0.509-0.104,2.086-1.042,3.2-3.202c1.461-2.834,3.2-0.8,3.2-0.8
	c-1.383,0.122-1.048,1.64-0.8,2.4c0.297,0.912,1.094,1.478,1.6,1.602h0.798C8.513,26.697,9.288,25.76,10.4,23.6
	c1.462-2.834,3.199-0.8,3.199-0.8c-1.38,0.122-1.05,1.64-0.799,2.4c0.295,0.912,1.092,1.478,1.6,1.602h0.8
	c0.512-0.104,1.287-1.042,2.399-3.202c1.463-2.834,3.2-0.8,3.2-0.8c-1.38,0.122-1.05,1.64-0.8,2.4
	c0.297,0.912,1.092,1.478,1.6,1.602H22.4c0.509-0.104,2.094-1.042,3.199-3.202c1.468-2.834,3.2-0.8,3.2-0.8
	c-1.378,0.122-1.05,1.64-0.8,2.4c0.297,0.912,1.092,1.478,1.602,1.602H32V30z M27.2,17.2v-4.685V8.4L28,9.2l0.8-0.8L21.201,2
	l-7.603,6.4L14.4,9.2l0.8-0.8v8.8h-0.8c-0.508-0.122-1.305-0.688-1.6-1.6c-0.251-0.763-0.581-2.278,0.799-2.4
	c0,0-1.736-2.035-3.199,0.8c-1.112,2.159-1.887,3.097-2.401,3.2H7.2c-0.506-0.122-1.303-0.688-1.6-1.6
	c-0.249-0.763-0.583-2.278,0.8-2.4c0,0-1.739-2.035-3.2,0.8c-1.114,2.159-2.691,3.097-3.2,3.2V22c0.509-0.104,2.086-1.039,3.2-3.2
	C4.661,15.966,6.4,18,6.4,18c-1.383,0.122-1.048,1.638-0.8,2.4c0.297,0.912,1.094,1.479,1.6,1.6h0.798
	c0.514-0.104,1.289-1.039,2.401-3.2c1.462-2.834,3.199-0.8,3.199-0.8c-1.38,0.122-1.05,1.638-0.799,2.4
	c0.295,0.912,1.092,1.479,1.6,1.6h0.8c0.512-0.104,1.287-1.039,2.399-3.2c1.463-2.834,3.2-0.8,3.2-0.8
	c-1.38,0.122-1.05,1.638-0.8,2.4c0.297,0.912,1.092,1.479,1.6,1.6H22.4c0.509-0.104,2.094-1.039,3.199-3.2
	c1.468-2.834,3.2-0.8,3.2-0.8c-1.378,0.122-1.05,1.638-0.8,2.4c0.297,0.912,1.092,1.479,1.602,1.6H32v-4.8H27.2z"/>
</svg>
