<?xml version="1.0" encoding="utf-8"?>
<!-- Generator: Adobe Illustrator 16.0.3, SVG Export Plug-In . SVG Version: 6.00 Build 0)  -->
<!DOCTYPE svg PUBLIC "-//W3C//DTD SVG 1.1//EN" "http://www.w3.org/Graphics/SVG/1.1/DTD/svg11.dtd">
<svg version="1.1" id="Layer_1" xmlns="http://www.w3.org/2000/svg" xmlns:xlink="http://www.w3.org/1999/xlink" x="0px" y="0px"
	 width="32px" height="32px" viewBox="0 0 32 32" enable-background="new 0 0 32 32" xml:space="preserve">
<path fill="#407CCA" d="M15.053,12.869c0.142,0.412,0.47,0.468,0,0.624l-1.247,0.624l-1.247-1.247
	c-0.166-0.487,0.039-0.801,0.623-1.248l1.249,0.623C14.583,12.435,15.005,12.724,15.053,12.869z M13.806,7.876
	c-0.376-0.184-0.827-0.14-1.247,0C12.339,7.948,12.19,8.278,11.935,8.5v1.873l1.872-0.624c0.516-0.585,0.747-0.883,0.625-1.249
	C14.333,8.209,14.186,8.065,13.806,7.876z M18.939,10.39l-0.141-0.017c-0.072,0.024-0.606-0.423-1.247-0.624
	c-0.31-0.106-0.313,0.122-0.625,0c-0.442,0.15-0.516,0.52-0.625,1.248c-0.106,0.731-0.244,1.763,0,2.496
	c0.067,0.198,0.38,0.376,0.625,0.624l0.625,0.624h0.622c0.813-0.354,1.123-1.206,1.248-1.248c0.292-0.176,0.521-0.697,0.625-1.249
	c0.099-0.554,0.17-0.732,0-1.248C19.85,10.412,19.331,10.26,18.939,10.39z M18.799,15.988v1.247
	c0.313,0.278,0.639,0.534,1.248,0.625l1.247-0.625l-0.624-1.872L18.799,15.988z M26.286,15.988
	c-0.833-0.923-1.276-1.033-2.497-0.625h-0.623c-0.578,0.512-0.846,0.908-1.247,1.872c-0.393,0.922-0.8,1.969-0.625,2.497
	c0.016,0.042,0.511,0.586,1.248,1.246c0.78,0.645,1.151,1.035,1.247,1.25l2.497-0.625c0.269-0.087,1.311-2.309,1.247-2.495
	C27.033,17.604,26.795,16.563,26.286,15.988z M24.435,27.966c-0.007-0.041-0.042-0.122-0.021-0.122
	c-0.467-0.666-2.469-2.243-2.495-2.496c-0.03-0.271-0.588-1.24-1.249-1.872c-0.282-0.446-0.309-0.79-0.623-1.247
	c-0.314-0.454-0.898-1.387-1.248-1.873l-2.354-1.479c-0.342-0.183-2.308-0.117-5.045-3.011l-0.09-1.75
	c-0.367-0.449-1.131-1.523-1.246-1.872c-0.722-2.15-0.244-3.905-0.625-6.862L8.052,4.451L6.391,4.133
	C5.83,3.897,4.466,4.047,4.466,4.047V28H24.44h0.049L24.435,27.966z"/>
</svg>
