<?xml version="1.0" encoding="utf-8"?>
<!-- Generator: Adobe Illustrator 16.0.3, SVG Export Plug-In . SVG Version: 6.00 Build 0)  -->
<!DOCTYPE svg PUBLIC "-//W3C//DTD SVG 1.1//EN" "http://www.w3.org/Graphics/SVG/1.1/DTD/svg11.dtd">
<svg version="1.1" id="Layer_1" xmlns="http://www.w3.org/2000/svg" xmlns:xlink="http://www.w3.org/1999/xlink" x="0px" y="0px"
	 width="32px" height="32px" viewBox="0 0 32 32" enable-background="new 0 0 32 32" xml:space="preserve">
<path fill="#407CCA" d="M4.753,6.251C6.185,5.148,10.987,4,16.005,4c5.523,0,10.321,1.022,11.248,2.251
	C26.455,7.65,19.128,8.5,16.005,8.5C12.878,8.5,5.428,7.87,4.753,6.251z M27.253,6.999c-1.769,1.389-6.321,2.169-11.248,2.251
	C10.453,9.159,6.023,8.772,4.753,6.999c-0.011,0.047-0.398,4.351,6.75,6.751c4.955,1.663,2.25,4.5,2.25,4.5s-5.372,5.1-0.75,6.75
	c2.896,1.031,2.621,2.428,2.252,3c2.806-3.534-5.192-4.159,3.748-8.25c4.589-2.1,5.164-3.322,3.75-5.25
	C20.901,11.969,26.862,10.953,27.253,6.999z"/>
</svg>
