<?xml version="1.0" encoding="utf-8"?>
<!-- Generator: Adobe Illustrator 16.0.3, SVG Export Plug-In . SVG Version: 6.00 Build 0)  -->
<!DOCTYPE svg PUBLIC "-//W3C//DTD SVG 1.1//EN" "http://www.w3.org/Graphics/SVG/1.1/DTD/svg11.dtd">
<svg version="1.1" id="Layer_1" xmlns="http://www.w3.org/2000/svg" xmlns:xlink="http://www.w3.org/1999/xlink" x="0px" y="0px"
	 width="32px" height="32px" viewBox="0 0 32 32" enable-background="new 0 0 32 32" xml:space="preserve">
<path fill="#407CCA" d="M7.333,21.313c-1.039,0.604-1.766,1.318-1.609,1.594c0.151,0.273,1.128,0,2.168-0.594
	c1.039-0.606,1.9-0.287,1.916,0.697c0.013,0.984,0.281,1.649,0.584,1.473c0.311-0.173,0.556-1.129,0.548-2.133
	c-0.009-1,1.002-2.402,2.246-3.121c1.249-0.72,2.262-0.127,2.262,1.32c0,1.445-0.711,3.027-1.583,3.516
	c-0.871,0.488-1.578,1.188-1.572,1.551c0.008,0.361,0.723,0.263,1.586-0.222c0.864-0.484,1.568,0.091,1.568,1.275
	c0,1.19,0.25,2.159,0.555,2.159c0.303,0,0.549-0.972,0.549-2.169c0-1.192,0.709-1.761,1.571-1.266
	c0.864,0.494,1.574,0.594,1.574,0.222c0-0.375-0.71-1.078-1.574-1.563c-0.862-0.48-1.571-2.059-1.571-3.504
	c0-1.447,1.019-2.04,2.263-1.32c1.243,0.719,2.259,2.121,2.254,3.121c-0.006,1.004,0.239,1.96,0.544,2.133
	c0.302,0.177,0.564-0.488,0.58-1.473c0.019-0.984,0.878-1.304,1.917-0.697c1.037,0.594,2.014,0.867,2.167,0.594
	c0.156-0.275-0.565-0.99-1.607-1.594c-1.041-0.6-1.185-1.506-0.322-2.01c0.864-0.506,1.31-1.069,0.987-1.254
	c-0.321-0.184-1.285,0.081-2.141,0.59c-0.86,0.505-2.615,0.313-3.902-0.426c-1.286-0.746-1.286-1.964,0-2.714
	c1.287-0.746,3.042-0.944,3.902-0.442c0.855,0.509,1.819,0.775,2.141,0.59c0.322-0.181-0.123-0.741-0.987-1.25
	c-0.862-0.504-0.719-1.41,0.322-2.011c1.042-0.599,1.764-1.314,1.607-1.585c-0.153-0.276-1.13-0.005-2.167,0.596
	c-1.039,0.601-1.898,0.275-1.917-0.717c-0.016-0.994-0.278-1.661-0.58-1.48c-0.305,0.183-0.55,1.142-0.544,2.139
	c0.005,0.994-1.011,2.396-2.254,3.119c-1.244,0.724-2.263,0.127-2.263-1.323c0-1.448,0.709-3.025,1.571-3.505
	c0.864-0.48,1.574-1.177,1.574-1.55c0-0.376-0.71-0.271-1.574,0.228c-0.862,0.494-1.571-0.081-1.571-1.287
	c0-1.207-0.246-2.191-0.549-2.191c-0.305,0-0.555,0.977-0.555,2.173c0,1.193-0.705,1.779-1.568,1.298
	c-0.863-0.48-1.578-0.582-1.586-0.225c-0.006,0.355,0.701,1.049,1.572,1.54c0.872,0.483,1.583,2.072,1.583,3.52
	c0,1.451-1.014,2.047-2.262,1.323c-1.244-0.723-2.255-2.125-2.246-3.119c0.008-0.998-0.237-1.956-0.548-2.139
	c-0.303-0.18-0.572,0.487-0.584,1.48c-0.016,0.992-0.876,1.317-1.916,0.717c-1.041-0.601-2.017-0.872-2.168-0.596
	c-0.156,0.271,0.57,0.987,1.609,1.585c1.042,0.601,1.193,1.507,0.334,2.011c-0.856,0.509-1.293,1.069-0.977,1.25
	c0.319,0.185,1.277-0.081,2.127-0.59c0.844-0.501,2.594-0.303,3.887,0.442c1.292,0.75,1.292,1.968,0,2.714
	c-1.293,0.739-3.043,0.931-3.887,0.426c-0.85-0.509-1.808-0.773-2.127-0.59c-0.317,0.185,0.121,0.748,0.977,1.254
	C8.526,19.807,8.375,20.713,7.333,21.313z"/>
</svg>
