<?xml version="1.0" encoding="utf-8"?>
<!-- Generator: Adobe Illustrator 16.0.3, SVG Export Plug-In . SVG Version: 6.00 Build 0)  -->
<!DOCTYPE svg PUBLIC "-//W3C//DTD SVG 1.1//EN" "http://www.w3.org/Graphics/SVG/1.1/DTD/svg11.dtd">
<svg version="1.1" id="Layer_1" xmlns="http://www.w3.org/2000/svg" xmlns:xlink="http://www.w3.org/1999/xlink" x="0px" y="0px"
	 width="32px" height="32px" viewBox="0 0 32 32" enable-background="new 0 0 32 32" xml:space="preserve">
<path fill="#407CCA" d="M12.692,20.171l-0.174-0.101V6.435c0-0.959-0.778-1.739-1.737-1.739c-0.961,0-1.742,0.779-1.742,1.739V20.07
	l-0.172,0.101c-1.181,0.687-1.916,1.953-1.916,3.308c0,2.109,1.719,3.824,3.828,3.824c2.111,0,3.83-1.715,3.83-3.824
	C14.609,22.124,13.874,20.855,12.692,20.171z M10.78,25.913c-1.347,0-2.436-1.093-2.436-2.437c0-0.971,0.572-1.802,1.392-2.193
	v-5.809h2.089v5.809c0.82,0.393,1.392,1.224,1.392,2.193C13.217,24.82,12.126,25.913,10.78,25.913z M25.6,0H6.4C2.88,0,0,2.88,0,6.4
	v19.202C0,29.119,2.88,32,6.4,32h19.2c3.521,0,6.4-2.881,6.4-6.398V6.4C32,2.88,29.12,0,25.6,0z M10.78,28
	c-2.494,0-4.523-2.029-4.523-4.521c0-1.533,0.797-2.973,2.087-3.803V6.427C8.35,5.087,9.439,4,10.781,4
	c1.339,0,2.43,1.087,2.436,2.427c0,0.003,0,0.007,0,0.008v13.241c1.289,0.828,2.086,2.27,2.086,3.803
	C15.303,25.971,13.275,28,10.78,28z M25.744,11.646h-9.047v-1.392h9.047V11.646z"/>
</svg>
