<?xml version="1.0" encoding="utf-8"?>
<!-- Generator: Adobe Illustrator 16.0.3, SVG Export Plug-In . SVG Version: 6.00 Build 0)  -->
<!DOCTYPE svg PUBLIC "-//W3C//DTD SVG 1.1//EN" "http://www.w3.org/Graphics/SVG/1.1/DTD/svg11.dtd">
<svg version="1.1" id="Layer_1" xmlns="http://www.w3.org/2000/svg" xmlns:xlink="http://www.w3.org/1999/xlink" x="0px" y="0px"
	 width="32px" height="32px" viewBox="0 0 32 32" enable-background="new 0 0 32 32" xml:space="preserve">
<path fill="#407CCA" d="M25.6,0H6.4C2.88,0,0,2.88,0,6.4v19.2C0,29.12,2.88,32,6.4,32h19.2c3.521,0,6.4-2.88,6.4-6.4V6.4
	C32,2.88,29.12,0,25.6,0z M12.57,4.031c1.231-0.203,2.397,0.633,2.597,1.866c0.2,1.233-0.631,2.395-1.862,2.598
	c-1.234,0.202-2.4-0.633-2.6-1.864C10.501,5.397,11.336,4.233,12.57,4.031z M14.151,18.604l3.513,7.631
	c0.182,0.391,0.388,0.833,0.078,1.313C17.561,27.828,17.252,28,16.914,28c-0.591,0-0.859-0.447-1.072-0.808l-4.344-7.3l-1.175,2.391
	c-0.271,0.559-0.822,1.352-1.244,1.806l-2.369,2.555c-0.306,0.331-0.55,0.593-1.003,0.593c-0.378,0-0.725-0.218-0.888-0.559
	c-0.278-0.576,0.06-0.993,0.356-1.362l2.337-2.896c0.253-0.312,0.578-0.947,0.69-1.33l0.866-3.032c0.125-0.445,0.272-1.239,0.31-1.7
	l0.384-4.655c-0.478,0.158-0.984,0.445-1.516,0.862c-1.725,1.472-2.841,3.261-2.853,3.28c-0.063,0.1-0.122,0.195-0.182,0.283
	c0,0.003,0,0.006-0.003,0.008c-0.212,0.308-0.431,0.509-0.859,0.509c-0.353,0-0.681-0.19-0.856-0.498
	c-0.222-0.389-0.134-0.697,0.044-1.033v-0.001c0.003-0.003,0.006-0.006,0.009-0.011c0.047-0.091,0.106-0.186,0.169-0.285
	c0.053-0.094,1.381-2.271,3.288-3.773c1.606-1.364,3.237-2.128,4.844-2.267c1.881-0.164,2.737,1.617,3.287,2.771
	c0.106,0.223,0.209,0.433,0.31,0.619l0.894,1.62c0.438,0.788,0.869,1.575,1.31,2.361l0.506,0.919
	c0.257,0.465,0.098,1.051-0.362,1.321c-0.456,0.269-1.047,0.124-1.331-0.326l-2-3.197l-0.462,2.507
	C13.939,17.693,14.014,18.305,14.151,18.604z M23.404,24.37v-1.563h-5.262v-2.914h5.262V18.33l5.231,3.02L23.404,24.37z"/>
</svg>
