<?xml version="1.0" encoding="utf-8"?>
<!-- Generator: Adobe Illustrator 16.0.3, SVG Export Plug-In . SVG Version: 6.00 Build 0)  -->
<!DOCTYPE svg PUBLIC "-//W3C//DTD SVG 1.1//EN" "http://www.w3.org/Graphics/SVG/1.1/DTD/svg11.dtd">
<svg version="1.1" id="Layer_1" xmlns="http://www.w3.org/2000/svg" xmlns:xlink="http://www.w3.org/1999/xlink" x="0px" y="0px"
	 width="32px" height="32px" viewBox="0 0 32 32" enable-background="new 0 0 32 32" xml:space="preserve">
<path fill="#407CCA" d="M16.388,9.439c-0.128-0.007-0.256-0.02-0.386-0.02c-1.156,0-2.239,0.299-3.183,0.822
	C14.505,4.501,18.711,4,18.711,4S9.42,4.774,9.42,15.612c0.006,0,0.011,0,0.019,0C9.431,15.741,9.42,15.869,9.42,16
	c0,1.154,0.298,2.238,0.82,3.182C4.501,17.494,4,13.29,4,13.29s0.773,9.292,11.614,9.292c0-0.01,0-0.014,0-0.021
	c0.128,0.008,0.256,0.021,0.387,0.021c1.153,0,2.238-0.3,3.18-0.822C17.495,27.5,13.291,28,13.291,28s9.291-0.775,9.291-11.612
	c-0.008,0-0.013,0-0.021,0c0.008-0.13,0.021-0.256,0.021-0.388c0-1.155-0.298-2.238-0.821-3.181C27.5,14.505,28,18.71,28,18.71
	s-0.773-9.291-11.612-9.291C16.388,9.427,16.388,9.432,16.388,9.439z"/>
</svg>
