<?xml version="1.0" encoding="utf-8"?>
<!-- Generator: Adobe Illustrator 16.0.3, SVG Export Plug-In . SVG Version: 6.00 Build 0)  -->
<!DOCTYPE svg PUBLIC "-//W3C//DTD SVG 1.1//EN" "http://www.w3.org/Graphics/SVG/1.1/DTD/svg11.dtd">
<svg version="1.1" id="Layer_1" xmlns="http://www.w3.org/2000/svg" xmlns:xlink="http://www.w3.org/1999/xlink" x="0px" y="0px"
	 width="32px" height="32px" viewBox="0 0 32 32" enable-background="new 0 0 32 32" xml:space="preserve">
<path fill="#407CCA" d="M22.084,25.896v-1.172H5.572v-4.8h16.512v-1.209l4.344,3.591L22.084,25.896z M5.572,15.659l1.641,0.416
	h2.017c0-0.491,0.164-0.938,0.438-1.303H5.572V15.659z M24.398,11.587L23.24,8.109V7.241h-3.631v7.531h-6.475
	c0.275,0.366,0.439,0.813,0.439,1.303h6.771c0-1.2,0.974-2.172,2.174-2.172c0.844,0,1.573,0.484,1.933,1.188
	c0.128,0.25,0.211,0.534,0.229,0.831c0.003,0.05,0.011,0.1,0.011,0.153h1.737v-3.619L24.398,11.587z M20.635,11.587V8.978h2.027
	l0.867,2.609H20.635z M11.403,14.484c-0.881,0-1.594,0.712-1.594,1.591c0,0.881,0.712,1.594,1.594,1.594
	c0.878,0,1.59-0.713,1.59-1.594C12.994,15.197,12.281,14.484,11.403,14.484z M11.403,16.943c-0.481,0-0.872-0.391-0.872-0.868
	c0-0.479,0.391-0.869,0.872-0.869c0.477,0,0.869,0.391,0.869,0.869C12.272,16.553,11.88,16.943,11.403,16.943z M22.518,14.484
	c-0.882,0-1.594,0.712-1.594,1.591c0,0.881,0.712,1.594,1.594,1.594c0.878,0,1.594-0.713,1.594-1.594
	C24.111,15.197,23.396,14.484,22.518,14.484z M22.518,16.943c-0.48,0-0.869-0.391-0.869-0.868c0-0.479,0.389-0.869,0.869-0.869
	c0.479,0,0.868,0.391,0.868,0.869C23.386,16.553,22.997,16.943,22.518,16.943z M18.862,14.275H5.572V6.106h13.291V14.275z"/>
</svg>
