<?xml version="1.0" encoding="utf-8"?>
<!-- Generator: Adobe Illustrator 16.0.3, SVG Export Plug-In . SVG Version: 6.00 Build 0)  -->
<!DOCTYPE svg PUBLIC "-//W3C//DTD SVG 1.1//EN" "http://www.w3.org/Graphics/SVG/1.1/DTD/svg11.dtd">
<svg version="1.1" id="Layer_1" xmlns="http://www.w3.org/2000/svg" xmlns:xlink="http://www.w3.org/1999/xlink" x="0px" y="0px"
	 width="32px" height="32px" viewBox="0 0 32 32" enable-background="new 0 0 32 32" xml:space="preserve">
<path fill="#407CCA" d="M15.056,9.935l3.251,3.253l-9.969,9.969c-1.401-2.461-0.212-5.269,1.604-7.745l-1.147-0.194L6.531,17.57
	l-1.966,0.268c-0.161,0.023-0.314-0.036-0.42-0.141c-0.075-0.075-0.127-0.174-0.141-0.286c-0.039-0.273,0.153-0.523,0.425-0.562
	l1.625-0.222l2.698-2.789l2.672-0.25c0.3-0.337,0.6-0.664,0.902-0.977l-1.078-1.384l-1.978,1.317l-1.994,0.222
	c-0.154,0.017-0.303-0.041-0.406-0.144c-0.078-0.078-0.129-0.181-0.144-0.297c-0.03-0.275,0.167-0.521,0.442-0.552l1.864-0.208
	l2.358-1.661l1.892,1.734c0.153-0.151,0.302-0.294,0.449-0.435l0.328-2.314l2.742-2.742l0.412-1.766
	c0.062-0.269,0.331-0.436,0.599-0.372c0.269,0.063,0.435,0.331,0.372,0.598l-0.476,2.044l-2.47,2.469L15.056,9.935z M20.222,24.831
	l0.21-1.865l1.66-2.358l-1.735-1.892c0.153-0.153,0.294-0.302,0.436-0.448l2.314-0.328l2.742-2.744l1.766-0.411
	c0.267-0.063,0.435-0.331,0.372-0.598c-0.063-0.269-0.332-0.435-0.601-0.372l-2.042,0.475l-2.469,2.471l-0.813,0.183l-3.252-3.252
	l-9.789,9.789c2.43,1.385,5.155,0.289,7.561-1.442l0.196,1.166l-2.351,2.264l-0.267,1.965c-0.023,0.162,0.036,0.315,0.141,0.422
	c0.075,0.074,0.173,0.125,0.286,0.141c0.272,0.037,0.523-0.153,0.561-0.427l0.22-1.624l2.791-2.698l0.25-2.677
	c0.338-0.3,0.663-0.598,0.976-0.896l1.386,1.078l-1.317,1.977l-0.222,1.994c-0.018,0.156,0.039,0.305,0.144,0.407
	c0.078,0.078,0.18,0.13,0.295,0.143C19.947,25.302,20.192,25.104,20.222,24.831z M15.62,9.448l3.255,3.256l1.736-4.7
	C18.986,7.677,17.127,8.177,15.62,9.448z M22.842,9.156C22.4,8.712,21.872,8.4,21.302,8.19l-1.466,3.972l3.972-1.466
	C23.599,10.126,23.286,9.599,22.842,9.156z M23.994,11.388l-4.7,1.734l3.255,3.256C23.822,14.87,24.322,13.011,23.994,11.388z"/>
</svg>
