<?xml version="1.0" encoding="utf-8"?>
<!-- Generator: Adobe Illustrator 16.0.3, SVG Export Plug-In . SVG Version: 6.00 Build 0)  -->
<!DOCTYPE svg PUBLIC "-//W3C//DTD SVG 1.1//EN" "http://www.w3.org/Graphics/SVG/1.1/DTD/svg11.dtd">
<svg version="1.1" id="Layer_1" xmlns="http://www.w3.org/2000/svg" xmlns:xlink="http://www.w3.org/1999/xlink" x="0px" y="0px"
	 width="32px" height="32px" viewBox="0 0 32 32" enable-background="new 0 0 32 32" xml:space="preserve">
<path fill="#407CCA" d="M25.6,0H6.4C2.88,0,0,2.88,0,6.4v19.201C0,29.119,2.88,32,6.4,32h19.2c3.521,0,6.4-2.881,6.4-6.399V6.4
	C32,2.88,29.12,0,25.6,0z M24.347,13.567c0.864,0.509,1.31,1.068,0.987,1.25c-0.321,0.185-1.285-0.081-2.141-0.59
	c-0.86-0.502-2.615-0.303-3.902,0.442c-1.286,0.751-1.286,1.969,0,2.714c1.287,0.739,3.042,0.932,3.902,0.427
	c0.855-0.51,1.819-0.774,2.141-0.59c0.322,0.184-0.123,0.747-0.987,1.254c-0.862,0.502-0.719,1.41,0.322,2.009
	c1.042,0.604,1.764,1.32,1.607,1.596c-0.153,0.271-1.13,0-2.167-0.597c-1.039-0.604-1.898-0.285-1.917,0.698
	c-0.016,0.985-0.278,1.649-0.58,1.474c-0.305-0.172-0.55-1.132-0.544-2.132c0.005-1.003-1.011-2.403-2.254-3.124
	c-1.244-0.719-2.263-0.126-2.263,1.321c0,1.443,0.709,3.024,1.571,3.506c0.864,0.483,1.574,1.188,1.574,1.56
	c0,0.373-0.71,0.275-1.574-0.219c-0.862-0.497-1.571,0.072-1.571,1.264c0,1.195-0.246,2.167-0.549,2.167
	c-0.305,0-0.555-0.966-0.555-2.155c0-1.187-0.705-1.762-1.568-1.275c-0.863,0.484-1.578,0.581-1.586,0.219
	c-0.006-0.362,0.701-1.063,1.572-1.55c0.872-0.487,1.583-2.072,1.583-3.516c0-1.447-1.014-2.04-2.262-1.321
	c-1.244,0.721-2.255,2.121-2.246,3.124c0.008,1-0.237,1.96-0.548,2.132c-0.303,0.176-0.572-0.488-0.584-1.474
	c-0.016-0.983-0.876-1.302-1.916-0.698c-1.041,0.597-2.017,0.868-2.168,0.597c-0.156-0.275,0.57-0.991,1.609-1.596
	c1.042-0.599,1.193-1.507,0.334-2.009c-0.856-0.507-1.293-1.07-0.977-1.254c0.319-0.185,1.277,0.08,2.127,0.59
	c0.844,0.505,2.594,0.313,3.887-0.427c1.292-0.745,1.292-1.963,0-2.714c-1.293-0.745-3.043-0.944-3.887-0.442
	c-0.85,0.509-1.808,0.775-2.127,0.59c-0.317-0.182,0.121-0.741,0.977-1.25c0.859-0.504,0.708-1.41-0.334-2.011
	c-1.039-0.598-1.766-1.314-1.609-1.585c0.151-0.277,1.128-0.005,2.168,0.595c1.039,0.601,1.9,0.275,1.916-0.716
	c0.013-0.994,0.281-1.661,0.584-1.48c0.311,0.183,0.556,1.141,0.548,2.139c-0.009,0.994,1.002,2.396,2.246,3.119
	c1.249,0.723,2.262,0.127,2.262-1.324c0-1.447-0.711-3.036-1.583-3.52c-0.871-0.49-1.578-1.184-1.572-1.54
	c0.008-0.358,0.723-0.255,1.586,0.224c0.864,0.481,1.568-0.104,1.568-1.298c0-1.196,0.25-2.172,0.555-2.172
	c0.303,0,0.549,0.984,0.549,2.191c0,1.206,0.709,1.78,1.571,1.287c0.864-0.499,1.574-0.603,1.574-0.228
	c0,0.373-0.71,1.07-1.574,1.55c-0.862,0.479-1.571,2.057-1.571,3.504c0,1.451,1.019,2.047,2.263,1.324
	c1.243-0.723,2.259-2.125,2.254-3.119c-0.006-0.998,0.239-1.957,0.544-2.139c0.302-0.181,0.564,0.487,0.58,1.48
	c0.019,0.991,0.878,1.317,1.917,0.716c1.037-0.601,2.014-0.872,2.167-0.595c0.156,0.271-0.565,0.987-1.607,1.585
	C23.628,12.157,23.484,13.063,24.347,13.567z"/>
</svg>
