<?xml version="1.0" encoding="utf-8"?>
<!-- Generator: Adobe Illustrator 16.0.3, SVG Export Plug-In . SVG Version: 6.00 Build 0)  -->
<!DOCTYPE svg PUBLIC "-//W3C//DTD SVG 1.1//EN" "http://www.w3.org/Graphics/SVG/1.1/DTD/svg11.dtd">
<svg version="1.1" id="Layer_1" xmlns="http://www.w3.org/2000/svg" xmlns:xlink="http://www.w3.org/1999/xlink" x="0px" y="0px"
	 width="32px" height="32px" viewBox="0 0 32 32" enable-background="new 0 0 32 32" xml:space="preserve">
<path fill="#407CCA" d="M29.398,28c0,0-26.745,0-26.781,0c-0.038,0,0-23.995,0-23.995l2.394,0.603
	c-1.273,9.917,5.48,10.162,5.48,10.162c5.188,6.632,8.994,4.149,8.994,4.149C19.975,19.369,29.398,28,29.398,28z M20.178,9.968
	c-0.378,0.219-0.641,0.478-0.584,0.578c0.055,0.098,0.408,0,0.784-0.216c0.377-0.218,0.689-0.104,0.695,0.252
	c0.003,0.358,0.101,0.599,0.211,0.535c0.111-0.063,0.2-0.41,0.198-0.772c-0.003-0.362,0.364-0.87,0.814-1.13
	c0.45-0.261,0.818-0.046,0.818,0.477s-0.259,1.096-0.573,1.273c-0.317,0.177-0.571,0.431-0.57,0.561
	c0.003,0.131,0.261,0.095,0.575-0.08c0.313-0.176,0.568,0.033,0.568,0.462c0,0.43,0.09,0.781,0.199,0.781s0.199-0.353,0.199-0.785
	c0-0.432,0.257-0.638,0.57-0.458c0.312,0.179,0.567,0.215,0.567,0.08c0-0.134-0.256-0.39-0.567-0.565
	c-0.313-0.173-0.57-0.746-0.57-1.269s0.369-0.738,0.819-0.477c0.45,0.26,0.818,0.768,0.815,1.13
	c-0.002,0.362,0.086,0.708,0.197,0.772c0.109,0.064,0.204-0.177,0.212-0.535c0.005-0.355,0.315-0.47,0.692-0.252
	c0.375,0.216,0.729,0.314,0.786,0.216c0.055-0.1-0.208-0.359-0.585-0.578c-0.375-0.217-0.428-0.545-0.113-0.727
	c0.311-0.184,0.473-0.388,0.354-0.454C26.578,8.72,26.229,8.815,25.919,9c-0.313,0.183-0.947,0.113-1.413-0.155
	c-0.465-0.27-0.465-0.711,0-0.983c0.466-0.27,1.101-0.341,1.413-0.159c0.31,0.185,0.659,0.28,0.773,0.213
	c0.118-0.066-0.044-0.269-0.354-0.453c-0.314-0.182-0.262-0.51,0.113-0.728c0.377-0.217,0.64-0.477,0.585-0.574
	c-0.058-0.099-0.411-0.001-0.786,0.216c-0.377,0.217-0.688,0.099-0.692-0.259c-0.008-0.36-0.103-0.602-0.212-0.537
	c-0.111,0.066-0.199,0.413-0.197,0.774c0.003,0.36-0.365,0.868-0.815,1.129s-0.819,0.045-0.819-0.479c0-0.525,0.257-1.095,0.57-1.27
	c0.312-0.174,0.567-0.426,0.567-0.561c0-0.136-0.256-0.099-0.567,0.082c-0.313,0.18-0.57-0.029-0.57-0.466S23.424,4,23.314,4
	s-0.199,0.353-0.199,0.787c0,0.431-0.256,0.644-0.568,0.47c-0.314-0.174-0.572-0.211-0.575-0.082
	c-0.001,0.128,0.253,0.38,0.57,0.558c0.314,0.175,0.573,0.749,0.573,1.274c0,0.524-0.368,0.741-0.818,0.479s-0.817-0.77-0.814-1.129
	c0.002-0.361-0.087-0.708-0.198-0.774c-0.11-0.065-0.208,0.177-0.211,0.537c-0.006,0.358-0.318,0.476-0.695,0.259
	c-0.376-0.217-0.729-0.315-0.784-0.216c-0.057,0.098,0.206,0.357,0.584,0.574c0.377,0.217,0.43,0.545,0.121,0.728
	c-0.312,0.184-0.471,0.387-0.355,0.453c0.116,0.066,0.463-0.029,0.77-0.213c0.308-0.182,0.94-0.11,1.407,0.159
	c0.469,0.272,0.469,0.713,0,0.983c-0.467,0.268-1.1,0.337-1.407,0.155c-0.307-0.185-0.653-0.28-0.77-0.213
	c-0.115,0.066,0.044,0.271,0.355,0.454C20.607,9.423,20.555,9.751,20.178,9.968z M22.252,18.229v0.69h3.459v-3.458h-0.692v2.075
	l-8.302-6.917l-0.69,0.692l8.3,6.918H22.252z M11.875,14.771c1.128,0.981,2.523,2.986,6.227,3.459
	c0.862-1.134-1.229-3.436-2.075-4.151c-1.347-1.138-2.703-1.091-4.151-2.076c-1.052-0.712-1.425-1.767-2.077-2.766
	C9.378,8.587,8.962,7.704,8.416,7.16C8.148,6.895,6.361,6.1,6.341,5.776c0.131,1.967,0.107,4.613,1.384,6.226
	C8.711,13.252,10.722,13.772,11.875,14.771z"/>
</svg>
