<?xml version="1.0" encoding="utf-8"?>
<!-- Generator: Adobe Illustrator 16.0.3, SVG Export Plug-In . SVG Version: 6.00 Build 0)  -->
<!DOCTYPE svg PUBLIC "-//W3C//DTD SVG 1.1//EN" "http://www.w3.org/Graphics/SVG/1.1/DTD/svg11.dtd">
<svg version="1.1" id="Layer_1" xmlns="http://www.w3.org/2000/svg" xmlns:xlink="http://www.w3.org/1999/xlink" x="0px" y="0px"
	 width="32px" height="32px" viewBox="0 0 32 32" enable-background="new 0 0 32 32" xml:space="preserve">
<path fill="#407CCA" d="M15.167,5.897c0.2,1.233-0.631,2.395-1.862,2.598c-1.234,0.202-2.4-0.633-2.6-1.864
	c-0.203-1.234,0.631-2.398,1.866-2.6C13.802,3.828,14.967,4.664,15.167,5.897z M14.461,14.862l2,3.197
	c0.284,0.45,0.875,0.595,1.331,0.326c0.46-0.271,0.619-0.856,0.362-1.321l-0.506-0.919c-0.44-0.786-0.872-1.574-1.31-2.361
	l-0.894-1.62c-0.1-0.186-0.203-0.396-0.31-0.619c-0.55-1.153-1.406-2.935-3.287-2.771c-1.606,0.139-3.238,0.903-4.844,2.267
	c-1.906,1.502-3.234,3.68-3.288,3.773c-0.063,0.099-0.122,0.194-0.169,0.285c-0.003,0.004-0.006,0.008-0.009,0.011v0.001
	c-0.178,0.336-0.266,0.644-0.044,1.033c0.175,0.308,0.503,0.498,0.856,0.498c0.428,0,0.647-0.201,0.859-0.509l0,0
	c0.003-0.001,0.003-0.004,0.003-0.008c0.06-0.087,0.119-0.183,0.182-0.283c0.012-0.019,1.128-1.808,2.853-3.28
	c0.531-0.417,1.038-0.705,1.516-0.862L9.38,16.356c-0.038,0.461-0.185,1.255-0.31,1.7l-0.866,3.032
	c-0.112,0.383-0.438,1.019-0.69,1.33l-2.337,2.896c-0.297,0.369-0.635,0.786-0.356,1.362c0.163,0.341,0.509,0.559,0.888,0.559
	c0.453,0,0.697-0.262,1.003-0.593l2.369-2.555c0.422-0.454,0.972-1.247,1.244-1.806l1.175-2.391l4.344,7.3
	C16.055,27.553,16.323,28,16.914,28l0,0c0.338,0,0.646-0.172,0.828-0.453c0.31-0.479,0.104-0.922-0.078-1.313l-3.513-7.631
	c-0.137-0.299-0.212-0.91-0.153-1.234L14.461,14.862z M18.143,22.807h5.262v1.563l5.231-3.021l-5.231-3.02v1.563h-5.262V22.807z"/>
</svg>
