<?xml version="1.0" encoding="utf-8"?>
<!-- Generator: Adobe Illustrator 16.0.3, SVG Export Plug-In . SVG Version: 6.00 Build 0)  -->
<!DOCTYPE svg PUBLIC "-//W3C//DTD SVG 1.1//EN" "http://www.w3.org/Graphics/SVG/1.1/DTD/svg11.dtd">
<svg version="1.1" id="Layer_1" xmlns="http://www.w3.org/2000/svg" xmlns:xlink="http://www.w3.org/1999/xlink" x="0px" y="0px"
	 width="32px" height="32px" viewBox="0 0 32 32" enable-background="new 0 0 32 32" xml:space="preserve">
<path fill="#407CCA" d="M25.6,0H6.4C2.88,0,0,2.88,0,6.4v19.2C0,29.12,2.88,32,6.4,32h19.2c3.521,0,6.4-2.88,6.4-6.4V6.4
	C32,2.88,29.12,0,25.6,0z M18.951,4l4.305,1.109l-0.345,3.263h-3.96h-3.96l-0.345-3.263L18.951,4z M23.128,10.291
	c0,2.308-1.868,4.175-4.173,4.175h-0.004c-0.003,0-0.003,0-0.006,0c-2.302,0-4.172-1.867-4.172-4.175
	c0-0.447,0.089-0.872,0.217-1.273h3.96h3.96C23.042,9.419,23.128,9.844,23.128,10.291z M24.159,28l-0.595-6.139L23.373,28h-8.839
	c0,0-0.134-7.028-0.146-7.203l-7.349,6.778c-0.236,0.235-0.545,0.353-0.854,0.353c-0.308,0-0.616-0.117-0.852-0.353
	c-0.472-0.472-0.472-1.236,0-1.708c0,0,7.722-9.281,9.806-9.938c1.203-0.38,2.001-0.486,3.417-0.486h0.395h0.406
	c3.893,0,5.48,1.273,6.505,3.366c0.302,0.614,0.792,5.362,1.158,9.19H24.159z M21.722,16.009c0.664,0.134,1.214,0.336,1.683,0.587
	L17.06,27.943h-2.01L21.722,16.009z"/>
</svg>
