<?xml version="1.0" encoding="utf-8"?>
<!-- Generator: Adobe Illustrator 16.0.3, SVG Export Plug-In . SVG Version: 6.00 Build 0)  -->
<!DOCTYPE svg PUBLIC "-//W3C//DTD SVG 1.1//EN" "http://www.w3.org/Graphics/SVG/1.1/DTD/svg11.dtd">
<svg version="1.1" id="Layer_1" xmlns="http://www.w3.org/2000/svg" xmlns:xlink="http://www.w3.org/1999/xlink" x="0px" y="0px"
	 width="32px" height="32px" viewBox="0 0 32 32" enable-background="new 0 0 32 32" xml:space="preserve">
<path fill="#407CCA" d="M12.499,8.25c0,2.352-1.9,4.25-4.247,4.25C5.905,12.5,4,10.602,4,8.25c0-2.344,1.905-4.249,4.251-4.249
	C10.599,4.001,12.499,5.906,12.499,8.25z M8.251,19.5C5.905,19.5,4,21.401,4,23.748c0,2.348,1.905,4.25,4.251,4.25
	c2.347,0,4.247-1.902,4.247-4.25C12.499,21.401,10.599,19.5,8.251,19.5z M23.747,19.5c-2.347,0-4.249,1.901-4.249,4.248
	c0,2.348,1.902,4.25,4.249,4.25c2.345,0,4.253-1.902,4.253-4.25C28,21.401,26.092,19.5,23.747,19.5z M23.747,4.001
	c-2.347,0-4.249,1.905-4.249,4.249c0,2.352,1.902,4.25,4.249,4.25C26.092,12.5,28,10.602,28,8.25
	C28,5.906,26.092,4.001,23.747,4.001z M15.999,11.75c-2.349,0-4.25,1.903-4.25,4.251c0,2.347,1.901,4.25,4.25,4.25
	c2.348,0,4.25-1.903,4.25-4.25C20.248,13.653,18.347,11.75,15.999,11.75z"/>
</svg>
