<?xml version="1.0" encoding="utf-8"?>
<!-- Generator: Adobe Illustrator 16.0.3, SVG Export Plug-In . SVG Version: 6.00 Build 0)  -->
<!DOCTYPE svg PUBLIC "-//W3C//DTD SVG 1.1//EN" "http://www.w3.org/Graphics/SVG/1.1/DTD/svg11.dtd">
<svg version="1.1" id="Layer_1" xmlns="http://www.w3.org/2000/svg" xmlns:xlink="http://www.w3.org/1999/xlink" x="0px" y="0px"
	 width="32px" height="32px" viewBox="0 0 32 32" enable-background="new 0 0 32 32" xml:space="preserve">
<path fill="#407CCA" d="M25.6,0H6.4C2.88,0,0,2.88,0,6.4v19.2C0,29.12,2.88,32,6.4,32h19.2c3.521,0,6.4-2.88,6.4-6.4V6.4
	C32,2.88,29.12,0,25.6,0z M12.968,25.769l-2.017-2.016L6.704,28L4,25.297l4.249-4.247l-2.017-2.016h6.736V25.769z M12.965,12.969
	H6.233l2.016-2.019L4,6.706L6.704,4l4.248,4.25l2.018-2.019L12.965,12.969z M16,18.935c-1.619,0-2.931-1.313-2.931-2.935
	c0-1.619,1.313-2.931,2.931-2.931c1.619,0,2.933,1.313,2.933,2.931C18.933,17.622,17.619,18.935,16,18.935z M25.299,28l-4.25-4.247
	l-2.016,2.016l0.003-6.734h6.732l-2.016,2.016L28,25.297L25.299,28z M23.752,10.95l2.019,2.019l-6.737-0.003V6.234l2.016,2.016
	L25.299,4L28,6.703L23.752,10.95z"/>
</svg>
