<?xml version="1.0" encoding="utf-8"?>
<!-- Generator: Adobe Illustrator 16.0.3, SVG Export Plug-In . SVG Version: 6.00 Build 0)  -->
<!DOCTYPE svg PUBLIC "-//W3C//DTD SVG 1.1//EN" "http://www.w3.org/Graphics/SVG/1.1/DTD/svg11.dtd">
<svg version="1.1" id="Layer_1" xmlns="http://www.w3.org/2000/svg" xmlns:xlink="http://www.w3.org/1999/xlink" x="0px" y="0px"
	 width="32px" height="32px" viewBox="0 0 32 32" enable-background="new 0 0 32 32" xml:space="preserve">
<path fill="#407CCA" d="M7.898,27.313l-0.326-3.279c0-0.302,0.384-0.035,0.87-0.035l0,0c0.481,0,0.87-0.267,0.87,0.035l0,0
	L9.04,27.231C9.04,27.93,7.898,27.646,7.898,27.313z M6.502,16.636c-2.389-1.08-2.195-2.779-2.195-2.779
	c-0.301,0.6,0.34,5.834,2.83,5.834C8.251,19.69,9.188,17.842,6.502,16.636z M6.502,12.938c-2.389-1.077-2.195-2.776-2.195-2.776
	c-0.301,0.598,0.34,5.834,2.83,5.834C8.251,15.995,9.188,14.147,6.502,12.938z M6.502,9.35C4.113,8.278,4.308,6.575,4.308,6.575
	c-0.301,0.6,0.34,5.831,2.83,5.831C8.251,12.406,9.188,10.563,6.502,9.35z M9.815,19.69c2.49,0,3.128-5.234,2.83-5.834
	c0,0,0.193,1.7-2.198,2.779C7.765,17.842,8.698,19.69,9.815,19.69z M6.502,20.424c-2.389-1.08-2.195-2.78-2.195-2.78
	c-0.301,0.601,0.34,5.835,2.83,5.835C8.251,23.479,9.188,21.63,6.502,20.424z M9.815,23.479c2.49,0,3.128-5.234,2.83-5.835
	c0,0,0.193,1.7-2.198,2.78C7.765,21.63,8.698,23.479,9.815,23.479z M9.815,15.995c2.49,0,3.128-5.236,2.83-5.834
	c0,0,0.193,1.7-2.198,2.776C7.765,14.147,8.698,15.995,9.815,15.995z M9.815,12.406c2.49,0,3.128-5.231,2.83-5.831
	c0,0,0.193,1.703-2.198,2.775C7.765,10.563,8.698,12.406,9.815,12.406z M8.649,9.63c2.641,0-0.146-5.631-0.146-5.631
	C8.168,4.528,6.009,9.63,8.649,9.63z M15.791,27.752l1.594-2.789l0,0c0.126-0.27-0.338-0.195-0.773-0.396l0,0
	c-0.441-0.205-0.678-0.609-0.804-0.336l-1.086,3.109C14.581,27.646,15.495,28.383,15.791,27.752z M17.951,17.072
	c-1.709-1.986-0.818-3.446-0.818-3.446c-0.525,0.417-2.147,5.436,0.107,6.485C18.252,20.581,19.88,19.3,17.951,17.072z
	 M19.511,13.716c-1.709-1.981-0.82-3.441-0.82-3.441c-0.526,0.416-2.151,5.433,0.106,6.485
	C19.811,17.229,21.436,15.95,19.511,13.716z M21.021,10.466c-1.714-1.979-0.82-3.444-0.82-3.444
	c-0.524,0.417-2.148,5.433,0.109,6.484C21.322,13.974,22.948,12.697,21.021,10.466z M19.67,21.242
	c2.258,1.045,5.044-3.428,5.022-4.102c0,0-0.539,1.623-3.163,1.594C18.589,18.703,18.658,20.769,19.67,21.242z M16.358,20.506
	c-1.712-1.984-0.822-3.441-0.822-3.441c-0.525,0.415-2.148,5.433,0.109,6.478C16.659,24.013,18.283,22.734,16.358,20.506z
	 M18.075,24.674c2.256,1.05,5.042-3.429,5.023-4.099c0,0-0.541,1.623-3.163,1.594C16.994,22.138,17.064,24.205,18.075,24.674z
	 M21.229,17.888c2.257,1.048,5.041-3.432,5.022-4.1c0,0-0.541,1.622-3.163,1.594C20.146,15.35,20.217,17.42,21.229,17.888z
	 M22.74,14.631c2.258,1.051,5.039-3.425,5.021-4.097c0,0-0.542,1.628-3.161,1.594C21.658,12.097,21.729,14.164,22.74,14.631z
	 M22.852,11.622c2.394,1.112,2.24-5.169,2.24-5.169C24.564,6.797,20.458,10.509,22.852,11.622z"/>
</svg>
