<?xml version="1.0" encoding="utf-8"?>
<!-- Generator: Adobe Illustrator 16.0.3, SVG Export Plug-In . SVG Version: 6.00 Build 0)  -->
<!DOCTYPE svg PUBLIC "-//W3C//DTD SVG 1.1//EN" "http://www.w3.org/Graphics/SVG/1.1/DTD/svg11.dtd">
<svg version="1.1" id="Layer_1" xmlns="http://www.w3.org/2000/svg" xmlns:xlink="http://www.w3.org/1999/xlink" x="0px" y="0px"
	 width="32px" height="32px" viewBox="0 0 32 32" enable-background="new 0 0 32 32" xml:space="preserve">
<path fill="#407CCA" d="M26.94,16.541c0,0.3-0.242,0.543-0.544,0.543c-0.3,0-0.543-0.243-0.543-0.543
	c0-0.304,0.243-0.544,0.543-0.544C26.698,15.997,26.94,16.237,26.94,16.541z M32,6.4v19.2c0,3.521-2.88,6.4-6.4,6.4H6.4
	C2.88,32,0,29.12,0,25.6V6.4C0,2.88,2.88,0,6.4,0h19.2C29.12,0,32,2.88,32,6.4z M28.581,16.972c0.018-0.153-0.078-0.315-0.356-0.497
	c-0.258-0.166-0.523-0.328-0.781-0.491c-0.563-0.359-1.159-0.69-1.722-1.081c-1.646-1.141-3.597-1.55-5.548-1.813
	c-0.801-0.104-1.695-0.06-2.366-0.553c-0.519-0.384-1.423-1.703-2.413-2.275c-0.171-0.104-0.976-0.51-0.976-0.51
	s0.46,1.25,0.566,1.5c0.245,0.582-0.135,1.078-0.293,1.631c-0.104,0.366,0.752,0.285,0.796,0.625
	c0.063,0.506-1.46,0.681-2.319,0.853c-1.289,0.253-2.788,0.734-4.072,0.313c-1.516-0.487-2.596-1.453-3.684-2.547
	c0.506,2.369,1.914,3.731,1.976,4.019c0.066,0.319-0.162,0.384-0.367,0.59c-0.453,0.447-2.432,2.726-2.438,3.444
	c0.568-0.085,1.252-0.585,1.752-0.875c0.557-0.319,2.678-1.888,3.271-2.135c0.135-0.057,1.779-0.537,1.793-0.328
	c0.023,0.328-0.108,0.4-0.065,0.537c0.081,0.263,0.508,0.52,0.712,0.697c0.53,0.459,1.129,0.859,1.504,1.466
	c0.525,0.847,0.549,1.759,0.698,2.703c0.35-0.041,0.707-0.766,0.9-1.054c0.18-0.271,0.84-1.434,1.089-1.509
	c0.238-0.072,0.97,0.337,1.231,0.415c1.008,0.297,1.986,0.476,3.015,0.476c1.234,0.003,4.477,0.091,6.881-1.688
	c0.266-0.197,0.9-0.956,0.9-0.956s-0.133-0.203-0.372-0.278C28.209,17.443,28.553,17.225,28.581,16.972z"/>
</svg>
