<?xml version="1.0" encoding="utf-8"?>
<!-- Generator: Adobe Illustrator 16.0.3, SVG Export Plug-In . SVG Version: 6.00 Build 0)  -->
<!DOCTYPE svg PUBLIC "-//W3C//DTD SVG 1.1//EN" "http://www.w3.org/Graphics/SVG/1.1/DTD/svg11.dtd">
<svg version="1.1" id="Layer_1" xmlns="http://www.w3.org/2000/svg" xmlns:xlink="http://www.w3.org/1999/xlink" x="0px" y="0px"
	 width="32px" height="32px" viewBox="0 0 32 32" enable-background="new 0 0 32 32" xml:space="preserve">
<path fill="#407CCA" d="M16.003,16.294c-2.891,0-5.234,2.341-5.234,5.228c0,2.891,2.344,5.231,5.234,5.234
	c2.888,0,5.229-2.344,5.229-5.234C21.231,18.635,18.891,16.294,16.003,16.294z M16.003,25.825c-2.378,0-4.306-1.925-4.306-4.304
	c0-2.375,1.928-4.3,4.306-4.3c2.372,0,4.3,1.925,4.3,4.3C20.303,23.9,18.375,25.825,16.003,25.825z M25.6,0H6.4C2.88,0,0,2.88,0,6.4
	v19.202c0,3.521,2.88,6.4,6.4,6.4h19.2c3.521,0,6.4-2.88,6.4-6.4V6.4C32,2.88,29.12,0,25.6,0z M10.581,4.44
	c0-0.244,0.2-0.44,0.444-0.44h9.95c0.244,0,0.444,0.197,0.444,0.44v5.082c0,0.244-0.2,0.44-0.444,0.44h-1.152
	c0,0.009,0.012,0.016,0.012,0.025l-0.462,4.572c0,0.219-0.175,0.396-0.397,0.396h-5.95c-0.215,0-0.4-0.178-0.4-0.396l-0.459-4.572
	c0-0.009,0.013-0.016,0.013-0.025h-1.153c-0.244,0-0.444-0.197-0.444-0.44V4.44z M25.997,26.253c0,0.969-0.781,1.747-1.747,1.747
	H7.75c-0.966,0-1.747-0.778-1.747-1.747v-9.169c0-0.962,0.781-1.743,1.747-1.743h0.906c0.081-0.222,0.453-0.394,0.922-0.394
	s0.841,0.172,0.922,0.394h13.75c0.966,0,1.747,0.781,1.747,1.743V26.253z M11.247,9.125V4.834c0-0.203,0.162-0.372,0.372-0.372
	h8.762c0.207,0,0.372,0.169,0.372,0.372v4.291c0,0.206-0.165,0.375-0.372,0.375h-8.762C11.409,9.5,11.247,9.331,11.247,9.125z"/>
</svg>
