<?xml version="1.0" encoding="utf-8"?>
<!-- Generator: Adobe Illustrator 16.0.3, SVG Export Plug-In . SVG Version: 6.00 Build 0)  -->
<!DOCTYPE svg PUBLIC "-//W3C//DTD SVG 1.1//EN" "http://www.w3.org/Graphics/SVG/1.1/DTD/svg11.dtd">
<svg version="1.1" id="Layer_1" xmlns="http://www.w3.org/2000/svg" xmlns:xlink="http://www.w3.org/1999/xlink" x="0px" y="0px"
	 width="32px" height="32px" viewBox="0 0 32 32" enable-background="new 0 0 32 32" xml:space="preserve">
<path fill="#407CCA" d="M18.268,12c0,1.325-1.075,2.4-2.4,2.4s-2.4-1.075-2.4-2.4s1.075-2.4,2.4-2.4S18.268,10.675,18.268,12z
	 M32,6.4v19.2c0,3.521-2.88,6.4-6.4,6.4H6.4C2.88,32,0,29.12,0,25.6V6.4C0,2.88,2.88,0,6.4,0h19.2C29.12,0,32,2.88,32,6.4z M24,12
	c0-4.419-3.584-8-8-8c-4.419,0-8,3.581-8,8c0,3.428,2.166,6.328,5.195,7.469L14,21.912L16,28l2-6.088l0.805-2.443
	C21.833,18.328,24,15.428,24,12z"/>
</svg>
