<?xml version="1.0" encoding="utf-8"?>
<!-- Generator: Adobe Illustrator 16.0.3, SVG Export Plug-In . SVG Version: 6.00 Build 0)  -->
<!DOCTYPE svg PUBLIC "-//W3C//DTD SVG 1.1//EN" "http://www.w3.org/Graphics/SVG/1.1/DTD/svg11.dtd">
<svg version="1.1" id="Layer_1" xmlns="http://www.w3.org/2000/svg" xmlns:xlink="http://www.w3.org/1999/xlink" x="0px" y="0px"
	 width="32px" height="32px" viewBox="0 0 32 32" enable-background="new 0 0 32 32" xml:space="preserve">
<path fill="#407CCA" d="M9.4,16.32v8.156l-0.395,0.505L4,25.489v-9.932l5.005,0.307L9.4,16.32z M22.286,13.888l2.735,0.426h2.668
	c0,0,0.279-0.589,0.309-1.965c0.03-1.377-0.309-2.035-0.309-2.035h-2.721l-2.531,1.038H19.88V7.695H16.6V7.467
	c-0.226-0.928-1.493-0.957-1.653-0.957h-0.001L5.35,6.697c-0.052,0-1.234,0.016-1.298,1.488v0.459
	c0.064,1.461,1.244,1.48,1.297,1.48l9.598,0.188h0.009c0.146,0,1.417-0.027,1.648-1.009V9.124h0.987v2.228h-0.223l-2.125,5.424
	h-0.506v7.094v0.245v0.867h8.612l0.861-1.112h2.375c0,0,0.709-1.013,0.76-3.471c0.048-2.458-0.76-3.623-0.76-3.623h-7.138v-2.888
	H22.286z M14.256,17.078v6.536h-1.028l-1.07,0.862H9.881V16.32h2.276l1.07,0.758H14.256z M9.972,17.791
	c0,0.115,0.094,0.209,0.209,0.209h1.927l0.958,0.479c0.03,0.016,0.063,0.022,0.094,0.022c0.077,0,0.152-0.043,0.188-0.116
	c0.052-0.103,0.011-0.229-0.094-0.281l-1.001-0.501c-0.028-0.016-0.061-0.022-0.094-0.022h-1.977
	C10.065,17.581,9.972,17.675,9.972,17.791z M9.972,19.014c0,0.116,0.094,0.21,0.209,0.21h1.945l0.974,0.289
	c0.02,0.006,0.039,0.008,0.059,0.008c0.091,0,0.175-0.058,0.202-0.15c0.033-0.11-0.031-0.228-0.142-0.261l-1.001-0.297
	c-0.019-0.006-0.039-0.008-0.06-0.008h-1.977C10.065,18.805,9.972,18.898,9.972,19.014z M13.342,22.266
	c-0.058-0.1-0.188-0.136-0.288-0.078l-0.953,0.544h-1.92c-0.116,0-0.209,0.094-0.209,0.209c0,0.116,0.094,0.21,0.209,0.21h1.977
	c0.036,0,0.072-0.01,0.105-0.027l1.001-0.57C13.364,22.495,13.4,22.367,13.342,22.266z M13.364,21.253
	c-0.023-0.112-0.138-0.198-0.249-0.161l-0.958,0.21h-1.977c-0.116,0-0.209,0.094-0.209,0.209c0,0.116,0.094,0.21,0.209,0.21
	l2.021-0.005l1.001-0.214C13.317,21.479,13.389,21.367,13.364,21.253z M13.369,20.33c0-0.116-0.094-0.21-0.209-0.21h-2.978
	c-0.116,0-0.209,0.094-0.209,0.21c0,0.115,0.094,0.209,0.209,0.209h2.978C13.275,20.539,13.369,20.445,13.369,20.33z"/>
</svg>
