<?xml version="1.0" encoding="utf-8"?>
<!-- Generator: Adobe Illustrator 16.0.3, SVG Export Plug-In . SVG Version: 6.00 Build 0)  -->
<!DOCTYPE svg PUBLIC "-//W3C//DTD SVG 1.1//EN" "http://www.w3.org/Graphics/SVG/1.1/DTD/svg11.dtd">
<svg version="1.1" id="Layer_1" xmlns="http://www.w3.org/2000/svg" xmlns:xlink="http://www.w3.org/1999/xlink" x="0px" y="0px"
	 width="32px" height="32px" viewBox="0 0 32 32" enable-background="new 0 0 32 32" xml:space="preserve">
<path fill="#407CCA" d="M26.359,22.463h-6.388v-3.979h6.388V22.463z M26.359,22.956h-6.388v3.403h6.388V22.956z M26.359,10.112
	h-5.813h-0.575v3.406h6.388V10.112z M26.359,14.009h-6.388v3.985h6.388V14.009z M19.479,14.009h-6.959v3.985h6.959V14.009z
	 M12.028,22.956H5.641v3.403h6.388V22.956z M12.028,18.484H5.641v3.979h6.388V18.484z M32,6.4v19.2c0,3.521-2.88,6.4-6.4,6.4H6.4
	C2.88,32,0,29.12,0,25.6V6.4C0,2.88,2.88,0,6.4,0h19.2C29.12,0,32,2.88,32,6.4z M28,4H4v24h24V4z M12.028,14.009H5.641v3.985h6.388
	V14.009z M19.479,18.484h-6.959v3.979h6.959V18.484z M19.479,22.956h-6.959v3.403h6.959V22.956z M12.028,10.112h-0.575H5.641v3.406
	h6.388V10.112z M19.479,10.112h-0.573h-5.813h-0.573v3.406h6.959V10.112z"/>
</svg>
