<?xml version="1.0" encoding="utf-8"?>
<!-- Generator: Adobe Illustrator 16.0.3, SVG Export Plug-In . SVG Version: 6.00 Build 0)  -->
<!DOCTYPE svg PUBLIC "-//W3C//DTD SVG 1.1//EN" "http://www.w3.org/Graphics/SVG/1.1/DTD/svg11.dtd">
<svg version="1.1" id="Layer_1" xmlns="http://www.w3.org/2000/svg" xmlns:xlink="http://www.w3.org/1999/xlink" x="0px" y="0px"
	 width="32px" height="32px" viewBox="0 0 32 32" enable-background="new 0 0 32 32" xml:space="preserve">
<path fill="#407CCA" d="M25.6,0H6.4C2.88,0,0,2.88,0,6.4v19.2C0,29.12,2.88,32,6.4,32h19.2c3.521,0,6.4-2.88,6.4-6.4V6.4
	C32,2.88,29.12,0,25.6,0z M7.083,8.978l-0.927,1.234v9.681H4.717C4.322,19.894,4,19.568,4,19.175V6.7l0.927-1.234
	C5.084,5.256,5.428,5.084,5.69,5.084h1.902c0.262,0,0.694,0,0.955,0h1.901c0.263,0,0.606,0.172,0.764,0.381L12.139,6.7h10.833
	c0.394,0,0.716,0.322,0.716,0.715v2.797h-9.392l-0.927-1.234c-0.158-0.209-0.501-0.381-0.764-0.381h-1.901c-0.263,0-0.692,0-0.955,0
	H7.847C7.584,8.597,7.241,8.769,7.083,8.978z M28,26.2c0,0.394-0.322,0.716-0.717,0.716H9.026c-0.392,0-0.714-0.322-0.714-0.716
	V13.722l0.927-1.231c0.158-0.209,0.501-0.381,0.764-0.381h1.9c0.264,0,0.693,0,0.956,0h1.901c0.261,0,0.605,0.172,0.763,0.381
	l0.928,1.231h10.832c0.395,0,0.717,0.322,0.717,0.719V26.2z"/>
</svg>
