<?xml version="1.0" encoding="utf-8"?>
<!-- Generator: Adobe Illustrator 16.0.3, SVG Export Plug-In . SVG Version: 6.00 Build 0)  -->
<!DOCTYPE svg PUBLIC "-//W3C//DTD SVG 1.1//EN" "http://www.w3.org/Graphics/SVG/1.1/DTD/svg11.dtd">
<svg version="1.1" id="Layer_1" xmlns="http://www.w3.org/2000/svg" xmlns:xlink="http://www.w3.org/1999/xlink" x="0px" y="0px"
	 width="32px" height="32px" viewBox="0 0 32 32" enable-background="new 0 0 32 32" xml:space="preserve">
<path fill="#407CCA" d="M24.513,21.901c1.259,0,2.565,0.987,2.909,2.197l0.495,1.75c0.343,1.209-0.409,2.2-1.667,2.193L5.766,28.029
	c-1.256,0-2.017-0.993-1.69-2.206l0.467-1.716c0.327-1.219,1.627-2.206,2.883-2.206H24.513z M27.472,19.561V4.92
	c0-0.531-0.43-0.959-0.959-0.959H5.489c-0.53,0-0.959,0.428-0.959,0.959v14.64c0,0.531,0.43,0.96,0.959,0.96h21.023
	C27.042,20.521,27.472,20.092,27.472,19.561z M6.448,5.88h19.104v12.722H6.448V5.88z M17.019,14.639
	c0.96-0.406,1.58-1.341,1.58-2.419c0-1.041-0.62-1.975-1.58-2.381c-0.251-0.103-0.545,0.013-0.653,0.266
	c-0.106,0.253,0.012,0.547,0.265,0.653c0.59,0.247,0.971,0.822,0.971,1.5c0,0.641-0.381,1.216-0.971,1.462
	c-0.253,0.109-0.372,0.403-0.265,0.653c0.081,0.19,0.265,0.306,0.459,0.306C16.889,14.68,16.956,14.664,17.019,14.639z
	 M18.834,15.839c1.238-0.778,1.976-2.119,1.976-3.619c0-1.462-0.737-2.8-1.974-3.581c-0.231-0.141-0.541-0.078-0.688,0.156
	c-0.146,0.231-0.076,0.541,0.154,0.688c0.945,0.597,1.51,1.619,1.51,2.775c0,1.119-0.564,2.144-1.508,2.737
	c-0.232,0.15-0.303,0.457-0.156,0.688c0.096,0.15,0.256,0.234,0.422,0.234C18.661,15.917,18.753,15.892,18.834,15.839z
	 M19.896,17.464c1.839-1.115,2.936-3.059,2.936-5.244c0-2.144-1.097-4.087-2.936-5.203c-0.233-0.137-0.541-0.065-0.685,0.169
	C19.068,7.42,19.144,7.727,19.38,7.87c1.537,0.932,2.454,2.557,2.454,4.388c0,1.794-0.917,3.422-2.454,4.354
	c-0.236,0.144-0.312,0.446-0.169,0.684c0.094,0.153,0.258,0.241,0.427,0.241C19.727,17.536,19.814,17.511,19.896,17.464z
	 M15.634,14.374c0.106-0.25-0.012-0.544-0.266-0.653c-0.589-0.247-0.97-0.822-0.97-1.5c0-0.641,0.381-1.215,0.97-1.462
	c0.253-0.106,0.372-0.4,0.266-0.653c-0.109-0.253-0.401-0.369-0.653-0.266c-0.959,0.406-1.58,1.341-1.58,2.419
	c0,1.041,0.621,1.975,1.58,2.381c0.063,0.025,0.129,0.041,0.193,0.041C15.369,14.68,15.553,14.564,15.634,14.374z M13.852,15.683
	c0.147-0.231,0.077-0.537-0.156-0.688c-0.944-0.594-1.508-1.619-1.508-2.775c0-1.119,0.564-2.141,1.509-2.737
	c0.231-0.147,0.302-0.457,0.155-0.688c-0.147-0.234-0.458-0.297-0.688-0.156c-1.236,0.781-1.974,2.119-1.974,3.619
	c0,1.462,0.738,2.803,1.975,3.581c0.082,0.053,0.173,0.078,0.264,0.078C13.595,15.917,13.756,15.833,13.852,15.683z M12.789,17.295
	c0.142-0.237,0.067-0.54-0.167-0.684c-1.539-0.932-2.455-2.56-2.455-4.391c0-1.793,0.916-3.418,2.455-4.35
	c0.234-0.144,0.309-0.45,0.167-0.684c-0.144-0.234-0.45-0.306-0.685-0.169c-1.837,1.116-2.934,3.06-2.934,5.241
	c0,2.144,1.097,4.091,2.934,5.206c0.082,0.047,0.169,0.072,0.258,0.072C12.531,17.536,12.695,17.448,12.789,17.295z"/>
</svg>
