<?xml version="1.0" encoding="utf-8"?>
<!-- Generator: Adobe Illustrator 16.0.3, SVG Export Plug-In . SVG Version: 6.00 Build 0)  -->
<!DOCTYPE svg PUBLIC "-//W3C//DTD SVG 1.1//EN" "http://www.w3.org/Graphics/SVG/1.1/DTD/svg11.dtd">
<svg version="1.1" id="Layer_1" xmlns="http://www.w3.org/2000/svg" xmlns:xlink="http://www.w3.org/1999/xlink" x="0px" y="0px"
	 width="32px" height="32px" viewBox="0 0 32 32" enable-background="new 0 0 32 32" xml:space="preserve">
<path fill="#407CCA" d="M19.747,11.472V5.647c0.19-0.175,0.318-0.419,0.318-0.7c0-0.522-0.425-0.947-0.95-0.947
	c-0.524,0-0.949,0.425-0.949,0.947c0,0.281,0.128,0.525,0.318,0.7v5.741h-1.854V9.294c0-0.347-0.284-0.628-0.631-0.628
	c-0.35,0-0.631,0.281-0.631,0.628v2.094h-1.413v-1.156c0-0.522-0.425-0.944-0.947-0.944s-0.947,0.422-0.947,0.944v1.337
	c-0.378,0.219-0.647,0.612-0.647,1.078v5.093c0,0.694,0.194,1.572,0.431,1.953c0.238,0.382,0.432,1.26,0.432,1.953v5.091
	c0,0.694,0.568,1.263,1.262,1.263h4.918c0.694,0,1.263-0.568,1.263-1.263v-5.091c0-0.693,0.194-1.571,0.432-1.953
	c0.237-0.381,0.431-1.259,0.431-1.953v-5.093C20.584,12.103,20.231,11.65,19.747,11.472z M19.722,17.584h-7.443v-0.631h7.443V17.584
	z M19.722,16.259h-7.443v-0.631h7.443V16.259z M19.722,14.931h-7.443V14.3h7.443V14.931z M19.722,13.606h-7.443v-0.631h7.443V13.606
	z"/>
</svg>
