<?xml version="1.0" encoding="utf-8"?>
<!-- Generator: Adobe Illustrator 16.0.3, SVG Export Plug-In . SVG Version: 6.00 Build 0)  -->
<!DOCTYPE svg PUBLIC "-//W3C//DTD SVG 1.1//EN" "http://www.w3.org/Graphics/SVG/1.1/DTD/svg11.dtd">
<svg version="1.1" id="Layer_1" xmlns="http://www.w3.org/2000/svg" xmlns:xlink="http://www.w3.org/1999/xlink" x="0px" y="0px"
	 width="32px" height="32px" viewBox="0 0 32 32" enable-background="new 0 0 32 32" xml:space="preserve">
<path fill="#407CCA" d="M25.6,0H6.4C2.88,0,0,2.88,0,6.4v19.2C0,29.12,2.88,32,6.4,32h19.2c3.521,0,6.4-2.88,6.4-6.4V6.4
	C32,2.88,29.12,0,25.6,0z M19.479,27.3c0,0.385-0.313,0.7-0.701,0.7h-5.557c-0.387,0-0.701-0.315-0.701-0.7V15.541
	c0-0.387,0.314-0.7,0.701-0.7h2.346v-2.51c-0.192-0.141-0.325-0.353-0.325-0.609c0-0.416,0.337-0.756,0.758-0.756
	c0.416,0,0.758,0.34,0.758,0.756c0,0.253-0.135,0.469-0.325,0.606v2.513h2.346c0.388,0,0.701,0.313,0.701,0.7V27.3z M19.153,12.169
	c-0.236,0-0.427-0.197-0.427-0.432C18.722,10.234,17.506,9.016,16,9.009c-1.503,0.006-2.722,1.225-2.727,2.728
	c0,0.234-0.19,0.432-0.427,0.432c-0.237,0-0.428-0.197-0.428-0.432c0-1.981,1.604-3.581,3.581-3.581s3.578,1.6,3.581,3.581
	C19.581,11.972,19.391,12.169,19.153,12.169z M21.089,12.169c-0.235,0-0.428-0.197-0.428-0.432C20.653,9.159,18.576,7.084,16,7.078
	c-2.575,0.006-4.658,2.081-4.661,4.659c0,0.234-0.189,0.432-0.428,0.432c-0.236,0-0.427-0.197-0.427-0.432
	c0-3.047,2.469-5.512,5.516-5.521c3.049,0.009,5.516,2.475,5.516,5.521C21.516,11.972,21.325,12.169,21.089,12.169z M23.31,12.169
	c-0.237,0-0.429-0.197-0.429-0.432C22.873,7.935,19.799,4.862,16,4.856c-3.798,0.006-6.874,3.078-6.881,6.881
	c0,0.234-0.19,0.432-0.428,0.432c-0.236,0-0.426-0.197-0.426-0.432C8.264,7.466,11.728,4,16,4c4.271,0,7.736,3.466,7.736,7.737
	C23.736,11.972,23.545,12.169,23.31,12.169z M18.464,16.997v4.149c0,0.385-0.315,0.7-0.7,0.7h-3.528c-0.389,0-0.7-0.315-0.7-0.7
	v-4.149c0-0.388,0.311-0.7,0.7-0.7h3.528C18.148,16.297,18.464,16.609,18.464,16.997z"/>
</svg>
