<?xml version="1.0" encoding="utf-8"?>
<!-- Generator: Adobe Illustrator 16.0.3, SVG Export Plug-In . SVG Version: 6.00 Build 0)  -->
<!DOCTYPE svg PUBLIC "-//W3C//DTD SVG 1.1//EN" "http://www.w3.org/Graphics/SVG/1.1/DTD/svg11.dtd">
<svg version="1.1" id="Layer_1" xmlns="http://www.w3.org/2000/svg" xmlns:xlink="http://www.w3.org/1999/xlink" x="0px" y="0px"
	 width="32px" height="32px" viewBox="0 0 32 32" enable-background="new 0 0 32 32" xml:space="preserve">
<path fill="#407CCA" d="M25.6,0H6.4C2.88,0,0,2.88,0,6.4v19.2C0,29.12,2.88,32,6.4,32h19.2c3.521,0,6.4-2.88,6.4-6.4V6.4
	C32,2.88,29.12,0,25.6,0z M4.552,4.991C4.552,4.444,4.994,4,5.542,4h20.917c0.549,0,0.991,0.444,0.991,0.991V19.56
	c0,0.547-0.442,0.99-0.991,0.99H5.542c-0.548,0-0.99-0.443-0.99-0.99V4.991z M26.198,28L5.817,27.987
	c-1.25,0-2.008-0.99-1.683-2.196L4.6,24.084c0.325-1.212,1.617-2.196,2.867-2.196h17.004c1.252,0,2.552,0.984,2.894,2.188
	l0.492,1.74C28.198,27.019,27.45,28.003,26.198,28z M25.471,18.568H6.531V5.981h18.939V18.568z"/>
</svg>
