<?xml version="1.0" encoding="utf-8"?>
<!-- Generator: Adobe Illustrator 16.0.3, SVG Export Plug-In . SVG Version: 6.00 Build 0)  -->
<!DOCTYPE svg PUBLIC "-//W3C//DTD SVG 1.1//EN" "http://www.w3.org/Graphics/SVG/1.1/DTD/svg11.dtd">
<svg version="1.1" id="Layer_1" xmlns="http://www.w3.org/2000/svg" xmlns:xlink="http://www.w3.org/1999/xlink" x="0px" y="0px"
	 width="32px" height="32px" viewBox="0 0 32 32" enable-background="new 0 0 32 32" xml:space="preserve">
<path fill="#407CCA" d="M24.572,6.788c0-0.131-0.117-0.232-0.351-0.294l-0.498-0.178c-0.564-0.216-0.913-0.321-1.044-0.321
	c-0.019,0-0.117,0.022-0.302,0.076c-0.185,0.048-0.462,0.137-0.847,0.272c-0.031,0.014-0.248,0.06-0.648,0.135
	c-0.396,0.075-0.997,0.194-1.794,0.363l-7.896-2.816C11.177,4.008,11.12,4,11.019,4c-0.281,0-0.523,0.132-0.725,0.397l5.034,3.087
	l-1.694,0.327l-1.469-1.169l-0.4,0.075v0.921L10.07,6.991L9.747,7.19l1.495,1.319v0.074c0,0.232,0.156,0.349,0.472,0.349
	l0.752,0.921l0.372-0.123l0.125-0.672h3.934l0.825,0.623v1.994h0.745l1.522-3.291c0.511-0.081,1.053-0.188,1.617-0.31
	c0.567-0.127,1.17-0.255,1.818-0.386c0.116-0.05,0.239-0.113,0.374-0.188c0.134-0.074,0.259-0.154,0.376-0.236
	c0.114-0.082,0.208-0.166,0.283-0.25C24.534,6.931,24.572,6.855,24.572,6.788z M21.553,23.782h-0.215v-0.557
	c0-1.006-0.06-1.935-0.185-2.774c-0.003-0.015-0.005-0.027-0.01-0.041v-5.599h-0.333v-1.301h-0.445v1.301h-0.336v3.822
	c-0.078-0.052-0.159-0.101-0.246-0.147v-3.911c0-0.319-1.522-1.309-5.172-1.309c-3.653,0-5.133,0.99-5.133,1.309v3.941
	c-0.708,0.392-1.144,1.034-1.311,1.935c-0.125,0.84-0.184,1.769-0.184,2.774v0.557H7.767c-0.227,0-0.339,0.306-0.339,0.92
	c0,0.597,0.112,0.896,0.339,0.896h1.417v0.276c0,0.414,0.016,0.751,0.047,1.017c0.029,0.266,0.067,0.484,0.109,0.646
	C9.523,27.847,9.864,28,10.356,28c0.47,0,0.801-0.153,0.987-0.463c0.12-0.246,0.185-0.74,0.185-1.474v-0.466h6.264v0.466
	c0,0.733,0.063,1.228,0.187,1.474C18.162,27.847,18.492,28,18.964,28c0.492,0,0.833-0.153,1.018-0.463
	c0.039-0.162,0.078-0.381,0.107-0.646c0.03-0.266,0.046-0.603,0.046-1.017v-0.276h1.418c0.226,0,0.34-0.299,0.34-0.896
	C21.893,24.088,21.778,23.782,21.553,23.782z M10.603,22.679c-0.509,0-0.922-0.412-0.922-0.92s0.413-0.921,0.922-0.921
	c0.508,0,0.922,0.413,0.922,0.921S11.111,22.679,10.603,22.679z M11.164,18.568c-0.317,0-0.58-0.258-0.58-0.579v-1.309
	c0-0.324,0.231-0.607,0.58-0.768c0,0,1.413-0.484,3.497-0.484c2.081,0,3.503,0.484,3.503,0.484c0.456,0.228,0.576,0.617,0.576,0.94
	v1.136c0,0.321-0.258,0.579-0.576,0.579H11.164z M17.084,22.821h-4.848c-0.089,0-0.164-0.073-0.164-0.164s0.075-0.163,0.164-0.163
	h4.848c0.09,0,0.163,0.072,0.163,0.163S17.174,22.821,17.084,22.821z M17.084,21.895h-4.848c-0.089,0-0.164-0.072-0.164-0.162
	c0-0.091,0.075-0.166,0.164-0.166h4.848c0.09,0,0.163,0.075,0.163,0.166C17.247,21.822,17.174,21.895,17.084,21.895z M17.084,20.968
	h-4.848c-0.089,0-0.164-0.073-0.164-0.164c0-0.087,0.075-0.162,0.164-0.162h4.848c0.09,0,0.163,0.075,0.163,0.162
	C17.247,20.895,17.174,20.968,17.084,20.968z M18.709,22.679c-0.508,0-0.92-0.412-0.92-0.92s0.412-0.921,0.92-0.921
	s0.921,0.413,0.921,0.921S19.217,22.679,18.709,22.679z"/>
</svg>
