<?xml version="1.0" encoding="utf-8"?>
<!-- Generator: Adobe Illustrator 16.0.3, SVG Export Plug-In . SVG Version: 6.00 Build 0)  -->
<!DOCTYPE svg PUBLIC "-//W3C//DTD SVG 1.1//EN" "http://www.w3.org/Graphics/SVG/1.1/DTD/svg11.dtd">
<svg version="1.1" id="Layer_1" xmlns="http://www.w3.org/2000/svg" xmlns:xlink="http://www.w3.org/1999/xlink" x="0px" y="0px"
	 width="32px" height="32px" viewBox="0 0 32 32" enable-background="new 0 0 32 32" xml:space="preserve">
<path fill="#407CCA" d="M25.6,0H6.4C2.88,0,0,2.88,0,6.4v19.201C0,29.119,2.88,32,6.4,32h19.2c3.521,0,6.4-2.881,6.4-6.399V6.4
	C32,2.88,29.12,0,25.6,0z M25.297,10.731c0,0-1.057,1.096-2.771,0.329c0,0-0.889,0.803-2.306,0.073c0,0-1.057,0.805-2.177,0.109
	c0,0-0.64,0.464-1.348,0.34l-0.054,4.108c0.031-0.005,0.057-0.012,0.087-0.018c0.003-0.002,1.229-0.264,2.525-0.627
	c1.247-0.327,2.615-0.856,2.817-1.132c-0.018-0.017-0.046-0.03-0.083-0.047c-0.112-0.059-0.299-0.119-0.525-0.165
	c-0.456-0.093-1.078-0.141-1.7-0.166c-1.24-0.044-1.462,0.009-1.484,0.013c-0.001-0.039-0.717,0.084-0.914-0.645
	c0.008-0.006-0.014-0.036-0.001-0.053c0.04-0.501,0.425-0.526,0.74-0.585c0.513-0.067,0.247-0.041,0.938-0.032
	c1.135,0.084,4.63-0.198,5.069,1.642c0,0.052,0.003,0.084,0.009,0.13c-0.146,1.602-3.462,2.297-5.867,2.776
	c0.817,0.559,1.253,1.285,1.427,2.225c0.083,1.001-0.713,1.954-2.56,3.02c1.403,0.994,2.325,1.927,2.25,3.054
	c-0.131,0.919-0.943,2.146-2.536,2.921c-0.008,0-0.011,0-0.011,0c-0.001,0-0.001,0-0.003,0c0,0,1.115-1.702,1.19-2.634
	c0.07-0.528-0.212-1.298-1.462-2.225l-0.045,3.314h-0.005c-0.009,0.288-0.232,0.519-0.514,0.519c-0.281,0-0.505-0.23-0.514-0.519
	h-0.006l-0.039-3.403c-1.355,0.967-1.666,1.77-1.591,2.313c0.075,0.932,1.19,2.634,1.19,2.634c-0.002,0-0.002,0-0.004,0
	c-0.003-0.003-0.005,0-0.01,0c-1.593-0.775-2.405-2.002-2.536-2.921c-0.074-1.127,0.847-2.06,2.25-3.054
	c-1.847-1.065-2.643-2.019-2.559-3.02c0.173-0.939,0.608-1.666,1.424-2.225c-2.403-0.479-5.719-1.174-5.867-2.776
	c0.006-0.045,0.01-0.078,0.01-0.13c0.44-1.84,3.937-1.557,5.071-1.642c0.691-0.008,0.423-0.035,0.936,0.032
	c0.315,0.059,0.701,0.083,0.741,0.585c0.013,0.018-0.008,0.047-0.001,0.053c-0.197,0.729-0.913,0.605-0.914,0.645
	c-0.021-0.004-0.245-0.058-1.484-0.013c-0.624,0.025-1.243,0.073-1.702,0.166c-0.225,0.046-0.413,0.106-0.525,0.165
	c-0.036,0.017-0.064,0.03-0.081,0.047c0.201,0.276,1.57,0.806,2.816,1.132c1.296,0.363,2.521,0.625,2.523,0.627
	c0.084,0.015,0.149,0.033,0.229,0.049l-0.046-4.139c-0.704,0.119-1.339-0.341-1.339-0.341c-1.123,0.695-2.176-0.109-2.176-0.109
	c-1.417,0.73-2.307-0.073-2.307-0.073c-1.715,0.767-2.771-0.329-2.771-0.329C4.725,11.096,4.001,9.45,4.001,9.45
	c3.658,0.329,6.658-3.256,7.418-3.878c0.757-0.621,1.284-0.475,2.041,0.879c0.502,0.896,1.301,1.003,1.789,0.976l-0.001-0.181
	c-0.568-0.28-0.968-0.853-0.968-1.526C14.279,4.768,15.052,4,16,4s1.719,0.768,1.719,1.72c0,0.674-0.398,1.246-0.967,1.528
	l-0.004,0.179c0.489,0.027,1.288-0.081,1.789-0.976c0.76-1.354,1.286-1.5,2.044-0.879c0.76,0.622,3.761,4.207,7.421,3.878
	C28.002,9.45,27.273,11.096,25.297,10.731z M15.362,17.475l0.039,3.418c-0.329-0.207-0.669-0.422-1.017-0.642
	c-0.457-0.284-0.671-0.669-0.629-0.929C13.78,18.962,13.655,18.101,15.362,17.475z M16.621,17.527
	c1.559,0.623,1.443,1.445,1.468,1.795c0.041,0.26-0.173,0.645-0.631,0.929c-0.3,0.192-0.594,0.375-0.881,0.556L16.621,17.527z"/>
</svg>
