<?xml version="1.0" encoding="utf-8"?>
<!-- Generator: Adobe Illustrator 16.0.3, SVG Export Plug-In . SVG Version: 6.00 Build 0)  -->
<!DOCTYPE svg PUBLIC "-//W3C//DTD SVG 1.1//EN" "http://www.w3.org/Graphics/SVG/1.1/DTD/svg11.dtd">
<svg version="1.1" id="Layer_1" xmlns="http://www.w3.org/2000/svg" xmlns:xlink="http://www.w3.org/1999/xlink" x="0px" y="0px"
	 width="32px" height="32px" viewBox="0 0 32 32" enable-background="new 0 0 32 32" xml:space="preserve">
<path fill="#407CCA" d="M12.641,13.804c0,0.61-0.495,1.105-1.105,1.105c-0.612,0-1.107-0.495-1.107-1.105
	c0-0.611,0.495-1.105,1.107-1.105C12.146,12.698,12.641,13.193,12.641,13.804z M11.651,21.376l0.238,4.078
	c0,0.144,0.117,0.259,0.259,0.259c0.144,0,0.259-0.115,0.259-0.259l0.222-4.078h0.721l-0.745-4.573l1.501,2.988
	c0.056,0.133,0.208,0.197,0.341,0.14c0.13-0.055,0.194-0.208,0.137-0.339c0,0-1.1-2.979-1.373-3.532
	c-0.271-0.554-0.539-0.892-1.571-0.892h-0.212c-1.03,0-1.299,0.337-1.571,0.892c-0.27,0.554-1.374,3.532-1.374,3.532
	c-0.055,0.131,0.006,0.284,0.138,0.339c0.133,0.058,0.284-0.007,0.341-0.14l1.502-2.988l-0.748,4.573h0.721l0.224,4.078
	c0,0.144,0.117,0.259,0.259,0.259c0.145,0,0.261-0.115,0.261-0.259l0.222-4.078H11.651z M20.469,12.695
	c-0.612,0-1.107,0.495-1.107,1.106c0,0.61,0.495,1.104,1.107,1.104c0.609,0,1.104-0.495,1.104-1.104
	C21.572,13.19,21.078,12.695,20.469,12.695z M21.614,19.204l0.075-2.404l1.35,2.99c0.057,0.133,0.209,0.193,0.341,0.139
	c0.131-0.056,0.193-0.208,0.138-0.342c0,0-0.95-2.977-1.223-3.531c-0.271-0.554-0.69-0.891-1.722-0.891h-0.212
	c-1.031,0-1.453,0.337-1.723,0.891c-0.271,0.554-1.223,3.531-1.223,3.531c-0.056,0.134,0.006,0.286,0.138,0.342
	c0.132,0.055,0.285-0.006,0.34-0.139l1.352-2.99l0.075,2.404l-0.213,6.044c-0.019,0.24,0.163,0.448,0.402,0.465
	c0.011,0,0.021,0,0.029,0c0.229,0,0.419-0.175,0.436-0.402l0.491-4.674l0.492,4.674c0.016,0.228,0.208,0.402,0.435,0.402
	c0.009,0,0.021,0,0.031,0c0.238-0.017,0.418-0.225,0.402-0.465l-0.214-6.044H21.614z M16,19.416c-0.375,0-0.679,0.305-0.679,0.679
	c0,0.375,0.304,0.678,0.679,0.678s0.68-0.303,0.68-0.678C16.68,19.721,16.375,19.416,16,19.416z M16,23.413
	c0,0,0.306,2.12,0.306,2.122c0.041,0.104,0.139,0.178,0.257,0.178c0.122,0,0.224-0.081,0.261-0.19
	c0.003-0.006,0.01-0.131,0.003-0.153l-0.125-2.605l0.038-0.896c0.036-0.305,0.043-0.214,0.389-0.421
	c0.354-0.212,0.955-1.144,0.985-1.19c0.028-0.047,0.084-0.128,0.094-0.181c0.017-0.094-0.044-0.182-0.138-0.2
	c-0.068-0.013-0.13,0.024-0.175,0.073c-0.047,0.05-0.739,0.972-1.258,1.06c-0.116-0.018-0.242-0.077-0.572-0.077h-0.131
	c-0.329,0-0.455,0.06-0.572,0.077c-0.519-0.088-1.211-1.01-1.258-1.06c-0.045-0.049-0.104-0.086-0.175-0.073
	c-0.093,0.019-0.154,0.106-0.137,0.2c0.01,0.053,0.066,0.134,0.095,0.181c0.029,0.047,0.631,0.979,0.983,1.19
	c0.347,0.207,0.354,0.116,0.389,0.421l0.038,0.896l-0.124,2.605c-0.007,0.022,0,0.147,0.003,0.153c0.037,0.109,0.137,0.19,0.26,0.19
	c0.117,0,0.217-0.074,0.257-0.178C15.695,25.533,16,23.413,16,23.413 M27.811,15.087c0.335-0.479,0.216-1.139-0.266-1.473
	L17.764,6.81c-1.005-0.699-2.521-0.699-3.525,0l-9.784,6.805c-0.479,0.334-0.599,0.994-0.265,1.473
	c0.334,0.48,0.994,0.599,1.474,0.265l9.782-6.805c0.275-0.191,0.834-0.191,1.108,0l9.781,6.805c0.185,0.128,0.396,0.189,0.604,0.189
	C27.275,15.542,27.604,15.384,27.811,15.087z"/>
</svg>
