<?xml version="1.0" encoding="utf-8"?>
<!-- Generator: Adobe Illustrator 16.0.3, SVG Export Plug-In . SVG Version: 6.00 Build 0)  -->
<!DOCTYPE svg PUBLIC "-//W3C//DTD SVG 1.1//EN" "http://www.w3.org/Graphics/SVG/1.1/DTD/svg11.dtd">
<svg version="1.1" id="Layer_1" xmlns="http://www.w3.org/2000/svg" xmlns:xlink="http://www.w3.org/1999/xlink" x="0px" y="0px"
	 width="32px" height="32px" viewBox="0 0 32 32" enable-background="new 0 0 32 32" xml:space="preserve">
<path fill="#407CCA" d="M22.185,18.646l4.794-4.817l0.756,0.749l0,0c0.354,0.357,0.354,0.931,0,1.284l-3.531,3.516
	c-0.352,0.354-0.93,0.354-1.287,0l0,0L22.185,18.646z M4,24.271c0.337,1.241,1.407,2.241,2.579,2.586l9.344-9.261l-2.583-2.585
	L4,24.271z M21.63,16.942c0.039,0.083,0.075,0.163,0.104,0.247c0.023,0.066,0.045,0.131,0.061,0.186
	c0.031,0.124,0.063,0.244,0.072,0.361c1.377-1.368,2.756-2.736,4.135-4.101c0,0-2.619-0.146-3.424-3.429
	c-0.244-0.245-0.492-0.488-0.736-0.736c-3.387-3.382-6.957-4.585-10.311-4.285c-0.185,0.015-0.554,0.07-0.89,0.117
	c-0.595,0.091-0.65,0.961-0.002,0.968c0.304,0.003,0.62,0.007,0.766,0.025c0.614,0.084,1.21,0.146,1.796,0.364
	c2.504,0.956,4.123,3.673,1.987,5.791c-0.572,0.564-1.711,1.691-1.711,1.691l3.44,3.379c0,0,0.247-0.296,0.397-0.427
	c0.688-0.566,2.101-1.495,3.528-0.931c0.224,0.087,0.398,0.229,0.537,0.389c0.067,0.084,0.137,0.172,0.189,0.27
	C21.592,16.862,21.611,16.902,21.63,16.942z"/>
</svg>
