<?xml version="1.0" encoding="utf-8"?>
<!-- Generator: Adobe Illustrator 16.0.3, SVG Export Plug-In . SVG Version: 6.00 Build 0)  -->
<!DOCTYPE svg PUBLIC "-//W3C//DTD SVG 1.1//EN" "http://www.w3.org/Graphics/SVG/1.1/DTD/svg11.dtd">
<svg version="1.1" id="Layer_1" xmlns="http://www.w3.org/2000/svg" xmlns:xlink="http://www.w3.org/1999/xlink" x="0px" y="0px"
	 width="32px" height="32px" viewBox="0 0 32 32" enable-background="new 0 0 32 32" xml:space="preserve">
<path fill="#407CCA" d="M23.972,18.958c0.448,0.896,2.466,5.6,2.466,6.274c0,3.691-4.93,3.691-4.93,0
	C21.508,24.558,23.525,19.63,23.972,18.958z M26.885,16.455c0-0.509,0-1.357,0-2.846c0-1.803-1.638-3.361-3.809-3.361
	c0,0-0.012,0-5.07,0l-0.027-1.582c0-0.455-0.371-0.826-0.827-0.826h-1.982V6.823c0.172-0.102,0.314-0.229,0.434-0.385
	c0.595,0,1.8,0,4.222,0c0.282,0.362,0.7,0.614,1.193,0.614c0.841,0,1.525-0.682,1.525-1.525C22.544,4.684,21.859,4,21.019,4
	c-0.505,0-0.933,0.267-1.209,0.646c-0.667,0-1.916,0-4.186,0C15.342,4.267,14.917,4,14.411,4c-0.503,0-0.933,0.267-1.209,0.646
	c-1.295,0-2.832,0-4.622,0C8.303,4.267,7.876,4,7.374,4C6.53,4,5.847,4.684,5.847,5.527c0,0.843,0.683,1.525,1.527,1.525
	c0.491,0,0.909-0.251,1.186-0.614c0.764,0,2.156,0,4.661,0c0.122,0.159,0.267,0.289,0.442,0.387v1.014h-2.105
	c-0.455,0-0.825,0.371-0.825,0.826v1.582c-0.517,0-1.999,0-6.161,0v4.93c0.146,0,1.144,0,6.853,0
	c0.672,1.348,1.567,2.015,2.913,2.015c1.344,0,2.464-0.667,3.136-2.015c0,0,0,0,2.466,0c0.735,0,1.008,0.473,1.086,1.381
	c-0.216,0.147-0.364,0.386-0.364,0.667c0,0.457,0.37,0.826,0.825,0.826h5.115c0.456,0,0.826-0.369,0.826-0.826
	C27.428,16.868,27.201,16.57,26.885,16.455z"/>
</svg>
