<?xml version="1.0" encoding="utf-8"?>
<!-- Generator: Adobe Illustrator 16.0.3, SVG Export Plug-In . SVG Version: 6.00 Build 0)  -->
<!DOCTYPE svg PUBLIC "-//W3C//DTD SVG 1.1//EN" "http://www.w3.org/Graphics/SVG/1.1/DTD/svg11.dtd">
<svg version="1.1" id="Layer_1" xmlns="http://www.w3.org/2000/svg" xmlns:xlink="http://www.w3.org/1999/xlink" x="0px" y="0px"
	 width="32px" height="32px" viewBox="0 0 32 32" enable-background="new 0 0 32 32" xml:space="preserve">
<path fill="#407CCA" d="M25.6,0H6.4C2.88,0,0,2.88,0,6.4v19.2C0,29.12,2.88,32,6.4,32h19.2c3.521,0,6.4-2.88,6.4-6.4V6.4
	C32,2.88,29.12,0,25.6,0z M21.51,25.232c0-0.675,2.017-5.603,2.464-6.274c0.448,0.896,2.466,5.6,2.466,6.274
	C26.439,28.924,21.51,28.924,21.51,25.232z M26.604,18.051h-5.116c-0.454,0-0.825-0.369-0.825-0.826c0-0.281,0.148-0.52,0.364-0.667
	c-0.078-0.908-0.35-1.381-1.086-1.381c-2.466,0-2.466,0-2.466,0c-0.672,1.348-1.792,2.015-3.136,2.015
	c-1.345,0-2.24-0.667-2.912-2.015c-5.709,0-6.708,0-6.854,0v-4.93c4.163,0,5.644,0,6.161,0V8.665c0-0.455,0.37-0.826,0.825-0.826
	h2.104V6.825c-0.175-0.098-0.32-0.228-0.442-0.387c-2.504,0-3.896,0-4.661,0C8.284,6.801,7.866,7.052,7.375,7.052
	c-0.844,0-1.526-0.682-1.526-1.525C5.849,4.684,6.531,4,7.375,4c0.503,0,0.93,0.267,1.206,0.646c1.791,0,3.327,0,4.622,0
	C13.479,4.267,13.909,4,14.413,4c0.506,0,0.931,0.267,1.212,0.646c2.271,0,3.519,0,4.186,0C20.088,4.267,20.516,4,21.021,4
	c0.841,0,1.524,0.684,1.524,1.527c0,0.843-0.684,1.525-1.524,1.525c-0.494,0-0.911-0.251-1.194-0.614c-2.422,0-3.626,0-4.222,0
	c-0.12,0.156-0.262,0.283-0.434,0.385v1.016h1.983c0.456,0,0.826,0.371,0.826,0.826l0.028,1.582c5.058,0,5.07,0,5.07,0
	c2.17,0,3.808,1.559,3.808,3.361c0,1.489,0,2.337,0,2.846c0.317,0.116,0.544,0.414,0.544,0.77
	C27.43,17.682,27.06,18.051,26.604,18.051z"/>
</svg>
