<?xml version="1.0" encoding="utf-8"?>
<!-- Generator: Adobe Illustrator 16.0.3, SVG Export Plug-In . SVG Version: 6.00 Build 0)  -->
<!DOCTYPE svg PUBLIC "-//W3C//DTD SVG 1.1//EN" "http://www.w3.org/Graphics/SVG/1.1/DTD/svg11.dtd">
<svg version="1.1" id="Layer_1" xmlns="http://www.w3.org/2000/svg" xmlns:xlink="http://www.w3.org/1999/xlink" x="0px" y="0px"
	 width="32px" height="32px" viewBox="0 0 32 32" enable-background="new 0 0 32 32" xml:space="preserve">
<path fill="#407CCA" d="M16.283,15.03v-2.484c0.195-0.135,0.324-0.358,0.324-0.614c0-0.411-0.338-0.749-0.749-0.749
	c-0.414,0-0.749,0.337-0.749,0.749c0,0.254,0.126,0.477,0.317,0.612v2.466h-4.789c-0.38,0-0.692,0.309-0.692,0.69V27.31
	c0,0.381,0.313,0.69,0.692,0.69h5.487c0.381,0,0.692-0.31,0.692-0.69V15.7C16.817,15.374,16.589,15.103,16.283,15.03z
	 M15.758,21.235c0,0.38-0.311,0.692-0.69,0.692h-3.483c-0.383,0-0.692-0.313-0.692-0.692v-4.097c0-0.383,0.31-0.692,0.692-0.692
	h3.483c0.379,0,0.69,0.31,0.69,0.692V21.235z M22.792,11.638c-0.009-3.752-3.04-6.784-6.793-6.792l0,0
	c-3.75,0.008-6.785,3.04-6.794,6.792l0,0c0,0.233-0.186,0.424-0.422,0.424l0,0c-0.231,0-0.418-0.191-0.418-0.424l0,0
	C8.364,7.423,11.783,4,15.999,4l0,0c4.218,0,7.639,3.423,7.639,7.638l0,0c0,0.233-0.19,0.424-0.424,0.424l0,0
	C22.981,12.063,22.792,11.871,22.792,11.638L22.792,11.638z M20.6,11.638c-0.008-2.543-2.058-4.595-4.601-4.598l0,0
	c-2.541,0.002-4.599,2.054-4.603,4.598l0,0c0,0.233-0.186,0.424-0.42,0.424l0,0c-0.233,0-0.422-0.191-0.422-0.424l0,0
	c0-3.005,2.438-5.44,5.445-5.449l0,0c3.009,0.009,5.445,2.444,5.445,5.449l0,0c0,0.233-0.188,0.424-0.422,0.424l0,0
	C20.789,12.063,20.6,11.871,20.6,11.638L20.6,11.638z M18.689,11.638c-0.004-1.486-1.205-2.687-2.691-2.69l0,0
	c-1.483,0.004-2.689,1.205-2.692,2.69l0,0c0,0.233-0.189,0.424-0.422,0.424l0,0c-0.233,0-0.422-0.191-0.422-0.424l0,0
	c0-1.955,1.584-3.534,3.536-3.537l0,0c1.952,0.003,3.531,1.582,3.536,3.537l0,0c0,0.233-0.188,0.424-0.422,0.424l0,0
	C18.878,12.063,18.689,11.871,18.689,11.638L18.689,11.638z"/>
</svg>
