<?xml version="1.0" encoding="utf-8"?>
<!-- Generator: Adobe Illustrator 16.0.3, SVG Export Plug-In . SVG Version: 6.00 Build 0)  -->
<!DOCTYPE svg PUBLIC "-//W3C//DTD SVG 1.1//EN" "http://www.w3.org/Graphics/SVG/1.1/DTD/svg11.dtd">
<svg version="1.1" id="Layer_1" xmlns="http://www.w3.org/2000/svg" xmlns:xlink="http://www.w3.org/1999/xlink" x="0px" y="0px"
	 width="32px" height="32px" viewBox="0 0 32 32" enable-background="new 0 0 32 32" xml:space="preserve">
<path fill="#407CCA" d="M20.581,5.572c-0.758-0.621-1.284-0.475-2.044,0.879c-0.501,0.896-1.3,1.003-1.789,0.976l0.004-0.179
	c0.566-0.282,0.967-0.854,0.967-1.528C17.719,4.768,16.948,4,16,4s-1.722,0.768-1.722,1.72c0,0.674,0.4,1.246,0.969,1.526
	l0.001,0.181c-0.488,0.027-1.288-0.081-1.789-0.976c-0.756-1.354-1.285-1.5-2.041-0.879C10.658,6.194,7.658,9.779,4,9.45
	c0,0,0.725,1.646,2.702,1.281c0,0,1.056,1.096,2.77,0.329c0,0,0.891,0.803,2.308,0.073c0,0,1.053,0.805,2.176,0.109
	c0,0,0.635,0.459,1.339,0.341l0.045,4.139c-0.08-0.016-0.144-0.034-0.229-0.049c-0.003-0.002-1.228-0.264-2.523-0.627
	c-1.247-0.327-2.615-0.856-2.817-1.132c0.017-0.017,0.045-0.03,0.081-0.047c0.111-0.059,0.3-0.119,0.525-0.165
	c0.458-0.093,1.078-0.141,1.702-0.166c1.239-0.044,1.462,0.009,1.484,0.013c0.001-0.039,0.717,0.084,0.914-0.645
	c-0.008-0.006,0.014-0.036,0.001-0.053c-0.041-0.501-0.426-0.526-0.742-0.585c-0.512-0.067-0.245-0.041-0.936-0.032
	c-1.135,0.084-4.63-0.198-5.07,1.642c0,0.052-0.003,0.084-0.01,0.13c0.147,1.602,3.464,2.297,5.867,2.776
	c-0.815,0.559-1.251,1.285-1.425,2.225c-0.083,1.001,0.712,1.954,2.56,3.02c-1.403,0.994-2.325,1.927-2.25,3.054
	c0.131,0.919,0.942,2.146,2.536,2.921c0.005,0,0.006-0.003,0.009,0l0,0c0,0,0.002,0,0.005,0c0,0-1.116-1.702-1.19-2.634
	c-0.074-0.544,0.236-1.347,1.592-2.313l0.039,3.403h0.006c0.009,0.288,0.233,0.519,0.514,0.519s0.505-0.23,0.514-0.519h0.004
	l0.046-3.314c1.25,0.927,1.532,1.696,1.461,2.225C17.935,26.298,16.82,28,16.82,28c0.002,0,0.002,0,0.003,0c0,0,0.003,0,0.011,0
	c1.593-0.775,2.405-2.002,2.535-2.921c0.074-1.127-0.848-2.06-2.249-3.054c1.846-1.065,2.643-2.019,2.56-3.02
	c-0.174-0.939-0.609-1.666-1.427-2.225c2.405-0.479,5.721-1.174,5.867-2.776c-0.006-0.045-0.009-0.078-0.009-0.13
	c-0.439-1.84-3.937-1.557-5.07-1.642c-0.691-0.008-0.424-0.035-0.937,0.032c-0.315,0.059-0.701,0.083-0.742,0.585
	c-0.013,0.018,0.011,0.047,0.003,0.053c0.197,0.729,0.913,0.605,0.914,0.645c0.021-0.004,0.244-0.058,1.484-0.013
	c0.622,0.025,1.242,0.073,1.7,0.166c0.227,0.046,0.413,0.106,0.525,0.165c0.036,0.017,0.065,0.03,0.083,0.047
	c-0.202,0.276-1.57,0.806-2.817,1.132c-1.297,0.363-2.522,0.625-2.525,0.627c-0.031,0.006-0.056,0.012-0.087,0.018l0.053-4.108
	c0.709,0.124,1.349-0.34,1.349-0.34c1.12,0.695,2.177-0.109,2.177-0.109c1.417,0.73,2.306-0.073,2.306-0.073
	c1.714,0.767,2.771-0.329,2.771-0.329C27.273,11.096,28,9.45,28,9.45C24.341,9.779,21.341,6.194,20.581,5.572z M13.755,19.322
	c0.025-0.36-0.1-1.222,1.607-1.848l0.039,3.418c-0.33-0.207-0.67-0.422-1.017-0.642C13.927,19.967,13.712,19.582,13.755,19.322z
	 M17.458,20.251c-0.3,0.192-0.594,0.375-0.882,0.556l0.044-3.279c1.558,0.623,1.442,1.445,1.468,1.795
	C18.13,19.582,17.916,19.967,17.458,20.251z"/>
</svg>
