<?xml version="1.0" encoding="utf-8"?>
<!-- Generator: Adobe Illustrator 16.0.3, SVG Export Plug-In . SVG Version: 6.00 Build 0)  -->
<!DOCTYPE svg PUBLIC "-//W3C//DTD SVG 1.1//EN" "http://www.w3.org/Graphics/SVG/1.1/DTD/svg11.dtd">
<svg version="1.1" id="Layer_1" xmlns="http://www.w3.org/2000/svg" xmlns:xlink="http://www.w3.org/1999/xlink" x="0px" y="0px"
	 width="32px" height="32px" viewBox="0 0 32 32" enable-background="new 0 0 32 32" xml:space="preserve">
<path fill="#407CCA" d="M7.97,13.48l5.514,5.658v7.692H13.44v0.025H8.919v-3.321l-4.614-6.096C4.12,17.212,4,16.932,4,16.626V7.259
	c0-0.733,0.595-1.33,1.331-1.33c0.731,0,1.328,0.597,1.328,1.33v5.409c-0.322,0.07-0.628,0.206-0.873,0.445
	c-0.705,0.69-0.722,1.823-0.035,2.529l2.517,2.587l0.342-0.333l-2.52-2.583c-0.503-0.521-0.492-1.354,0.023-1.862
	c0.162-0.152,0.353-0.261,0.558-0.318c0.219-0.063,0.445-0.066,0.663-0.021C7.58,13.174,7.798,13.3,7.97,13.48z M24.031,13.48
	l-5.518,5.658v7.692h0.044v0.025h4.525v-3.321l4.612-6.096C27.88,17.212,28,16.932,28,16.626V7.259c0-0.733-0.596-1.33-1.331-1.33
	c-0.731,0-1.328,0.597-1.328,1.33v5.409c0.323,0.07,0.628,0.206,0.873,0.445c0.706,0.69,0.724,1.823,0.036,2.529l-2.519,2.587
	l-0.344-0.333l2.521-2.583c0.503-0.521,0.492-1.354-0.024-1.862c-0.16-0.152-0.355-0.261-0.559-0.318
	c-0.215-0.063-0.443-0.066-0.66-0.021C24.422,13.174,24.203,13.3,24.031,13.48z M15.999,15.587c1.444,0,2.666-0.521,3.691-1.536
	c1.021-1.021,1.531-2.245,1.531-3.692c0-1.438-0.51-2.673-1.531-3.693c-1.025-1.022-2.247-1.522-3.691-1.522
	c-1.441,0-2.677,0.5-3.686,1.522c-1.03,1.02-1.533,2.255-1.533,3.693c0,1.448,0.503,2.671,1.533,3.692
	C13.322,15.066,14.558,15.587,15.999,15.587z"/>
</svg>
