<?xml version="1.0" encoding="utf-8"?>
<!-- Generator: Adobe Illustrator 16.0.3, SVG Export Plug-In . SVG Version: 6.00 Build 0)  -->
<!DOCTYPE svg PUBLIC "-//W3C//DTD SVG 1.1//EN" "http://www.w3.org/Graphics/SVG/1.1/DTD/svg11.dtd">
<svg version="1.1" id="Layer_1" xmlns="http://www.w3.org/2000/svg" xmlns:xlink="http://www.w3.org/1999/xlink" x="0px" y="0px"
	 width="32px" height="32px" viewBox="0 0 32 32" enable-background="new 0 0 32 32" xml:space="preserve">
<path fill="#407CCA" d="M25.6,0H6.4C2.88,0,0,2.88,0,6.4v19.201C0,29.119,2.88,32,6.4,32h19.2c3.521,0,6.4-2.881,6.4-6.399V6.4
	C32,2.88,29.12,0,25.6,0z M12.63,21.376l-0.222,4.078c0,0.144-0.116,0.259-0.259,0.259c-0.142,0-0.259-0.115-0.259-0.259
	l-0.238-4.078h-0.248l-0.222,4.078c0,0.144-0.116,0.259-0.261,0.259c-0.142,0-0.259-0.115-0.259-0.259l-0.224-4.078H9.716
	l0.748-4.573l-1.502,2.988c-0.057,0.133-0.208,0.197-0.341,0.14c-0.131-0.055-0.192-0.208-0.138-0.339c0,0,1.104-2.979,1.374-3.532
	c0.272-0.554,0.542-0.892,1.571-0.892h0.212c1.032,0,1.3,0.337,1.571,0.892c0.272,0.554,1.373,3.532,1.373,3.532
	c0.057,0.131-0.006,0.284-0.137,0.339c-0.133,0.058-0.285-0.007-0.341-0.14l-1.501-2.988l0.745,4.573H12.63z M10.428,13.804
	c0-0.611,0.495-1.105,1.107-1.105c0.611,0,1.105,0.495,1.105,1.105c0,0.61-0.495,1.105-1.105,1.105
	C10.923,14.909,10.428,14.414,10.428,13.804z M18.114,20.257c-0.03,0.047-0.632,0.979-0.984,1.19
	c-0.347,0.207-0.354,0.116-0.39,0.421l-0.038,0.896l0.124,2.605c0.007,0.022,0,0.147-0.003,0.153c-0.036,0.109-0.138,0.19-0.26,0.19
	c-0.118,0-0.217-0.074-0.257-0.178c0-0.002-0.306-2.122-0.306-2.122s-0.305,2.12-0.306,2.122c-0.04,0.104-0.14,0.178-0.257,0.178
	c-0.124,0-0.224-0.081-0.26-0.19c-0.003-0.006-0.01-0.131-0.003-0.153l0.124-2.605l-0.038-0.896
	c-0.035-0.305-0.042-0.214-0.389-0.421c-0.353-0.212-0.955-1.144-0.983-1.19c-0.028-0.047-0.084-0.128-0.095-0.181
	c-0.017-0.094,0.044-0.182,0.137-0.2c0.071-0.013,0.13,0.024,0.175,0.073c0.046,0.05,0.739,0.972,1.258,1.06
	c0.117-0.018,0.243-0.077,0.572-0.077h0.131c0.331,0,0.456,0.06,0.572,0.077c0.519-0.088,1.211-1.01,1.258-1.06
	c0.045-0.049,0.106-0.086,0.175-0.073c0.094,0.019,0.154,0.106,0.138,0.2C18.198,20.129,18.143,20.21,18.114,20.257z M15.321,20.095
	c0-0.374,0.304-0.679,0.679-0.679s0.68,0.305,0.68,0.679c0,0.375-0.305,0.678-0.68,0.678S15.321,20.47,15.321,20.095z M23.38,19.929
	c-0.132,0.055-0.284-0.006-0.341-0.139l-1.35-2.99l-0.075,2.404h-0.002l0.214,6.044c0.016,0.24-0.164,0.448-0.402,0.465
	c-0.01,0-0.022,0-0.031,0c-0.227,0-0.419-0.175-0.435-0.402l-0.492-4.674l-0.491,4.674c-0.017,0.228-0.207,0.402-0.436,0.402
	c-0.008,0-0.019,0-0.029,0c-0.239-0.017-0.421-0.225-0.402-0.465l0.213-6.044L19.245,16.8l-1.352,2.99
	c-0.055,0.133-0.208,0.193-0.339,0.139c-0.133-0.056-0.193-0.208-0.138-0.342c0,0,0.95-2.977,1.222-3.531
	c0.27-0.554,0.691-0.891,1.723-0.891h0.212c1.031,0,1.45,0.337,1.722,0.891c0.272,0.554,1.223,3.531,1.223,3.531
	C23.573,19.721,23.511,19.873,23.38,19.929z M19.361,13.802c0-0.612,0.495-1.106,1.107-1.106c0.609,0,1.104,0.495,1.104,1.106
	c0,0.61-0.494,1.104-1.104,1.104C19.856,14.906,19.361,14.412,19.361,13.802z M27.811,15.087c-0.206,0.296-0.535,0.455-0.871,0.455
	c-0.207,0-0.419-0.062-0.604-0.189l-9.781-6.805c-0.274-0.191-0.833-0.191-1.108,0l-9.782,6.805c-0.48,0.334-1.14,0.215-1.474-0.265
	c-0.334-0.479-0.215-1.139,0.265-1.473l9.784-6.805c1.004-0.699,2.52-0.699,3.525,0l9.781,6.805
	C28.026,13.948,28.146,14.608,27.811,15.087z"/>
</svg>
