<?xml version="1.0" encoding="utf-8"?>
<!-- Generator: Adobe Illustrator 16.0.3, SVG Export Plug-In . SVG Version: 6.00 Build 0)  -->
<!DOCTYPE svg PUBLIC "-//W3C//DTD SVG 1.1//EN" "http://www.w3.org/Graphics/SVG/1.1/DTD/svg11.dtd">
<svg version="1.1" id="Layer_1" xmlns="http://www.w3.org/2000/svg" xmlns:xlink="http://www.w3.org/1999/xlink" x="0px" y="0px"
	 width="32px" height="32px" viewBox="0 0 32 32" enable-background="new 0 0 32 32" xml:space="preserve">
<path fill="#407CCA" d="M18.166,18.568h-7c-0.317,0-0.58-0.258-0.58-0.579v-1.309c0-0.324,0.231-0.607,0.58-0.768
	c0,0,1.413-0.484,3.497-0.484c2.082,0,3.503,0.484,3.503,0.484c0.456,0.228,0.576,0.617,0.576,0.94v1.136
	C18.742,18.311,18.484,18.568,18.166,18.568z M10.604,20.838c-0.509,0-0.922,0.413-0.922,0.921s0.413,0.92,0.922,0.92
	c0.508,0,0.922-0.412,0.922-0.92S11.112,20.838,10.604,20.838z M17.086,22.494h-4.849c-0.089,0-0.164,0.072-0.164,0.163
	s0.075,0.164,0.164,0.164h4.849c0.089,0,0.162-0.073,0.162-0.164S17.175,22.494,17.086,22.494z M32,6.4v19.201
	C32,29.119,29.12,32,25.6,32H6.4C2.88,32,0,29.119,0,25.601V6.4C0,2.88,2.88,0,6.4,0h19.2C29.12,0,32,2.88,32,6.4z M21.894,24.702
	c0-0.614-0.114-0.92-0.339-0.92h-0.216v-0.557c0-1.006-0.06-1.935-0.185-2.774c-0.003-0.015-0.004-0.027-0.009-0.041v-5.599h-0.333
	v-1.301h-0.445v1.301h-0.336v3.822c-0.078-0.052-0.159-0.101-0.247-0.147v-3.911c0-0.319-1.521-1.309-5.172-1.309
	c-3.653,0-5.133,0.99-5.133,1.309v3.941c-0.708,0.392-1.144,1.034-1.311,1.935c-0.125,0.84-0.185,1.769-0.185,2.774v0.557H7.769
	c-0.227,0-0.339,0.306-0.339,0.92c0,0.597,0.112,0.896,0.339,0.896h1.417v0.276c0,0.414,0.016,0.751,0.047,1.017
	c0.03,0.266,0.067,0.484,0.109,0.646C9.525,27.847,9.866,28,10.358,28c0.47,0,0.801-0.153,0.987-0.463
	c0.121-0.246,0.185-0.74,0.185-1.474v-0.466h6.264v0.466c0,0.733,0.063,1.228,0.186,1.474C18.164,27.847,18.494,28,18.966,28
	c0.492,0,0.833-0.153,1.017-0.463c0.039-0.162,0.078-0.381,0.108-0.646c0.029-0.266,0.045-0.603,0.045-1.017v-0.276h1.419
	C21.779,25.598,21.894,25.299,21.894,24.702z M24.573,6.788c0-0.131-0.117-0.232-0.35-0.294l-0.499-0.178
	c-0.563-0.216-0.912-0.321-1.043-0.321c-0.02,0-0.117,0.022-0.302,0.076c-0.185,0.048-0.463,0.137-0.847,0.272
	c-0.031,0.014-0.249,0.06-0.648,0.135c-0.397,0.075-0.997,0.194-1.794,0.363l-7.897-2.816C11.178,4.008,11.122,4,11.021,4
	c-0.281,0-0.523,0.132-0.725,0.397l5.034,3.087l-1.694,0.327l-1.469-1.169l-0.4,0.075v0.921l-1.695-0.647L9.749,7.19l1.495,1.319
	v0.074c0,0.232,0.156,0.349,0.472,0.349l0.751,0.921l0.372-0.123l0.125-0.672h3.935l0.825,0.623v1.994h0.745l1.521-3.291
	c0.512-0.081,1.054-0.188,1.617-0.31c0.567-0.127,1.171-0.255,1.819-0.386c0.115-0.05,0.239-0.113,0.373-0.188
	c0.135-0.074,0.26-0.154,0.377-0.236c0.114-0.082,0.208-0.166,0.282-0.25C24.536,6.931,24.573,6.855,24.573,6.788z M17.086,20.642
	h-4.849c-0.089,0-0.164,0.075-0.164,0.162c0,0.091,0.075,0.164,0.164,0.164h4.849c0.089,0,0.162-0.073,0.162-0.164
	C17.248,20.717,17.175,20.642,17.086,20.642z M17.086,21.566h-4.849c-0.089,0-0.164,0.075-0.164,0.166
	c0,0.09,0.075,0.162,0.164,0.162h4.849c0.089,0,0.162-0.072,0.162-0.162C17.248,21.642,17.175,21.566,17.086,21.566z M18.711,20.838
	c-0.508,0-0.92,0.413-0.92,0.921s0.412,0.92,0.92,0.92s0.92-0.412,0.92-0.92S19.219,20.838,18.711,20.838z"/>
</svg>
