<?xml version="1.0" encoding="utf-8"?>
<!-- Generator: Adobe Illustrator 16.0.3, SVG Export Plug-In . SVG Version: 6.00 Build 0)  -->
<!DOCTYPE svg PUBLIC "-//W3C//DTD SVG 1.1//EN" "http://www.w3.org/Graphics/SVG/1.1/DTD/svg11.dtd">
<svg version="1.1" id="Layer_1" xmlns="http://www.w3.org/2000/svg" xmlns:xlink="http://www.w3.org/1999/xlink" x="0px" y="0px"
	 width="32px" height="32px" viewBox="0 0 32 32" enable-background="new 0 0 32 32" xml:space="preserve">
<path fill="#407CCA" d="M15.758,17.139v4.097c0,0.38-0.31,0.692-0.69,0.692h-3.483c-0.382,0-0.691-0.313-0.691-0.692v-4.097
	c0-0.383,0.309-0.692,0.691-0.692h3.483C15.448,16.446,15.758,16.756,15.758,17.139z M32,6.4v19.2c0,3.522-2.88,6.4-6.4,6.4H6.4
	C2.88,32,0,29.122,0,25.6V6.4C0,2.88,2.88,0,6.4,0h19.2C29.12,0,32,2.88,32,6.4z M16.817,15.7c0-0.326-0.229-0.598-0.534-0.67
	v-2.484c0.194-0.135,0.323-0.358,0.323-0.614c0-0.411-0.338-0.749-0.749-0.749c-0.414,0-0.749,0.337-0.749,0.749
	c0,0.254,0.126,0.477,0.318,0.612v2.466h-4.789c-0.38,0-0.692,0.309-0.692,0.69V27.31c0,0.381,0.312,0.69,0.692,0.69h5.487
	c0.381,0,0.692-0.31,0.692-0.69V15.7z M19.534,11.638c-0.005-1.955-1.584-3.534-3.536-3.537c-1.951,0.003-3.535,1.582-3.535,3.537
	c0,0.233,0.189,0.424,0.422,0.424s0.422-0.191,0.422-0.424c0.003-1.486,1.208-2.687,2.691-2.69c1.488,0.004,2.687,1.205,2.691,2.69
	c0,0.233,0.19,0.424,0.423,0.424C19.347,12.063,19.534,11.871,19.534,11.638z M21.443,11.638c0-3.005-2.436-5.44-5.445-5.449
	c-3.007,0.009-5.445,2.444-5.445,5.449c0,0.233,0.189,0.424,0.422,0.424c0.234,0,0.42-0.191,0.42-0.424
	c0.005-2.543,2.062-4.595,4.603-4.598c2.543,0.002,4.593,2.054,4.603,4.598c0,0.233,0.188,0.424,0.42,0.424
	C21.255,12.063,21.443,11.871,21.443,11.638z M23.638,11.638C23.638,7.423,20.217,4,15.999,4c-4.216,0-7.634,3.423-7.634,7.638
	c0,0.233,0.188,0.424,0.419,0.424c0.236,0,0.422-0.191,0.422-0.424c0.008-3.752,3.043-6.784,6.793-6.792
	c3.753,0.008,6.785,3.04,6.793,6.792c0,0.233,0.189,0.424,0.422,0.424C23.447,12.063,23.638,11.871,23.638,11.638z"/>
</svg>
