<?xml version="1.0" encoding="utf-8"?>
<!-- Generator: Adobe Illustrator 16.0.3, SVG Export Plug-In . SVG Version: 6.00 Build 0)  -->
<!DOCTYPE svg PUBLIC "-//W3C//DTD SVG 1.1//EN" "http://www.w3.org/Graphics/SVG/1.1/DTD/svg11.dtd">
<svg version="1.1" id="Layer_1" xmlns="http://www.w3.org/2000/svg" xmlns:xlink="http://www.w3.org/1999/xlink" x="0px" y="0px"
	 width="32px" height="32px" viewBox="0 0 32 32" enable-background="new 0 0 32 32" xml:space="preserve">
<path fill="#407CCA" d="M15.233,11.889v11.226c0-0.528-4.639-3.616-9.995-0.247V9.799c1.06-0.609,2.487-0.981,4.063-0.981
	C12.578,8.818,15.233,9.894,15.233,11.889z M32,6.4v19.2c0,3.522-2.88,6.4-6.4,6.4H6.4C2.88,32,0,29.122,0,25.6V6.4
	C0,2.88,2.88,0,6.4,0h19.2C29.12,0,32,2.88,32,6.4z M28.002,8.663c-6.254-2.756-11.25,0.159-11.883,0.741
	C15.29,8.61,10.522,5.853,4.001,8.663c0,0.042,0,0.821,0,2.008v13.404h9.88c0.339,0.291,1.145,0.497,2.09,0.497
	c0.941,0,1.75-0.206,2.089-0.497h9.941V10.67C28.002,9.483,28.002,8.705,28.002,8.663z M16.847,11.889v11.226
	c0-0.528,4.636-3.616,9.992-0.247V9.799c-1.061-0.609-2.487-0.981-4.063-0.981C19.502,8.818,16.847,9.894,16.847,11.889z"/>
</svg>
