<?xml version="1.0" encoding="utf-8"?>
<!-- Generator: Adobe Illustrator 16.0.3, SVG Export Plug-In . SVG Version: 6.00 Build 0)  -->
<!DOCTYPE svg PUBLIC "-//W3C//DTD SVG 1.1//EN" "http://www.w3.org/Graphics/SVG/1.1/DTD/svg11.dtd">
<svg version="1.1" id="Layer_1" xmlns="http://www.w3.org/2000/svg" xmlns:xlink="http://www.w3.org/1999/xlink" x="0px" y="0px"
	 width="32px" height="32px" viewBox="0 0 32 32" enable-background="new 0 0 32 32" xml:space="preserve">
<path fill="#407CCA" d="M27.995,18.059h0.003c-0.068,1.771-0.672,3.693-1.597,5.463c0,0-2.212,4.479-9.154,4.479
	c-6.943,0-9.194-4.439-9.194-4.439c-0.928-1.781-1.491-3.688-1.561-5.502h0.005c-0.004-0.047-0.005-0.092-0.005-0.141
	c0-0.851,0.526-1.647,1.434-2.337l0.967,0.62c-0.598,0.402-0.945,0.849-0.945,1.326c0,1.679,4.164,3.038,9.299,3.038
	c5.134,0,9.298-1.359,9.298-3.038c0-1.16-1.996-2.168-4.928-2.68l0.013-1.219c3.753,0.734,6.372,2.377,6.372,4.29
	C28.002,17.967,27.998,18.012,27.995,18.059z M10.066,10.838c-0.037,0.284-0.083,0.741,0.267,1.362
	c0.435,0.751,0.991,1.012,1.173,1.139c-0.031-0.193,0.022-0.771-0.385-1.477c-0.352-0.632-0.737-0.913-0.964-1.13
	C9.515,9.805,8.789,9.063,8.238,8.477L6.922,7.11c-0.002,0,0.472,0.547,1.261,1.411C8.723,9.129,9.438,9.898,10.066,10.838z
	 M13.358,18.071c0.282,0.264,0.637,0.699,1.428,1.138c0.887,0.496,1.636,0.496,1.888,0.552c-0.142-0.231-0.428-0.965-1.407-1.507
	c-0.803-0.442-1.404-0.357-1.773-0.295c-1.211-0.706-2.25-1.426-3.088-1.942c-1.196-0.738-1.974-1.113-1.971-1.114
	c-0.003,0.002,0.754,0.414,1.924,1.188C11.163,16.623,12.166,17.355,13.358,18.071z M14.073,14.214
	c-0.095,0.326-0.233,0.854,0.076,1.631c0.37,0.95,0.986,1.345,1.177,1.525c0.001-0.231,0.162-0.891-0.186-1.785
	c-0.31-0.793-0.711-1.189-0.943-1.479c-0.601-1.188-1.331-2.177-1.893-2.944l-1.342-1.809l1.269,1.85
	C12.776,11.998,13.489,13.013,14.073,14.214z M11.816,16.144c0.267,0.238,0.608,0.637,1.354,1.03c0.836,0.44,1.535,0.425,1.768,0.47
	c-0.139-0.21-0.422-0.88-1.345-1.364c-0.754-0.396-1.31-0.308-1.652-0.244c-1.142-0.635-2.122-1.289-2.908-1.761
	c-1.127-0.671-1.858-1.011-1.854-1.014c-0.002,0.003,0.708,0.379,1.808,1.085C9.745,14.832,10.693,15.499,11.816,16.144z
	 M10.206,14.244c0.251,0.217,0.574,0.582,1.271,0.931c0.781,0.396,1.426,0.368,1.645,0.406c-0.131-0.192-0.408-0.801-1.268-1.235
	c-0.705-0.353-1.217-0.263-1.534-0.203c-1.067-0.571-1.983-1.166-2.718-1.594c-1.052-0.611-1.732-0.919-1.73-0.922
	c-0.002,0.004,0.66,0.346,1.69,0.987C8.271,13.056,9.156,13.663,10.206,14.244z M8.564,11.477c0.471,0.42,0.919,0.445,1.173,0.528
	c-0.055-0.205-0.008-0.713-0.544-1.19c-0.458-0.395-0.922-0.427-1.159-0.444C6.146,8.754,4.473,7.714,4.086,7.466L4.001,7.409
	c-0.014,0.013,1.83,1.229,3.99,3.124C8.06,10.767,8.187,11.153,8.564,11.477z M8.531,12.37c0.233,0.198,0.534,0.531,1.183,0.842
	c0.721,0.357,1.316,0.321,1.518,0.353c-0.125-0.173-0.389-0.72-1.182-1.114c-0.654-0.312-1.125-0.233-1.414-0.173
	c-0.988-0.513-1.835-1.06-2.519-1.44c-0.971-0.561-1.604-0.833-1.603-0.836c-0.001,0.003,0.617,0.305,1.566,0.896
	C6.738,11.291,7.558,11.847,8.531,12.37z M12.124,12.473c-0.066,0.306-0.158,0.801,0.176,1.498c0.405,0.854,0.998,1.179,1.184,1.332
	c-0.016-0.213,0.085-0.832-0.292-1.634c-0.339-0.712-0.73-1.05-0.961-1.306c-0.626-1.055-1.355-1.922-1.917-2.598L8.978,8.177
	l1.271,1.63C10.798,10.509,11.512,11.402,12.124,12.473z M19.545,14.288c-0.212,0.209-0.543,0.557-0.649,1.277
	c-0.135,0.875,0.156,1.428,0.222,1.644c0.102-0.174,0.513-0.609,0.639-1.437c0.109-0.733-0.023-1.2-0.07-1.518
	c0.06-1.154-0.07-2.209-0.165-3.026c-0.144-1.191-0.249-1.931-0.247-1.931l0.172,1.933C19.521,12.063,19.623,13.132,19.545,14.288z
	 M18.864,12.327c-0.185,0.206-0.469,0.548-0.522,1.222c-0.065,0.819,0.236,1.313,0.312,1.507c0.083-0.169,0.433-0.601,0.498-1.369
	c0.057-0.687-0.094-1.108-0.159-1.4c-0.013-1.069-0.19-2.035-0.325-2.784l-0.328-1.771l0.263,1.776
	C18.714,10.271,18.87,11.252,18.864,12.327z M18.075,10.403c-0.158,0.201-0.398,0.534-0.405,1.157
	c-0.009,0.759,0.305,1.194,0.387,1.368c0.061-0.163,0.354-0.583,0.363-1.294c0.01-0.635-0.152-1.011-0.23-1.275
	c-0.078-0.982-0.296-1.859-0.465-2.54l-0.402-1.607l0.34,1.617C17.811,8.524,18.011,9.417,18.075,10.403z M19.467,19.383
	c0.121-0.178,0.594-0.61,0.794-1.488c0.172-0.779,0.063-1.29,0.031-1.635c0.143-1.235,0.069-2.379,0.013-3.264
	c-0.083-1.29-0.153-2.091-0.153-2.091l0.073,2.09c0.03,0.897,0.075,2.054-0.086,3.289c-0.243,0.212-0.621,0.561-0.787,1.324
	C19.148,18.534,19.411,19.148,19.467,19.383z M15.52,9.14c0.098,0.221,0.196,0.566,0.555,1.008c0.396,0.502,0.836,0.671,0.971,0.762
	c-0.03-0.168-0.024-0.658-0.46-1.208c-0.361-0.447-0.727-0.544-0.958-0.595c-0.531-0.706-0.949-1.385-1.308-1.892
	c-0.502-0.733-0.864-1.142-0.86-1.144c-0.004,0.002,0.336,0.428,0.813,1.174C14.607,7.755,15.001,8.435,15.52,9.14z M15.858,8.495
	c0.193,0.464,0.507,0.631,0.661,0.774c0.032-0.167,0.245-0.524,0.027-1.052c-0.191-0.44-0.516-0.617-0.68-0.708
	c-0.792-1.811-1.63-3.128-1.822-3.438L14.003,4c-0.014,0.005,0.886,1.507,1.776,3.612C15.746,7.806,15.7,8.132,15.858,8.495z
	 M16.651,12.173c0.425,0.547,0.9,0.74,1.044,0.84c-0.025-0.184-0.01-0.722-0.478-1.326c-0.383-0.491-0.786-0.598-1.034-0.655
	c-0.569-0.773-1.021-1.512-1.399-2.069c-0.541-0.796-0.922-1.247-0.922-1.25c0,0.002,0.356,0.472,0.871,1.284
	c0.355,0.558,0.779,1.297,1.332,2.071C16.169,11.311,16.275,11.683,16.651,12.173z M17.168,8.524
	c-0.127,0.195-0.321,0.516-0.289,1.086c0.049,0.696,0.358,1.071,0.443,1.223c0.047-0.151,0.289-0.558,0.245-1.21
	c-0.03-0.58-0.21-0.914-0.296-1.149c-0.137-0.891-0.397-1.676-0.587-2.288l-0.467-1.439c-0.001-0.001,0.147,0.56,0.411,1.454
	C16.802,6.826,17.045,7.626,17.168,8.524z M16.557,12.994c0.106,0.265,0.212,0.669,0.611,1.203c0.447,0.601,0.955,0.82,1.111,0.931
	c-0.026-0.201,0.004-0.786-0.488-1.445c-0.406-0.54-0.837-0.66-1.107-0.727c-0.601-0.845-1.075-1.648-1.476-2.254
	c-0.575-0.865-0.982-1.356-0.98-1.358c-0.002,0.002,0.377,0.513,0.923,1.396C15.525,11.345,15.972,12.149,16.557,12.994z
	 M10.733,18.279c-0.002,0.004,0.662,0.379,1.7,1.113c0.073,0.016,0.146,0.031,0.221,0.047
	C11.492,18.665,10.731,18.282,10.733,18.279z M19.018,19.74c-0.155-0.245-0.319-0.423-0.48-0.561
	c-0.055-0.15-0.112-0.288-0.17-0.412c0.352,0.359,0.682,0.539,0.803,0.637c0-0.016,0-0.037,0-0.059
	c0.044,0.141,0.085,0.287,0.125,0.431c0.067-0.005,0.135-0.009,0.199-0.014c-0.121-0.416-0.255-0.818-0.402-1.202
	c-0.051-0.203-0.137-0.43-0.271-0.67c-0.13-0.303-0.26-0.59-0.388-0.865c0.156,0.107,0.284,0.18,0.351,0.23
	c-0.022-0.219,0.031-0.851-0.484-1.573c-0.302-0.422-0.625-0.61-0.891-0.712l-0.817-1.588c-0.002,0,0.265,0.579,0.725,1.555
	c-0.068-0.021-0.132-0.041-0.188-0.056c-0.628-0.919-1.122-1.792-1.544-2.448c-0.602-0.938-1.031-1.469-1.029-1.47
	c-0.001,0.003,0.398,0.555,0.968,1.51c0.391,0.657,0.858,1.527,1.464,2.445c0.109,0.286,0.214,0.724,0.628,1.308
	c0.195,0.273,0.399,0.474,0.587,0.626c0.072,0.162,0.147,0.328,0.219,0.5c-0.35-0.354-0.704-0.467-0.943-0.537
	c-0.068-0.106-0.135-0.212-0.201-0.318c-0.403-0.867-0.837-1.634-1.201-2.272c-0.801-1.399-1.321-2.258-1.319-2.258l1.226,2.296
	c0.093,0.174,0.189,0.36,0.291,0.551c-0.133-0.229-0.262-0.446-0.383-0.644c-0.624-1.012-1.076-1.584-1.073-1.586
	c-0.002,0.002,0.416,0.596,1.006,1.627c0.347,0.607,0.748,1.383,1.247,2.219c0.22,0.487,0.429,1.007,0.613,1.553
	c-0.05,0.113-0.107,0.251-0.157,0.415c-0.551-0.945-1-1.819-1.402-2.493c-0.129-0.223-0.249-0.419-0.362-0.602
	c-0.505-1.038-1.083-1.931-1.548-2.649c-0.813-1.256-1.337-2.029-1.335-2.029l1.254,2.07c0.539,0.891,1.242,2.031,1.785,3.362
	c-0.126,0.344-0.312,0.9-0.039,1.759c0.33,1.046,0.96,1.516,1.151,1.723c0.019-0.234,0.215-0.867-0.017-1.763
	c0.143,0.271,0.296,0.548,0.46,0.834c-0.068,0.323-0.084,0.728,0.04,1.243c0.521-0.003,1.032-0.021,1.536-0.057
	C19.036,19.776,19.029,19.761,19.018,19.74z M11.704,17.798c-1.264-0.809-2.088-1.218-2.085-1.221
	c-0.002,0.003,0.797,0.452,2.031,1.3c0.715,0.493,1.589,1.144,2.594,1.813c0.123,0.012,0.25,0.021,0.375,0.035
	C13.487,19.014,12.506,18.313,11.704,17.798z M20.802,18.299c0.237-1.313,0.22-2.546,0.219-3.498l-0.044-2.251
	c-0.003,0-0.021,0.859-0.041,2.245c-0.026,0.964-0.042,2.208-0.3,3.52c-0.273,0.209-0.693,0.557-0.935,1.355
	c-0.006,0.028-0.009,0.051-0.016,0.078c0.363-0.034,0.715-0.074,1.06-0.125C20.857,19.036,20.808,18.603,20.802,18.299z"/>
</svg>
