<?xml version="1.0" encoding="utf-8"?>
<!-- Generator: Adobe Illustrator 16.0.3, SVG Export Plug-In . SVG Version: 6.00 Build 0)  -->
<!DOCTYPE svg PUBLIC "-//W3C//DTD SVG 1.1//EN" "http://www.w3.org/Graphics/SVG/1.1/DTD/svg11.dtd">
<svg version="1.1" id="Layer_1" xmlns="http://www.w3.org/2000/svg" xmlns:xlink="http://www.w3.org/1999/xlink" x="0px" y="0px"
	 width="32px" height="32px" viewBox="0 0 32 32" enable-background="new 0 0 32 32" xml:space="preserve">
<path fill="#407CCA" d="M25.6,0H6.4C2.88,0,0,2.88,0,6.4v19.2C0,29.12,2.88,32,6.4,32h19.2c3.521,0,6.4-2.88,6.4-6.4V6.4
	C32,2.88,29.12,0,25.6,0z M20.112,28c-2.479,0-3.947-1.128-4.492-2.091c-0.547-0.962-0.008-0.003-0.008-0.003
	c-0.747-0.896-1.426-1.528-2.181-2.016c-0.418,0.807-1.697,1.156-3.031,0.781c-1.456-0.414-2.416-1.537-2.141-2.508
	c0.013-0.042,0.038-0.078,0.055-0.119c-0.858-0.217-1.828-0.457-2.947-0.753c-0.159-0.04-0.255-0.204-0.212-0.362
	c0.042-0.158,0.205-0.255,0.362-0.209c2.367,0.617,1.678,0.453,3.074,0.899c0.559-0.573,1.662-0.792,2.806-0.467
	c1.397,0.396,2.325,1.443,2.156,2.388c1.072,0.574,1.942,1.212,2.461,1.906c-0.008-0.007,0.003,0.006,0.003,0.006
	c0-0.003,0.001-0.003,0.001-0.003c0.186,0.118,1.784,1.13,4.117,1.13c2.483,0,4.455-0.679,4.472-0.671
	C24.607,27.063,22.596,28,20.112,28z M22.732,25.537c-0.089-0.297-0.774-0.359-0.571,0.044c-0.036-0.003-0.072-0.003-0.109-0.003
	c0.089-0.131,0.021-0.297-0.114-0.409c-0.182-0.155-0.419-0.022-0.692,0.091c-0.019-0.051-0.021-0.085-0.021-0.132
	c0.267,0.091,0.419-0.267,0.039-0.315c-0.205-0.028-0.802-0.06-0.663,0.308c-0.07,0.026-0.165,0.028-0.261,0.002
	c0.146-0.396-0.773-0.429-0.966-0.19c-0.065,0.082-0.032,0.165-0.086,0.206c-0.087,0.065-0.251,0.109-0.354,0.159
	c-0.139,0.065-0.078,0.193-0.354,0.141c0.177-0.055,0.505-0.201,0.505-0.396c0-0.159-0.236-0.206-0.377-0.148
	c-0.128,0.054-0.956,0.405-0.448,0.597c-0.078,0.145-0.302,0.379-0.039,0.46c-0.081,0.037-0.177,0.1-0.263,0.172
	c-0.024-0.007-0.056-0.015-0.081-0.019c0.092-0.074,0.125-0.189,0.044-0.313c0.602,0.11-0.364-0.938-0.435-0.176
	c-0.109-0.016-0.422,0.038-0.653,0.116c-0.487-0.213-0.8-0.406-0.875-0.453c0.791-0.474,2.221-0.932,4.122-0.932
	c2.481,0,3.891,0.844,4.467,1.391c-0.008-0.003-0.495,0.159-1.285,0.325c-0.016-0.019-0.035-0.041-0.038-0.049
	c-0.021,0.023-0.073-0.051-0.068-0.032C23.144,26.01,23.193,25.209,22.732,25.537z M22.828,25.951
	c-0.053,0.015-0.107,0.028-0.162,0.039c-0.064-0.121-0.082-0.178-0.051-0.293c-0.003,0.078,0.098,0.16,0.082,0.188
	C22.74,25.906,22.784,25.93,22.828,25.951z M21.408,25.769c0.159-0.028,0.551-0.212,0.568-0.185
	c-0.003-0.027-0.408,0.277-0.12,0.406c0.181,0.078,0.195,0.166,0.19,0.278c-0.006,0.003-0.011,0.003-0.016,0.003
	c-0.003-0.164-0.088-0.292-0.297-0.238C21.802,25.825,21.594,25.74,21.408,25.769z M20.411,25.856
	c0.028-0.05,0.056-0.099,0.084-0.147c0.05,0.119,0.158,0.189,0.286,0.207l0.002,0.003c-0.035,0.068-0.06,0.173-0.114,0.228
	c0.039,0.08,0.078,0.158,0.117,0.238c-0.003,0-0.007,0-0.01,0c-0.053-0.07-0.078-0.106-0.186-0.176
	C20.763,26.047,20.622,25.861,20.411,25.856z M19.678,25.656c0.028-0.123,0.067-0.268,0.064-0.375
	c0.053-0.005,0.104-0.013,0.156-0.016c-0.182,0.225-0.128,0.55,0.139,0.659c-0.152,0.067-0.407,0.343-0.373,0.463
	c-0.031-0.003-0.06-0.005-0.089-0.005c-0.075-0.083-0.155-0.158-0.214-0.197c0.193,0.005,0.407-0.117,0.459-0.313
	C19.859,25.729,19.658,25.734,19.678,25.656z M18.542,25.928c0.136,0.064,0.292,0.035,0.437,0.085
	c0.089,0.028,0.104,0.156,0.27,0.144c-0.173-0.013-0.34,0.037-0.509,0.068c-0.016,0.022-0.033,0.038-0.049,0.057
	c-0.024-0.003-0.052-0.006-0.076-0.013C18.674,26.141,18.766,26.019,18.542,25.928z M18.05,21.62c-4.865,0-8.811-3.944-8.811-8.81
	S13.185,4,18.05,4c4.866,0,8.81,3.944,8.81,8.81S22.916,21.62,18.05,21.62z M15.241,18.8h5.398c0,0.786-1.207,1.422-2.699,1.422
	C16.45,20.222,15.241,19.586,15.241,18.8z M21.67,13.943c0,0.591-0.478,1.067-1.065,1.067c-0.589,0-1.067-0.476-1.067-1.067
	c0-0.586,0.479-1.065,1.067-1.065C21.192,12.878,21.67,13.357,21.67,13.943z M15.499,15.01c-0.591,0-1.066-0.476-1.066-1.067
	c0-0.586,0.475-1.065,1.066-1.065c0.589,0,1.066,0.479,1.066,1.065C16.564,14.534,16.087,15.01,15.499,15.01z"/>
</svg>
