<?xml version="1.0" encoding="utf-8"?>
<!-- Generator: Adobe Illustrator 16.0.3, SVG Export Plug-In . SVG Version: 6.00 Build 0)  -->
<!DOCTYPE svg PUBLIC "-//W3C//DTD SVG 1.1//EN" "http://www.w3.org/Graphics/SVG/1.1/DTD/svg11.dtd">
<svg version="1.1" id="Layer_1" xmlns="http://www.w3.org/2000/svg" xmlns:xlink="http://www.w3.org/1999/xlink" x="0px" y="0px"
	 width="32px" height="32px" viewBox="0 0 32 32" enable-background="new 0 0 32 32" xml:space="preserve">
<path fill="#407CCA" d="M25.6,0H6.4C2.88,0,0,2.88,0,6.4v19.2C0,29.122,2.88,32,6.4,32h19.2c3.521,0,6.4-2.878,6.4-6.4V6.4
	C32,2.88,29.12,0,25.6,0z M13.486,26.831h-0.043v0.025H8.92v-3.321l-4.614-6.096c-0.184-0.228-0.305-0.508-0.305-0.813V7.259
	c0-0.733,0.595-1.33,1.332-1.33c0.731,0,1.328,0.597,1.328,1.33v5.409c-0.322,0.07-0.628,0.206-0.874,0.445
	c-0.705,0.69-0.722,1.823-0.035,2.529l2.518,2.587l0.342-0.333l-2.52-2.583C5.589,14.793,5.6,13.96,6.116,13.452
	c0.163-0.152,0.353-0.261,0.558-0.318c0.219-0.063,0.445-0.066,0.663-0.021C7.581,13.174,7.8,13.3,7.972,13.48l5.514,5.658V26.831z
	 M12.314,14.051c-1.03-1.021-1.533-2.245-1.533-3.692c0-1.438,0.503-2.673,1.533-3.693C13.323,5.643,14.56,5.144,16,5.144
	c1.443,0,2.666,0.5,3.69,1.522c1.022,1.02,1.531,2.255,1.531,3.693c0,1.448-0.509,2.671-1.531,3.692
	c-1.024,1.016-2.247,1.536-3.69,1.536C14.56,15.587,13.323,15.066,12.314,14.051z M28.002,16.626c0,0.306-0.121,0.586-0.305,0.813
	l-4.613,6.096v3.321H18.56v-0.025h-0.044v-7.692l5.518-5.658c0.172-0.181,0.391-0.306,0.634-0.367
	c0.218-0.045,0.445-0.042,0.661,0.021c0.203,0.058,0.398,0.166,0.558,0.318c0.518,0.508,0.528,1.341,0.025,1.862l-2.522,2.583
	l0.344,0.333l2.52-2.587c0.688-0.706,0.67-1.839-0.036-2.529c-0.245-0.24-0.55-0.375-0.874-0.445V7.259
	c0-0.733,0.598-1.33,1.328-1.33c0.736,0,1.332,0.597,1.332,1.33V16.626z"/>
</svg>
