<?xml version="1.0" encoding="utf-8"?>
<!-- Generator: Adobe Illustrator 16.0.3, SVG Export Plug-In . SVG Version: 6.00 Build 0)  -->
<!DOCTYPE svg PUBLIC "-//W3C//DTD SVG 1.1//EN" "http://www.w3.org/Graphics/SVG/1.1/DTD/svg11.dtd">
<svg version="1.1" id="Layer_1" xmlns="http://www.w3.org/2000/svg" xmlns:xlink="http://www.w3.org/1999/xlink" x="0px" y="0px"
	 width="32px" height="32px" viewBox="0 0 32 32" enable-background="new 0 0 32 32" xml:space="preserve">
<path fill="#407CCA" d="M25.6,0H6.4C2.88,0,0,2.88,0,6.4v19.2C0,29.12,2.88,32,6.4,32h19.2c3.521,0,6.4-2.88,6.4-6.4V6.4
	C32,2.88,29.12,0,25.6,0z M6.579,26.857C5.407,26.513,4.337,25.513,4,24.271l9.34-9.26l2.583,2.585L6.579,26.857z M21.795,17.375
	c-0.016-0.055-0.037-0.119-0.061-0.186c-0.029-0.084-0.065-0.164-0.104-0.247c-0.019-0.04-0.038-0.08-0.06-0.12
	c-0.053-0.098-0.122-0.186-0.189-0.27c-0.139-0.16-0.313-0.302-0.537-0.389c-1.428-0.564-2.841,0.364-3.528,0.931
	c-0.151,0.131-0.398,0.427-0.398,0.427l-3.439-3.379c0,0,1.139-1.127,1.711-1.691c2.135-2.117,0.517-4.834-1.987-5.791
	c-0.586-0.218-1.182-0.28-1.796-0.364c-0.146-0.018-0.461-0.021-0.766-0.025c-0.648-0.007-0.593-0.876,0.002-0.968
	c0.336-0.047,0.705-0.102,0.89-0.117c3.354-0.301,6.924,0.902,10.311,4.285c0.244,0.248,0.492,0.491,0.736,0.736
	c0.805,3.283,3.424,3.429,3.424,3.429c-1.379,1.364-2.758,2.732-4.135,4.101C21.857,17.619,21.826,17.499,21.795,17.375z
	 M27.734,15.862l-3.531,3.516c-0.352,0.354-0.93,0.354-1.287,0l-0.731-0.731l4.794-4.817l0.756,0.749
	C28.089,14.935,28.089,15.509,27.734,15.862z"/>
</svg>
