<?xml version="1.0" encoding="utf-8"?>
<!-- Generator: Adobe Illustrator 16.0.3, SVG Export Plug-In . SVG Version: 6.00 Build 0)  -->
<!DOCTYPE svg PUBLIC "-//W3C//DTD SVG 1.1//EN" "http://www.w3.org/Graphics/SVG/1.1/DTD/svg11.dtd">
<svg version="1.1" id="Layer_1" xmlns="http://www.w3.org/2000/svg" xmlns:xlink="http://www.w3.org/1999/xlink" x="0px" y="0px"
	 width="32px" height="32px" viewBox="0 0 32 32" enable-background="new 0 0 32 32" xml:space="preserve">
<path fill="#407CCA" d="M25.6,0H6.4C2.88,0,0,2.88,0,6.4v19.2C0,29.12,2.88,32,6.4,32h19.2c3.521,0,6.4-2.88,6.4-6.4V6.4
	C32,2.88,29.12,0,25.6,0z M20.636,18.314c0.258-1.313,0.273-2.556,0.3-3.52c0.02-1.385,0.038-2.245,0.041-2.245l0.044,2.251
	c0.001,0.952,0.019,2.186-0.219,3.498c0.006,0.304,0.056,0.737-0.057,1.324c-0.345,0.051-0.696,0.091-1.06,0.125
	c0.007-0.027,0.01-0.05,0.016-0.078C19.942,18.871,20.362,18.523,20.636,18.314z M20.139,16.283
	c0.161-1.235,0.116-2.392,0.086-3.289l-0.073-2.09c0,0,0.07,0.802,0.153,2.091c0.057,0.885,0.13,2.029-0.013,3.264
	c0.031,0.345,0.141,0.856-0.031,1.635c-0.2,0.878-0.673,1.311-0.794,1.488c-0.056-0.234-0.318-0.849-0.115-1.776
	C19.518,16.844,19.896,16.495,20.139,16.283z M19.521,11.229c0.095,0.817,0.225,1.872,0.165,3.026
	c0.047,0.318,0.18,0.784,0.07,1.518c-0.126,0.827-0.537,1.263-0.639,1.437c-0.065-0.216-0.356-0.769-0.222-1.644
	c0.106-0.72,0.438-1.067,0.649-1.277c0.078-1.156-0.024-2.226-0.1-3.058l-0.172-1.933C19.271,9.298,19.377,10.038,19.521,11.229z
	 M18.667,9.502c0.135,0.749,0.313,1.715,0.325,2.784c0.065,0.292,0.216,0.713,0.159,1.4c-0.065,0.768-0.415,1.2-0.498,1.369
	c-0.075-0.195-0.377-0.688-0.312-1.507c0.054-0.673,0.338-1.016,0.522-1.222c0.006-1.074-0.15-2.056-0.263-2.819l-0.263-1.776
	L18.667,9.502z M17.725,7.819c0.169,0.68,0.387,1.557,0.465,2.54c0.078,0.264,0.24,0.64,0.23,1.275
	c-0.009,0.711-0.303,1.132-0.363,1.294c-0.082-0.174-0.396-0.609-0.387-1.368c0.007-0.623,0.247-0.956,0.405-1.157
	c-0.064-0.987-0.265-1.879-0.413-2.574l-0.339-1.617L17.725,7.819z M15.208,10.702c0.4,0.605,0.875,1.409,1.476,2.254
	c0.271,0.066,0.701,0.187,1.107,0.727c0.492,0.66,0.462,1.244,0.488,1.445c-0.156-0.111-0.664-0.33-1.112-0.931
	c-0.398-0.534-0.504-0.938-0.61-1.203c-0.585-0.844-1.032-1.648-1.406-2.254c-0.546-0.883-0.925-1.393-0.923-1.396
	C14.226,9.346,14.633,9.837,15.208,10.702z M13.862,7.714c0,0.002,0.381,0.453,0.922,1.25c0.379,0.557,0.83,1.296,1.399,2.069
	c0.249,0.058,0.652,0.164,1.033,0.655c0.469,0.604,0.453,1.142,0.479,1.326c-0.144-0.1-0.619-0.293-1.044-0.84
	c-0.376-0.49-0.482-0.862-0.586-1.104c-0.553-0.774-0.977-1.513-1.332-2.071C14.219,8.186,13.862,7.716,13.862,7.714z M16.685,6.187
	c0.188,0.612,0.451,1.397,0.586,2.288c0.087,0.236,0.266,0.57,0.297,1.149c0.044,0.652-0.197,1.059-0.244,1.21
	c-0.086-0.152-0.396-0.527-0.443-1.223c-0.033-0.57,0.161-0.891,0.287-1.086c-0.122-0.898-0.365-1.699-0.539-2.324
	c-0.263-0.894-0.412-1.455-0.411-1.454L16.685,6.187z M14.044,4.071c0.191,0.309,1.03,1.626,1.822,3.438
	c0.164,0.09,0.488,0.268,0.68,0.708c0.218,0.528,0.005,0.885-0.027,1.052c-0.154-0.143-0.468-0.31-0.661-0.774
	c-0.158-0.363-0.112-0.688-0.079-0.882c-0.89-2.105-1.79-3.607-1.776-3.612L14.044,4.071z M14.319,7.215
	c0.359,0.506,0.777,1.186,1.308,1.892c0.23,0.051,0.596,0.148,0.958,0.595c0.436,0.55,0.429,1.04,0.46,1.208
	c-0.134-0.09-0.575-0.259-0.971-0.762c-0.358-0.441-0.457-0.787-0.555-1.008c-0.518-0.705-0.913-1.385-1.248-1.895
	c-0.477-0.746-0.816-1.172-0.813-1.174C13.456,6.073,13.817,6.481,14.319,7.215z M14.213,12.653
	c0.465,0.718,1.043,1.611,1.548,2.649c0.113,0.182,0.233,0.378,0.362,0.602c0.402,0.673,0.85,1.547,1.402,2.493
	c0.05-0.164,0.107-0.302,0.157-0.415c-0.185-0.546-0.394-1.065-0.612-1.553c-0.5-0.836-0.901-1.611-1.248-2.219
	c-0.591-1.031-1.009-1.625-1.006-1.627c-0.002,0.002,0.449,0.574,1.073,1.586c0.121,0.197,0.25,0.414,0.383,0.644
	c-0.102-0.19-0.198-0.376-0.291-0.551l-1.226-2.296c-0.002,0,0.518,0.858,1.319,2.258c0.364,0.639,0.798,1.405,1.202,2.272
	c0.065,0.106,0.132,0.212,0.2,0.318c0.239,0.07,0.594,0.184,0.943,0.537c-0.071-0.172-0.146-0.338-0.219-0.5
	c-0.188-0.152-0.392-0.353-0.587-0.626c-0.414-0.584-0.519-1.021-0.628-1.308C16.38,14,15.913,13.13,15.522,12.473
	c-0.57-0.956-0.97-1.507-0.968-1.51c-0.002,0.001,0.428,0.533,1.029,1.47c0.422,0.656,0.916,1.528,1.544,2.448
	c0.056,0.015,0.12,0.035,0.188,0.056c-0.461-0.976-0.727-1.555-0.725-1.555l0.817,1.588c0.266,0.103,0.589,0.291,0.891,0.712
	c0.516,0.722,0.462,1.354,0.484,1.573c-0.066-0.051-0.194-0.123-0.351-0.23c0.128,0.275,0.258,0.563,0.388,0.865
	c0.135,0.24,0.221,0.467,0.271,0.67c0.147,0.384,0.281,0.786,0.402,1.202c-0.064,0.005-0.132,0.009-0.199,0.014
	c-0.04-0.144-0.081-0.29-0.125-0.431c0,0.021,0,0.043,0,0.059c-0.121-0.098-0.451-0.277-0.803-0.637
	c0.058,0.124,0.115,0.262,0.17,0.412c0.161,0.138,0.325,0.315,0.48,0.561c0.012,0.021,0.019,0.036,0.031,0.055
	c-0.504,0.035-1.016,0.054-1.536,0.057c-0.124-0.516-0.108-0.92-0.039-1.243c-0.166-0.286-0.319-0.563-0.461-0.834
	c0.232,0.896,0.036,1.528,0.017,1.763c-0.191-0.207-0.821-0.677-1.151-1.723c-0.273-0.858-0.088-1.415,0.039-1.759
	c-0.543-1.331-1.246-2.471-1.785-3.362l-1.254-2.07C12.876,10.624,13.4,11.397,14.213,12.653z M11.649,17.877
	c-1.234-0.848-2.033-1.297-2.031-1.3c-0.002,0.003,0.822,0.412,2.085,1.221c0.802,0.516,1.783,1.216,2.915,1.927
	c-0.125-0.014-0.252-0.023-0.375-0.035C13.238,19.021,12.365,18.37,11.649,17.877z M12.655,19.439
	c-0.075-0.016-0.148-0.031-0.221-0.047c-1.038-0.734-1.702-1.109-1.7-1.113C10.731,18.282,11.492,18.665,12.655,19.439z
	 M13.358,18.071c-1.192-0.716-2.195-1.448-3-1.98c-1.17-0.774-1.927-1.186-1.924-1.188c-0.003,0.001,0.775,0.376,1.971,1.114
	c0.838,0.517,1.877,1.236,3.088,1.942c0.369-0.063,0.97-0.147,1.773,0.295c0.979,0.542,1.266,1.275,1.407,1.507
	c-0.252-0.056-1.001-0.056-1.888-0.552C13.995,18.771,13.64,18.335,13.358,18.071z M7.18,13.261
	c-0.004,0.003,0.727,0.343,1.854,1.014c0.786,0.472,1.766,1.126,2.908,1.761c0.342-0.064,0.898-0.152,1.652,0.244
	c0.923,0.484,1.206,1.154,1.345,1.364c-0.233-0.045-0.932-0.029-1.768-0.47c-0.747-0.394-1.088-0.792-1.354-1.03
	c-1.124-0.645-2.071-1.312-2.829-1.797C7.888,13.64,7.177,13.264,7.18,13.261z M12.304,11.162c0.563,0.767,1.292,1.755,1.893,2.944
	c0.231,0.291,0.633,0.686,0.943,1.479c0.348,0.894,0.187,1.554,0.186,1.785c-0.191-0.18-0.807-0.575-1.177-1.525
	c-0.309-0.777-0.171-1.305-0.076-1.631c-0.583-1.201-1.296-2.216-1.842-3.012l-1.269-1.85L12.304,11.162z M10.313,9.765
	c0.561,0.675,1.29,1.542,1.917,2.598c0.231,0.256,0.623,0.594,0.961,1.306c0.377,0.802,0.277,1.421,0.292,1.634
	c-0.186-0.152-0.779-0.478-1.184-1.332c-0.333-0.697-0.242-1.191-0.176-1.498c-0.612-1.07-1.326-1.964-1.875-2.665l-1.271-1.63
	L10.313,9.765z M8.238,8.477c0.551,0.586,1.276,1.328,1.919,2.255c0.227,0.218,0.612,0.498,0.964,1.13
	c0.408,0.706,0.354,1.284,0.385,1.477c-0.182-0.127-0.738-0.387-1.173-1.139c-0.35-0.621-0.303-1.078-0.267-1.362
	c-0.628-0.94-1.344-1.709-1.884-2.317C7.394,7.658,6.919,7.11,6.922,7.11L8.238,8.477z M4.086,7.466
	c0.387,0.248,2.06,1.288,3.948,2.905c0.237,0.017,0.701,0.049,1.159,0.444c0.537,0.477,0.49,0.985,0.544,1.19
	c-0.254-0.083-0.702-0.108-1.173-0.528c-0.377-0.323-0.504-0.71-0.573-0.944c-2.161-1.895-4.004-3.11-3.99-3.124L4.086,7.466z
	 M6.117,10.837c0.684,0.381,1.53,0.927,2.519,1.44c0.289-0.06,0.76-0.138,1.414,0.173c0.793,0.394,1.057,0.941,1.182,1.114
	c-0.202-0.032-0.797,0.004-1.518-0.353c-0.648-0.311-0.949-0.644-1.183-0.842c-0.974-0.523-1.793-1.08-2.451-1.473
	c-0.949-0.591-1.567-0.893-1.566-0.896C4.513,10.004,5.146,10.276,6.117,10.837z M5.873,11.627c-0.002,0.003,0.678,0.312,1.73,0.922
	c0.735,0.428,1.65,1.023,2.718,1.594c0.316-0.061,0.829-0.15,1.534,0.203c0.86,0.434,1.137,1.043,1.268,1.235
	c-0.218-0.038-0.863-0.011-1.645-0.406c-0.697-0.349-1.021-0.714-1.271-0.931c-1.05-0.581-1.935-1.188-2.644-1.629
	C6.533,11.974,5.87,11.632,5.873,11.627z M27.998,18.059c-0.068,1.771-0.672,3.693-1.597,5.463c0,0-2.212,4.479-9.154,4.479
	c-6.943,0-9.194-4.439-9.194-4.439c-0.928-1.781-1.491-3.688-1.561-5.502h0.005c-0.004-0.047-0.005-0.092-0.005-0.141
	c0-0.851,0.526-1.647,1.434-2.337l0.967,0.62c-0.598,0.402-0.945,0.849-0.945,1.326c0,1.679,4.164,3.038,9.299,3.038
	c5.134,0,9.298-1.359,9.298-3.038c0-1.16-1.996-2.168-4.928-2.68l0.013-1.219c3.753,0.734,6.372,2.377,6.372,4.29
	c0,0.049-0.004,0.094-0.007,0.141H27.998z"/>
</svg>
