<?xml version="1.0" encoding="utf-8"?>
<!-- Generator: Adobe Illustrator 16.0.3, SVG Export Plug-In . SVG Version: 6.00 Build 0)  -->
<!DOCTYPE svg PUBLIC "-//W3C//DTD SVG 1.1//EN" "http://www.w3.org/Graphics/SVG/1.1/DTD/svg11.dtd">
<svg version="1.1" id="Layer_1" xmlns="http://www.w3.org/2000/svg" xmlns:xlink="http://www.w3.org/1999/xlink" x="0px" y="0px"
	 width="32px" height="32px" viewBox="0 0 32 32" enable-background="new 0 0 32 32" xml:space="preserve">
<path fill="#407CCA" d="M25.6,0H6.4C2.88,0,0,2.88,0,6.4v19.2C0,29.12,2.88,32,6.4,32h19.2c3.521,0,6.4-2.88,6.4-6.4V6.4
	C32,2.88,29.12,0,25.6,0z M10.78,27.998c-2.494,0-4.523-2.029-4.523-4.521c0-1.533,0.795-2.972,2.086-3.802l0.001-13.25
	C8.35,5.086,9.439,3.999,10.78,3.999c1.339,0,2.431,1.087,2.438,2.426c0,0.005,0,0.008,0,0.01v13.239
	c1.289,0.831,2.086,2.27,2.086,3.803C15.303,25.969,13.275,27.998,10.78,27.998z M25.744,11.646h-3.83v3.826h-1.391v-3.826h-3.826
	v-1.394h3.826V6.425h1.391v3.827h3.83V11.646z M12.692,20.17l-0.174-0.1V6.435c0-0.959-0.779-1.739-1.739-1.739
	c-0.961,0-1.741,0.78-1.741,1.739V20.07l-0.173,0.1c-1.18,0.687-1.914,1.952-1.914,3.307c0,2.109,1.719,3.826,3.828,3.826
	c2.111,0,3.828-1.717,3.828-3.826C14.608,22.122,13.874,20.854,12.692,20.17z M10.78,25.911c-1.347,0-2.436-1.091-2.436-2.435
	c0-0.971,0.572-1.8,1.392-2.193V11.237h2.087v10.046c0.822,0.394,1.394,1.223,1.394,2.193C13.217,24.82,12.126,25.911,10.78,25.911z
	"/>
</svg>
