<?xml version="1.0" encoding="utf-8"?>
<!-- Generator: Adobe Illustrator 16.0.3, SVG Export Plug-In . SVG Version: 6.00 Build 0)  -->
<!DOCTYPE svg PUBLIC "-//W3C//DTD SVG 1.1//EN" "http://www.w3.org/Graphics/SVG/1.1/DTD/svg11.dtd">
<svg version="1.1" id="Layer_1" xmlns="http://www.w3.org/2000/svg" xmlns:xlink="http://www.w3.org/1999/xlink" x="0px" y="0px"
	 width="32px" height="32px" viewBox="0 0 32 32" enable-background="new 0 0 32 32" xml:space="preserve">
<path fill="#407CCA" d="M10.881,5.006l0.523-0.097c0.03,0.347-0.249,1.319-0.902,2.497C9.634,8.969,8.966,9.569,8.725,9.6
	L8.663,9.519c-0.08-0.344,0.215-1.506,0.962-2.912C9.994,5.916,10.481,5.315,10.881,5.006z M32,6.4v19.2c0,3.521-2.88,6.4-6.4,6.4
	H6.4C2.88,32,0,29.12,0,25.6V6.4C0,2.88,2.88,0,6.4,0h19.2C29.12,0,32,2.88,32,6.4z M27.263,8.378
	c-0.697,0.066-3.627-0.478-4.69-0.781c-1.064-0.303-2.01-2.172-3.91-1.563c-1.899,0.606-3.398-0.784-4.69-0.784
	c-0.895,0-1.365-0.225-1.784-0.466c-0.028-0.287-0.136-0.519-0.366-0.653C11.672,4.044,11.508,4,11.333,4
	c-0.264,0-0.525,0.112-0.772,0.272L5.372,5.256V5.25H4.589V28h0.783V6.578l2.625,3.356c0.023,0.05,0.067,0.084,0.098,0.128
	l0.095,0.122l0.011-0.013c0.039,0.038,0.058,0.084,0.106,0.112c0.122,0.069,0.255,0.104,0.396,0.104h0.001
	c0.153,0,0.316-0.06,0.483-0.147c0.776,0.269,1.922,0.538,2.438,0.484c0.724-0.078,1.739,0.288,2.347,0.781
	c0.608,0.494,3.302-0.153,3.909,0c0.608,0.153,2.405,1.222,3.129,1.563c0.72,0.344,3.527,0.116,3.909,0
	c0.38-0.113,1.8-2.763,1.99-3.125C27.1,9.581,27.682,8.341,27.263,8.378z M9.57,5.256l-3.692,0.7L7.983,8.65
	c0.209-0.928,0.714-1.962,0.953-2.409C8.989,6.141,9.228,5.712,9.57,5.256z"/>
</svg>
