<?xml version="1.0" encoding="utf-8"?>
<!-- Generator: Adobe Illustrator 16.0.3, SVG Export Plug-In . SVG Version: 6.00 Build 0)  -->
<!DOCTYPE svg PUBLIC "-//W3C//DTD SVG 1.1//EN" "http://www.w3.org/Graphics/SVG/1.1/DTD/svg11.dtd">
<svg version="1.1" id="Layer_1" xmlns="http://www.w3.org/2000/svg" xmlns:xlink="http://www.w3.org/1999/xlink" x="0px" y="0px"
	 width="32px" height="32px" viewBox="0 0 32 32" enable-background="new 0 0 32 32" xml:space="preserve">
<path fill="#407CCA" d="M25.6,0H6.4C2.88,0,0,2.88,0,6.4v19.2C0,29.12,2.88,32,6.4,32h19.2c3.521,0,6.4-2.88,6.4-6.4V6.4
	C32,2.88,29.12,0,25.6,0z M27.961,21.631c-0.047-0.07-0.553-0.035-0.722-0.11c-0.156-0.069-0.335-0.044-0.487-0.119
	c-0.194-0.092-0.278-0.25-0.5-0.287c-0.21-0.036-0.635,0.044-0.594-0.036c-0.685,0.026-1.388,0.123-2.066-0.036
	c-0.081-0.014-0.215,0.022-0.259-0.159c-0.038-0.136-0.065-0.273-0.091-0.411c-0.019-0.104-0.06-0.228-0.112-0.321
	c-0.078-0.145-0.088-0.246-0.263-0.224c-0.078,0.009-2.494,0.69-4.463,0.834c-0.215,0.016-0.178,0.513-0.19,0.687
	c-0.009,0.117-0.031,0.232-0.044,0.348c-0.003,0.022-0.118,0.122-0.156,0.091c-0.065-0.06-0.084-0.037-0.175,0.007
	c-0.053,0.024-0.103,0.047-0.159,0.063c-0.1,0.034-1.112,0.192-1.462,0.386c-0.069,0.044-0.234,0.091-0.3,0.145
	c-0.159,0.131-0.353,0.253-0.681,0.248c0.084-0.201,0.25-0.314,0.435-0.404c0.147-0.072,0.247-0.138,0.391-0.223
	c0.15-0.087,1.781-0.49,1.791-0.459c-0.019-0.075-0.119-0.104-0.119-0.188c0-0.138,0.182-0.209,0.16-0.393
	c-0.372,0.309-4.275,0.127-5.282-0.191c-0.366-0.119-0.69-0.332-1.053-0.455c-0.156-0.052-0.175,0.092-0.212,0.221
	c-0.038,0.128-0.075,0.253-0.116,0.378c-0.037,0.109-0.021,0.239-0.059,0.356c-0.041,0.131-0.05,0.266-0.069,0.402
	c0.009-0.074-1.478,0.382-1.606,0.416c-0.425,0.112-0.837,0.2-1.231,0.409c0.047-0.128,0.819-0.614,0.987-0.634
	c0.285-0.027,0.578-0.122,0.856-0.172c0.222-0.036,0.519-0.15,0.715-0.258c-0.281-0.127-0.103-0.827-0.059-1.002
	c0.012-0.064-0.41,0.016-0.457,0.023c-0.806,0.104-1.615-0.018-2.391-0.258c-0.05-0.014-0.166-0.115-0.203-0.104
	c-0.065,0.017-0.428,0.954-0.506,1.142c-0.041,0.105-0.207,0.515-0.247,0.638c-0.047,0.141-0.038,0.304-0.063,0.45
	c-0.031,0.206-0.503,0.135-0.594,0.167c-0.103,0.039-0.856,0.299-0.956,0.38c-0.041,0.033-0.816,0.331-0.75,0.237
	c-0.091,0.026-0.497,0.319-0.547,0.272c-0.216-0.192,0.322-0.397,0.412-0.41c0.316-0.031,0.472-0.078,0.738-0.262
	c0.203-0.138,0.444-0.215,0.656-0.344c0.128-0.075,0.353-0.148,0.459-0.254c0.109-0.115,0.125-0.354,0.175-0.498
	c0.065-0.198,0.188-0.427,0.288-0.614c0.137-0.271,0.281-0.553,0.391-0.831c0.097-0.244,0.103-0.237-0.125-0.354
	c-0.1-0.052-0.191-0.114-0.285-0.174c-0.597-0.392-1.606-0.546-1.906-1.267c-0.016-0.04-0.006-0.087,0.01-0.125
	c0.037-0.082,0.072-0.042,0.137-0.009c0.788,0.4,1.603,0.716,2.435,1.016c0.116,0.04,0.112,0.061,0.166-0.054
	c0.025-0.055,0.044-0.11,0.063-0.169c0.038-0.114,0.513-0.653,0.341-0.758c-0.51-0.319-1.635-0.082-1.381-1.177
	c0.025-0.123,0.031-0.311,0.116-0.407c0.084-0.099,0.166-0.179,0.271-0.258c0.216-0.164,0.457-0.266,0.722-0.287
	c0.253-0.026,0.491,0.032,0.744,0.059c0.263,0.032,0.591,0.064,0.847-0.005c0.122-0.033,0.209-0.082,0.3-0.167
	c0.047-0.047,0.15-0.252,0.2-0.264c-0.075,0.021,0.55-0.784,0.697-0.898c0.181-0.141,0.072-0.254,0-0.422
	c-0.131-0.292,0.094-0.737,0.387-0.84c0.609-0.219,0.731,0.855,1.253,0.814c0.159-0.01,0.081-0.22,0.175-0.241
	c-0.038,0.009,0.541-1.296,0.556-1.46c0.031-0.287,0.219-0.518,0.5-0.439c0.547,0.152,0.962,0.647,1.35,1.042
	c0.175,0.181,0.359,0.315,0.509,0.515c0.156,0.205,0.31,0.407,0.466,0.608c0.322,0.431,0.703,0.761,1.072,1.145
	c0.178,0.182,0.318,0.407,0.487,0.595c0.116,0.134,0.175,0.081,0.341,0.081c0.125,0,0.25-0.012,0.381-0.017
	c0.991-0.041,1.979-0.015,2.966-0.09c0.784-0.062,1.544,0.105,2.338,0.035c0.149-0.012,0.274-0.009,0.425,0.023
	c0.063,0.017,0.115,0.047,0.175,0.067c0.075,0.035,0.06-0.041,0.112-0.087c0.188-0.17,0.469-0.077,0.685-0.115
	c0.226-0.035,0.153-0.138,0.375-0.052c0,0-2.048-3.999-6.406-6.206c-2.465-1.156-4.778-1.399-6.203-1.409
	c-0.473,0.006-0.951,0.022-1.453,0.078c0,0,0.55-0.084,1.453-0.078c2.433-0.034,4.497,0.544,6.203,1.409
	c2.338,1.094,4.81,3.006,6.791,6.34c0.087,0.164,0.356,0.553,0.428,0.729c0.21,0.489,0.128,1.08-0.013,1.575
	c-0.031,0.11-0.118,0.213-0.175,0.315c-0.078,0.138-0.044,0.192,0.047,0.319c0.141,0.205,0.175,0.521,0.229,0.761
	c0.037,0.167,0.013,0.644,0.172,0.727c0.306,0.156,0.597,0.344,0.919,0.476c0.29,0.115,0.59,0.141,0.884,0.277
	C28.018,21.495,28.011,21.573,27.961,21.631z M25.68,20.502c0.016,0.087,0.025,0.178,0.041,0.266
	c0.006,0.063-0.106,0.053-0.156,0.068l-1.391-0.019c-0.147-0.01-0.416-0.106-0.497-0.169c-0.065-0.05-0.101-0.193-0.132-0.271
	c-0.078-0.175-0.152-0.349-0.23-0.521c-0.041-0.094-0.132-0.211-0.098-0.311c0.02-0.044,0.047-0.073,0.088-0.091
	c0.021-0.011,0.068,0.026,0.088,0.018c0.031-0.01,0.047-0.038,0.071-0.053c0.109-0.059,0.185-0.152,0.304-0.198
	c0.09-0.045,0.19-0.073,0.277-0.117c0.122-0.062,0.163-0.015,0.285-0.067c0.056,0.17,0.063,0.301,0.087,0.473
	c0.016,0.089,0.094,0.397,0.226,0.378c0.156-0.02,0.318-0.02,0.456-0.097c0.106-0.063,0.193-0.247,0.271-0.356
	c0.104,0.231,0.188,0.442,0.237,0.685C25.633,20.247,25.661,20.377,25.68,20.502z M14.817,14.264
	c0.453,0.682,0.744,1.438,1.028,2.204c-0.247,0.038-0.413,0.045-0.663,0c-0.188-0.032-0.391-0.193-0.55-0.295
	c-0.353-0.229-0.631-0.527-1.028-0.694c-0.19-0.082-0.35-0.164-0.509-0.298c-0.072-0.059-0.137-0.123-0.212-0.173
	c-0.134-0.094-0.212-0.094-0.141-0.258c0.166-0.377,0.294-0.775,0.475-1.147c0.041-0.079,0.084-0.158,0.125-0.237
	c0.069-0.126,0.065-0.173,0.209-0.161c0.203,0.015,0.337,0.161,0.512,0.246C14.374,13.608,14.63,13.98,14.817,14.264z
	 M12.705,15.707c0.313,0.176,0.582,0.448,0.847,0.688c-0.466-0.105-0.953-0.132-1.428-0.182c0.131-0.228,0.206-0.465,0.297-0.708
	C12.521,15.567,12.611,15.634,12.705,15.707z M10.646,18.859c0.084,0.009,0.422-0.009,0.456,0.108
	c0.009,0.035-0.047,0.506-0.159,0.6c-0.072,0.068-0.288,0.079-0.391,0.087c-0.272,0.028-0.563,0.033-0.834,0.007
	c-0.541-0.058-1.087-0.075-1.634-0.132c0.019-0.02,0.034-0.056,0.053-0.073c0.031-0.169,0.163-0.225,0.163-0.397
	c0-0.141,0.16-0.337,0.281-0.398c0.322-0.166,0.707,0.029,1.031,0.076c0.175,0.029,0.344,0.032,0.519,0.032
	C10.302,18.769,10.474,18.833,10.646,18.859z M11.999,15.146c-0.047,0.05-0.144,0.31-0.103,0.234c-0.066,0.208-0.122,0.4-0.241,0.58
	c-0.047,0.067-0.203,0.131-0.203,0.205c0,0.108-0.125,0.087-0.222,0.087c-0.391,0-0.778,0.015-1.168,0.053
	c0.05-0.108,0.106-0.22,0.156-0.328l0.5-0.655c0.031-0.032,0.453-0.624,0.659-0.58C11.586,14.788,11.823,15.025,11.999,15.146z"/>
</svg>
