<?xml version="1.0" encoding="utf-8"?>
<!-- Generator: Adobe Illustrator 16.0.3, SVG Export Plug-In . SVG Version: 6.00 Build 0)  -->
<!DOCTYPE svg PUBLIC "-//W3C//DTD SVG 1.1//EN" "http://www.w3.org/Graphics/SVG/1.1/DTD/svg11.dtd">
<svg version="1.1" id="Layer_1" xmlns="http://www.w3.org/2000/svg" xmlns:xlink="http://www.w3.org/1999/xlink" x="0px" y="0px"
	 width="32px" height="32px" viewBox="0 0 32 32" enable-background="new 0 0 32 32" xml:space="preserve">
<path fill="#407CCA" d="M20.56,17.369c0-0.365,1.567-5.217-1.483-6.684c-3.514-1.69-4.485-3.039-4.456-5.199
	c-0.003,0.087-2.125,3.509-0.744,5.199c2.147,2.617,1.241,4.642,0,4.456c-2.083-0.312-1.831-3.028-1.484-3.713
	c-1.089-0.115-2.348,0.563-2.972,1.485c-1.874,2.784,2.188,5.447,0.744,7.426c-1.099,1.508-2.977-1.461-2.97-1.484
	c-2.23,11.638,13.962,11.935,14.853,2.229c0.266-2.911,2.886-4.495,2.971-4.457C22.227,15.339,20.56,17.462,20.56,17.369z
	 M15.362,25.539c-3.892,0.144-3.494-2.775-2.97-3.714c0.663-1.195,2.341-1.433,1.484-2.971c0.011,0.022,1.822,0.296,2.97,1.484
	C18.607,22.158,18.408,25.424,15.362,25.539z M17.591,7.714c-0.455-0.487-0.744-1.073-0.744-1.486c0-0.772,0.632-1.516,1.486-2.227
	c0.086,0.619-0.37,1.547,0,2.227c0.287,0.504,0.743,1.074,0.743,1.486c0,0.553-0.206,1.057-0.743,1.485
	C18.252,8.993,18.109,8.315,17.591,7.714z"/>
</svg>
