<?xml version="1.0" encoding="utf-8"?>
<!-- Generator: Adobe Illustrator 16.0.3, SVG Export Plug-In . SVG Version: 6.00 Build 0)  -->
<!DOCTYPE svg PUBLIC "-//W3C//DTD SVG 1.1//EN" "http://www.w3.org/Graphics/SVG/1.1/DTD/svg11.dtd">
<svg version="1.1" id="Layer_1" xmlns="http://www.w3.org/2000/svg" xmlns:xlink="http://www.w3.org/1999/xlink" x="0px" y="0px"
	 width="32px" height="32px" viewBox="0 0 32 32" enable-background="new 0 0 32 32" xml:space="preserve">
<path fill="#407CCA" d="M25.6,0H6.4C2.88,0,0,2.88,0,6.4v19.2C0,29.12,2.88,32,6.4,32h19.2c3.521,0,6.4-2.88,6.4-6.4V6.4
	C32,2.88,29.12,0,25.6,0z M12.344,4.03c1.231-0.203,2.398,0.633,2.597,1.866c0.202,1.232-0.633,2.395-1.864,2.598
	c-1.234,0.202-2.397-0.633-2.599-1.864C10.276,5.396,11.109,4.231,12.344,4.03z M17.516,27.545C17.334,27.826,17.023,28,16.688,28
	c-0.589,0-0.858-0.448-1.072-0.808l-4.344-7.302l-1.177,2.391c-0.272,0.56-0.822,1.352-1.242,1.807l-2.367,2.555
	c-0.309,0.331-0.553,0.592-1.004,0.592c-0.38,0-0.725-0.217-0.886-0.558c-0.278-0.577,0.058-0.994,0.353-1.362l2.338-2.897
	c0.253-0.311,0.58-0.946,0.693-1.329l0.864-3.033c0.125-0.445,0.272-1.239,0.308-1.7L9.538,11.7
	c-0.477,0.158-0.984,0.445-1.516,0.862c-1.725,1.472-2.841,3.261-2.853,3.28c-0.064,0.1-0.122,0.195-0.18,0.283
	c-0.003,0.003-0.003,0.006-0.006,0.008c-0.211,0.308-0.431,0.51-0.858,0.51c-0.354,0-0.681-0.191-0.856-0.499
	c-0.222-0.389-0.134-0.697,0.044-1.033v-0.001c0.003-0.003,0.006-0.006,0.009-0.011c0.048-0.091,0.106-0.186,0.167-0.285
	c0.055-0.094,1.384-2.272,3.289-3.773c1.607-1.364,3.237-2.128,4.845-2.267c1.878-0.164,2.736,1.617,3.286,2.771
	c0.108,0.223,0.208,0.433,0.31,0.619l0.894,1.62c0.438,0.788,0.869,1.575,1.308,2.361l0.508,0.919
	c0.257,0.466,0.098,1.052-0.36,1.322c-0.458,0.269-1.049,0.123-1.332-0.325l-2.001-3.199l-0.464,2.506
	c-0.058,0.325,0.019,0.936,0.156,1.234l3.513,7.631C17.619,26.623,17.823,27.065,17.516,27.545z M23.148,22.255v0.006h-0.57v1.564
	l-5.231-3.021l5.231-3.021v1.564h0.511c1.577,0,2.858-1.284,2.858-2.861c0-1.576-1.281-2.857-2.858-2.857h-2.453v-2.917h2.453
	c3.185,0,5.775,2.591,5.775,5.775C28.864,19.651,26.307,22.222,23.148,22.255z"/>
</svg>
