<?xml version="1.0" encoding="utf-8"?>
<!-- Generator: Adobe Illustrator 16.0.3, SVG Export Plug-In . SVG Version: 6.00 Build 0)  -->
<!DOCTYPE svg PUBLIC "-//W3C//DTD SVG 1.1//EN" "http://www.w3.org/Graphics/SVG/1.1/DTD/svg11.dtd">
<svg version="1.1" id="Layer_1" xmlns="http://www.w3.org/2000/svg" xmlns:xlink="http://www.w3.org/1999/xlink" x="0px" y="0px"
	 width="32px" height="32px" viewBox="0 0 32 32" enable-background="new 0 0 32 32" xml:space="preserve">
<path fill="#407CCA" d="M14.94,5.896c0.202,1.232-0.633,2.395-1.864,2.598c-1.234,0.202-2.397-0.633-2.599-1.864
	c-0.202-1.234,0.631-2.398,1.866-2.6C13.575,3.827,14.742,4.663,14.94,5.896z M14.234,14.861l2.001,3.199
	c0.283,0.448,0.874,0.594,1.332,0.325c0.458-0.271,0.617-0.856,0.36-1.322l-0.508-0.919c-0.438-0.786-0.87-1.573-1.308-2.361
	l-0.894-1.62c-0.102-0.186-0.202-0.396-0.31-0.619c-0.55-1.153-1.408-2.935-3.286-2.771c-1.608,0.139-3.238,0.903-4.845,2.267
	c-1.905,1.501-3.234,3.68-3.289,3.773c-0.061,0.099-0.119,0.194-0.167,0.285c-0.003,0.004-0.006,0.008-0.009,0.011v0.001
	c-0.178,0.336-0.266,0.644-0.044,1.033c0.175,0.308,0.502,0.499,0.856,0.499c0.427,0,0.647-0.202,0.858-0.51l0,0
	c0.003-0.001,0.003-0.005,0.006-0.008c0.058-0.087,0.115-0.183,0.18-0.283c0.012-0.019,1.128-1.808,2.853-3.28
	c0.531-0.417,1.039-0.705,1.516-0.862l-0.386,4.654c-0.036,0.461-0.183,1.255-0.308,1.7l-0.864,3.033
	c-0.114,0.383-0.44,1.019-0.693,1.329l-2.338,2.897c-0.295,0.368-0.631,0.785-0.353,1.362c0.161,0.341,0.506,0.558,0.886,0.558
	c0.451,0,0.695-0.261,1.004-0.592l2.367-2.555c0.42-0.455,0.97-1.247,1.242-1.807l1.177-2.391l4.344,7.302
	C15.83,27.552,16.099,28,16.688,28l0,0c0.336,0,0.646-0.174,0.828-0.455c0.308-0.479,0.104-0.922-0.076-1.313l-3.513-7.631
	c-0.138-0.299-0.214-0.909-0.156-1.234L14.234,14.861z M28.864,16.487c0-3.184-2.591-5.775-5.775-5.775h-2.453v2.917h2.453
	c1.577,0,2.858,1.281,2.858,2.857c0,1.577-1.281,2.861-2.858,2.861h-0.511v-1.564l-5.231,3.021l5.231,3.021v-1.564h0.57v-0.006
	C26.307,22.222,28.864,19.651,28.864,16.487z"/>
</svg>
