<?xml version="1.0" encoding="utf-8"?>
<!-- Generator: Adobe Illustrator 16.0.3, SVG Export Plug-In . SVG Version: 6.00 Build 0)  -->
<!DOCTYPE svg PUBLIC "-//W3C//DTD SVG 1.1//EN" "http://www.w3.org/Graphics/SVG/1.1/DTD/svg11.dtd">
<svg version="1.1" id="Layer_1" xmlns="http://www.w3.org/2000/svg" xmlns:xlink="http://www.w3.org/1999/xlink" x="0px" y="0px"
	 width="32px" height="32px" viewBox="0 0 32 32" enable-background="new 0 0 32 32" xml:space="preserve">
<path fill="#407CCA" d="M20.627,14.799c0.102,0.386,0.172,0.784,0.172,1.2c0,2.202-1.499,4.044-3.523,4.606
	c-0.051-1,0.157-2.047,0.654-3.042l-0.791-0.458c-0.289,0.294-0.69,0.481-1.139,0.481c-0.445,0-0.849-0.188-1.139-0.481l-0.778,0.45
	c0.5,1,0.709,2.053,0.656,3.056c-2.031-0.559-3.539-2.404-3.539-4.612c0-0.419,0.07-0.819,0.173-1.208
	c0.887,0.451,1.69,1.148,2.306,2.07l0.803-0.462c-0.035-0.138-0.083-0.269-0.083-0.416c0-0.742,0.514-1.339,1.2-1.52v-0.917
	c-1.114-0.069-2.124-0.416-2.962-0.962c0.867-0.852,2.051-1.382,3.361-1.382c1.309,0,2.496,0.53,3.363,1.383
	c-0.838,0.544-1.848,0.893-2.961,0.961v0.917c0.686,0.181,1.2,0.778,1.2,1.52c0,0.147-0.045,0.278-0.082,0.416l0.815,0.472
	C18.945,15.948,19.745,15.251,20.627,14.799z M32,6.4v19.2c0,3.522-2.88,6.4-6.4,6.4H6.4C2.88,32,0,29.122,0,25.6V6.4
	C0,2.88,2.88,0,6.4,0h19.2C29.12,0,32,2.88,32,6.4z M28,15.983C28,9.559,22.961,4.327,16.623,4C19.424,4.265,21.6,6.301,21.6,8.774
	c0,0.848-0.279,1.633-0.729,2.325c-1.251-1.243-2.972-2.013-4.872-2.013c-1.897,0-3.617,0.771-4.867,2.013
	C10.68,10.406,10.4,9.623,10.4,8.774c0-2.474,2.177-4.51,4.977-4.774C9.039,4.327,4,9.559,4,15.983c0,1.94,0.47,3.766,1.284,5.388
	c-1.114-2.537-0.436-5.392,1.678-6.614c0.736-0.426,1.558-0.576,2.383-0.529c-0.153,0.569-0.259,1.156-0.259,1.771
	c0,3.192,2.185,5.859,5.128,6.651c-0.045,0.067-0.094,0.133-0.133,0.202c-0.003,0.006-0.003,0.013-0.004,0.019
	c-0.094,0.217-0.222,0.391-0.363,0.545c-0.318,0.411-0.684,0.783-1.151,1.052c-2.125,1.229-4.948,0.378-6.586-1.884
	C8.124,25.846,11.808,28,16,28c4.153,0,7.811-2.113,9.966-5.321c-1.646,2.189-4.417,3.002-6.515,1.792
	c-0.74-0.431-1.279-1.078-1.651-1.824c2.937-0.799,5.114-3.46,5.114-6.647c0-0.615-0.106-1.202-0.26-1.771
	c0.832-0.049,1.656,0.102,2.397,0.529c2.053,1.186,2.75,3.909,1.771,6.39C27.57,19.58,28,17.834,28,15.983z"/>
</svg>
