<?xml version="1.0" encoding="utf-8"?>
<!-- Generator: Adobe Illustrator 16.0.3, SVG Export Plug-In . SVG Version: 6.00 Build 0)  -->
<!DOCTYPE svg PUBLIC "-//W3C//DTD SVG 1.1//EN" "http://www.w3.org/Graphics/SVG/1.1/DTD/svg11.dtd">
<svg version="1.1" id="Layer_1" xmlns="http://www.w3.org/2000/svg" xmlns:xlink="http://www.w3.org/1999/xlink" x="0px" y="0px"
	 width="32px" height="32px" viewBox="0 0 32 32" enable-background="new 0 0 32 32" xml:space="preserve">
<path fill="#407CCA" d="M20.073,20.428l-2.228,6.125l-0.465-0.172l2.168-5.953H20.073z M17.07,20.428l-2.167,5.953l0.464,0.172
	l2.229-6.125H17.07z M14.592,20.428l-2.167,5.953l0.464,0.172l2.228-6.125H14.592z M12.114,20.428l-2.167,5.953l0.464,0.172
	l2.228-6.125H12.114z M22.026,20.428l-2.167,5.953l0.464,0.172l2.229-6.125H22.026z M9.636,20.428l-2.167,5.953l0.464,0.172
	l2.229-6.125H9.636z M23.498,9.947c-0.561,0-1.094,0.116-1.587,0.303c-0.429-2.719-2.761-4.803-5.599-4.803
	c-3.142,0-5.688,2.547-5.688,5.688c0,0.069,0.019,0.138,0.022,0.209c-0.07-0.006-0.139-0.022-0.209-0.022
	c-1.69,0-3.063,1.369-3.063,3.06c0,0.025,0.006,0.043,0.006,0.063c-0.242-0.072-0.492-0.122-0.756-0.122
	C5.175,14.322,4,15.497,4,16.943c0,1.453,1.175,2,2.625,2c0.403,0,4.302,0,8.249,0c1.564,0,3.128,0,4.496,0c2.25,0,3.949,0,4.129,0
	c2.486,0,4.502-2.012,4.502-4.497C28,11.959,25.984,9.947,23.498,9.947z"/>
</svg>
