<?xml version="1.0" encoding="utf-8"?>
<!-- Generator: Adobe Illustrator 16.0.3, SVG Export Plug-In . SVG Version: 6.00 Build 0)  -->
<!DOCTYPE svg PUBLIC "-//W3C//DTD SVG 1.1//EN" "http://www.w3.org/Graphics/SVG/1.1/DTD/svg11.dtd">
<svg version="1.1" id="Layer_1" xmlns="http://www.w3.org/2000/svg" xmlns:xlink="http://www.w3.org/1999/xlink" x="0px" y="0px"
	 width="32px" height="32px" viewBox="0 0 32 32" enable-background="new 0 0 32 32" xml:space="preserve">
<path fill="#407CCA" d="M25.6,0H6.4C2.88,0,0,2.88,0,6.4v19.2C0,29.12,2.88,32,6.4,32h19.2c3.521,0,6.4-2.88,6.4-6.4V6.4
	C32,2.88,29.12,0,25.6,0z M18.333,4.001c0.086,0.619-0.37,1.547,0,2.227c0.287,0.504,0.743,1.074,0.743,1.486
	c0,0.553-0.206,1.057-0.743,1.485c-0.081-0.206-0.224-0.884-0.742-1.485c-0.455-0.487-0.744-1.073-0.744-1.486
	C16.847,5.456,17.479,4.712,18.333,4.001z M22.047,21.083c-0.891,9.706-17.083,9.409-14.853-2.229
	c-0.006,0.023,1.872,2.992,2.97,1.484c1.444-1.979-2.617-4.643-0.744-7.426c0.624-0.923,1.883-1.6,2.972-1.485
	c-0.347,0.685-0.598,3.402,1.484,3.713c1.241,0.187,2.147-1.839,0-4.456c-1.381-1.69,0.741-5.112,0.744-5.199
	c-0.029,2.16,0.942,3.509,4.456,5.199c3.051,1.467,1.483,6.319,1.483,6.684c0,0.093,1.667-2.03,4.458-0.743
	C24.933,16.588,22.313,18.172,22.047,21.083z M16.847,20.339c1.761,1.819,1.562,5.085-1.484,5.2
	c-3.892,0.144-3.494-2.775-2.97-3.714c0.663-1.195,2.341-1.433,1.484-2.971C13.888,18.877,15.698,19.15,16.847,20.339z"/>
</svg>
