<?xml version="1.0" encoding="utf-8"?>
<!-- Generator: Adobe Illustrator 16.0.3, SVG Export Plug-In . SVG Version: 6.00 Build 0)  -->
<!DOCTYPE svg PUBLIC "-//W3C//DTD SVG 1.1//EN" "http://www.w3.org/Graphics/SVG/1.1/DTD/svg11.dtd">
<svg version="1.1" id="Layer_1" xmlns="http://www.w3.org/2000/svg" xmlns:xlink="http://www.w3.org/1999/xlink" x="0px" y="0px"
	 width="32px" height="32px" viewBox="0 0 32 32" enable-background="new 0 0 32 32" xml:space="preserve">
<path fill="#407CCA" d="M13.889,17.813c0.422,0.2,0.905,0.315,1.459,0.315c0.212,0,0.433-0.017,0.662-0.045
	c2.039-0.262,3.169-3.271,3.229-6.11c0.02-0.758-0.087-2.171-0.984-3.102C17.722,8.314,17,8.033,16.111,8.031
	c-1.5-0.35-7.325-1.688-8.362-1.664C6.006,6.406,4.436,8.718,4.12,10.166c-0.313,1.441-0.178,4.525,2.402,5.099L13.889,17.813z
	 M7.969,14.617l0.042-1.753c0,0,0.328,0.292,0.574,0.062l1.147,2.275C9.302,15.515,8.195,15.055,7.969,14.617z M13.664,16.752
	c-0.53-0.542-0.798-1.459-0.795-2.723c0.001-1.73,0.944-5.158,3.108-5.233L16.1,8.792c0.686,0,1.23,0.207,1.622,0.616
	c0.729,0.756,0.781,2.035,0.772,2.55c-0.055,2.482-1.035,5.17-2.577,5.367C14.927,17.451,14.163,17.26,13.664,16.752z M9.523,9.111
	c0.283-0.342,1.08,3.181,0.68,3.316c-0.063,0.021-1.413-0.363-1.413-0.363c0.06-0.222-0.019-0.727-0.308-0.975L9.523,9.111z
	 M8.133,11.216c0.308,0.021,0.409,0.458,0.409,0.772c0,0.313-0.081,0.626-0.328,0.584c-0.245-0.043-0.369-0.773-0.369-0.773
	C7.827,12.133,7.827,11.194,8.133,11.216z M7.517,8.357l0.35,2.546c-0.227,0.166-0.267,0.459-0.227,0.834L6.31,11.319
	C6.104,10.778,6.966,8.44,7.517,8.357z M27.979,17.871c0.221,0.908-1.479,1.661-2.289,2.305c-0.808,0.641-2.631,1.619-4.987,2.875
	c-2.357,1.256-5.317,2.203-7.236,1.716c-1.919-0.489-3.317-0.572-4.949,0.446c-1.629,1.02-3.123,0.015-3.301-1.184
	c-0.178-1.202,3.249-3.27,4.906-3.129c1.314,0.111,3.819-1.219,5.114-1.495c0.505-0.109,1.378-0.123,2.827-0.666
	c1.445-0.545,2.001-2.79,2.727-3.135c0.871-0.411,2.561,0.234,3.021,0.381C24.513,16.209,27.76,16.964,27.979,17.871z"/>
</svg>
