<?xml version="1.0" encoding="utf-8"?>
<!-- Generator: Adobe Illustrator 16.0.3, SVG Export Plug-In . SVG Version: 6.00 Build 0)  -->
<!DOCTYPE svg PUBLIC "-//W3C//DTD SVG 1.1//EN" "http://www.w3.org/Graphics/SVG/1.1/DTD/svg11.dtd">
<svg version="1.1" id="Layer_1" xmlns="http://www.w3.org/2000/svg" xmlns:xlink="http://www.w3.org/1999/xlink" x="0px" y="0px"
	 width="32px" height="32px" viewBox="0 0 32 32" enable-background="new 0 0 32 32" xml:space="preserve">
<path fill="#407CCA" d="M25.6,0H6.4C2.88,0,0,2.88,0,6.4v19.2C0,29.12,2.88,32,6.4,32h19.2c3.521,0,6.4-2.88,6.4-6.4V6.4
	C32,2.88,29.12,0,25.6,0z M22.549,16.378l-3.255-3.256l4.7-1.734C24.322,13.011,23.822,14.87,22.549,16.378z M22.842,9.156
	c0.444,0.442,0.757,0.97,0.966,1.541l-3.972,1.466l1.466-3.972C21.872,8.4,22.4,8.712,22.842,9.156z M20.611,8.005l-1.736,4.7
	L15.62,9.448C17.127,8.177,18.986,7.677,20.611,8.005z M9.942,15.411l-1.147-0.194L6.531,17.57l-1.966,0.268
	c-0.161,0.023-0.314-0.036-0.42-0.141c-0.075-0.075-0.127-0.174-0.141-0.286c-0.039-0.273,0.153-0.523,0.425-0.562l1.625-0.222
	l2.698-2.789l2.672-0.25c0.3-0.337,0.6-0.664,0.902-0.977l-1.078-1.384l-1.978,1.317l-1.994,0.222
	c-0.154,0.017-0.303-0.041-0.406-0.144c-0.078-0.078-0.129-0.181-0.144-0.297c-0.03-0.275,0.167-0.521,0.442-0.552l1.864-0.208
	l2.358-1.661l1.892,1.734c0.153-0.151,0.302-0.294,0.449-0.435l0.328-2.314l2.742-2.742l0.412-1.766
	c0.062-0.269,0.331-0.436,0.599-0.372c0.269,0.063,0.435,0.331,0.372,0.598l-0.476,2.044l-2.47,2.469l-0.183,0.811l3.251,3.253
	l-9.969,9.969C6.938,20.695,8.126,17.888,9.942,15.411z M27.614,14.784l-1.766,0.411l-2.742,2.744l-2.314,0.328
	c-0.142,0.146-0.282,0.295-0.436,0.448l1.735,1.892l-1.66,2.358l-0.21,1.865c-0.029,0.272-0.274,0.471-0.552,0.439
	c-0.115-0.013-0.217-0.064-0.295-0.143c-0.104-0.103-0.161-0.251-0.144-0.407l0.222-1.994l1.317-1.977l-1.386-1.078
	c-0.313,0.299-0.638,0.597-0.976,0.896l-0.25,2.677l-2.791,2.698l-0.22,1.624c-0.038,0.273-0.289,0.464-0.561,0.427
	c-0.112-0.016-0.211-0.066-0.286-0.141c-0.105-0.106-0.164-0.26-0.141-0.422l0.267-1.965l2.351-2.264l-0.196-1.166
	c-2.406,1.731-5.131,2.827-7.561,1.442l9.789-9.789l3.252,3.252l0.813-0.183l2.469-2.471l2.042-0.475
	c0.269-0.063,0.538,0.103,0.601,0.372C28.049,14.453,27.881,14.722,27.614,14.784z"/>
</svg>
