<?xml version="1.0" encoding="utf-8"?>
<!-- Generator: Adobe Illustrator 16.0.3, SVG Export Plug-In . SVG Version: 6.00 Build 0)  -->
<!DOCTYPE svg PUBLIC "-//W3C//DTD SVG 1.1//EN" "http://www.w3.org/Graphics/SVG/1.1/DTD/svg11.dtd">
<svg version="1.1" id="Layer_1" xmlns="http://www.w3.org/2000/svg" xmlns:xlink="http://www.w3.org/1999/xlink" x="0px" y="0px"
	 width="32px" height="32px" viewBox="0 0 32 32" enable-background="new 0 0 32 32" xml:space="preserve">
<path fill="#407CCA" d="M32,30.136H0v-3.198c0.509-0.104,2.086-1.042,3.2-3.2c1.461-2.834,3.2-0.8,3.2-0.8
	c-1.383,0.12-1.047,1.638-0.798,2.4c0.295,0.91,1.092,1.477,1.599,1.6h0.801c0.511-0.104,1.286-1.042,2.397-3.2
	c1.464-2.834,3.202-0.8,3.202-0.8c-1.381,0.12-1.048,1.638-0.8,2.4c0.297,0.91,1.092,1.477,1.6,1.6h0.8
	c0.512-0.104,1.287-1.042,2.399-3.2c1.463-2.834,3.2-0.8,3.2-0.8c-1.38,0.12-1.05,1.638-0.8,2.4c0.299,0.91,1.092,1.477,1.602,1.6
	H22.4c0.509-0.104,2.092-1.042,3.199-3.2c1.468-2.834,3.2-0.8,3.2-0.8c-1.378,0.12-1.05,1.638-0.8,2.4
	c0.297,0.91,1.092,1.477,1.6,1.6H32V30.136z M27.2,17.338v-8.8l0.8,0.8l0.8-0.8l-7.6-6.402l-7.6,6.402l0.8,0.8l0.8-0.8v8.8h-0.8
	c-0.508-0.124-1.303-0.689-1.6-1.601c-0.248-0.762-0.581-2.279,0.8-2.4c0,0-1.738-2.034-3.202,0.798
	c-1.111,2.161-1.886,3.099-2.397,3.202H7.2c-0.506-0.124-1.303-0.689-1.599-1.601c-0.249-0.762-0.584-2.279,0.798-2.4
	c0,0-1.739-2.034-3.2,0.798c-1.114,2.161-2.691,3.099-3.2,3.202v4.8c0.509-0.104,2.086-1.041,3.2-3.2c1.461-2.834,3.2-0.8,3.2-0.8
	c-1.383,0.12-1.047,1.638-0.798,2.399c0.295,0.911,1.092,1.477,1.599,1.601h0.801c0.511-0.104,1.286-1.041,2.397-3.2
	c1.464-2.834,3.202-0.8,3.202-0.8c-1.381,0.12-1.048,1.638-0.8,2.399c0.297,0.911,1.092,1.477,1.6,1.601h0.8
	c0.512-0.104,1.287-1.041,2.399-3.2c1.463-2.834,3.2-0.8,3.2-0.8c-1.38,0.12-1.05,1.638-0.8,2.399
	c0.299,0.911,1.092,1.477,1.602,1.601H22.4c0.509-0.104,2.092-1.041,3.199-3.2c1.468-2.834,3.2-0.8,3.2-0.8
	c-1.378,0.12-1.05,1.638-0.8,2.399c0.297,0.911,1.092,1.477,1.6,1.601H32v-4.8H27.2z M2.023,6.448h5.384v1.599l5.352-3.091
	l-5.352-3.09v1.6H2.023V6.448z"/>
</svg>
