<?xml version="1.0" encoding="utf-8"?>
<!-- Generator: Adobe Illustrator 16.0.3, SVG Export Plug-In . SVG Version: 6.00 Build 0)  -->
<!DOCTYPE svg PUBLIC "-//W3C//DTD SVG 1.1//EN" "http://www.w3.org/Graphics/SVG/1.1/DTD/svg11.dtd">
<svg version="1.1" id="Layer_1" xmlns="http://www.w3.org/2000/svg" xmlns:xlink="http://www.w3.org/1999/xlink" x="0px" y="0px"
	 width="32px" height="32px" viewBox="0 0 32 32" enable-background="new 0 0 32 32" xml:space="preserve">
<path fill="#407CCA" d="M25.6,0H6.4C2.88,0,0,2.88,0,6.4v19.201C0,29.119,2.88,32,6.4,32h19.2c3.521,0,6.4-2.881,6.4-6.399V6.4
	C32,2.88,29.12,0,25.6,0z M17.628,20.436l-1.247,0.625c-0.609-0.091-0.936-0.348-1.249-0.625v-1.247l1.872-0.625L17.628,20.436z
	 M12.636,14.196c0.109-0.729,0.183-1.099,0.625-1.249c0.313,0.122,0.316-0.106,0.625,0c0.641,0.202,1.175,0.65,1.247,0.625
	l0.141,0.017c0.392-0.13,0.911,0.022,1.108,0.606c0.17,0.516,0.098,0.693,0,1.248c-0.103,0.55-0.333,1.072-0.625,1.247
	c-0.125,0.044-0.436,0.894-1.249,1.248h-0.622l-0.625-0.623c-0.245-0.248-0.558-0.427-0.625-0.625
	C12.392,15.958,12.53,14.927,12.636,14.196z M11.388,16.069c0.142,0.411,0.47,0.468,0,0.622l-1.247,0.625l-1.247-1.247
	c-0.166-0.487,0.039-0.803,0.624-1.248l1.249,0.623C10.917,15.635,11.339,15.924,11.388,16.069z M8.269,11.701
	c0.256-0.222,0.405-0.553,0.625-0.625c0.42-0.141,0.871-0.184,1.247,0c0.38,0.191,0.526,0.334,0.625,0.625
	c0.122,0.366-0.109,0.663-0.625,1.247l-1.872,0.625V11.701z M6.4,30.4c-2.647,0-4.8-2.153-4.8-4.8V7.202
	C2,7.196,2.455,7.22,2.725,7.333l1.661,0.318l1.388,0.931c0.381,2.956-0.097,4.712,0.625,6.862c0.114,0.347,0.878,1.422,1.245,1.872
	l0.091,1.75c2.737,2.894,4.703,2.828,5.045,3.011l2.353,1.479c0.35,0.485,0.935,1.419,1.249,1.873c0.314,0.456,0.34,0.8,0.624,1.246
	c0.661,0.632,1.219,1.604,1.248,1.872c0.021,0.19,1.143,1.119,1.903,1.854H6.4z M22.62,24.804l-2.497,0.625
	c-0.095-0.216-0.467-0.606-1.246-1.25c-0.738-0.661-1.233-1.204-1.249-1.247c-0.175-0.527,0.233-1.574,0.625-2.496
	c0.401-0.965,0.669-1.359,1.247-1.872h0.623c1.221-0.408,1.664-0.297,2.497,0.625c0.51,0.575,0.747,1.615,1.247,3.12
	C23.932,22.494,22.889,24.717,22.62,24.804z"/>
</svg>
