<?xml version="1.0" encoding="utf-8"?>
<!-- Generator: Adobe Illustrator 16.0.3, SVG Export Plug-In . SVG Version: 6.00 Build 0)  -->
<!DOCTYPE svg PUBLIC "-//W3C//DTD SVG 1.1//EN" "http://www.w3.org/Graphics/SVG/1.1/DTD/svg11.dtd">
<svg version="1.1" id="Layer_1" xmlns="http://www.w3.org/2000/svg" xmlns:xlink="http://www.w3.org/1999/xlink" x="0px" y="0px"
	 width="32px" height="32px" viewBox="0 0 32 32" enable-background="new 0 0 32 32" xml:space="preserve">
<path fill="#407CCA" d="M25.6,0H6.4C2.88,0,0,2.88,0,6.4v19.202c0,3.521,2.88,6.4,6.4,6.4h19.2c3.521,0,6.4-2.88,6.4-6.4V6.4
	C32,2.88,29.12,0,25.6,0z M2.023,7.466h5.384V5.864l5.352,3.092l-5.352,3.091v-1.6H2.023V7.466z M30.4,25.602
	c0,0.185-0.035,0.357-0.055,0.536H29.6c-0.508-0.125-1.303-0.69-1.6-1.602c-0.25-0.763-0.578-2.28,0.8-2.4c0,0-1.732-2.034-3.2,0.8
	c-1.107,2.16-2.69,3.098-3.199,3.202h-0.799c-0.51-0.125-1.303-0.69-1.602-1.602c-0.25-0.763-0.58-2.28,0.8-2.4
	c0,0-1.737-2.034-3.2,0.8c-1.112,2.16-1.887,3.098-2.399,3.202h-0.8c-0.508-0.125-1.303-0.69-1.6-1.602
	c-0.248-0.763-0.581-2.28,0.8-2.4c0,0-1.738-2.034-3.202,0.8c-1.111,2.16-1.886,3.098-2.397,3.202H7.2
	c-0.506-0.125-1.303-0.69-1.599-1.602c-0.249-0.763-0.584-2.28,0.798-2.4c0,0-1.739-2.034-3.2,0.8
	c-0.488,0.947-1.063,1.647-1.6,2.156v-4.8c0.538-0.511,1.112-1.209,1.6-2.156c1.461-2.834,3.2-0.8,3.2-0.8
	c-1.383,0.12-1.047,1.639-0.798,2.4c0.295,0.91,1.092,1.478,1.599,1.6h0.801c0.511-0.104,1.286-1.041,2.397-3.2
	c1.464-2.834,3.202-0.8,3.202-0.8c-1.381,0.12-1.048,1.639-0.8,2.4c0.297,0.91,1.092,1.478,1.6,1.6h0.8v-8.8l-0.8,0.8l-0.8-0.8
	l7.6-6.4l7.6,6.4l-0.8,0.8l-0.8-0.8v8.8h3.2V25.602z"/>
</svg>
