<?xml version="1.0" encoding="utf-8"?>
<!-- Generator: Adobe Illustrator 16.0.3, SVG Export Plug-In . SVG Version: 6.00 Build 0)  -->
<!DOCTYPE svg PUBLIC "-//W3C//DTD SVG 1.1//EN" "http://www.w3.org/Graphics/SVG/1.1/DTD/svg11.dtd">
<svg version="1.1" id="Layer_1" xmlns="http://www.w3.org/2000/svg" xmlns:xlink="http://www.w3.org/1999/xlink" x="0px" y="0px"
	 width="32px" height="32px" viewBox="0 0 32 32" enable-background="new 0 0 32 32" xml:space="preserve">
<path fill="#407CCA" d="M24.482,26.169l-4.891,0.928l-7.985-4.345l2.904-3.621l6.531,2.173L24.482,26.169z M32,17.683v0.543
	l-5.15,1.63l-5.081,0.725l-6.533-2.172l-1.538-0.727h0.881c-0.211-1.942-0.492-3.412-0.629-5.34h-0.01
	c-0.001-0.059-0.07-1.35-0.084-1.899c-0.104-0.581-0.378-0.807-1.283-1.435c-0.5-0.323-0.872-0.436-1.078-0.431
	c-0.334,0-0.628,0.359-0.7,1.447c1.455,0.247,1.553,1.856,1.553,1.856c0.128,1.141-0.433,2.813-1.729,3.247
	c-2.391,0.796-2.142-3.812-0.793-4.915c0.036-1.329,0.4-2.544,1.668-2.596c0.5,0.003,1.01,0.21,1.6,0.584
	c0.281,0.171,0.508,0.344,0.708,0.519c-0.022-0.436-0.05-0.884-0.05-1.345c-0.003-0.964,0.152-2.018,1.006-2.766
	c0.444-0.402,0.945-0.612,1.431-0.607c1.272,0.061,2.07,1.164,2.53,2.287c0.539-0.233,1.211-0.349,1.979-0.082
	c1.962,0.679,3.032,4.109,2.203,5.302c-1.939,2.788-6.819-2.393-5.525-4.205c0,0,0.188-0.245,0.522-0.517
	c-0.38-0.997-1.141-1.888-1.71-1.828c-0.217,0.004-0.472,0.083-0.795,0.367c-0.542,0.477-0.68,1.161-0.683,2.049
	c0,0.627,0.077,1.326,0.077,2.024c0,0.366,0.023,0.687,0.033,1.044c0.089,0.623,0.095,1.104,0.08,1.762
	c0.136,1.918,0.914,3.492,1.127,5.478L32,17.683z M18.256,7.169l3.697,4.027c-0.662-2.855-3.006-4.447-3.006-4.447L18.256,7.169z
	 M10.595,10.625l-0.661,0.271c0,0-0.332,2.254,0,3.426L10.595,10.625z M7.288,24.207l2.938-1.771l3.063-3.788l-0.957-0.966H5.567
	l-1.344,2.677L7.288,24.207z M10.716,23.598l-5.207,3.543L6.203,28h11.975l-0.039-0.178L10.716,23.598z M0,17.683v4.083l3.339-1.786
	l1.008-2.297H0z M22.736,21.453l3.232,4.683L32,27.55v-5.356l-4.344-1.399L22.736,21.453z M32,21.026v-1.896l-3.389,0.919L32,21.026
	z M3.417,21.287L0,22.917V28h2.509l3.717-3.049L3.417,21.287z M21.322,28h7.813l-3.737-0.903L21.322,28z"/>
</svg>
