<?xml version="1.0" encoding="utf-8"?>
<!-- Generator: Adobe Illustrator 16.0.3, SVG Export Plug-In . SVG Version: 6.00 Build 0)  -->
<!DOCTYPE svg PUBLIC "-//W3C//DTD SVG 1.1//EN" "http://www.w3.org/Graphics/SVG/1.1/DTD/svg11.dtd">
<svg version="1.1" id="Layer_1" xmlns="http://www.w3.org/2000/svg" xmlns:xlink="http://www.w3.org/1999/xlink" x="0px" y="0px"
	 width="32px" height="32px" viewBox="0 0 32 32" enable-background="new 0 0 32 32" xml:space="preserve">
<path fill="#407CCA" d="M25.6,0H6.4C2.88,0,0,2.88,0,6.4v19.2C0,29.12,2.88,32,6.4,32h19.2c3.521,0,6.4-2.88,6.4-6.4V6.4
	C32,2.88,29.12,0,25.6,0z M30.4,25.6c0,0.184-0.035,0.358-0.055,0.536c-0.702-0.306-1.512-0.79-1.723-1.443
	c-0.277-0.844-0.642-2.531,0.89-2.667c0,0-1.932-2.254-3.557,0.891c-1.228,2.395-2.102,3.441-2.665,3.555h-0.89
	c-0.563-0.137-1.45-0.77-1.778-1.778c-0.277-0.844-0.642-2.531,0.89-2.667c0,0-1.933-2.254-3.557,0.891
	c-1.234,2.395-2.098,3.441-2.667,3.555h-0.888c-0.564-0.137-1.45-0.77-1.778-1.778c-0.278-0.844-0.642-2.531,0.889-2.667
	c0,0-1.935-2.254-3.557,0.891c-1.234,2.395-2.098,3.441-2.666,3.555H6.4c-0.559-0.137-1.448-0.77-1.776-1.778
	c-0.275-0.844-0.646-2.531,0.889-2.667c0,0-1.936-2.254-3.557,0.891c-0.102,0.195-0.237,0.352-0.356,0.529V11.011
	c2.495-3.582,5.848-6.02,9.245-6.02c2.695,0,4.648,0.595,5.334,1.781c0.654,1.108,0.68,3.153-0.891,3.553
	c-0.658,0.168-2.266-0.291-2.666-0.889c-0.278-0.417-0.833-0.695,0-1.778C7.997,6.477,4.57,17.722,15.289,19.214
	c1.422-5.443,5.614-9.778,9.778-9.778c2.075,0,3.028,0.862,3.556,1.776c0.499,0.853,0.316,2.363-0.889,2.667
	c-0.506,0.136-1.529-0.391-1.778-0.886c-0.248-0.5-0.193-1.417,0.89-1.781c-3.734-0.956-6.312,8.527,3.555,9.033V25.6z"/>
</svg>
