<?xml version="1.0" encoding="utf-8"?>
<!-- Generator: Adobe Illustrator 16.0.3, SVG Export Plug-In . SVG Version: 6.00 Build 0)  -->
<!DOCTYPE svg PUBLIC "-//W3C//DTD SVG 1.1//EN" "http://www.w3.org/Graphics/SVG/1.1/DTD/svg11.dtd">
<svg version="1.1" id="Layer_1" xmlns="http://www.w3.org/2000/svg" xmlns:xlink="http://www.w3.org/1999/xlink" x="0px" y="0px"
	 width="32px" height="32px" viewBox="0 0 32 32" enable-background="new 0 0 32 32" xml:space="preserve">
<path fill="#407CCA" d="M27.263,8.378c-0.697,0.066-3.627-0.478-4.69-0.781c-1.064-0.303-2.01-2.172-3.91-1.563
	c-1.899,0.606-3.398-0.784-4.69-0.784c-0.895,0-1.365-0.225-1.784-0.466c-0.028-0.287-0.136-0.519-0.366-0.653
	C11.672,4.044,11.508,4,11.333,4c-0.264,0-0.525,0.112-0.772,0.272L5.372,5.256V5.25H4.589V28h0.783V6.578l2.625,3.356
	c0.023,0.05,0.067,0.084,0.098,0.128l0.095,0.122l0.011-0.013c0.039,0.038,0.058,0.084,0.106,0.112
	c0.122,0.069,0.255,0.104,0.396,0.104h0.001c0.153,0,0.316-0.06,0.483-0.147c0.776,0.269,1.922,0.538,2.438,0.484
	c0.724-0.078,1.739,0.288,2.347,0.781c0.608,0.494,3.302-0.153,3.909,0c0.608,0.153,2.405,1.222,3.129,1.563
	c0.72,0.344,3.527,0.116,3.909,0c0.38-0.113,1.8-2.763,1.99-3.125C27.1,9.581,27.682,8.341,27.263,8.378z M8.936,6.241
	C8.697,6.688,8.192,7.722,7.983,8.65L5.878,5.956l3.692-0.7C9.228,5.712,8.989,6.141,8.936,6.241z M9.625,6.606
	c0.369-0.691,0.856-1.291,1.256-1.6l0.523-0.097c0.03,0.347-0.249,1.319-0.902,2.497C9.634,8.969,8.966,9.569,8.725,9.6L8.663,9.519
	C8.583,9.175,8.878,8.013,9.625,6.606z"/>
</svg>
