<?xml version="1.0" encoding="utf-8"?>
<!-- Generator: Adobe Illustrator 16.0.3, SVG Export Plug-In . SVG Version: 6.00 Build 0)  -->
<!DOCTYPE svg PUBLIC "-//W3C//DTD SVG 1.1//EN" "http://www.w3.org/Graphics/SVG/1.1/DTD/svg11.dtd">
<svg version="1.1" id="Layer_1" xmlns="http://www.w3.org/2000/svg" xmlns:xlink="http://www.w3.org/1999/xlink" x="0px" y="0px"
	 width="32px" height="32px" viewBox="0 0 32 32" enable-background="new 0 0 32 32" xml:space="preserve">
<path fill="#006CB5" d="M17.455,10.9c1.574,0.539,3.665,1.175,4.11-1.372c0.352-1.977,2.991-1.244,4.116-1.372
	c2.035-0.233,0.5-4.058-2.059-4.114c-2.589-0.056-3.767,1.08-4.8,3.428c-0.49,1.128-0.912,1.98-2.74,1.372
	c-1.828-0.609-3.167,0.892-2.057,2.742c0.984,1.641-0.016,3.428-0.016,3.428h2.758c0,0-0.021-1.019-0.686-2.058
	C15.308,11.745,15.841,10.344,17.455,10.9z M2.844,27.958c7.094-5.172,8.866-12.317,8.866-12.317H19c0,0,1.771,7.146,8.865,12.317
	H2.844z"/>
</svg>
