<?xml version="1.0" encoding="utf-8"?>
<!-- Generator: Adobe Illustrator 16.0.3, SVG Export Plug-In . SVG Version: 6.00 Build 0)  -->
<!DOCTYPE svg PUBLIC "-//W3C//DTD SVG 1.1//EN" "http://www.w3.org/Graphics/SVG/1.1/DTD/svg11.dtd">
<svg version="1.1" id="Layer_1" xmlns="http://www.w3.org/2000/svg" xmlns:xlink="http://www.w3.org/1999/xlink" x="0px" y="0px"
	 width="32px" height="32px" viewBox="0 0 32 32" enable-background="new 0 0 32 32" xml:space="preserve">
<path fill="#407CCA" d="M8.133,11.216c0.308,0.021,0.409,0.458,0.409,0.772c0,0.313-0.081,0.626-0.328,0.584
	c-0.245-0.043-0.369-0.773-0.369-0.773C7.827,12.133,7.827,11.194,8.133,11.216z M15.917,17.325
	c1.542-0.197,2.522-2.885,2.577-5.367c0.009-0.516-0.044-1.794-0.772-2.55C17.33,8.999,16.786,8.792,16.1,8.792l-0.124,0.003
	c-2.164,0.076-3.106,3.503-3.108,5.233c-0.003,1.264,0.266,2.181,0.795,2.723C14.163,17.26,14.927,17.451,15.917,17.325z
	 M7.867,10.903l-0.35-2.546C6.966,8.44,6.104,10.778,6.31,11.319l1.331,0.418C7.6,11.362,7.641,11.069,7.867,10.903z M8.011,12.864
	l-0.042,1.753c0.227,0.438,1.333,0.897,1.763,0.583l-1.147-2.275C8.339,13.156,8.011,12.864,8.011,12.864z M8.791,12.064
	c0,0,1.35,0.384,1.413,0.363c0.4-0.135-0.397-3.658-0.68-3.316l-1.041,1.978C8.772,11.337,8.85,11.842,8.791,12.064z M32,6.4v19.201
	C32,29.119,29.12,32,25.6,32H6.4C2.88,32,0,29.119,0,25.601V6.4C0,2.88,2.88,0,6.4,0h19.2C29.12,0,32,2.88,32,6.4z M6.522,15.264
	l7.367,2.549c0.422,0.2,0.905,0.315,1.459,0.315c0.212,0,0.433-0.017,0.662-0.045c2.039-0.262,3.169-3.271,3.229-6.11
	c0.02-0.758-0.087-2.171-0.984-3.102C17.722,8.314,17,8.033,16.111,8.031c-1.5-0.35-7.325-1.688-8.362-1.664
	C6.006,6.406,4.436,8.718,4.12,10.166C3.808,11.606,3.942,14.69,6.522,15.264z M27.979,17.871c-0.22-0.907-3.467-1.662-4.167-1.885
	c-0.461-0.147-2.15-0.792-3.021-0.381c-0.726,0.345-1.281,2.59-2.727,3.135c-1.449,0.543-2.322,0.557-2.827,0.666
	c-1.295,0.276-3.8,1.606-5.114,1.495c-1.658-0.141-5.084,1.927-4.906,3.129c0.178,1.198,1.672,2.203,3.301,1.184
	c1.631-1.019,3.03-0.936,4.949-0.446c1.918,0.487,4.878-0.46,7.236-1.716c2.356-1.256,4.18-2.234,4.987-2.875
	C26.5,19.532,28.2,18.779,27.979,17.871z"/>
</svg>
