<?xml version="1.0" encoding="utf-8"?>
<!-- Generator: Adobe Illustrator 16.0.3, SVG Export Plug-In . SVG Version: 6.00 Build 0)  -->
<!DOCTYPE svg PUBLIC "-//W3C//DTD SVG 1.1//EN" "http://www.w3.org/Graphics/SVG/1.1/DTD/svg11.dtd">
<svg version="1.1" id="Layer_1" xmlns="http://www.w3.org/2000/svg" xmlns:xlink="http://www.w3.org/1999/xlink" x="0px" y="0px"
	 width="32px" height="32px" viewBox="0 0 32 32" enable-background="new 0 0 32 32" xml:space="preserve">
<path fill="#407CCA" d="M18.146,28c0,0,1.044-0.167,1.33-1.533c0.305-1.465-0.01-2.434-0.189-3.256
	c-0.178-0.825-0.118-1.242,0.155-2.573c0.438-2.14,0.401-5.836,0.167-7.613c-0.237-1.776-1.088-2.892-1.497-3.733
	c-0.675-1.381-0.685-3.095-0.685-3.095h0.377V5.539l-0.136-0.102v-1.33c0,0-0.612-0.136-1.669-0.102
	c-1.056-0.035-1.669,0.102-1.669,0.102v1.33l-0.139,0.102v0.658h0.376c0,0-0.006,1.714-0.681,3.095
	c-0.41,0.841-1.263,1.957-1.497,3.733c-0.234,1.777-0.271,5.473,0.167,7.613c0.271,1.331,0.333,1.748,0.152,2.573
	c-0.177,0.822-0.494,1.791-0.186,3.256C12.81,27.833,13.853,28,13.853,28H18.146z"/>
</svg>
