<?xml version="1.0" encoding="utf-8"?>
<!-- Generator: Adobe Illustrator 16.0.3, SVG Export Plug-In . SVG Version: 6.00 Build 0)  -->
<!DOCTYPE svg PUBLIC "-//W3C//DTD SVG 1.1//EN" "http://www.w3.org/Graphics/SVG/1.1/DTD/svg11.dtd">
<svg version="1.1" id="Layer_1" xmlns="http://www.w3.org/2000/svg" xmlns:xlink="http://www.w3.org/1999/xlink" x="0px" y="0px"
	 width="32px" height="32px" viewBox="0 0 32 32" enable-background="new 0 0 32 32" xml:space="preserve">
<path fill="#407CCA" d="M17.986,7.456V8.56h-6.572V7.456h0.634v-3.05l0,0C12.048,4.18,13.236,4,14.698,4
	c1.463,0,2.647,0.18,2.647,0.406l0,0v3.05H17.986z M23.198,18.174L23.114,28H8.802l0.212-15.896l2.35-2.776h6.728l3.182,2.222
	L23.198,18.174z M20.961,18.58l-0.578-4.757c0,0-0.144-0.629-0.628-0.989c-0.697-0.509-1.813-0.583-1.784,1.475l1.25,4.317
	C19.221,18.627,20.186,20.17,20.961,18.58z"/>
</svg>
