<?xml version="1.0" encoding="utf-8"?>
<!-- Generator: Adobe Illustrator 16.0.3, SVG Export Plug-In . SVG Version: 6.00 Build 0)  -->
<!DOCTYPE svg PUBLIC "-//W3C//DTD SVG 1.1//EN" "http://www.w3.org/Graphics/SVG/1.1/DTD/svg11.dtd">
<svg version="1.1" id="Layer_1" xmlns="http://www.w3.org/2000/svg" xmlns:xlink="http://www.w3.org/1999/xlink" x="0px" y="0px"
	 width="32px" height="32px" viewBox="0 0 32 32" enable-background="new 0 0 32 32" xml:space="preserve">
<path fill="#407CCA" d="M25.6,0H6.4C2.88,0,0,2.88,0,6.4v19.2C0,29.12,2.88,32,6.4,32h19.2c3.521,0,6.4-2.88,6.4-6.4V6.4
	C32,2.88,29.12,0,25.6,0z M27.719,14.553h-4.24v-2.778h-1.113V28H9.639V11.775H8.525v2.889H4.281v-4.409
	c0-1.749,0.624-3.229,1.87-4.441C7.396,4.603,8.898,4,10.646,4h1.634c0.234,1.479,1.822,2.631,3.766,2.631S19.576,5.479,19.811,4
	h1.643c1.755,0,3.237,0.603,4.455,1.814c1.204,1.212,1.811,2.692,1.811,4.441V14.553z"/>
</svg>
