<?xml version="1.0" encoding="utf-8"?>
<!-- Generator: Adobe Illustrator 16.0.3, SVG Export Plug-In . SVG Version: 6.00 Build 0)  -->
<!DOCTYPE svg PUBLIC "-//W3C//DTD SVG 1.1//EN" "http://www.w3.org/Graphics/SVG/1.1/DTD/svg11.dtd">
<svg version="1.1" id="Layer_1" xmlns="http://www.w3.org/2000/svg" xmlns:xlink="http://www.w3.org/1999/xlink" x="0px" y="0px"
	 width="32px" height="32px" viewBox="0 0 32 32" enable-background="new 0 0 32 32" xml:space="preserve">
<path fill="#407CCA" d="M27.651,14.347l-0.003-0.063l-0.019-0.063c-0.51-1.217-2.281-1.542-4.447-1.614
	c-2.278,0.1-4.253,0.397-4.513,1.887v2.317c0.066,0.386,0.25,0.69,0.522,0.933v8.57c0.263,1.38,1.969,1.585,3.931,1.685
	c1.957-0.1,3.666-0.305,3.922-1.685l0.004-8.484c0.334-0.258,0.568-0.583,0.644-1.019L27.651,14.347z M23.089,13.583
	c0.031,0,0.063,0,0.094,0.003c0.994,0,1.9,0.134,2.547,0.336c0.409,0.12,0.644,0.276,0.794,0.401
	c-0.156,0.121-0.409,0.271-0.781,0.377c-0.65,0.208-1.553,0.345-2.55,0.345c-1.065,0-2.028-0.163-2.688-0.384
	c-0.315-0.109-0.557-0.238-0.697-0.35C20.236,13.956,21.561,13.583,23.089,13.583z M26.073,26.315c0,0,0.01,0.008-0.094,0.091
	c-0.328,0.291-1.509,0.633-2.856,0.615c-0.906,0.004-1.725-0.131-2.271-0.324c-0.275-0.088-0.481-0.205-0.588-0.291
	c-0.1-0.088-0.078-0.091-0.094-0.091V24.6c1.291,0.512,2.919,0.43,2.919,0.43v-4.492c-1.353,0-2.378-0.387-2.919-0.646v-1.609
	c0.813,0.271,1.875,0.369,3.013,0.416c1.088-0.044,2.097-0.14,2.891-0.383V26.315z M26.576,16.979
	c-0.412,0.37-1.806,0.758-3.394,0.746c-1.065,0-2.024-0.151-2.688-0.383c-0.328-0.113-0.575-0.25-0.712-0.363
	c-0.141-0.117-0.141-0.166-0.141-0.166v-1.481c0.84,0.463,2.118,0.622,3.55,0.683c1.422-0.045,2.665-0.207,3.503-0.65l0.021,1.451
	C26.717,16.815,26.714,16.864,26.576,16.979z M15.47,7.261h-4.153V4.927h1.44c0.256,0,0.466-0.208,0.466-0.463
	C13.224,4.208,13.014,4,12.758,4H7.474C7.217,4,7.011,4.208,7.011,4.464c0,0.255,0.207,0.463,0.463,0.463h1.44v2.334h-4.15
	c-0.25,0-0.457,0.205-0.457,0.455c0,0.251,0.207,0.455,0.457,0.455h3.272v12.566h1.115v1.073c0,0-0.072,0.325,0.503,0.493v5.233
	c0,0.256,0.206,0.464,0.462,0.464s0.462-0.208,0.462-0.464v-5.233c0.575-0.168,0.503-0.493,0.503-0.493v-1.073h1.112V8.17h3.275
	c0.25,0,0.453-0.203,0.453-0.455C15.923,7.466,15.72,7.261,15.47,7.261z M11.333,14.284H8.898V8.17h2.435V14.284z"/>
</svg>
