<?xml version="1.0" encoding="utf-8"?>
<!-- Generator: Adobe Illustrator 16.0.3, SVG Export Plug-In . SVG Version: 6.00 Build 0)  -->
<!DOCTYPE svg PUBLIC "-//W3C//DTD SVG 1.1//EN" "http://www.w3.org/Graphics/SVG/1.1/DTD/svg11.dtd">
<svg version="1.1" id="Layer_1" xmlns="http://www.w3.org/2000/svg" xmlns:xlink="http://www.w3.org/1999/xlink" x="0px" y="0px"
	 width="32px" height="32px" viewBox="0 0 32 32" enable-background="new 0 0 32 32" xml:space="preserve">
<path fill="#407CCA" d="M25.6,0H6.4C2.88,0,0,2.88,0,6.4v19.2C0,29.12,2.88,32,6.4,32h19.2c3.521,0,6.4-2.88,6.4-6.4V6.4
	C32,2.88,29.12,0,25.6,0z M27.433,12.25l-6.69,14.175L4,26.461L9.997,13.63c-1.531-0.241-2.314-2.044-2.338-4.025
	c0.025-2.068,0.867-3.962,2.535-4.065l15.251,0.003c0.005,0,0.01-0.003,0.014-0.003C27.13,5.642,27.971,7.536,28,9.604
	c-0.014,0.98-0.216,1.913-0.596,2.643L27.433,12.25z M26.414,7.372c0.305,0.541,0.519,1.34,0.514,2.232
	c0.005,0.891-0.209,1.697-0.514,2.23c-0.315,0.553-0.678,0.772-0.955,0.766c-0.277,0.006-0.636-0.212-0.951-0.766
	c-0.305-0.533-0.519-1.339-0.519-2.23c0-0.892,0.214-1.692,0.519-2.232c0.315-0.549,0.674-0.771,0.951-0.764
	C25.736,6.602,26.099,6.823,26.414,7.372z M11.097,13.67L5.913,25.386l14.239-0.026l5.396-11.706
	c-0.031,0.003-0.057,0.016-0.088,0.017H11.097z M13.837,16.292l0.45,0.26l-1.944,2.031l-0.455-0.257L13.837,16.292z M12.194,20.889
	l4.595-4.787l0.447,0.258l-4.594,4.783L12.194,20.889z M14.788,21.615l-0.452-0.259l3.111-3.231l0.449,0.256L14.788,21.615z
	 M10.194,12.6c-0.275,0.006-0.636-0.212-0.95-0.766c-0.311-0.533-0.52-1.339-0.52-2.23c0-0.892,0.209-1.692,0.52-2.232
	c0.314-0.549,0.675-0.771,0.95-0.764h13.541c-0.521,0.764-0.797,1.847-0.813,2.997c0.016,1.148,0.292,2.23,0.811,2.996H10.194z"/>
</svg>
