<?xml version="1.0" encoding="utf-8"?>
<!-- Generator: Adobe Illustrator 16.0.3, SVG Export Plug-In . SVG Version: 6.00 Build 0)  -->
<!DOCTYPE svg PUBLIC "-//W3C//DTD SVG 1.1//EN" "http://www.w3.org/Graphics/SVG/1.1/DTD/svg11.dtd">
<svg version="1.1" id="Layer_1" xmlns="http://www.w3.org/2000/svg" xmlns:xlink="http://www.w3.org/1999/xlink" x="0px" y="0px"
	 width="32px" height="32px" viewBox="0 0 32 32" enable-background="new 0 0 32 32" xml:space="preserve">
<path fill="#407CCA" d="M8.78,13.706h14.207L19.958,28h-8.381L8.833,14.005L8.78,13.706z M16.001,4
	c-4.063,0-7.353,3.291-7.353,7.353c0,0.425,0.344,0.766,0.766,0.766c0.428,0,0.769-0.34,0.769-0.766
	c0.003-3.211,2.6-5.815,5.819-5.82c3.207,0.005,5.813,2.609,5.819,5.82c0,0.425,0.338,0.766,0.763,0.766
	c0.422,0,0.769-0.34,0.769-0.766C23.352,7.291,20.061,4,16.001,4z"/>
</svg>
