<?xml version="1.0" encoding="utf-8"?>
<!-- Generator: Adobe Illustrator 16.0.3, SVG Export Plug-In . SVG Version: 6.00 Build 0)  -->
<!DOCTYPE svg PUBLIC "-//W3C//DTD SVG 1.1//EN" "http://www.w3.org/Graphics/SVG/1.1/DTD/svg11.dtd">
<svg version="1.1" id="Layer_1" xmlns="http://www.w3.org/2000/svg" xmlns:xlink="http://www.w3.org/1999/xlink" x="0px" y="0px"
	 width="32px" height="32px" viewBox="0 0 32 32" enable-background="new 0 0 32 32" xml:space="preserve">
<path fill="#407CCA" d="M25.6,0H6.4C2.88,0,0,2.88,0,6.4v19.2C0,29.12,2.88,32,6.4,32h19.2c3.521,0,6.4-2.88,6.4-6.4V6.4
	C32,2.88,29.12,0,25.6,0z M25.104,10.849c0.082,0.455,0.27,1.239-0.229,1.34c-0.416,0.084-0.779-0.374-0.87-0.712
	C23.776,10.609,25.064,9.642,25.104,10.849z M25.623,13.666c0.172,0.817,0.002,1.305-0.728,1.664
	c-0.558,0.278-1.664,0.592-1.919,0.099C22.279,14.078,25.122,11.594,25.623,13.666z M22.505,9.501c0.17-0.548,0.56-0.47,0.903,0.033
	c0.67-0.033,0.191,1.658-0.281,1.68c0.152,0.252,0.453,0.652,0.446,0.958c-0.008,0.439-0.287,0.494-0.524,0.867
	c-0.41,0.638-0.333,2.006-0.799,2.386c-0.096-0.736,0.224-1.5,0.075-2.223c-0.13-0.641-0.624-0.644-0.817-1.006
	c-0.631-1.188,0.865-1.553,1.69-1.083C23.021,10.633,22.326,10.077,22.505,9.501z M19.763,14.013
	c0.458-0.464,1.235-0.746,1.88-0.644c0.102,0.686,0.248,2.367-0.369,2.886c-0.224,0.19-2.154,0.484-2.406,0.167
	C18.494,15.952,19.432,14.353,19.763,14.013z M18.651,14.477c0.117-0.578,1.5-3.945,2.242-2.251
	c0.119,0.745-0.625,0.698-1.071,1.006C19.339,13.561,19.185,14.249,18.651,14.477z M20.75,8.151
	c0.817-0.448,0.791,0.174,1.088,0.811c0.032,0.203,0.173,0.578,0.141,0.88c-0.605,0.064-1.502,1.797-1.566,0.183
	c0.063,0.878-0.784,1.033-1.149,1.67c-0.253,0.444-0.057,0.983-0.733,0.983c0.336-0.986-0.961-1.114-0.698-2.006
	c0.272-0.935,1.578-0.928,2.317-1.036C19.419,9.083,20.167,8.469,20.75,8.151z M18.044,15.126c0.243,0.883,0.313,1.394-0.588,1.563
	c-0.795,0.148-1.292,0.235-1.534-0.585C15.438,14.464,18.075,13.474,18.044,15.126z M15.099,14.453
	c-0.508-0.914,2.142-3.048,2.584-1.578c0.111,0.889-0.725,0.653-1.237,0.916C16.072,13.983,15.469,15.124,15.099,14.453z
	 M19.416,7.026c0.139,0.602-0.327,0.625-0.733,0.458c-0.461-0.192-1.029-0.03-1.5,0.03C17.128,6.406,18.814,6.541,19.416,7.026z
	 M17.683,8.089c0.416-0.219,1.046-0.036,1.367,0.258c0.393,1.07-1.203,1.55-1.615,0.488c0.039,0.259,0.185,0.658,0.122,0.913
	c-0.086,0.347-0.317,0.293-0.479,0.62c-0.237,0.491-0.128,1.427-0.742,1.612c-1.084,0.333-1.126-1.712-0.986-2.357
	c0.077-0.349,0.251-1.084,0.587-1.275c0.659-0.372,0.912,0.439,1.229,0.43C17.63,8.759,17.078,8.409,17.683,8.089z M16.542,6.952
	c0.171,1.176-2.244,1.442-2.559,0.487C13.494,5.958,16.031,6.026,16.542,6.952z M13.673,8.341c0.378-0.111,0.984,0.287,1.236,0.583
	c-0.123,0.599-0.12,1.209-0.247,1.808c-0.128,0.611-0.647,0.09-0.837,0.65c0.989-0.131,1.609,0.317,1.006,1.291
	c-0.644,1.044-0.857,0.164-1.68,0.278c-0.025-0.3-0.048-0.599-0.072-0.898c-0.183,0.183-0.173,0.098-0.406,0.206
	c0.288-0.439,1.091-1.281,0.969-1.87c-0.109-0.521-0.775-0.455-0.847-0.922C12.759,9.229,13.405,8.423,13.673,8.341z M14.602,16.719
	c-0.306,0.229-0.966-0.042-1.278-0.097c-0.422-0.077-0.308-0.583-0.629-0.945c-0.31-0.35-1.122-0.359-0.528-1.18
	c0.41-0.563,1.57-0.641,1.967-0.072C14.435,14.955,15.227,16.251,14.602,16.719z M13.126,7.995c-0.317,0.5-1.939,2.506-2.367,1.438
	C10.173,7.966,13.53,6.586,13.126,7.995z M12.853,11.148c-0.211,0.275-0.44,0.876-0.77,1.014c-0.325,0.137-0.272-0.173-0.602-0.156
	c-0.707,0.042-1.019,0.372-1.125-0.344C10.089,9.861,13.197,9.625,12.853,11.148z M11.716,15.8c0.131,0.488,0.453,0.691-0.246,0.805
	c-0.342,0.054-0.884-0.254-1.209-0.356c-0.597-0.192-0.693-0.003-0.761-0.844c-0.038-0.477,0.039-1.009,0.247-1.441
	c0.258-0.543,1.594-2.357,2.055-1.02c0.058,0.604-0.439,1.006-0.445,1.595C11.352,14.967,11.608,15.396,11.716,15.8z M8.783,10.031
	c0.264-0.617,1.209-0.438,1.294,0.2C9.962,11.753,8.589,10.483,8.783,10.031z M6.983,11.169c1.003-0.513,1.994-0.117,2.781,0.65
	c0.134,0.386,0.206,0.778-0.025,1.134c-0.385,0.586-0.452-0.102-0.82-0.163c-0.43-0.069-0.724,0.31-0.984,0.246
	c-0.299-0.077-0.414-0.613-0.727-0.746c-0.356-0.151-0.48-0.033-0.897-0.413C5.914,11.516,6.773,11.276,6.983,11.169z M8.717,13.192
	c0.563,0.137,0.275,1.219,0.229,1.646c-0.067,0.648-0.328,0.966-0.964,0.667c-0.586-0.278-0.464-0.859-0.564-1.416
	c-0.366,0.837-0.586,1.568-1.177,0.239c-0.33-0.745,0.266-1.288,0.841-1.611c0.242,0.156,0.487,0.297,0.602,0.575
	c-0.102,0.173-0.136,0.404-0.2,0.595C7.862,13.784,8.315,13.097,8.717,13.192z M27.997,14.62c-0.075,1.976-0.749,4.119-1.781,6.097
	c0,0-2.469,4.996-10.216,4.996S5.742,20.76,5.742,20.76C4.706,18.771,4.078,16.646,4,14.62h0.006C4.003,14.569,4,14.516,4,14.464
	c0-0.951,0.589-1.84,1.6-2.609l1.078,0.694c-0.666,0.447-1.053,0.949-1.053,1.477c0,1.874,4.646,3.391,10.375,3.391
	s10.375-1.518,10.375-3.391c0-0.479-0.308-0.934-0.857-1.347c0.395-0.166,0.779-0.372,1.137-0.608
	C27.503,12.791,28,13.597,28,14.464c0,0.052-0.003,0.105-0.006,0.156H27.997z"/>
</svg>
