<?xml version="1.0" encoding="utf-8"?>
<!-- Generator: Adobe Illustrator 16.0.3, SVG Export Plug-In . SVG Version: 6.00 Build 0)  -->
<!DOCTYPE svg PUBLIC "-//W3C//DTD SVG 1.1//EN" "http://www.w3.org/Graphics/SVG/1.1/DTD/svg11.dtd">
<svg version="1.1" id="Layer_1" xmlns="http://www.w3.org/2000/svg" xmlns:xlink="http://www.w3.org/1999/xlink" x="0px" y="0px"
	 width="32px" height="32px" viewBox="0 0 32 32" enable-background="new 0 0 32 32" xml:space="preserve">
<path fill="#407CCA" d="M12.169,23.18c0.258,0.255,0.611,0.322,0.45,0.482l-1.869,1.574c-0.375,0.378-0.833-0.39-0.655-0.569
	l1.587-1.938C11.844,22.564,11.911,22.919,12.169,23.18z M16.036,17.906c0.599,0.6,2.089,0.111,1.298-1.981
	c-0.704-1.865,0.314-2.672,0.314-2.672C17.164,13.414,14.698,16.567,16.036,17.906z M14.106,19.836c0.6,0.599,2.092,0.109,1.3-1.986
	c-0.705-1.862,0.314-2.671,0.314-2.671C15.236,15.339,12.764,18.495,14.106,19.836z M21.291,14.124
	c-0.468,0.103-4.367,1.688-2.952,3.103C19.761,18.646,21.291,14.124,21.291,14.124z M17.526,19.969
	c-2.09-0.786-2.584,0.706-1.981,1.307c1.339,1.339,4.494-1.132,4.656-1.614C20.201,19.661,19.394,20.675,17.526,19.969z M32,6.4
	v19.204c0,3.52-2.88,6.399-6.4,6.399H6.4c-3.52,0-6.4-2.88-6.4-6.399V6.4C0,2.88,2.88,0,6.4,0h19.2C29.12,0,32,2.88,32,6.4z
	 M7.17,6.516l3.151,2.938h11.356l3.153-2.938c0,0-1.565-2.192-4.154-2.479c-2.526-0.281-3.411,1.271-4.675,1.331
	c-1.267-0.06-2.145-1.612-4.676-1.331C8.739,4.323,7.17,6.516,7.17,6.516z M22.531,11.341H9.47c0,0-6.27,4.936-4.211,14.032
	c0,0,0.686,2.629,3.839,2.629h13.81c3.146,0,3.832-2.629,3.832-2.629C28.8,16.276,22.531,11.341,22.531,11.341z M15.542,21.958
	c-2.095-0.791-2.586,0.703-1.981,1.306c1.337,1.336,4.496-1.136,4.653-1.617C18.214,21.646,17.403,22.664,15.542,21.958z
	 M13.42,19.839c-0.705-1.865,0.315-2.672,0.315-2.672c-0.491,0.161-2.958,3.317-1.617,4.653
	C12.716,22.424,14.212,21.932,13.42,19.839z M19.459,18.044c-2.1-0.791-2.586,0.703-1.985,1.303
	c1.337,1.339,4.495-1.128,4.657-1.614C22.131,17.732,21.317,18.753,19.459,18.044z"/>
</svg>
