<?xml version="1.0" encoding="utf-8"?>
<!-- Generator: Adobe Illustrator 16.0.3, SVG Export Plug-In . SVG Version: 6.00 Build 0)  -->
<!DOCTYPE svg PUBLIC "-//W3C//DTD SVG 1.1//EN" "http://www.w3.org/Graphics/SVG/1.1/DTD/svg11.dtd">
<svg version="1.1" id="Layer_1" xmlns="http://www.w3.org/2000/svg" xmlns:xlink="http://www.w3.org/1999/xlink" x="0px" y="0px"
	 width="32px" height="32px" viewBox="0 0 32 32" enable-background="new 0 0 32 32" xml:space="preserve">
<path fill="#407CCA" d="M11.905,15.104c0.625,0.006,1.259,0.027,1.837,0.058l-2.497-3.444c-0.37-0.206-1.705-1.061-2.758-1.394
	l0.05-0.219c0.009,0,2.1,0.336,3.112,1.234l2.773,3.806l0.1,0.075c0.3,0.028,0.586,0.061,0.823,0.097l-2.231-3.06l0.823-2.436
	c-0.106-1.063-1.831-4.433-1.834-4.436l0.175-0.139c1.383,1.148,2.225,4.611,2.225,4.611l-0.769,2.303l1.741,2.379
	c-0.052-0.414-0.08-0.898-0.08-1.43c0.045-1.464,0.116-2.612,0.592-2.731c0.481,0.119,0.55,1.264,0.595,2.731
	c0,0.525-0.031,1.003-0.078,1.417l1.73-2.367l-0.772-2.364c0.147-0.391,1.102-3.619,2.234-4.553l0.171,0.143
	c0,0.003-1.73,3.373-1.843,4.391l0.831,2.478l-2.232,3.056c0.24-0.026,0.523-0.063,0.83-0.091l0.097-0.075l2.784-3.825
	c0.997-0.879,3.089-1.212,3.1-1.219l0.055,0.222c-1.056,0.33-2.381,1.178-2.762,1.394l-2.494,3.444
	c0.578-0.031,1.206-0.052,1.839-0.052c2.195,0.033,4.403,0.178,4.495,1.173c0,0.1-0.024,0.199-0.074,0.292
	c-0.265,0.53-0.997,0.669-1.908,0.679c-1.58,0-3.761-0.497-5.175-0.859l-0.447,0.42c0.518,0.161,1.319,0.494,1.864,1.07l0.064,0.104
	l0.262,2.114l1.469,1.795l-0.167,0.154l-1.818-1.699l-0.258-2.119c-0.458-0.481-1.261-0.786-1.708-0.92
	c-0.06,0.134-0.143,0.258-0.261,0.345c-0.006,0.03-0.013,0.058-0.016,0.081l0.006-0.003c0.263,0,0.599,0.119,0.597,0.491
	c0.002,0.02,0.002,0.045,0,0.058c-0.056,0.428-0.477,0.67-0.745,0.8l-0.136,2.489l-0.225,0.003l-0.244-2.531
	c-0.261-0.146-0.617-0.381-0.658-0.764c0-0.02-0.005-0.039-0.005-0.055c0-0.369,0.337-0.491,0.595-0.491h0.003
	c-0.003-0.023-0.011-0.053-0.011-0.078c-0.122-0.091-0.205-0.214-0.259-0.35c-0.453,0.139-1.258,0.435-1.689,0.864l-0.328,2.243
	l-1.783,1.636l-0.161-0.154l1.444-1.745l0.315-2.226l0.033-0.039c0.545-0.582,1.348-0.906,1.861-1.073l-0.441-0.42
	c-1.412,0.372-3.598,0.859-5.176,0.862c-0.911-0.013-1.646-0.151-1.911-0.682c-0.047-0.093-0.069-0.19-0.067-0.286
	C7.499,15.286,9.706,15.141,11.905,15.104z M31.604,23.731l-1.688,1.688l1.243,1.242l0.172-0.172c0.077-0.074,0.2-0.074,0.275,0
	c0.075,0.077,0.075,0.2,0,0.275l-0.172,0.174l0.17,0.17c0.077,0.075,0.078,0.198,0.002,0.273c-0.038,0.037-0.088,0.058-0.138,0.058
	s-0.097-0.019-0.136-0.056l-0.174-0.172l-1.243,1.242l1.243,1.242l0.174-0.172c0.076-0.075,0.198-0.074,0.273,0.001
	c0.076,0.075,0.075,0.198-0.002,0.273l-0.17,0.171l0.172,0.173c0.075,0.075,0.075,0.198,0,0.275
	c-0.038,0.037-0.088,0.056-0.138,0.056s-0.099-0.019-0.138-0.056l-0.172-0.174l-1.269,1.269c0.003,0.018,0.019,0.03,0.019,0.046
	c0,0.001,0,0.001,0,0.001c0,0.044-0.021,0.08-0.045,0.111c-0.007,0.008-0.003,0.018-0.011,0.025
	c-0.035,0.034-0.083,0.058-0.138,0.058h-0.147c-0.05,0-0.1-0.019-0.137-0.057c-0.025-0.024-0.03-0.061-0.038-0.094
	c-0.005-0.014-0.019-0.026-0.019-0.044c0-0.017,0.014-0.027,0.019-0.043v-0.002l-1.271-1.271l-1.267,1.269
	c0.003,0.018,0.017,0.03,0.017,0.046c0,0.001,0,0.001,0,0.001c0,0.044-0.02,0.08-0.045,0.111c-0.006,0.008-0.003,0.018-0.011,0.025
	c-0.034,0.034-0.083,0.058-0.138,0.058h-0.146c-0.05,0-0.1-0.019-0.139-0.057c-0.025-0.024-0.03-0.061-0.038-0.094
	c-0.004-0.014-0.017-0.026-0.017-0.044c0-0.017,0.013-0.027,0.017-0.043v-0.002l-1.267-1.269l-1.272,1.271
	c0.005,0.016,0.02,0.025,0.02,0.042c0,0.108-0.088,0.194-0.194,0.194H23.5c-0.107,0-0.193-0.086-0.193-0.194
	c0-0.017,0.014-0.026,0.019-0.043l-1.271-1.271l-1.269,1.269v0.002c0.005,0.016,0.019,0.026,0.019,0.043
	c0,0.018-0.014,0.03-0.019,0.044c-0.008,0.033-0.013,0.069-0.038,0.094c-0.037,0.038-0.087,0.057-0.137,0.057h-0.147
	c-0.055,0-0.103-0.023-0.138-0.058c-0.008-0.008-0.004-0.018-0.011-0.025c-0.023-0.031-0.045-0.067-0.045-0.111c0,0,0,0,0-0.001
	c0-0.016,0.016-0.028,0.021-0.046l-1.272-1.27l-1.271,1.27c0.005,0.018,0.021,0.03,0.021,0.046c0,0.001,0,0.001,0,0.001
	c0,0.044-0.021,0.08-0.045,0.111c-0.007,0.008-0.003,0.018-0.011,0.025c-0.035,0.034-0.083,0.058-0.138,0.058h-0.147
	c-0.05,0-0.1-0.019-0.137-0.057c-0.025-0.024-0.028-0.061-0.038-0.094c-0.005-0.014-0.019-0.026-0.019-0.044
	c0-0.017,0.014-0.027,0.019-0.043v-0.002l-1.267-1.271l-1.269,1.271c0.003,0.016,0.017,0.028,0.017,0.045v0.002
	c0,0.026-0.019,0.047-0.03,0.072c-0.009,0.021-0.011,0.048-0.028,0.063c-0.038,0.038-0.088,0.057-0.136,0.057h-0.145
	c-0.05,0-0.1-0.019-0.139-0.057c-0.025-0.024-0.03-0.061-0.038-0.094c-0.005-0.014-0.017-0.026-0.017-0.044
	c0-0.017,0.012-0.027,0.017-0.043l0.001-0.005l-1.269-1.269l-1.271,1.27c0.005,0.018,0.019,0.03,0.019,0.046
	c0,0.001,0,0.001,0,0.001c0,0.044-0.021,0.08-0.045,0.111c-0.005,0.008-0.003,0.018-0.009,0.025
	c-0.036,0.034-0.084,0.058-0.138,0.058h-0.147c-0.05,0-0.1-0.019-0.137-0.057c-0.027-0.024-0.03-0.061-0.038-0.094
	c-0.005-0.014-0.019-0.026-0.019-0.044c0-0.017,0.014-0.027,0.019-0.043v-0.002l-1.267-1.271l-1.272,1.271v0.002
	c0.004,0.016,0.019,0.026,0.019,0.043c0,0.018-0.014,0.03-0.019,0.044c-0.008,0.033-0.013,0.069-0.038,0.094
	c-0.038,0.038-0.087,0.057-0.138,0.057H8.327c-0.05,0-0.1-0.019-0.138-0.057c-0.026-0.024-0.03-0.061-0.038-0.094
	c-0.004-0.014-0.019-0.026-0.019-0.044c0-0.017,0.014-0.027,0.019-0.043l0.002-0.002l-1.271-1.271l-1.271,1.269
	c0.005,0.018,0.021,0.03,0.021,0.046c0,0.001,0,0.001,0,0.001c0,0.044-0.022,0.08-0.045,0.111c-0.006,0.008-0.003,0.018-0.011,0.025
	c-0.035,0.034-0.083,0.058-0.138,0.058H5.292c-0.05,0-0.1-0.019-0.137-0.057c-0.025-0.024-0.028-0.061-0.038-0.094
	c-0.005-0.014-0.019-0.026-0.019-0.044c0-0.017,0.014-0.027,0.019-0.043v-0.002l-1.269-1.271l-1.268,1.27
	C2.584,31.531,2.6,31.544,2.6,31.56c0,0.001,0,0.001,0,0.001c0,0.044-0.021,0.08-0.045,0.111c-0.006,0.008-0.003,0.018-0.011,0.025
	c-0.035,0.034-0.083,0.058-0.138,0.058H2.259c-0.05,0-0.098-0.019-0.137-0.057c-0.025-0.024-0.028-0.061-0.038-0.094
	c-0.005-0.014-0.017-0.026-0.017-0.044c0-0.017,0.012-0.027,0.017-0.043v-0.002l-1.271-1.271l-0.167,0.169
	c-0.038,0.037-0.087,0.057-0.138,0.057c-0.05,0-0.1-0.02-0.137-0.057c-0.075-0.076-0.075-0.2,0-0.275l0.168-0.17L0.372,29.8
	c-0.075-0.075-0.074-0.198,0.001-0.273c0.075-0.075,0.198-0.073,0.273,0.002l0.167,0.169l1.246-1.242l-1.246-1.242l-0.167,0.168
	c-0.038,0.038-0.087,0.059-0.138,0.059c-0.05,0-0.098-0.02-0.136-0.057c-0.075-0.075-0.077-0.198-0.001-0.273l0.168-0.169
	l-0.168-0.17c-0.075-0.075-0.075-0.2,0-0.275c0.075-0.075,0.2-0.075,0.275,0l0.167,0.167l1.244-1.242l-1.686-1.686
	c-0.022-0.021-0.023-0.05-0.031-0.078C0.151,23.578,0,23.428,0,23.211c0-0.287,0.233-0.521,0.521-0.521h30.959
	c0.288,0,0.521,0.233,0.521,0.521c0,0.229-0.162,0.386-0.367,0.456C31.623,23.689,31.623,23.714,31.604,23.731z M4.302,23.731
	l-0.177,0.175l1.241,1.24l1.244-1.242l-0.173-0.173H4.302z M7.331,23.731l-0.173,0.173L8.4,25.146l1.241-1.241l-0.175-0.173H7.331z
	 M10.362,23.731l-0.172,0.172l1.242,1.243l1.244-1.242l-0.174-0.173H10.362z M13.4,23.731l-0.173,0.173l1.242,1.242l1.242-1.242
	l-0.173-0.173H13.4z M16.438,23.731l-0.177,0.175l1.241,1.239l1.242-1.242l-0.172-0.172H16.438z M19.466,23.731l-0.174,0.172
	l1.245,1.243l1.246-1.242l-0.176-0.173H19.466z M22.503,23.731l-0.173,0.173l1.242,1.241l1.242-1.242l-0.172-0.172H22.503z
	 M3.85,24.178L2.606,25.42l1.242,1.244l1.244-1.244L3.85,24.178z M4.122,26.938l1.244,1.244l1.242-1.242l-1.242-1.244L4.122,26.938z
	 M6.883,26.662l1.242-1.24l-1.242-1.244L5.641,25.42L6.883,26.662z M7.156,26.939L8.4,28.182l1.242-1.242l-1.245-1.244L7.156,26.939
	z M9.919,26.662l1.239-1.24l-1.242-1.244l-1.242,1.241L9.919,26.662z M10.19,26.938l1.242,1.244l1.242-1.242l-1.242-1.244
	L10.19,26.938z M12.952,26.664l1.242-1.242l-1.242-1.244l-1.244,1.242L12.952,26.664z M13.225,26.939l1.244,1.242l1.241-1.242
	l-1.241-1.244L13.225,26.939z M15.986,26.662l1.243-1.242l-1.243-1.24l-1.242,1.242L15.986,26.662z M16.258,26.939l1.244,1.242
	l1.242-1.242l-1.242-1.244L16.258,26.939z M19.019,26.664l1.245-1.244l-1.245-1.243l-1.242,1.243L19.019,26.664z M19.292,26.939
	l1.244,1.242l1.243-1.244l-1.243-1.244L19.292,26.939z M22.055,26.662l1.242-1.243l-1.24-1.241l-1.244,1.242L22.055,26.662z
	 M22.33,26.938l1.242,1.242l1.242-1.242l-1.242-1.244L22.33,26.938z M25.091,26.662l1.24-1.242l-1.242-1.242l-1.242,1.241
	L25.091,26.662z M25.365,26.938l1.242,1.242l1.241-1.24l-1.242-1.244L25.365,26.938z M28.123,26.662l1.246-1.242l-1.246-1.242
	L26.88,25.42L28.123,26.662z M27.677,23.731h-2.141l-0.172,0.172l1.243,1.243l1.242-1.242L27.677,23.731z M2.333,25.146l1.244-1.242
	l-0.173-0.173H0.917L2.333,25.146z M2.333,28.182l1.242-1.244l-1.242-1.242l-1.242,1.244L2.333,28.182z M3.575,29.972l-1.242-1.243
	l-1.242,1.242l1.242,1.243L3.575,29.972z M3.849,29.695l1.242-1.24l-1.242-1.241l-1.241,1.241L3.849,29.695z M6.608,29.971
	l-1.242-1.242l-1.244,1.243l1.244,1.242L6.608,29.971z M6.883,29.697l1.244-1.242l-1.244-1.242l-1.244,1.242L6.883,29.697z
	 M9.642,29.971L8.4,28.729l-1.244,1.242l1.241,1.243L9.642,29.971z M11.158,28.455l-1.241-1.241l-1.242,1.241l1.242,1.24
	L11.158,28.455z M12.675,29.971l-1.242-1.242l-1.242,1.243l1.242,1.242L12.675,29.971z M12.952,29.697l1.244-1.242l-1.244-1.242
	l-1.246,1.242L12.952,29.697z M15.709,29.971l-1.241-1.242l-1.244,1.242l1.244,1.243L15.709,29.971z M15.986,29.697l1.244-1.242
	l-1.244-1.242l-1.242,1.242L15.986,29.697z M18.744,29.971l-1.242-1.242l-1.244,1.242l1.244,1.243L18.744,29.971z M19.019,29.697
	l1.244-1.242l-1.244-1.242l-1.24,1.242L19.019,29.697z M21.779,29.972l-1.243-1.243l-1.244,1.242l1.244,1.245L21.779,29.972z
	 M22.055,29.697l1.242-1.242l-1.242-1.242l-1.242,1.242L22.055,29.697z M24.814,29.972l-1.242-1.242l-1.242,1.242l1.242,1.244
	L24.814,29.972z M25.091,29.697l1.242-1.242l-1.242-1.242l-1.244,1.242L25.091,29.697z M27.849,29.971l-1.241-1.241l-1.242,1.242
	l1.241,1.242L27.849,29.971z M28.125,29.697l1.244-1.242l-1.244-1.242l-1.242,1.242L28.125,29.697z M29.643,28.729l-1.246,1.242
	l1.246,1.243l1.243-1.243L29.643,28.729z M29.643,25.695l-1.246,1.244l1.246,1.242l1.243-1.242L29.643,25.695z M31.06,23.731h-2.487
	l-0.176,0.173l1.246,1.242L31.06,23.731z"/>
</svg>
