<?xml version="1.0" encoding="utf-8"?>
<!-- Generator: Adobe Illustrator 16.0.3, SVG Export Plug-In . SVG Version: 6.00 Build 0)  -->
<!DOCTYPE svg PUBLIC "-//W3C//DTD SVG 1.1//EN" "http://www.w3.org/Graphics/SVG/1.1/DTD/svg11.dtd">
<svg version="1.1" id="Layer_1" xmlns="http://www.w3.org/2000/svg" xmlns:xlink="http://www.w3.org/1999/xlink" x="0px" y="0px"
	 width="32px" height="32px" viewBox="0 0 32 32" enable-background="new 0 0 32 32" xml:space="preserve">
<path fill="#407CCA" d="M19.002,20.528c-0.004,0.771-1.296,1.398-2.899,1.398c-1.6,0-2.892-0.628-2.897-1.398
	c0.005-0.772,1.297-1.397,2.897-1.4C17.706,19.131,18.998,19.756,19.002,20.528z M22.104,20.528
	c-0.008,1.603-2.686,2.896-6.001,2.896c-3.313,0-5.994-1.293-5.999-2.896c0.005-1.602,2.686-2.894,5.999-2.897
	C19.419,17.635,22.097,18.927,22.104,20.528z M20.239,20.528c0-1.104-1.851-1.997-4.136-1.997c-2.283,0-4.136,0.894-4.136,1.997
	c0,1.104,1.853,1.995,4.136,1.995C18.389,22.523,20.239,21.633,20.239,20.528z M28,20.856c0,3.442-5.372,6.228-12,6.228
	c-6.625,0-12-2.785-12-6.228c0-3.439,5.375-6.225,12-6.225C22.628,14.631,28,17.417,28,20.856z M26.24,20.528
	c0-2.698-4.537-4.893-10.137-4.893c-5.597,0-10.134,2.194-10.134,4.893c0,2.7,4.538,4.892,10.134,4.892
	C21.703,25.42,26.24,23.229,26.24,20.528z M24.997,20.528c-0.008,2.368-3.981,4.289-8.894,4.295
	c-4.911-0.006-8.884-1.927-8.897-4.295c0.013-2.372,3.986-4.292,8.897-4.295C21.016,16.236,24.989,18.156,24.997,20.528z
	 M23.346,20.528c0-1.93-3.244-3.497-7.243-3.497c-4,0-7.241,1.567-7.241,3.497s3.241,3.495,7.241,3.495
	C20.102,24.023,23.346,22.458,23.346,20.528z M19.396,10.32c-2.156,1.844,0.826,3.526,0.826,3.526s-1.034-1.154,0.544-2.487
	c2.385-2.003-0.023-3.633-0.023-3.633S21.344,8.658,19.396,10.32z M16.416,10.797c0,0,2.833-0.625,1.36-3.367
	c-0.976-1.819,0.407-2.511,0.407-2.511s-3.395,0.467-2.067,2.975C17.315,10.156,16.416,10.797,16.416,10.797z M12.208,10.513
	c-1.604,2.344,1.72,3.183,1.72,3.183s-1.3-0.842-0.126-2.539c1.773-2.561-0.979-3.499-0.979-3.499S13.65,8.394,12.208,10.513z"/>
</svg>
