<?xml version="1.0" encoding="utf-8"?>
<!-- Generator: Adobe Illustrator 16.0.3, SVG Export Plug-In . SVG Version: 6.00 Build 0)  -->
<!DOCTYPE svg PUBLIC "-//W3C//DTD SVG 1.1//EN" "http://www.w3.org/Graphics/SVG/1.1/DTD/svg11.dtd">
<svg version="1.1" id="Layer_1" xmlns="http://www.w3.org/2000/svg" xmlns:xlink="http://www.w3.org/1999/xlink" x="0px" y="0px"
	 width="32px" height="32px" viewBox="0 0 32 32" enable-background="new 0 0 32 32" xml:space="preserve">
<path fill="#407CCA" d="M13.116,7.519h5.769v2.678h-5.769V7.519z M11.999,14.374H9.861v2.757H7.103v2.137h2.758v2.756h2.138v-2.756
	h2.759v-2.137h-2.759V14.374z M32,6.4v19.2c0,3.521-2.88,6.4-6.4,6.4H6.4C2.88,32,0,29.12,0,25.6V6.4C0,2.88,2.88,0,6.4,0h19.2
	C29.12,0,32,2.88,32,6.4z M28,13.923c0-2.048-1.678-3.727-3.727-3.727h-3.675V5.805h-9.197v4.392H7.727
	C5.678,10.197,4,11.875,4,13.923v8.545c0,2.049,1.678,3.727,3.727,3.727h16.547c2.049,0,3.727-1.678,3.727-3.727V13.923z"/>
</svg>
