<?xml version="1.0" encoding="utf-8"?>
<!-- Generator: Adobe Illustrator 16.0.3, SVG Export Plug-In . SVG Version: 6.00 Build 0)  -->
<!DOCTYPE svg PUBLIC "-//W3C//DTD SVG 1.1//EN" "http://www.w3.org/Graphics/SVG/1.1/DTD/svg11.dtd">
<svg version="1.1" id="Layer_1" xmlns="http://www.w3.org/2000/svg" xmlns:xlink="http://www.w3.org/1999/xlink" x="0px" y="0px"
	 width="32px" height="32px" viewBox="0 0 32 32" enable-background="new 0 0 32 32" xml:space="preserve">
<path fill="#407CCA" d="M25.6,0H6.4C2.88,0,0,2.88,0,6.4v19.2C0,29.12,2.88,32,6.4,32h19.2c3.521,0,6.4-2.88,6.4-6.4V6.4
	C32,2.88,29.12,0,25.6,0z M27.508,21.119l-4.519,4.519h-9.148V11.372h-0.692v14.266H4c0,0,8.038-6.106,9.148-14.266l5.011-5.01
	h0.692c0.939,6.897,6.811,12.313,8.609,13.825L28,20.628L27.508,21.119z M13.841,11.372l4.417-4.416
	c1.17,6.869,6.828,12.141,8.713,13.726l-4.489,4.543C20.721,23.747,14.784,18.31,13.841,11.372z"/>
</svg>
