<?xml version="1.0" encoding="utf-8"?>
<!-- Generator: Adobe Illustrator 16.0.3, SVG Export Plug-In . SVG Version: 6.00 Build 0)  -->
<!DOCTYPE svg PUBLIC "-//W3C//DTD SVG 1.1//EN" "http://www.w3.org/Graphics/SVG/1.1/DTD/svg11.dtd">
<svg version="1.1" id="Layer_1" xmlns="http://www.w3.org/2000/svg" xmlns:xlink="http://www.w3.org/1999/xlink" x="0px" y="0px"
	 width="32px" height="32px" viewBox="0 0 32 32" enable-background="new 0 0 32 32" xml:space="preserve">
<path fill="#407CCA" d="M15.922,16.104c-0.484-1.641,2.153-2.631,2.122-0.978c0.243,0.883,0.313,1.394-0.588,1.563
	C16.661,16.838,16.164,16.925,15.922,16.104z M17.831,10.672c-0.263,0.892,1.034,1.021,0.698,2.006c0.677,0,0.48-0.539,0.733-0.983
	c0.365-0.638,1.212-0.792,1.149-1.67c0.064,1.614,0.961-0.119,1.566-0.183c0.032-0.302-0.108-0.677-0.141-0.88
	c-0.297-0.637-0.271-1.259-1.088-0.811c-0.583,0.317-1.331,0.932-0.602,1.484C19.409,9.744,18.104,9.737,17.831,10.672z
	 M15.938,8.347c-0.336,0.191-0.511,0.927-0.587,1.275c-0.141,0.645-0.099,2.69,0.986,2.357c0.614-0.186,0.505-1.122,0.742-1.612
	c0.161-0.327,0.393-0.273,0.479-0.62c0.063-0.255-0.083-0.653-0.122-0.913c0.412,1.063,2.008,0.583,1.615-0.488
	c-0.321-0.293-0.951-0.477-1.367-0.258c-0.604,0.32-0.053,0.67-0.516,0.688C16.85,8.786,16.597,7.975,15.938,8.347z M17.683,12.875
	c-0.442-1.47-3.092,0.664-2.584,1.578c0.37,0.67,0.973-0.47,1.347-0.663C16.958,13.528,17.794,13.764,17.683,12.875z M18.683,7.484
	c0.406,0.167,0.872,0.144,0.733-0.458c-0.602-0.486-2.288-0.62-2.233,0.488C17.653,7.455,18.222,7.292,18.683,7.484z M19.822,13.231
	c0.446-0.308,1.19-0.261,1.071-1.006c-0.742-1.694-2.125,1.673-2.242,2.251C19.185,14.249,19.339,13.561,19.822,13.231z
	 M22.977,15.428c0.255,0.494,1.361,0.18,1.919-0.099c0.729-0.359,0.899-0.847,0.728-1.664
	C25.122,11.594,22.279,14.078,22.977,15.428z M21.273,16.255c0.617-0.519,0.471-2.2,0.369-2.886c-0.645-0.102-1.422,0.18-1.88,0.644
	c-0.331,0.34-1.269,1.939-0.896,2.409C19.119,16.739,21.05,16.445,21.273,16.255z M24.875,12.189
	c0.498-0.102,0.311-0.886,0.229-1.34c-0.039-1.207-1.327-0.239-1.099,0.628C24.096,11.815,24.459,12.273,24.875,12.189z
	 M21.508,12.195c0.193,0.362,0.688,0.366,0.817,1.006c0.148,0.723-0.171,1.487-0.075,2.223c0.466-0.379,0.389-1.748,0.799-2.386
	c0.237-0.374,0.517-0.428,0.524-0.867c0.007-0.306-0.294-0.706-0.446-0.958c0.473-0.021,0.951-1.712,0.281-1.68
	c-0.344-0.503-0.733-0.581-0.903-0.033c-0.179,0.575,0.517,1.131,0.693,1.611C22.373,10.642,20.877,11.008,21.508,12.195z
	 M11.481,12.006c0.33-0.017,0.276,0.293,0.602,0.156c0.33-0.138,0.559-0.739,0.77-1.014c0.344-1.523-2.764-1.288-2.497,0.514
	C10.462,12.378,10.775,12.048,11.481,12.006z M10.077,10.231c-0.084-0.638-1.03-0.817-1.294-0.2
	C8.589,10.483,9.962,11.753,10.077,10.231z M9.747,13.964c-0.208,0.432-0.285,0.964-0.247,1.441c0.067,0.84,0.164,0.651,0.761,0.844
	c0.325,0.102,0.867,0.41,1.209,0.356c0.699-0.114,0.376-0.317,0.246-0.805c-0.108-0.404-0.364-0.833-0.359-1.261
	c0.006-0.589,0.503-0.991,0.445-1.595C11.341,11.606,10.005,13.42,9.747,13.964z M7.208,12.291c0.313,0.133,0.428,0.669,0.727,0.746
	c0.261,0.064,0.555-0.314,0.984-0.246c0.369,0.061,0.436,0.749,0.82,0.163c0.231-0.356,0.159-0.749,0.025-1.134
	c-0.788-0.767-1.778-1.163-2.781-0.65c-0.209,0.107-1.069,0.347-0.672,0.709C6.728,12.258,6.852,12.139,7.208,12.291z M16.542,6.952
	c-0.511-0.925-3.048-0.994-2.559,0.487C14.298,8.394,16.713,8.128,16.542,6.952z M7.083,12.719c-0.575,0.323-1.17,0.866-0.841,1.611
	c0.591,1.33,0.811,0.599,1.177-0.239c0.1,0.556-0.022,1.137,0.564,1.416c0.636,0.298,0.897-0.019,0.964-0.667
	c0.045-0.428,0.333-1.509-0.229-1.646c-0.402-0.096-0.855,0.592-1.233,0.697c0.064-0.191,0.099-0.422,0.2-0.595
	C7.57,13.016,7.325,12.875,7.083,12.719z M13.642,10.388c0.122,0.589-0.681,1.431-0.969,1.87c0.233-0.108,0.224-0.023,0.406-0.206
	c0.023,0.3,0.047,0.598,0.072,0.898c0.822-0.114,1.036,0.766,1.68-0.278c0.604-0.974-0.017-1.422-1.006-1.291
	c0.19-0.56,0.709-0.039,0.837-0.65c0.126-0.599,0.124-1.209,0.247-1.808c-0.251-0.295-0.857-0.694-1.236-0.583
	c-0.269,0.083-0.914,0.889-0.878,1.125C12.867,9.933,13.533,9.867,13.642,10.388z M12.166,14.497c-0.594,0.82,0.219,0.83,0.528,1.18
	c0.322,0.362,0.208,0.868,0.629,0.945c0.313,0.055,0.972,0.326,1.278,0.097c0.625-0.467-0.167-1.764-0.469-2.294
	C13.736,13.856,12.575,13.935,12.166,14.497z M28,14.464c0-0.867-0.497-1.673-1.346-2.394c-0.357,0.236-0.742,0.442-1.137,0.608
	c0.55,0.413,0.857,0.867,0.857,1.347c0,1.874-4.646,3.391-10.375,3.391S5.625,15.898,5.625,14.025c0-0.528,0.388-1.03,1.053-1.477
	L5.6,11.854C4.589,12.624,4,13.513,4,14.464c0,0.052,0.003,0.105,0.006,0.156H4c0.078,2.026,0.706,4.151,1.742,6.14
	c0,0,2.511,4.953,10.258,4.953s10.216-4.996,10.216-4.996c1.032-1.978,1.706-4.121,1.781-6.097h-0.003
	C27.997,14.569,28,14.516,28,14.464z M13.126,7.995c0.403-1.409-2.953-0.029-2.367,1.438C11.188,10.501,12.81,8.495,13.126,7.995z"
	/>
</svg>
