<?xml version="1.0" encoding="utf-8"?>
<!-- Generator: Adobe Illustrator 16.0.3, SVG Export Plug-In . SVG Version: 6.00 Build 0)  -->
<!DOCTYPE svg PUBLIC "-//W3C//DTD SVG 1.1//EN" "http://www.w3.org/Graphics/SVG/1.1/DTD/svg11.dtd">
<svg version="1.1" id="Layer_1" xmlns="http://www.w3.org/2000/svg" xmlns:xlink="http://www.w3.org/1999/xlink" x="0px" y="0px"
	 width="32px" height="32px" viewBox="0 0 32 32" enable-background="new 0 0 32 32" xml:space="preserve">
<path fill="#407CCA" d="M25.6,0H6.4C2.88,0,0,2.88,0,6.4v19.2C0,29.12,2.88,32,6.4,32h19.2c3.521,0,6.4-2.88,6.4-6.4V6.4
	C32,2.88,29.12,0,25.6,0z M20.151,26.021c0,1.091-0.888,1.979-1.978,1.979h-4.347c-1.091,0-1.978-0.888-1.978-1.979V13.439
	c0-0.805,0.3-1.533,0.779-2.106c-0.234-0.111-0.403-0.349-0.403-0.625v-1.23c0-0.379,0.313-0.692,0.692-0.692h0.467l0.922-1.592
	l0.855-1.483C15.025,5.53,14.93,5.319,14.93,5.073C14.93,4.481,15.406,4,16,4s1.07,0.481,1.07,1.073
	c0,0.246-0.096,0.457-0.231,0.638l0.854,1.483l0.922,1.592h0.468c0.378,0,0.69,0.313,0.69,0.692v1.23
	c0,0.276-0.167,0.514-0.401,0.625c0.479,0.573,0.779,1.301,0.779,2.106V26.021z M18.362,11.401h-4.727
	c-0.623,0.466-1.033,1.202-1.033,2.038v12.583c0,0.676,0.548,1.224,1.224,1.224h4.347c0.675,0,1.223-0.548,1.223-1.224V13.439
	C19.396,12.603,18.987,11.867,18.362,11.401z M15.294,13.117h-1.135v2.825h1.135v0.481h-1.135v2.825h1.135v0.481h-1.135v2.822h1.135
	v0.481h-1.135v2.824h1.135v0.481h-1.616V12.636h1.616V13.117z"/>
</svg>
