<?xml version="1.0" encoding="utf-8"?>
<!-- Generator: Adobe Illustrator 16.0.3, SVG Export Plug-In . SVG Version: 6.00 Build 0)  -->
<!DOCTYPE svg PUBLIC "-//W3C//DTD SVG 1.1//EN" "http://www.w3.org/Graphics/SVG/1.1/DTD/svg11.dtd">
<svg version="1.1" id="Layer_1" xmlns="http://www.w3.org/2000/svg" xmlns:xlink="http://www.w3.org/1999/xlink" x="0px" y="0px"
	 width="32px" height="32px" viewBox="0 0 32 32" enable-background="new 0 0 32 32" xml:space="preserve">
<path fill="#407CCA" d="M25.203,23.208v0.719c0,2.24-1.833,4.073-4.073,4.073H10.872c-2.241,0-4.075-1.833-4.075-4.073v-0.719
	c0.83,1.396,2.336,2.344,4.075,2.344H21.13C22.867,25.552,24.373,24.604,25.203,23.208z M21.13,15.15H10.872
	c-2.241,0-4.075,1.833-4.075,4.074v1.575c0,2.24,1.834,4.074,4.075,4.074H21.13c2.24,0,4.073-1.834,4.073-4.074v-1.575
	C25.203,16.982,23.37,15.15,21.13,15.15 M21.326,5.483c-1.556,0-2.816,1.259-2.816,2.817c0,1.553,1.261,2.813,2.816,2.813
	c1.555,0,2.814-1.259,2.814-2.813C24.141,6.742,22.881,5.483,21.326,5.483z M17.028,6.077c0-1.146-0.93-2.077-2.075-2.077
	S12.88,4.931,12.88,6.077c0,0.467,0.159,0.894,0.42,1.239c0.277-0.134,0.583-0.217,0.911-0.217c0.68,0,1.276,0.328,1.658,0.83
	C16.553,7.589,17.028,6.891,17.028,6.077z M12.124,9.186c0-0.05,0.011-0.095,0.014-0.144c-0.161-0.036-0.327-0.058-0.499-0.058
	c-1.266,0-2.291,1.025-2.291,2.291c0,1.267,1.025,2.292,2.291,2.292c1.267,0,2.292-1.025,2.292-2.292
	c0-0.009-0.003-0.019-0.003-0.028C12.911,11.106,12.124,10.242,12.124,9.186z M14.211,7.556c-0.898,0-1.63,0.731-1.63,1.63
	c0,0.9,0.731,1.631,1.63,1.631c0.901,0,1.633-0.731,1.633-1.631C15.844,8.288,15.112,7.556,14.211,7.556z"/>
</svg>
