<?xml version="1.0" encoding="utf-8"?>
<!-- Generator: Adobe Illustrator 16.0.3, SVG Export Plug-In . SVG Version: 6.00 Build 0)  -->
<!DOCTYPE svg PUBLIC "-//W3C//DTD SVG 1.1//EN" "http://www.w3.org/Graphics/SVG/1.1/DTD/svg11.dtd">
<svg version="1.1" id="Layer_1" xmlns="http://www.w3.org/2000/svg" xmlns:xlink="http://www.w3.org/1999/xlink" x="0px" y="0px"
	 width="32px" height="32px" viewBox="0 0 32 32" enable-background="new 0 0 32 32" xml:space="preserve">
<path fill="#407CCA" d="M25.6,0H6.4C2.88,0,0,2.88,0,6.4v19.2C0,29.12,2.88,32,6.4,32h19.2c3.521,0,6.4-2.88,6.4-6.4V6.4
	C32,2.88,29.12,0,25.6,0z M15.999,4c3.09,0,5.593,2.503,5.593,5.591H10.408C10.408,6.503,12.911,4,15.999,4z M8.999,28l1.409-17.705
	h11.184L23.002,28H8.999z M18.88,20.873c0.216,0.346,0.321,0.771,0.321,1.28c0,0.462-0.128,0.896-0.381,1.297
	c-0.256,0.403-0.622,0.701-1.091,0.898c-0.469,0.195-1.053,0.295-1.753,0.295c-1.016,0-1.797-0.235-2.344-0.708
	c-0.544-0.47-0.872-1.156-0.978-2.056l1.584-0.155c0.094,0.533,0.287,0.922,0.578,1.171c0.291,0.248,0.684,0.373,1.178,0.373
	c0.525,0,0.919-0.11,1.185-0.331c0.266-0.222,0.396-0.481,0.396-0.778c0-0.188-0.056-0.353-0.165-0.484
	c-0.112-0.134-0.307-0.251-0.588-0.35c-0.19-0.065-0.622-0.183-1.3-0.352c-0.872-0.216-1.484-0.481-1.834-0.797
	c-0.494-0.442-0.741-0.981-0.741-1.619c0-0.411,0.116-0.795,0.347-1.153c0.234-0.355,0.569-0.626,1.006-0.815
	c0.438-0.184,0.965-0.279,1.584-0.279c1.01,0,1.769,0.224,2.281,0.664c0.513,0.445,0.781,1.034,0.807,1.776l-1.628,0.07
	c-0.069-0.414-0.219-0.711-0.447-0.893c-0.229-0.183-0.572-0.271-1.031-0.271c-0.472,0-0.841,0.097-1.106,0.292
	c-0.172,0.124-0.259,0.289-0.259,0.499c0,0.191,0.082,0.353,0.241,0.487c0.206,0.172,0.703,0.353,1.497,0.54
	c0.787,0.185,1.372,0.38,1.753,0.578C18.37,20.253,18.667,20.525,18.88,20.873z M16.742,5.025c0,0.411-0.328,0.744-0.741,0.744
	s-0.744-0.333-0.744-0.744c0-0.408,0.331-0.742,0.744-0.742S16.742,4.617,16.742,5.025z M18.67,6.656
	c0,0.411-0.331,0.741-0.74,0.741c-0.412,0-0.74-0.33-0.74-0.741c0-0.408,0.328-0.742,0.74-0.742
	C18.339,5.914,18.67,6.249,18.67,6.656z M14.786,6.656c0,0.411-0.332,0.741-0.741,0.741c-0.41,0-0.744-0.33-0.744-0.741
	c0-0.408,0.334-0.742,0.744-0.742C14.455,5.914,14.786,6.249,14.786,6.656z"/>
</svg>
