<?xml version="1.0" encoding="utf-8"?>
<!-- Generator: Adobe Illustrator 16.0.3, SVG Export Plug-In . SVG Version: 6.00 Build 0)  -->
<!DOCTYPE svg PUBLIC "-//W3C//DTD SVG 1.1//EN" "http://www.w3.org/Graphics/SVG/1.1/DTD/svg11.dtd">
<svg version="1.1" id="Layer_1" xmlns="http://www.w3.org/2000/svg" xmlns:xlink="http://www.w3.org/1999/xlink" x="0px" y="0px"
	 width="32px" height="32px" viewBox="0 0 32 32" enable-background="new 0 0 32 32" xml:space="preserve">
<path fill="#407CCA" d="M11.114,17.146c0,0.422-0.347,0.773-0.775,0.773c-0.428,0-0.771-0.352-0.771-0.773
	c0-0.429,0.344-0.777,0.771-0.777C10.767,16.369,11.114,16.717,11.114,17.146z M19.526,26.787l4.144-4.488h-4.144V26.787z
	 M18.67,27.146H7.908V14.744h16.181v6.704H18.67V27.146z M11.986,17.146c0-0.911-0.734-1.652-1.644-1.652
	c-0.913,0-1.65,0.741-1.65,1.652c0,0.907,0.737,1.646,1.65,1.646C11.251,18.792,11.986,18.053,11.986,17.146z M32,6.4v19.2
	c0,3.521-2.88,6.4-6.4,6.4H6.4C2.88,32,0,29.12,0,25.6V6.4C0,2.88,2.88,0,6.4,0h19.2C29.12,0,32,2.88,32,6.4z M18.427,8.236
	c0,2.491,3.325,2.491,3.325,0c0-0.456-1.363-3.633-1.663-4.236C19.786,4.452,18.427,7.78,18.427,8.236z M14.077,10.978
	c0,2.491,3.325,2.491,3.325,0c0-0.456-1.359-3.633-1.662-4.239C15.439,7.19,14.077,10.522,14.077,10.978z M9.705,8.236
	c0,2.491,3.325,2.491,3.325,0c0-0.456-1.359-3.633-1.663-4.236C11.064,4.452,9.705,7.78,9.705,8.236z M24.939,13.894H7.061V28
	h12.512l0.125-0.138l5.241-5.681V13.894z"/>
</svg>
