<?xml version="1.0" encoding="utf-8"?>
<!-- Generator: Adobe Illustrator 16.0.3, SVG Export Plug-In . SVG Version: 6.00 Build 0)  -->
<!DOCTYPE svg PUBLIC "-//W3C//DTD SVG 1.1//EN" "http://www.w3.org/Graphics/SVG/1.1/DTD/svg11.dtd">
<svg version="1.1" id="Layer_1" xmlns="http://www.w3.org/2000/svg" xmlns:xlink="http://www.w3.org/1999/xlink" x="0px" y="0px"
	 width="32px" height="32px" viewBox="0 0 32 32" enable-background="new 0 0 32 32" xml:space="preserve">
<path fill="#407CCA" d="M25.072,23.424h-0.238v-2.89h0.238c0.412,0,0.758,0.14,1.04,0.417c0.276,0.281,0.414,0.63,0.414,1.039
	c0,0.397-0.138,0.734-0.414,1.013C25.83,23.284,25.484,23.424,25.072,23.424z M32,6.4v19.2c0,3.521-2.88,6.4-6.4,6.4H6.4
	C2.88,32,0,29.12,0,25.6V6.4C0,2.88,2.88,0,6.4,0h19.2C29.12,0,32,2.88,32,6.4z M12.435,18.625H5.815l1.316,9.166h3.876
	L12.435,18.625z M27.859,26.479H14.978c0,0.397,0.136,0.726,0.408,0.986c0.271,0.264,0.605,0.396,1.002,0.396h10.065
	c0.398,0,0.731-0.133,1.003-0.396C27.725,27.205,27.859,26.877,27.859,26.479z M17.4,25.761c0.229,0.222,0.511,0.335,0.845,0.335
	h5.396c0.334,0,0.615-0.113,0.846-0.335c0.232-0.222,0.348-0.509,0.348-0.857v-0.525h0.238c0.334,0,0.646-0.063,0.943-0.192
	c0.291-0.126,0.549-0.298,0.761-0.514c0.218-0.214,0.388-0.463,0.516-0.747c0.127-0.289,0.189-0.6,0.189-0.935
	c0-0.334-0.063-0.645-0.189-0.943c-0.128-0.294-0.298-0.549-0.516-0.761c-0.212-0.214-0.47-0.388-0.761-0.513
	c-0.297-0.13-0.609-0.192-0.943-0.192h-8.018v5.322C17.055,25.252,17.169,25.539,17.4,25.761z M28,10.456
	c-0.002-3.492-2.828-6.322-6.32-6.318c-3.229-0.003-5.864,2.433-6.241,5.564h-3.298c-0.206-0.228-0.5-0.378-0.833-0.378H5.131
	C4.505,9.323,4,9.83,4,10.456c0,0.625,0.505,1.128,1.131,1.128h6.176c0.333,0,0.627-0.148,0.833-0.376h3.298
	c0.375,3.129,3.012,5.563,6.241,5.563C25.172,16.771,28,13.945,28,10.456z M25.456,6.834c0.93,0.931,1.507,2.215,1.507,3.634
	c0,1.417-0.574,2.702-1.507,3.634c-0.927,0.927-2.212,1.503-3.633,1.506c-1.422,0-2.708-0.58-3.634-1.506
	c-0.93-0.93-1.507-2.217-1.507-3.637c0-1.416,0.578-2.7,1.507-3.631c0.933-0.93,2.217-1.506,3.634-1.506S24.526,5.905,25.456,6.834z
	 M26.396,10.469c0-1.264-0.511-2.406-1.34-3.233c-0.828-0.831-1.969-1.34-3.233-1.34c-1.263,0-2.403,0.506-3.232,1.34
	c-0.83,0.827-1.341,1.966-1.341,3.233c0,1.264,0.51,2.406,1.341,3.234c0.826,0.827,1.969,1.337,3.232,1.337
	c1.265-0.003,2.406-0.511,3.233-1.337C25.891,12.872,26.4,11.733,26.396,10.469z"/>
</svg>
