<?xml version="1.0" encoding="utf-8"?>
<!-- Generator: Adobe Illustrator 16.0.3, SVG Export Plug-In . SVG Version: 6.00 Build 0)  -->
<!DOCTYPE svg PUBLIC "-//W3C//DTD SVG 1.1//EN" "http://www.w3.org/Graphics/SVG/1.1/DTD/svg11.dtd">
<svg version="1.1" id="Layer_1" xmlns="http://www.w3.org/2000/svg" xmlns:xlink="http://www.w3.org/1999/xlink" x="0px" y="0px"
	 width="32px" height="32px" viewBox="0 0 32 32" enable-background="new 0 0 32 32" xml:space="preserve">
<path fill="#407CCA" d="M26.061,7.354c-7.84-0.064-9.534-2.109-12.872-2.109c-3.972,0-6.303,1.092-7.303,1.708
	c-0.74,0.398-0.568-0.369-0.568-0.636c0-0.269,0.44-0.53,0.44-0.53C6.677,5.192,9.039,4,13.189,4c3.344,0,5.041,2.053,12.91,2.109
	c0,0,0.6-0.061,0.6,0.475C26.698,7.12,26.661,7.354,26.061,7.354z M26.698,27.229c0-0.536-0.6-0.475-0.6-0.475
	c-7.869-0.058-9.565-2.109-12.91-2.109c-4.15,0-6.512,1.192-7.431,1.787c0,0-0.44,0.261-0.44,0.53c0,0.267-0.172,1.034,0.568,0.633
	c1-0.613,3.332-1.705,7.303-1.708c3.337,0,5.032,2.048,12.872,2.112C26.661,28,26.698,27.766,26.698,27.229z M26.698,9.133
	c0-0.536-0.6-0.475-0.6-0.475c-7.869-0.058-9.565-2.109-12.91-2.109c-4.15,0-6.512,1.192-7.431,1.788c0,0-0.44,0.261-0.44,0.53
	v15.515c0,0.268-0.172,1.035,0.568,0.637c1-0.617,3.332-1.708,7.303-1.708c3.337,0,5.032,2.045,12.872,2.109
	c0.601,0,0.638-0.234,0.638-0.771V9.133z"/>
</svg>
