<?xml version="1.0" encoding="utf-8"?>
<!-- Generator: Adobe Illustrator 16.0.3, SVG Export Plug-In . SVG Version: 6.00 Build 0)  -->
<!DOCTYPE svg PUBLIC "-//W3C//DTD SVG 1.1//EN" "http://www.w3.org/Graphics/SVG/1.1/DTD/svg11.dtd">
<svg version="1.1" id="Layer_1" xmlns="http://www.w3.org/2000/svg" xmlns:xlink="http://www.w3.org/1999/xlink" x="0px" y="0px"
	 width="32px" height="32px" viewBox="0 0 32 32" enable-background="new 0 0 32 32" xml:space="preserve">
<path fill="#407CCA" d="M16.103,15.636c-5.597,0-10.134,2.194-10.134,4.893c0,2.7,4.538,4.892,10.134,4.892
	c5.6,0,10.137-2.191,10.137-4.892C26.24,17.83,21.703,15.636,16.103,15.636z M16.103,24.823c-4.911-0.006-8.884-1.927-8.897-4.295
	c0.013-2.372,3.986-4.292,8.897-4.295c4.913,0.003,8.886,1.923,8.894,4.295C24.989,22.896,21.016,24.817,16.103,24.823z
	 M16.103,17.031c-4,0-7.241,1.567-7.241,3.497s3.241,3.495,7.241,3.495c3.999,0,7.243-1.565,7.243-3.495
	S20.102,17.031,16.103,17.031z M16.103,23.424c-3.313,0-5.994-1.293-5.999-2.896c0.005-1.602,2.686-2.894,5.999-2.897
	c3.316,0.004,5.994,1.296,6.001,2.897C22.097,22.131,19.419,23.424,16.103,23.424z M25.6,0H6.4C2.88,0,0,2.88,0,6.4v19.204
	c0,3.52,2.88,6.399,6.4,6.399h19.2c3.521,0,6.4-2.88,6.4-6.399V6.4C32,2.88,29.12,0,25.6,0z M19.396,10.32
	c1.948-1.663,1.347-2.594,1.347-2.594s2.408,1.63,0.023,3.633c-1.578,1.333-0.544,2.487-0.544,2.487S17.239,12.164,19.396,10.32z
	 M18.183,4.919c0,0-1.383,0.692-0.407,2.511c1.473,2.742-1.36,3.367-1.36,3.367s0.9-0.641-0.3-2.903
	C14.788,5.386,18.183,4.919,18.183,4.919z M12.208,10.513c1.442-2.119,0.615-2.855,0.615-2.855s2.752,0.938,0.979,3.499
	c-1.174,1.697,0.126,2.539,0.126,2.539S10.604,12.856,12.208,10.513z M16,27.084c-6.625,0-12-2.785-12-6.228
	c0-3.439,5.375-6.225,12-6.225c6.628,0,12,2.786,12,6.225C28,24.299,22.628,27.084,16,27.084z M16.103,18.531
	c-2.283,0-4.136,0.894-4.136,1.997c0,1.104,1.853,1.995,4.136,1.995c2.286,0,4.136-0.891,4.136-1.995
	C20.239,19.425,18.389,18.531,16.103,18.531z M16.103,21.927c-1.6,0-2.892-0.628-2.897-1.398c0.005-0.772,1.297-1.397,2.897-1.4
	c1.603,0.003,2.895,0.628,2.899,1.4C18.998,21.299,17.706,21.927,16.103,21.927z"/>
</svg>
