<?xml version="1.0" encoding="utf-8"?>
<!-- Generator: Adobe Illustrator 16.0.3, SVG Export Plug-In . SVG Version: 6.00 Build 0)  -->
<!DOCTYPE svg PUBLIC "-//W3C//DTD SVG 1.1//EN" "http://www.w3.org/Graphics/SVG/1.1/DTD/svg11.dtd">
<svg version="1.1" id="Layer_1" xmlns="http://www.w3.org/2000/svg" xmlns:xlink="http://www.w3.org/1999/xlink" x="0px" y="0px"
	 width="32px" height="32px" viewBox="0 0 32 32" enable-background="new 0 0 32 32" xml:space="preserve">
<path fill="#407CCA" d="M25.6,0H6.4C2.88,0,0,2.88,0,6.4v19.2C0,29.12,2.88,32,6.4,32h19.2c3.521,0,6.4-2.88,6.4-6.4V6.4
	C32,2.88,29.12,0,25.6,0z M11.766,9.783c0.534-0.911,1.253-1.59,2.148-2.039V5.936h-0.427c-0.359,0-0.648-0.325-0.648-0.724V4.724
	C12.839,4.325,13.128,4,13.487,4h5.023c0.359,0,0.648,0.325,0.648,0.724v0.489c0,0.398-0.289,0.724-0.648,0.724h-0.394v1.808
	c1.409,0.707,2.292,1.788,2.68,3.22h-9.531C11.394,10.56,11.544,10.161,11.766,9.783z M10.961,12.751
	c0-0.063,0.023-0.124,0.023-0.188h10.033c0.001,0.067,0.021,0.122,0.021,0.188v1.35H10.961V12.751z M10.961,15.705h10.078v1.538
	H10.961V15.705z M19.025,28h-6.46c-1.769,0-1.604-1.919-1.604-1.919v-7.235h10.078v6.972C21.039,25.817,21.245,28,19.025,28z"/>
</svg>
