<?xml version="1.0" encoding="utf-8"?>
<!-- Generator: Adobe Illustrator 16.0.3, SVG Export Plug-In . SVG Version: 6.00 Build 0)  -->
<!DOCTYPE svg PUBLIC "-//W3C//DTD SVG 1.1//EN" "http://www.w3.org/Graphics/SVG/1.1/DTD/svg11.dtd">
<svg version="1.1" id="Layer_1" xmlns="http://www.w3.org/2000/svg" xmlns:xlink="http://www.w3.org/1999/xlink" x="0px" y="0px"
	 width="32px" height="32px" viewBox="0 0 32 32" enable-background="new 0 0 32 32" xml:space="preserve">
<path fill="#407CCA" d="M21.592,10.295H10.408L8.999,28h14.003L21.592,10.295z M18.82,23.45c-0.256,0.403-0.622,0.701-1.091,0.898
	c-0.469,0.195-1.053,0.295-1.753,0.295c-1.016,0-1.797-0.235-2.344-0.708c-0.544-0.47-0.872-1.156-0.978-2.056l1.584-0.155
	c0.094,0.533,0.287,0.922,0.578,1.171c0.291,0.248,0.684,0.373,1.178,0.373c0.525,0,0.919-0.11,1.185-0.331
	c0.266-0.222,0.396-0.481,0.396-0.778c0-0.188-0.056-0.353-0.165-0.484c-0.112-0.134-0.307-0.251-0.588-0.35
	c-0.19-0.065-0.622-0.183-1.3-0.352c-0.872-0.216-1.484-0.481-1.834-0.797c-0.494-0.442-0.741-0.981-0.741-1.619
	c0-0.411,0.116-0.795,0.347-1.153c0.234-0.355,0.569-0.626,1.006-0.815c0.438-0.184,0.965-0.279,1.584-0.279
	c1.01,0,1.769,0.224,2.281,0.664c0.513,0.445,0.781,1.034,0.807,1.776l-1.628,0.07c-0.069-0.414-0.219-0.711-0.447-0.893
	c-0.229-0.183-0.572-0.271-1.031-0.271c-0.472,0-0.841,0.097-1.106,0.292c-0.172,0.124-0.259,0.289-0.259,0.499
	c0,0.191,0.082,0.353,0.241,0.487c0.206,0.172,0.703,0.353,1.497,0.54c0.787,0.185,1.372,0.38,1.753,0.578
	c0.378,0.2,0.675,0.473,0.888,0.82c0.216,0.346,0.321,0.771,0.321,1.28C19.201,22.615,19.073,23.049,18.82,23.45z M15.999,4
	c-3.087,0-5.591,2.503-5.591,5.591h11.184C21.592,6.503,19.089,4,15.999,4z M14.045,7.397c-0.41,0-0.744-0.33-0.744-0.741
	c0-0.408,0.334-0.742,0.744-0.742c0.409,0,0.741,0.334,0.741,0.742C14.786,7.067,14.455,7.397,14.045,7.397z M16.001,5.769
	c-0.413,0-0.744-0.333-0.744-0.744c0-0.408,0.331-0.742,0.744-0.742s0.741,0.334,0.741,0.742
	C16.742,5.436,16.414,5.769,16.001,5.769z M17.93,7.397c-0.412,0-0.74-0.33-0.74-0.741c0-0.408,0.328-0.742,0.74-0.742
	c0.409,0,0.74,0.334,0.74,0.742C18.67,7.067,18.339,7.397,17.93,7.397z"/>
</svg>
