<?xml version="1.0" encoding="utf-8"?>
<!-- Generator: Adobe Illustrator 16.0.3, SVG Export Plug-In . SVG Version: 6.00 Build 0)  -->
<!DOCTYPE svg PUBLIC "-//W3C//DTD SVG 1.1//EN" "http://www.w3.org/Graphics/SVG/1.1/DTD/svg11.dtd">
<svg version="1.1" id="Layer_1" xmlns="http://www.w3.org/2000/svg" xmlns:xlink="http://www.w3.org/1999/xlink" x="0px" y="0px"
	 width="32px" height="32px" viewBox="0 0 32 32" enable-background="new 0 0 32 32" xml:space="preserve">
<path fill="#407CCA" d="M12.344,18.583l-0.455-0.257l1.948-2.034l0.45,0.26L12.344,18.583z M16.789,16.102l-4.595,4.787l0.448,0.254
	l4.594-4.783L16.789,16.102z M27.404,12.247l0.028,0.003l-6.69,14.175L4,26.461L9.997,13.63c-1.531-0.241-2.314-2.044-2.338-4.025
	c0.025-2.068,0.867-3.962,2.535-4.065l15.251,0.003c0.005,0,0.01-0.003,0.014-0.003C27.13,5.642,27.971,7.536,28,9.604
	C27.986,10.584,27.784,11.517,27.404,12.247z M25.459,6.608c-0.277-0.006-0.636,0.215-0.951,0.764
	c-0.305,0.541-0.519,1.34-0.519,2.232c0,0.891,0.214,1.697,0.519,2.23c0.315,0.553,0.674,0.772,0.951,0.766
	c0.277,0.006,0.64-0.212,0.955-0.766c0.305-0.533,0.519-1.339,0.514-2.23c0.005-0.892-0.209-1.692-0.514-2.232
	C26.099,6.823,25.736,6.602,25.459,6.608z M10.194,12.6h13.539c-0.519-0.766-0.795-1.847-0.811-2.996
	c0.016-1.15,0.292-2.232,0.813-2.997H10.194c-0.275-0.006-0.636,0.215-0.95,0.764c-0.311,0.541-0.52,1.34-0.52,2.232
	c0,0.891,0.209,1.697,0.52,2.23C9.558,12.388,9.919,12.606,10.194,12.6z M25.547,13.653c-0.031,0.003-0.057,0.016-0.088,0.017
	H11.097L5.913,25.386l14.239-0.026L25.547,13.653z M14.336,21.356l0.452,0.259l3.109-3.234l-0.449-0.256L14.336,21.356z"/>
</svg>
