<?xml version="1.0" encoding="utf-8"?>
<!-- Generator: Adobe Illustrator 16.0.3, SVG Export Plug-In . SVG Version: 6.00 Build 0)  -->
<!DOCTYPE svg PUBLIC "-//W3C//DTD SVG 1.1//EN" "http://www.w3.org/Graphics/SVG/1.1/DTD/svg11.dtd">
<svg version="1.1" id="Layer_1" xmlns="http://www.w3.org/2000/svg" xmlns:xlink="http://www.w3.org/1999/xlink" x="0px" y="0px"
	 width="32px" height="32px" viewBox="0 0 32 32" enable-background="new 0 0 32 32" xml:space="preserve">
<path fill="#407CCA" d="M18.227,13.764c-1.403-1.405,2.463-2.972,2.928-3.078C21.154,10.686,19.636,15.175,18.227,13.764z
	 M15.452,18.458c-2.075-0.783-2.563,0.698-1.962,1.295c1.325,1.322,4.456-1.125,4.612-1.603
	C18.102,18.15,17.299,19.159,15.452,18.458z M17.42,16.486c-2.071-0.783-2.562,0.697-1.962,1.295
	c1.325,1.325,4.456-1.122,4.615-1.603C20.073,16.178,19.273,17.188,17.42,16.486z M15.942,14.44
	c0.594,0.592,2.071,0.111,1.287-1.969c-0.696-1.845,0.313-2.648,0.313-2.648C17.061,9.986,14.617,13.114,15.942,14.44z
	 M19.336,14.578c-2.081-0.784-2.563,0.697-1.969,1.291c1.328,1.329,4.459-1.122,4.619-1.6C21.986,14.269,21.18,15.278,19.336,14.578
	z M32,6.4v19.2c0,3.521-2.88,6.4-6.4,6.4H6.4C2.88,32,0,29.12,0,25.6V6.4C0,2.88,2.88,0,6.4,0h19.2C29.12,0,32,2.88,32,6.4z
	 M7.501,5.995h16.997V4H7.501V5.995z M25.526,8.545c0-0.935-0.766-1.7-1.7-1.7H8.173c-0.934,0-1.7,0.766-1.7,1.7V26.3
	c0,0.935,0.766,1.7,1.7,1.7h15.653c0.935,0,1.7-0.766,1.7-1.7V8.545z M13.349,16.356c-0.697-1.849,0.313-2.648,0.313-2.648
	c-0.484,0.159-2.932,3.286-1.604,4.614C12.651,18.92,14.136,18.432,13.349,16.356z M14.03,16.353
	c0.594,0.592,2.075,0.109,1.288-1.969c-0.697-1.845,0.313-2.648,0.313-2.648C15.148,11.892,12.698,15.025,14.03,16.353z
	 M11.626,19.219l-1.575,1.925c-0.175,0.18,0.278,0.937,0.65,0.565l1.853-1.561c0.159-0.159-0.19-0.227-0.447-0.479
	C11.852,19.411,11.786,19.06,11.626,19.219z"/>
</svg>
