<?xml version="1.0" encoding="utf-8"?>
<!-- Generator: Adobe Illustrator 16.0.3, SVG Export Plug-In . SVG Version: 6.00 Build 0)  -->
<!DOCTYPE svg PUBLIC "-//W3C//DTD SVG 1.1//EN" "http://www.w3.org/Graphics/SVG/1.1/DTD/svg11.dtd">
<svg version="1.1" id="Layer_1" xmlns="http://www.w3.org/2000/svg" xmlns:xlink="http://www.w3.org/1999/xlink" x="0px" y="0px"
	 width="32px" height="32px" viewBox="0 0 32 32" enable-background="new 0 0 32 32" xml:space="preserve">
<path fill="#407CCA" d="M26.253,5.75C25.088,4.584,23.56,4,22.031,4s-3.055,0.584-4.219,1.75l-6.033,6.031l0,0l-6.031,6.031
	c-2.332,2.328-2.332,6.109,0.001,8.44c2.328,2.33,6.109,2.33,8.439,0l4.747-4.745l7.317-7.317
	C28.583,11.859,28.583,8.078,26.253,5.75z M24.969,12.906l-6.033,6.031l-5.872-5.872l6.035-6.031
	c0.782-0.784,1.825-1.217,2.933-1.217c1.109,0,2.153,0.433,2.938,1.217C26.586,8.651,26.586,11.288,24.969,12.906z"/>
</svg>
