<?xml version="1.0" encoding="utf-8"?>
<!-- Generator: Adobe Illustrator 16.0.3, SVG Export Plug-In . SVG Version: 6.00 Build 0)  -->
<!DOCTYPE svg PUBLIC "-//W3C//DTD SVG 1.1//EN" "http://www.w3.org/Graphics/SVG/1.1/DTD/svg11.dtd">
<svg version="1.1" id="Layer_1" xmlns="http://www.w3.org/2000/svg" xmlns:xlink="http://www.w3.org/1999/xlink" x="0px" y="0px"
	 width="32px" height="32px" viewBox="0 0 32 32" enable-background="new 0 0 32 32" xml:space="preserve">
<path fill="#407CCA" d="M25.6,0H6.4C2.88,0,0,2.88,0,6.4v19.2C0,29.12,2.88,32,6.4,32h19.2c3.521,0,6.4-2.88,6.4-6.4V6.4
	C32,2.88,29.12,0,25.6,0z M8.251,4.001c2.347,0,4.247,1.905,4.247,4.249c0,2.352-1.9,4.25-4.247,4.25C5.905,12.5,4,10.602,4,8.25
	C4,5.906,5.905,4.001,8.251,4.001z M8.251,27.998C5.905,27.998,4,26.096,4,23.748C4,21.401,5.905,19.5,8.251,19.5
	c2.347,0,4.247,1.901,4.247,4.248C12.499,26.096,10.599,27.998,8.251,27.998z M15.999,20.252c-2.349,0-4.25-1.903-4.25-4.25
	c0-2.348,1.901-4.251,4.25-4.251c2.348,0,4.25,1.903,4.25,4.251C20.248,18.349,18.347,20.252,15.999,20.252z M23.747,27.998
	c-2.347,0-4.249-1.902-4.249-4.25c0-2.347,1.902-4.248,4.249-4.248c2.345,0,4.253,1.901,4.253,4.248
	C28,26.096,26.092,27.998,23.747,27.998z M23.747,12.5c-2.347,0-4.249-1.898-4.249-4.25c0-2.344,1.902-4.249,4.249-4.249
	C26.092,4.001,28,5.906,28,8.25C28,10.602,26.092,12.5,23.747,12.5z"/>
</svg>
