<?xml version="1.0" encoding="utf-8"?>
<!-- Generator: Adobe Illustrator 16.0.3, SVG Export Plug-In . SVG Version: 6.00 Build 0)  -->
<!DOCTYPE svg PUBLIC "-//W3C//DTD SVG 1.1//EN" "http://www.w3.org/Graphics/SVG/1.1/DTD/svg11.dtd">
<svg version="1.1" id="Layer_1" xmlns="http://www.w3.org/2000/svg" xmlns:xlink="http://www.w3.org/1999/xlink" x="0px" y="0px"
	 width="32px" height="32px" viewBox="0 0 32 32" enable-background="new 0 0 32 32" xml:space="preserve">
<path fill="#407CCA" d="M25.6,0H6.4C2.88,0,0,2.88,0,6.4v19.199c0,3.521,2.88,6.399,6.4,6.399h19.2c3.521,0,6.4-2.879,6.4-6.399V6.4
	C32,2.88,29.12,0,25.6,0z M25.092,6.453c0,0,0.153,6.281-2.24,5.169C20.458,10.509,24.564,6.797,25.092,6.453z M20.201,7.022
	c0,0-0.894,1.465,0.82,3.444c1.927,2.231,0.301,3.508-0.711,3.041C18.053,12.455,19.677,7.439,20.201,7.022z M18.69,10.275
	c0,0-0.889,1.459,0.82,3.441c1.925,2.234,0.3,3.513-0.714,3.044C16.539,15.708,18.164,10.69,18.69,10.275z M17.133,13.626
	c0,0-0.891,1.459,0.818,3.446c1.929,2.228,0.301,3.509-0.711,3.039C14.985,19.063,16.607,14.044,17.133,13.626z M8.504,3.999
	c0,0,2.787,5.631,0.146,5.631C6.009,9.63,8.168,4.528,8.504,3.999z M4.308,6.575c0,0-0.194,1.703,2.195,2.775
	c2.685,1.212,1.749,3.056,0.635,3.056C4.647,12.406,4.006,7.175,4.308,6.575z M4.308,10.161c0,0-0.194,1.7,2.195,2.776
	c2.685,1.209,1.749,3.058,0.635,3.058C4.647,15.995,4.006,10.759,4.308,10.161z M4.308,13.856c0,0-0.194,1.7,2.195,2.779
	c2.685,1.206,1.749,3.055,0.635,3.055C4.647,19.69,4.006,14.456,4.308,13.856z M4.308,17.644c0,0-0.194,1.7,2.195,2.78
	c2.685,1.206,1.749,3.055,0.635,3.055C4.647,23.479,4.006,18.244,4.308,17.644z M9.04,27.231c0,0.698-1.142,0.414-1.142,0.081
	l-0.326-3.279c0-0.302,0.384-0.035,0.87-0.035c0.481,0,0.87-0.267,0.87,0.035L9.04,27.231z M9.815,23.479
	c-1.117,0-2.05-1.849,0.632-3.055c2.391-1.08,2.198-2.78,2.198-2.78C12.943,18.244,12.305,23.479,9.815,23.479z M9.815,19.69
	c-1.117,0-2.05-1.849,0.632-3.055c2.391-1.08,2.198-2.779,2.198-2.779C12.943,14.456,12.305,19.69,9.815,19.69z M9.815,15.995
	c-1.117,0-2.05-1.848,0.632-3.058c2.391-1.077,2.198-2.776,2.198-2.776C12.943,10.759,12.305,15.995,9.815,15.995z M9.815,12.406
	c-1.117,0-2.05-1.844,0.632-3.056c2.391-1.072,2.198-2.775,2.198-2.775C12.943,7.175,12.305,12.406,9.815,12.406z M15.536,17.064
	c0,0-0.89,1.457,0.822,3.441c1.925,2.229,0.301,3.507-0.712,3.036C13.388,22.497,15.011,17.479,15.536,17.064z M15.791,27.752
	c-0.295,0.631-1.209-0.106-1.069-0.411l1.086-3.109c0.125-0.273,0.363,0.131,0.804,0.336c0.436,0.2,0.899,0.126,0.773,0.396
	L15.791,27.752z M18.075,24.674c-1.011-0.469-1.081-2.536,1.86-2.505c2.622,0.029,3.163-1.594,3.163-1.594
	C23.117,21.245,20.331,25.724,18.075,24.674z M19.67,21.242c-1.012-0.474-1.081-2.539,1.859-2.508
	c2.624,0.029,3.163-1.594,3.163-1.594C24.714,17.814,21.928,22.287,19.67,21.242z M21.229,17.888
	c-1.013-0.468-1.084-2.538,1.859-2.506c2.622,0.028,3.163-1.594,3.163-1.594C26.271,14.456,23.486,18.936,21.229,17.888z
	 M22.74,14.631c-1.011-0.467-1.082-2.535,1.859-2.503c2.619,0.035,3.161-1.594,3.161-1.594
	C27.779,11.206,24.998,15.683,22.74,14.631z"/>
</svg>
