<?xml version="1.0" encoding="utf-8"?>
<!-- Generator: Adobe Illustrator 16.0.3, SVG Export Plug-In . SVG Version: 6.00 Build 0)  -->
<!DOCTYPE svg PUBLIC "-//W3C//DTD SVG 1.1//EN" "http://www.w3.org/Graphics/SVG/1.1/DTD/svg11.dtd">
<svg version="1.1" id="Layer_1" xmlns="http://www.w3.org/2000/svg" xmlns:xlink="http://www.w3.org/1999/xlink" x="0px" y="0px"
	 width="32px" height="32px" viewBox="0 0 32 32" enable-background="new 0 0 32 32" xml:space="preserve">
<path fill="#407CCA" d="M24.602,18.275c-3.467,4.162-7.065,1.798-8.241,0.829c0.907-0.989,1.322-1.526,2.894-2.822
	c1.625,0.665,4.532-0.597,4.532-0.597c-1.956,0.512-3.451,0.222-3.982,0.081c0.114-0.089,2.044-1.486,2.628-2.293
	c1.616,0.05,2.95-1.338,2.95-1.338c-0.044-0.037-0.861,0.589-2.406,0.664c1.6-2.35,1.528-4.512,1.528-4.512
	s-0.591,1.973-2.094,4.137c-0.308-1.536,0.084-2.581,0.04-2.615c0,0-1.047,1.725-0.563,3.311c-0.822,0.939-2.117,1.75-2.596,2.114
	c-0.037-0.099-0.537-1.737-0.052-4.158c0,0-1.316,3.043-0.492,4.622c-1.009,0.777-1.279,0.968-2.965,2.852
	c-3.817-2.857-0.54-7.969,2.319-9.159c2.94-1.227,4.166-0.979,6.861-5.391C27.914,8.372,27.43,14.881,24.602,18.275z M8.31,17.831
	c1.737,0.794,2.941,1.872,3.768,2.903c0.01-0.029,0.022-0.055,0.032-0.089c1.572-5.658-7.07-4.871-7.07-4.871
	s1.194,1.837,1.859,3.84c0.77,2.322,3.915,4.252,5.045,1.494C11.129,20.011,9.962,18.81,8.31,17.831z M16.361,19.104
	c-0.009-0.013-0.596-0.537-0.586-0.55c-1.481,1.631-2.059,3.025-2.199,4.802c-0.225-0.611-0.673-1.589-1.497-2.622
	c-0.039,0.136-0.084,0.258-0.133,0.375c0.878,1.183,1.218,2.794,1.418,3.322c0,1.475,0.162,2.212,0.292,3.443
	c0,0,0.793,0.469,1.015-0.406C14.221,26.729,13.781,21.63,16.361,19.104z"/>
</svg>
