<?xml version="1.0" encoding="utf-8"?>
<!-- Generator: Adobe Illustrator 16.0.3, SVG Export Plug-In . SVG Version: 6.00 Build 0)  -->
<!DOCTYPE svg PUBLIC "-//W3C//DTD SVG 1.1//EN" "http://www.w3.org/Graphics/SVG/1.1/DTD/svg11.dtd">
<svg version="1.1" id="Layer_1" xmlns="http://www.w3.org/2000/svg" xmlns:xlink="http://www.w3.org/1999/xlink" x="0px" y="0px"
	 width="32px" height="32px" viewBox="0 0 32 32" enable-background="new 0 0 32 32" xml:space="preserve">
<path fill="#407CCA" d="M8.249,21.05l-2.017-2.016h6.737v6.734l-2.017-2.016L6.705,28L4,25.297L8.249,21.05z M25.299,28L28,25.297
	l-4.247-4.247l2.016-2.016h-6.732l-0.002,6.734l2.016-2.016L25.299,28z M28,6.703L25.299,4L21.05,8.25l-2.016-2.016v6.731
	l6.736,0.003l-2.019-2.019L28,6.703z M6.233,12.969h6.733l0.004-6.737L10.953,8.25L6.705,4L4,6.706l4.249,4.244L6.233,12.969z
	 M16,13.069c-1.619,0-2.931,1.313-2.931,2.931c0,1.622,1.313,2.935,2.931,2.935c1.619,0,2.933-1.313,2.933-2.935
	C18.933,14.381,17.619,13.069,16,13.069z"/>
</svg>
