<?xml version="1.0" encoding="utf-8"?>
<!-- Generator: Adobe Illustrator 16.0.3, SVG Export Plug-In . SVG Version: 6.00 Build 0)  -->
<!DOCTYPE svg PUBLIC "-//W3C//DTD SVG 1.1//EN" "http://www.w3.org/Graphics/SVG/1.1/DTD/svg11.dtd">
<svg version="1.1" id="Layer_1" xmlns="http://www.w3.org/2000/svg" xmlns:xlink="http://www.w3.org/1999/xlink" x="0px" y="0px"
	 width="32px" height="32px" viewBox="0 0 32 32" enable-background="new 0 0 32 32" xml:space="preserve">
<path fill="#407CCA" d="M27.998,16.972c0.018-0.153-0.078-0.315-0.355-0.497c-0.258-0.166-0.523-0.328-0.781-0.491
	c-0.563-0.359-1.16-0.69-1.723-1.081c-1.646-1.141-3.597-1.55-5.548-1.813c-0.8-0.104-1.695-0.06-2.366-0.553
	c-0.519-0.384-1.423-1.703-2.413-2.275c-0.171-0.104-0.976-0.51-0.976-0.51s0.46,1.25,0.566,1.5
	c0.245,0.582-0.134,1.078-0.293,1.631c-0.103,0.366,0.752,0.285,0.796,0.625c0.063,0.506-1.46,0.681-2.319,0.853
	c-1.288,0.253-2.788,0.734-4.072,0.313c-1.516-0.487-2.596-1.453-3.685-2.547c0.506,2.369,1.914,3.731,1.976,4.019
	c0.065,0.319-0.162,0.384-0.367,0.59C5.985,17.185,4.006,19.463,4,20.182c0.568-0.085,1.252-0.585,1.752-0.875
	c0.556-0.319,2.677-1.888,3.27-2.135c0.135-0.057,1.779-0.537,1.793-0.328c0.023,0.328-0.108,0.4-0.064,0.537
	c0.08,0.263,0.508,0.52,0.711,0.697c0.531,0.459,1.129,0.859,1.504,1.466c0.525,0.847,0.549,1.759,0.698,2.703
	c0.35-0.041,0.707-0.766,0.9-1.054c0.181-0.271,0.84-1.434,1.089-1.509c0.237-0.072,0.97,0.337,1.231,0.415
	c1.008,0.297,1.985,0.476,3.014,0.476c1.234,0.003,4.477,0.091,6.881-1.688c0.266-0.197,0.9-0.956,0.9-0.956
	s-0.133-0.203-0.372-0.278C27.627,17.443,27.971,17.225,27.998,16.972z M25.814,17.084c-0.301,0-0.544-0.243-0.544-0.543
	c0-0.304,0.243-0.544,0.544-0.544s0.543,0.24,0.543,0.544C26.357,16.841,26.115,17.084,25.814,17.084z"/>
</svg>
