<?xml version="1.0" encoding="utf-8"?>
<!-- Generator: Adobe Illustrator 16.0.3, SVG Export Plug-In . SVG Version: 6.00 Build 0)  -->
<!DOCTYPE svg PUBLIC "-//W3C//DTD SVG 1.1//EN" "http://www.w3.org/Graphics/SVG/1.1/DTD/svg11.dtd">
<svg version="1.1" id="Layer_1" xmlns="http://www.w3.org/2000/svg" xmlns:xlink="http://www.w3.org/1999/xlink" x="0px" y="0px"
	 width="32px" height="32px" viewBox="0 0 32 32" enable-background="new 0 0 32 32" xml:space="preserve">
<path fill="#407CCA" d="M12.661,20.734c-0.039,0.136-0.084,0.258-0.133,0.375c-0.816-1.099-1.984-2.3-3.635-3.278
	C10.63,18.625,11.833,19.703,12.661,20.734z M32,6.4v19.2c0,3.521-2.88,6.4-6.4,6.4H6.4C2.88,32,0,29.12,0,25.6V6.4
	C0,2.88,2.88,0,6.4,0h19.2C29.12,0,32,2.88,32,6.4z M25.545,4c-2.695,4.411-3.92,4.164-6.86,5.391
	c-2.859,1.19-6.136,6.302-2.319,9.159c1.686-1.884,1.957-2.075,2.965-2.852c-0.825-1.578,0.492-4.622,0.492-4.622
	c-0.485,2.42,0.015,4.059,0.052,4.158c0.479-0.364,1.773-1.175,2.596-2.114c-0.483-1.586,0.563-3.311,0.563-3.311
	c0.044,0.034-0.349,1.08-0.04,2.615c1.503-2.164,2.094-4.137,2.094-4.137s0.071,2.163-1.528,4.512
	c1.545-0.075,2.362-0.701,2.406-0.664c0,0-1.335,1.388-2.95,1.338c-0.584,0.808-2.514,2.205-2.628,2.293
	c0.531,0.141,2.026,0.431,3.982-0.081c0,0-2.907,1.261-4.532,0.597c-1.572,1.295-1.988,1.833-2.895,2.822
	c-0.009-0.013-0.597-0.537-0.587-0.55c-1.48,1.631-2.058,3.025-2.199,4.802c-0.224-0.611-0.672-1.589-1.497-2.622
	c0.01-0.029,0.022-0.055,0.032-0.089c1.572-5.658-7.069-4.871-7.069-4.871s1.194,1.837,1.859,3.84
	c0.77,2.322,3.915,4.252,5.045,1.494c0.878,1.183,1.218,2.794,1.418,3.322c0,1.475,0.162,2.212,0.291,3.443
	c0,0,0.794,0.469,1.015-0.406c-0.449-0.74-0.888-5.839,1.691-8.364c1.176,0.969,4.773,3.333,8.241-0.829
	C28.013,14.881,28.497,8.372,25.545,4z"/>
</svg>
