<?xml version="1.0" encoding="utf-8"?>
<!-- Generator: Adobe Illustrator 16.0.3, SVG Export Plug-In . SVG Version: 6.00 Build 0)  -->
<!DOCTYPE svg PUBLIC "-//W3C//DTD SVG 1.1//EN" "http://www.w3.org/Graphics/SVG/1.1/DTD/svg11.dtd">
<svg version="1.1" id="Layer_1" xmlns="http://www.w3.org/2000/svg" xmlns:xlink="http://www.w3.org/1999/xlink" x="0px" y="0px"
	 width="32px" height="32px" viewBox="0 0 32 32" enable-background="new 0 0 32 32" xml:space="preserve">
<path fill="#407CCA" d="M4.624,18.31l3.134-7.325l3.136,7.325H4.624z M21.106,18.31h6.271l-3.135-7.325L21.106,18.31z M32,6.4v19.2
	c0,3.521-2.88,6.4-6.4,6.4H6.4C2.88,32,0,29.12,0,25.6V6.4C0,2.88,2.88,0,6.4,0h19.2C29.12,0,32,2.88,32,6.4z M28,18.31
	l-3.758-8.781V8.097h-7.144V4.659h-2.197v3.438H7.758v1.432L4,18.31c0,1.203,1.683,2.181,3.758,2.181
	c2.077,0,3.759-0.978,3.759-2.181L7.758,9.528h7.144v16.381h-3.297v1.432h8.791v-1.432h-3.297V9.528h7.144l-3.76,8.781
	c0,1.203,1.684,2.181,3.76,2.181C26.317,20.49,28,19.513,28,18.31z"/>
</svg>
