<?xml version="1.0" encoding="utf-8"?>
<!-- Generator: Adobe Illustrator 16.0.3, SVG Export Plug-In . SVG Version: 6.00 Build 0)  -->
<!DOCTYPE svg PUBLIC "-//W3C//DTD SVG 1.1//EN" "http://www.w3.org/Graphics/SVG/1.1/DTD/svg11.dtd">
<svg version="1.1" id="Layer_1" xmlns="http://www.w3.org/2000/svg" xmlns:xlink="http://www.w3.org/1999/xlink" x="0px" y="0px"
	 width="32px" height="32px" viewBox="0 0 32 32" enable-background="new 0 0 32 32" xml:space="preserve">
<path fill="#407CCA" d="M20.567,14.959c0.3,0.359,0.45,0.866,0.45,1.522c0,0.597-0.133,1.047-0.402,1.356
	c-0.267,0.306-0.594,0.459-0.982,0.459c-0.406,0-0.74-0.159-1.01-0.479c-0.27-0.321-0.406-0.821-0.406-1.506
	c0-0.672,0.127-1.156,0.372-1.453c0.249-0.294,0.56-0.444,0.935-0.444C19.919,14.416,20.264,14.597,20.567,14.959z M32,6.4v19.2
	c0,3.521-2.88,6.4-6.4,6.4H6.4C2.88,32,0,29.12,0,25.6V6.4C0,2.88,2.88,0,6.4,0h19.2C29.12,0,32,2.88,32,6.4z M28,4H4v24h24V4z
	 M26.359,26.359H5.641V10.112h20.719V26.359z M13.356,12.737h-1.644c-0.233,0.644-0.658,1.209-1.276,1.691
	c-0.621,0.484-1.197,0.809-1.725,0.984v1.837c1.006-0.331,1.88-0.841,2.619-1.534v7.638h2.027V12.737z M23.289,18.072
	c0-1.897-0.344-3.263-1.033-4.091c-0.686-0.832-1.565-1.244-2.641-1.244c-0.985,0-1.793,0.328-2.431,0.984
	c-0.64,0.656-0.957,1.519-0.957,2.591c0,1.031,0.3,1.865,0.905,2.506c0.604,0.645,1.32,0.963,2.151,0.963
	c0.765,0,1.403-0.294,1.914-0.888c-0.081,1.216-0.269,2.013-0.563,2.397c-0.294,0.384-0.651,0.578-1.068,0.578
	c-0.333,0-0.601-0.098-0.802-0.291c-0.2-0.19-0.326-0.487-0.375-0.885l-1.961,0.213c0.144,0.878,0.471,1.534,0.979,1.975
	c0.511,0.441,1.18,0.66,2.005,0.66c1.15,0,2.084-0.429,2.802-1.285C22.932,21.403,23.289,20.006,23.289,18.072z"/>
</svg>
