<?xml version="1.0" encoding="utf-8"?>
<!-- Generator: Adobe Illustrator 16.0.3, SVG Export Plug-In . SVG Version: 6.00 Build 0)  -->
<!DOCTYPE svg PUBLIC "-//W3C//DTD SVG 1.1//EN" "http://www.w3.org/Graphics/SVG/1.1/DTD/svg11.dtd">
<svg version="1.1" id="Layer_1" xmlns="http://www.w3.org/2000/svg" xmlns:xlink="http://www.w3.org/1999/xlink" x="0px" y="0px"
	 width="32px" height="32px" viewBox="0 0 32 32" enable-background="new 0 0 32 32" xml:space="preserve">
<path fill="#407CCA" d="M4,4v24h24V4H4z M26.359,26.359H5.641V10.112h20.719V26.359z M13.356,23.354H11.33v-7.638
	c-0.739,0.693-1.612,1.203-2.619,1.534v-1.837c0.528-0.175,1.104-0.5,1.725-0.984c0.619-0.481,1.043-1.047,1.276-1.691h1.644V23.354
	z M16.43,20.906l1.961-0.213c0.049,0.397,0.175,0.694,0.375,0.885c0.201,0.193,0.469,0.291,0.802,0.291
	c0.417,0,0.774-0.194,1.068-0.578c0.294-0.385,0.481-1.182,0.563-2.397c-0.511,0.594-1.149,0.888-1.914,0.888
	c-0.831,0-1.548-0.318-2.151-0.963c-0.604-0.641-0.905-1.475-0.905-2.506c0-1.072,0.317-1.935,0.957-2.591
	c0.638-0.656,1.445-0.984,2.431-0.984c1.075,0,1.955,0.413,2.641,1.244c0.689,0.828,1.033,2.193,1.033,4.091
	c0,1.934-0.357,3.331-1.073,4.184c-0.718,0.856-1.651,1.285-2.802,1.285c-0.825,0-1.494-0.219-2.005-0.66
	C16.9,22.44,16.573,21.784,16.43,20.906z M21.018,16.481c0-0.656-0.15-1.163-0.45-1.522c-0.304-0.363-0.648-0.544-1.044-0.544
	c-0.375,0-0.686,0.15-0.935,0.444c-0.245,0.297-0.372,0.781-0.372,1.453c0,0.685,0.137,1.185,0.406,1.506
	c0.27,0.319,0.604,0.479,1.01,0.479c0.389,0,0.716-0.153,0.982-0.459C20.885,17.528,21.018,17.078,21.018,16.481z"/>
</svg>
