<?xml version="1.0" encoding="utf-8"?>
<!-- Generator: Adobe Illustrator 16.0.3, SVG Export Plug-In . SVG Version: 6.00 Build 0)  -->
<!DOCTYPE svg PUBLIC "-//W3C//DTD SVG 1.1//EN" "http://www.w3.org/Graphics/SVG/1.1/DTD/svg11.dtd">
<svg version="1.1" id="Layer_1" xmlns="http://www.w3.org/2000/svg" xmlns:xlink="http://www.w3.org/1999/xlink" x="0px" y="0px"
	 width="32px" height="32px" viewBox="0 0 32 32" enable-background="new 0 0 32 32" xml:space="preserve">
<path fill="#407CCA" d="M4,4v24h24V4H4z M26.359,13.519h-6.388v-3.406h0.575h5.813V13.519z M19.479,17.994h-6.959v-3.985h6.959
	V17.994z M12.521,13.519v-3.406h0.573h5.813h0.573v3.406H12.521z M11.453,10.112h0.575v3.406H5.641v-3.406H11.453z M12.028,14.009
	v3.985H5.641v-3.985H12.028z M5.641,18.484h6.388v3.979H5.641V18.484z M12.521,18.484h6.959v3.979h-6.959V18.484z M19.972,18.484
	h6.388v3.979h-6.388V18.484z M19.972,17.994v-3.985h6.388v3.985H19.972z M5.641,26.359v-3.403h6.388v3.403H5.641z M12.521,26.359
	v-3.403h6.959v3.403H12.521z M19.972,22.956h6.388v3.403h-6.388V22.956z"/>
</svg>
