<?xml version="1.0" encoding="utf-8"?>
<!-- Generator: Adobe Illustrator 16.0.3, SVG Export Plug-In . SVG Version: 6.00 Build 0)  -->
<!DOCTYPE svg PUBLIC "-//W3C//DTD SVG 1.1//EN" "http://www.w3.org/Graphics/SVG/1.1/DTD/svg11.dtd">
<svg version="1.1" id="Layer_1" xmlns="http://www.w3.org/2000/svg" xmlns:xlink="http://www.w3.org/1999/xlink" x="0px" y="0px"
	 width="32px" height="32px" viewBox="0 0 32 32" enable-background="new 0 0 32 32" xml:space="preserve">
<path fill="#407CCA" d="M24.25,15.341H10.5c-0.081-0.222-0.453-0.394-0.922-0.394s-0.841,0.172-0.922,0.394H7.75
	c-0.966,0-1.747,0.781-1.747,1.743v9.169C6.003,27.222,6.784,28,7.75,28h16.5c0.966,0,1.747-0.778,1.747-1.747v-9.169
	C25.997,16.122,25.216,15.341,24.25,15.341z M16.003,26.756c-2.891-0.003-5.234-2.344-5.234-5.234c0-2.887,2.344-5.228,5.234-5.228
	c2.888,0,5.229,2.341,5.229,5.228C21.231,24.412,18.891,26.756,16.003,26.756z M20.303,21.521c0,2.379-1.928,4.304-4.3,4.304
	c-2.378,0-4.306-1.925-4.306-4.304c0-2.375,1.928-4.3,4.306-4.3C18.375,17.222,20.303,19.146,20.303,21.521z M20.975,4h-9.95
	c-0.244,0-0.444,0.197-0.444,0.44v5.082c0,0.244,0.2,0.44,0.444,0.44h1.153c0,0.009-0.013,0.016-0.013,0.025l0.459,4.572
	c0,0.219,0.185,0.396,0.4,0.396h5.95c0.223,0,0.397-0.178,0.397-0.396l0.462-4.572c0-0.009-0.012-0.016-0.012-0.025h1.152
	c0.244,0,0.444-0.197,0.444-0.44V4.44C21.419,4.197,21.219,4,20.975,4z M20.753,9.125c0,0.206-0.165,0.375-0.372,0.375h-8.762
	c-0.209,0-0.372-0.169-0.372-0.375V4.834c0-0.203,0.162-0.372,0.372-0.372h8.762c0.207,0,0.372,0.169,0.372,0.372V9.125z"/>
</svg>
