<?xml version="1.0" encoding="utf-8"?>
<!-- Generator: Adobe Illustrator 16.0.3, SVG Export Plug-In . SVG Version: 6.00 Build 0)  -->
<!DOCTYPE svg PUBLIC "-//W3C//DTD SVG 1.1//EN" "http://www.w3.org/Graphics/SVG/1.1/DTD/svg11.dtd">
<svg version="1.1" id="Layer_1" xmlns="http://www.w3.org/2000/svg" xmlns:xlink="http://www.w3.org/1999/xlink" x="0px" y="0px"
	 width="32px" height="32px" viewBox="0 0 32 32" enable-background="new 0 0 32 32" xml:space="preserve">
<path fill="#407CCA" d="M25.6,0H6.4C2.88,0,0,2.88,0,6.4v19.201C0,29.119,2.88,32,6.4,32h19.2c3.521,0,6.4-2.881,6.4-6.399V6.4
	C32,2.88,29.12,0,25.6,0z M26.19,18.934l0.87-0.292l0.383,1.144l-0.753,0.252c-0.32-0.049-0.558-0.148-0.725-0.294L26.19,18.934z
	 M22.537,17.623c0.057-0.385,0.202-0.616,0.435-0.695c0.164,0.063,0.328,0.125,0.491,0.181c0.337,0.106,0.523,0.148,0.563,0.136
	l-0.007-0.021c0.208-0.068,0.361,0.055,0.463,0.362c0.092,0.272,0.112,0.55,0.06,0.844c-0.054,0.291-0.158,0.484-0.313,0.578
	c-0.066,0.022-0.31,0.125-0.738,0.312l-0.379,0.02l-0.221-0.206c-0.128-0.131-0.209-0.245-0.244-0.35
	C22.519,18.395,22.481,18.007,22.537,17.623z M22.356,20.392l0.872-0.291l0.381,1.141l-0.753,0.253
	c-0.319-0.047-0.558-0.148-0.724-0.293L22.356,20.392z M21.583,18.404c0.073,0.217-0.011,0.371-0.257,0.453l-0.678,0.227
	l-0.45-0.518c-0.087-0.256,0.025-0.502,0.331-0.737l0.898,0.306C21.51,18.235,21.558,18.327,21.583,18.404z M20.231,15.707
	c0.222-0.073,0.427-0.058,0.625,0.038c0.2,0.1,0.323,0.228,0.376,0.381c0.063,0.192-0.039,0.442-0.309,0.75l-1.031,0.128
	l-0.036-1.064C19.992,15.823,20.114,15.745,20.231,15.707z M5.591,9.662L4.805,8.435L4.462,8.654L4,7.932l3.644-2.334l0.463,0.72
	l-0.344,0.22l0.789,1.229L8.161,9.548l2.258,3.737l1.873-1.203c0,0,1.983,2.931,1.78,4.148c-0.205,1.221-0.83,2.347-0.83,2.347
	s-1.286,0.099-2.479-0.227c-1.192-0.325-3.027-3.347-3.027-3.347l1.881-1.206l-2.264-3.75L5.591,9.662z M7.099,26.403l0.215-1.362
	l1.935-1.074l-0.3-2.278l2.566-0.226l0.133-1.184l2.981-0.257l0.172-2.131l0.513-0.682l1.192,0.257l0.138,1.134l1.907-0.118
	l0.12,2.146l2.146,0.834l0.12,1.669c0.185,0.257,1.121-0.153,1.283,0.085c-0.148-0.234,0.166,0.24,0,0
	c-0.209,0.988,1.253,1.157,1.253,1.157l0.286,0.916l0.953,1.107L7.099,26.403z M25.164,24.588c-0.049-0.113-0.278-0.34-0.69-0.678
	c-0.388-0.349-0.588-0.531-0.596-0.553c-0.092-0.278-0.032-0.66,0.172-1.146c0.211-0.508,0.463-0.901,0.768-1.171l0.095-0.031
	c0.645-0.215,1.184-0.079,1.621,0.406c0.269,0.304,0.535,0.851,0.8,1.643c0.034,0.099,0.028,0.201-0.011,0.31
	c-0.043,0.107-0.108,0.217-0.197,0.323c-0.091,0.106-0.2,0.206-0.333,0.291c-0.13,0.084-0.267,0.149-0.407,0.196L25.164,24.588z
	 M27.245,26.11c-0.318-0.049-0.556-0.147-0.724-0.294l0.224-0.81l0.872-0.29L28,25.858L27.245,26.11z M7.552,9.463l-1.58-0.347
	l-0.65-1.012l1.927-1.235l0.648,1.015L7.552,9.463z"/>
</svg>
