<?xml version="1.0" encoding="utf-8"?>
<!-- Generator: Adobe Illustrator 16.0.3, SVG Export Plug-In . SVG Version: 6.00 Build 0)  -->
<!DOCTYPE svg PUBLIC "-//W3C//DTD SVG 1.1//EN" "http://www.w3.org/Graphics/SVG/1.1/DTD/svg11.dtd">
<svg version="1.1" id="Layer_1" xmlns="http://www.w3.org/2000/svg" xmlns:xlink="http://www.w3.org/1999/xlink" x="0px" y="0px"
	 width="32px" height="32px" viewBox="0 0 32 32" enable-background="new 0 0 32 32" xml:space="preserve">
<path fill="#407CCA" d="M13.831,14.706c0.111,0.116,0.164,0.25,0.164,0.406c0,0.175-0.064,0.328-0.195,0.459
	c-0.129,0.128-0.298,0.209-0.508,0.244v-1.372C13.541,14.506,13.722,14.594,13.831,14.706z M12.148,12.688
	c0,0.124,0.047,0.241,0.134,0.345c0.091,0.108,0.225,0.192,0.405,0.259v-1.217c-0.164,0.047-0.295,0.128-0.392,0.239
	C12.198,12.428,12.148,12.55,12.148,12.688z M15.92,4.021c-1.566-0.173-2.114,0.789-2.896,0.827c-0.789-0.038-1.331-1-2.9-0.827
	c-1.6,0.178-2.573,1.54-2.573,1.54l1.953,1.817h7.036l1.953-1.817C18.494,5.561,17.521,4.199,15.92,4.021z M10.653,18.869H8.745
	c-1.951,0-2.375-1.625-2.375-1.625c-1.279-5.638,2.608-8.697,2.608-8.697h8.09c0,0,1.535,1.209,2.356,3.506
	c-0.539,0.628-1.037,1.366-1.453,2.208c-0.391,0.795-0.665,1.596-0.837,2.361C15.161,16.688,12.119,17.039,10.653,18.869z
	 M12.688,14.134v1.472c-0.148-0.06-0.286-0.16-0.408-0.294c-0.124-0.138-0.205-0.3-0.25-0.484l-1.087,0.097
	c0.083,0.461,0.273,0.819,0.573,1.072c0.3,0.253,0.69,0.403,1.172,0.453v0.639h0.604v-0.656c0.541-0.067,0.964-0.245,1.269-0.534
	c0.305-0.291,0.456-0.648,0.456-1.07c0-0.381-0.12-0.694-0.364-0.935c-0.239-0.244-0.694-0.44-1.361-0.594v-1.373
	c0.271,0.097,0.436,0.286,0.5,0.563l1.055-0.117c-0.072-0.35-0.239-0.631-0.5-0.841c-0.261-0.209-0.614-0.336-1.055-0.381v-0.348
	h-0.604v0.348c-0.478,0.039-0.861,0.191-1.148,0.452c-0.289,0.261-0.431,0.584-0.431,0.967c0,0.381,0.126,0.703,0.381,0.97
	C11.744,13.803,12.142,14.003,12.688,14.134z M23.732,18.347c-0.154,0.247-0.321,0.472-0.487,0.697c0.88,0.37,1.43,0.837,1.43,1.35
	c0,1.188-2.815,2.151-6.287,2.151c-3.472,0-6.288-0.964-6.288-2.151c0-1.017,2.073-1.865,4.85-2.089
	c0.001-0.239,0.005-0.479,0.029-0.732c-3.541,0.165-6.237,1.071-6.237,3.862c0,3.134,3.392,6.565,7.573,6.565
	c4.182,0,7.572-3.432,7.572-6.565C25.888,19.894,25.063,18.932,23.732,18.347z M18.089,22.044l1.003-1.608l0,0
	c0.082-0.159-0.196-0.123-0.449-0.251l0,0c-0.254-0.13-0.387-0.375-0.466-0.218l-0.708,1.813
	C17.381,21.953,17.901,22.412,18.089,22.044z M18.615,17.721c-0.967-1.208-0.41-2.047-0.41-2.047
	c-0.319,0.233-1.383,3.155-0.077,3.824C18.716,19.794,19.701,19.075,18.615,17.721z M19.606,15.776
	c-0.968-1.206-0.408-2.047-0.408-2.047c-0.32,0.234-1.388,3.155-0.078,3.823C19.706,17.854,20.692,17.135,19.606,15.776z
	 M20.568,13.892c-0.969-1.205-0.41-2.045-0.41-2.045c-0.317,0.231-1.385,3.152-0.077,3.822
	C20.667,15.966,21.651,15.25,20.568,13.892z M19.536,20.214c1.31,0.667,3.048-1.911,3.052-2.305c0,0-0.355,0.94-1.898,0.869
	C18.953,18.693,18.951,19.916,19.536,20.214z M20.526,18.271c1.308,0.669,3.05-1.911,3.054-2.307c0,0-0.356,0.945-1.898,0.87
	C19.943,16.753,19.94,17.972,20.526,18.271z M21.489,16.384c1.31,0.668,3.048-1.909,3.05-2.303c0,0-0.354,0.947-1.896,0.869
	C20.904,14.867,20.903,16.084,21.489,16.384z M21.622,14.614c1.389,0.708,1.433-2.999,1.433-2.999
	C22.736,11.806,20.232,13.906,21.622,14.614z"/>
</svg>
