<?xml version="1.0" encoding="utf-8"?>
<!-- Generator: Adobe Illustrator 16.0.3, SVG Export Plug-In . SVG Version: 6.00 Build 0)  -->
<!DOCTYPE svg PUBLIC "-//W3C//DTD SVG 1.1//EN" "http://www.w3.org/Graphics/SVG/1.1/DTD/svg11.dtd">
<svg version="1.1" id="Layer_1" xmlns="http://www.w3.org/2000/svg" xmlns:xlink="http://www.w3.org/1999/xlink" x="0px" y="0px"
	 width="32px" height="32px" viewBox="0 0 32 32" enable-background="new 0 0 32 32" xml:space="preserve">
<path fill="#407CCA" d="M17.236,26.474c0,0.25-0.226,0.456-0.507,0.456h-7.57c-0.281,0-0.509-0.206-0.509-0.456v-3.45
	c0-0.253,0.228-0.458,0.509-0.458h7.57c0.281,0,0.507,0.205,0.507,0.458V26.474z M28,23.023c0-0.253-0.229-0.456-0.511-0.456H19.92
	c-0.282,0-0.511,0.203-0.511,0.456v3.45c0,0.251,0.229,0.456,0.511,0.456h7.569c0.282,0,0.511-0.205,0.511-0.456V23.023z
	 M22.619,16.486c0-0.253-0.229-0.458-0.512-0.458h-7.57c-0.278,0-0.509,0.205-0.509,0.458v3.45c0,0.25,0.231,0.458,0.509,0.458h7.57
	c0.283,0,0.512-0.208,0.512-0.458V16.486z M14.791,12.592L14.791,12.592c0.249,0.175,0.591,0.112,0.769-0.138l1.728-2.483
	c0.176-0.248,0.114-0.592-0.134-0.767l0,0l-0.534-0.369l-2.346,3.397L14.791,12.592z M4,17.705c0.333,0.709,1.078,1.191,1.813,1.274
	l4.586-6.541L8.58,11.164L4,17.705z M13.761,11.271c0.033,0.043,0.063,0.089,0.091,0.137c0.021,0.036,0.039,0.072,0.056,0.103
	c0.03,0.072,0.063,0.141,0.078,0.208c0.675-0.967,1.353-1.931,2.03-2.896c0,0-1.58,0.191-2.408-1.689
	c-0.17-0.12-0.349-0.24-0.519-0.361c-2.381-1.666-4.641-2.005-6.609-1.47c-0.107,0.03-0.322,0.1-0.517,0.166
	c-0.345,0.117-0.284,0.642,0.103,0.58c0.183-0.032,0.369-0.063,0.459-0.067C6.9,5.966,7.259,5.94,7.634,6.009
	c1.597,0.306,2.852,1.761,1.805,3.255c-0.283,0.4-0.847,1.188-0.84,1.197c0.003,0.006,2.379,1.65,2.369,1.666
	c-0.067,0.097,0.161-0.212,0.236-0.306c0.352-0.413,1.094-1.119,2.008-0.935c0.142,0.03,0.263,0.096,0.361,0.178
	c0.048,0.044,0.099,0.087,0.141,0.141C13.731,11.225,13.745,11.249,13.761,11.271z"/>
</svg>
