<?xml version="1.0" encoding="utf-8"?>
<!-- Generator: Adobe Illustrator 16.0.3, SVG Export Plug-In . SVG Version: 6.00 Build 0)  -->
<!DOCTYPE svg PUBLIC "-//W3C//DTD SVG 1.1//EN" "http://www.w3.org/Graphics/SVG/1.1/DTD/svg11.dtd">
<svg version="1.1" id="Layer_1" xmlns="http://www.w3.org/2000/svg" xmlns:xlink="http://www.w3.org/1999/xlink" x="0px" y="0px"
	 width="32px" height="32px" viewBox="0 0 32 32" enable-background="new 0 0 32 32" xml:space="preserve">
<path fill="#407CCA" d="M25.6,0H6.4C2.88,0,0,2.88,0,6.4v19.201C0,29.119,2.88,32,6.4,32h19.2c3.521,0,6.4-2.881,6.4-6.399V6.4
	C32,2.88,29.12,0,25.6,0z M4,22.54l1.19-2.064l3.707-6.423c0.656-1.134,1.727-1.134,2.381,0c0,0,0.861,1.491,0.964,1.666
	c0.492-0.853,3.12-5.406,3.12-5.406c0.658-1.134,1.727-1.134,2.383,0l5.219,9.044c0.269-0.467,0.534-0.927,0.739-1.281
	c0.474-0.82,1.245-0.82,1.721,0c0.473,0.818,1.246,2.158,1.722,2.977L28,22.54H4z"/>
</svg>
