<?xml version="1.0" encoding="utf-8"?>
<!-- Generator: Adobe Illustrator 16.0.3, SVG Export Plug-In . SVG Version: 6.00 Build 0)  -->
<!DOCTYPE svg PUBLIC "-//W3C//DTD SVG 1.1//EN" "http://www.w3.org/Graphics/SVG/1.1/DTD/svg11.dtd">
<svg version="1.1" id="Layer_1" xmlns="http://www.w3.org/2000/svg" xmlns:xlink="http://www.w3.org/1999/xlink" x="0px" y="0px"
	 width="32px" height="32px" viewBox="0 0 32 32" enable-background="new 0 0 32 32" xml:space="preserve">
<path fill="#407CCA" d="M28.659,22.75V7.659H24.15V22.75h-1.195V11.709h-3.906V22.75H1.958v2.541h28.8V22.75H28.659z M20.492,13.712
	h-0.877V12.55h0.877V13.712z M22.378,13.712h-0.873V12.55h0.873V13.712z M26.039,11.212h-1.422v-0.984h1.422V11.212z M26.039,9.663
	h-1.422V8.678h1.422V9.663z M28.193,11.212h-1.428v-0.984h1.428V11.212z M28.193,9.663h-1.428V8.678h1.428V9.663z M9.217,20.401
	v-1.573H1.958v-3.2h7.259v-1.609l5.526,3.192L9.217,20.401z"/>
</svg>
