<?xml version="1.0" encoding="utf-8"?>
<!-- Generator: Adobe Illustrator 16.0.3, SVG Export Plug-In . SVG Version: 6.00 Build 0)  -->
<!DOCTYPE svg PUBLIC "-//W3C//DTD SVG 1.1//EN" "http://www.w3.org/Graphics/SVG/1.1/DTD/svg11.dtd">
<svg version="1.1" id="Layer_1" xmlns="http://www.w3.org/2000/svg" xmlns:xlink="http://www.w3.org/1999/xlink" x="0px" y="0px"
	 width="32px" height="32px" viewBox="0 0 32 32" enable-background="new 0 0 32 32" xml:space="preserve">
<path fill="#407CCA" d="M19.258,12.55h0.877v1.163h-0.877V12.55z M21.146,13.712h0.874V12.55h-0.874V13.712z M24.26,11.212h1.422
	v-0.984H24.26V11.212z M26.408,11.212h1.428v-0.984h-1.428V11.212z M26.408,9.663h1.428V8.678h-1.428V9.663z M24.26,9.663h1.422
	V8.678H24.26V9.663z M32,6.4v19.2c0,3.521-2.88,6.4-6.4,6.4H6.4C2.88,32,0,29.12,0,25.6V6.4C0,2.88,2.88,0,6.4,0h19.2
	C29.12,0,32,2.88,32,6.4z M1.6,18.828h7.259v1.573l5.526-3.19l-5.526-3.192v1.609H1.6V18.828z M30.4,22.75h-2.099V7.659h-4.51V22.75
	h-1.195V11.709H18.69V22.75H1.6v2.85c0,2.647,2.153,4.801,4.8,4.801h19.2c2.647,0,4.801-2.153,4.801-4.801V22.75z"/>
</svg>
