<?xml version="1.0" encoding="utf-8"?>
<!-- Generator: Adobe Illustrator 16.0.3, SVG Export Plug-In . SVG Version: 6.00 Build 0)  -->
<!DOCTYPE svg PUBLIC "-//W3C//DTD SVG 1.1//EN" "http://www.w3.org/Graphics/SVG/1.1/DTD/svg11.dtd">
<svg version="1.1" id="Layer_1" xmlns="http://www.w3.org/2000/svg" xmlns:xlink="http://www.w3.org/1999/xlink" x="0px" y="0px"
	 width="32px" height="32px" viewBox="0 0 32 32" enable-background="new 0 0 32 32" xml:space="preserve">
<path fill="#407CCA" d="M26.875,19.793l-2.248-1.581l-5.361,7.628l-4.236-3.193l-3.675,4.981C11.177,27.872,10.9,28,10.62,28
	c-0.189,0-0.378-0.057-0.541-0.178c-0.406-0.301-0.492-0.869-0.194-1.275l4.769-6.467l4.203,3.166l4.275-6.084l-2.214-1.557
	l6.603-3.064L26.875,19.793z M7.681,4.003c-0.637,0-1.153,0.515-1.153,1.152c0,0.636,0.516,1.152,1.153,1.152
	c0.638,0,1.155-0.516,1.155-1.152C8.836,4.518,8.319,4.003,7.681,4.003z M7.545,13.052l-0.233,4.253c0,0.149-0.12,0.271-0.272,0.271
	c-0.148,0-0.27-0.121-0.27-0.271l-0.233-4.253H5.786L6.565,8.28l-1.567,3.121c-0.058,0.136-0.217,0.203-0.355,0.145
	C4.506,11.487,4.442,11.327,4.5,11.19c0,0,1.15-3.103,1.433-3.683C6.214,6.929,6.497,6.578,7.57,6.578h0.222
	c1.077,0,1.356,0.351,1.638,0.929c0.286,0.58,1.433,3.683,1.433,3.683c0.06,0.137-0.006,0.297-0.142,0.356
	c-0.139,0.058-0.297-0.009-0.356-0.145L8.798,8.28l0.778,4.772H8.823l-0.231,4.253c0,0.149-0.121,0.271-0.271,0.271
	c-0.148,0-0.27-0.121-0.27-0.271l-0.249-4.253H7.545z M18.15,5.152c0,0.638-0.515,1.152-1.15,1.152
	c-0.639,0-1.156-0.515-1.156-1.152S16.361,4,17,4C17.636,4,18.15,4.515,18.15,5.152z M18.192,10.787l0.224,6.306
	c0.016,0.249-0.171,0.466-0.421,0.483c-0.011,0-0.021,0-0.032,0c-0.236,0-0.437-0.18-0.45-0.419l-0.516-4.877l-0.513,4.877
	c-0.017,0.239-0.217,0.419-0.453,0.419c-0.009,0-0.021,0-0.033,0c-0.249-0.018-0.436-0.234-0.419-0.483l0.22-6.306L15.724,8.28
	l-1.41,3.117c-0.058,0.136-0.215,0.205-0.354,0.146c-0.138-0.06-0.202-0.219-0.144-0.358c0,0,0.992-3.102,1.275-3.681
	c0.283-0.577,0.722-0.928,1.797-0.928h0.22c1.077,0,1.515,0.351,1.797,0.928c0.283,0.58,1.275,3.681,1.275,3.681
	c0.06,0.139-0.006,0.298-0.146,0.358c-0.136,0.06-0.297-0.009-0.354-0.146L18.271,8.28L18.192,10.787L18.192,10.787z M13.048,11.718
	c0,0.388-0.319,0.703-0.709,0.703c-0.392,0-0.709-0.315-0.709-0.703c0-0.394,0.317-0.709,0.709-0.709
	C12.729,11.009,13.048,11.324,13.048,11.718z M12.339,15.177c0,0-0.318,2.212-0.318,2.214c-0.041,0.107-0.146,0.185-0.268,0.185
	c-0.128,0-0.232-0.085-0.271-0.199c-0.003-0.006-0.011-0.136-0.003-0.159l0.13-2.719l-0.042-0.934
	c-0.034-0.319-0.042-0.224-0.403-0.438c-0.367-0.222-0.996-1.194-1.027-1.241c-0.029-0.05-0.089-0.134-0.098-0.189
	c-0.019-0.099,0.045-0.192,0.142-0.211c0.075-0.013,0.136,0.028,0.181,0.077c0.05,0.051,0.772,1.014,1.313,1.106
	c0.124-0.017,0.253-0.083,0.597-0.083h0.137c0.344,0,0.475,0.065,0.597,0.083c0.541-0.092,1.262-1.055,1.313-1.106
	c0.045-0.049,0.107-0.089,0.181-0.077c0.097,0.019,0.161,0.112,0.144,0.211c-0.011,0.055-0.07,0.139-0.098,0.189
	c-0.031,0.047-0.658,1.019-1.028,1.241c-0.361,0.214-0.366,0.119-0.405,0.438l-0.041,0.934l0.131,2.719
	c0.006,0.023,0,0.153-0.003,0.159c-0.037,0.114-0.145,0.199-0.271,0.199c-0.124,0-0.225-0.077-0.269-0.185
	C12.658,17.39,12.339,15.177,12.339,15.177"/>
</svg>
