<?xml version="1.0" encoding="utf-8"?>
<!-- Generator: Adobe Illustrator 16.0.3, SVG Export Plug-In . SVG Version: 6.00 Build 0)  -->
<!DOCTYPE svg PUBLIC "-//W3C//DTD SVG 1.1//EN" "http://www.w3.org/Graphics/SVG/1.1/DTD/svg11.dtd">
<svg version="1.1" id="Layer_1" xmlns="http://www.w3.org/2000/svg" xmlns:xlink="http://www.w3.org/1999/xlink" x="0px" y="0px"
	 width="32px" height="32px" viewBox="0 0 32 32" enable-background="new 0 0 32 32" xml:space="preserve">
<path fill="#407CCA" d="M6.947,9.399c0.564,0.059,1.227,0.44,1.688,0.445c0.298,0.001,0.705-0.224,1.033-0.249
	c0.328-0.022,0.666-0.013,0.991,0.059c1.513,0.327,2.91,0.591,4.569,0.508c0.836-0.042,1.498-0.198,2.291-0.458
	c0.821-0.269,1.412-0.494,2.017,0.256c0.177,0.222,0.335,0.737,0.552,0.875c0.307,0.193,0.911-0.041,1.234-0.066
	c0.576-0.05,1.938,0.172,2.305-0.34c0.203-0.291-0.096-0.841-0.018-1.183c0.075-0.347,0.344-0.589,0.547-0.875
	c0.391-0.56,0.91-1.299,0.98-1.973c0.321,0.567-0.554,1.958-0.629,2.587c0.58-0.834,1.018-1.865,1.336-2.69
	c0.004,0.814-0.082,1.431-0.445,2.155c-0.284,0.574-0.609,1.506-0.248,2.106c0.313,0.519,0.917,0.663,1.053,1.331
	c0.171,0.822,0.497,1.283,0.961,1.98c0.286,0.433,1.099,1.258,0.754,1.767c-0.093,0.139-0.685,0.538-0.852,0.573
	c-0.387,0.08-0.549-0.291-0.916-0.445c-0.341-0.146-0.625-0.209-0.979-0.409c-0.35-0.194-0.641-0.315-1.055-0.315
	c-0.396,0-0.834,0.089-1.209,0.215c-0.49,0.166-0.442,0.31-0.683,0.688c-0.729,1.147-2.4,1.594-3.275,2.668
	c-0.614,0.75-0.278,2.76-0.217,3.747c0.036,0.573,0.209,1.219,0.493,1.737c0.227,0.413,0.887,0.926,0.869,1.402
	c-0.333,0.043-1.209-0.539-1.375-0.804c-0.283-0.451-0.229-1.336-0.333-1.842c-0.112-0.544-0.308-1.063-0.506-1.575
	c-0.213-0.553-0.312-1.315-0.638-1.795c0.06,0.537,0.072,1.078-0.039,1.602c-0.104,0.48-0.381,0.896-0.451,1.375
	c-0.082,0.547,0,1.172,0,1.725c0,0.341-0.002,0.526,0.149,0.815c0.138,0.25,0.413,0.347,0.4,0.651
	c-1.547-0.415-1.117-2.259-1.061-3.495c0.038-0.709-0.021-1.417-0.102-2.118c-0.063-0.552,0.014-1.647-0.253-2.125
	c-0.287-0.516-1.183-0.194-1.683-0.124c-0.791,0.106-1.584,0.229-2.381,0.147c-0.634-0.064-1.254-0.305-1.776-0.674
	c-0.455-0.315-0.927-1.05-1.414-1.202c-0.025,0.883-0.469,1.161-0.785,1.925c-0.269,0.648-0.422,1.517-0.55,2.185
	c-0.344,1.777,0.57,3.055,1.222,4.576c0.119,0.278,0.366,0.682,0.244,0.953c-0.539-0.206-0.764-0.188-1.019-0.792
	c-0.219-0.513-0.3-1.064-0.483-1.597c-0.17-0.496-0.331-1.043-0.504-1.564c-0.087-0.253-0.369-1.528-0.78-1.065
	c0.173,0.353,0.156,0.878,0.217,1.269c0.072,0.464,0.217,0.922,0.348,1.37c0.114,0.393,0.214,0.827,0.352,1.218
	c0.13,0.36,0.432,0.777,0.397,1.165c-1.433-0.318-1.604-2.953-1.856-4.019c-0.156-0.646-0.574-1.459-0.57-2.122
	c0-0.753,0.564-1.485,0.809-2.18c0.313-0.873,0.114-1.598-0.239-2.404c-0.302-0.682-0.467-1.691-0.93-2.255
	c-0.106,1.577,0,3.175,0,4.808c0,0.869,0.009,1.647,0.056,2.489c0.023,0.561,0.151,1.901-0.31,2.239
	c-0.422-0.497-0.067-1.841,0-2.444c0.094-0.847,0.147-1.59,0.064-2.436C4.156,15.759,4,14.057,4,12.399
	c0-1.308,0.302-1.983,1.42-2.604C5.942,9.507,6.359,9.343,6.947,9.399z"/>
</svg>
