<?xml version="1.0" encoding="utf-8"?>
<!-- Generator: Adobe Illustrator 16.0.3, SVG Export Plug-In . SVG Version: 6.00 Build 0)  -->
<!DOCTYPE svg PUBLIC "-//W3C//DTD SVG 1.1//EN" "http://www.w3.org/Graphics/SVG/1.1/DTD/svg11.dtd">
<svg version="1.1" id="Layer_1" xmlns="http://www.w3.org/2000/svg" xmlns:xlink="http://www.w3.org/1999/xlink" x="0px" y="0px"
	 width="32px" height="32px" viewBox="0 0 32 32" enable-background="new 0 0 32 32" xml:space="preserve">
<path fill="#407CCA" d="M25.6,0H6.4C2.88,0,0,2.88,0,6.4v19.202c0,3.521,2.88,6.4,6.4,6.4h19.2c3.521,0,6.4-2.88,6.4-6.4V6.4
	C32,2.88,29.12,0,25.6,0z M11.147,15.044l3.124,3.021l3.112-5.918l2.981,3.45l2.173-5.166l-1.979-0.834l4.82-3.654l0.755,6.001
	l-1.997-0.841l-3.258,7.739l-3.144-3.639l-3.008,5.719l-2.997-2.9L9.17,23.834l-1.587-0.698L11.147,15.044z M28,28H4V4.001h0.88
	V27.12H28V28z"/>
</svg>
