<?xml version="1.0" encoding="utf-8"?>
<!-- Generator: Adobe Illustrator 16.0.3, SVG Export Plug-In . SVG Version: 6.00 Build 0)  -->
<!DOCTYPE svg PUBLIC "-//W3C//DTD SVG 1.1//EN" "http://www.w3.org/Graphics/SVG/1.1/DTD/svg11.dtd">
<svg version="1.1" id="Layer_1" xmlns="http://www.w3.org/2000/svg" xmlns:xlink="http://www.w3.org/1999/xlink" x="0px" y="0px"
	 width="32px" height="32px" viewBox="0 0 32 32" enable-background="new 0 0 32 32" xml:space="preserve">
<path fill="#407CCA" d="M25.6,0H6.4C2.88,0,0,2.88,0,6.4v19.2C0,29.12,2.88,32,6.4,32h19.2c3.521,0,6.4-2.88,6.4-6.4V6.4
	C32,2.88,29.12,0,25.6,0z M23.055,11.616c0,0-0.044,3.706-1.433,2.999C20.232,13.906,22.736,11.806,23.055,11.616z M22.644,14.95
	c1.542,0.078,1.896-0.869,1.896-0.869c-0.002,0.394-1.74,2.972-3.05,2.303C20.903,16.084,20.904,14.867,22.644,14.95z
	 M18.128,19.497c-1.306-0.669-0.242-3.591,0.077-3.824c0,0-0.557,0.839,0.41,2.047C19.701,19.075,18.716,19.794,18.128,19.497z
	 M19.092,20.436l-1.003,1.608c-0.188,0.368-0.708-0.091-0.62-0.265l0.708-1.813c0.079-0.157,0.212,0.088,0.466,0.218
	C18.896,20.313,19.174,20.276,19.092,20.436z M19.198,13.729c0,0-0.56,0.841,0.408,2.047c1.086,1.358,0.1,2.077-0.486,1.776
	C17.811,16.885,18.878,13.964,19.198,13.729z M20.689,18.778c1.543,0.071,1.898-0.869,1.898-0.869
	c-0.004,0.394-1.742,2.972-3.052,2.305C18.951,19.916,18.953,18.693,20.689,18.778z M20.526,18.271
	c-0.586-0.299-0.583-1.518,1.155-1.437c1.542,0.075,1.898-0.87,1.898-0.87C23.576,16.359,21.834,18.939,20.526,18.271z
	 M20.158,11.847c0,0-0.559,0.841,0.41,2.045c1.083,1.358,0.099,2.074-0.487,1.777C18.773,14.999,19.841,12.078,20.158,11.847z
	 M10.125,4.021c1.569-0.173,2.111,0.789,2.9,0.827c0.781-0.038,1.33-1,2.896-0.827c1.601,0.178,2.574,1.54,2.574,1.54l-1.953,1.817
	H9.505L7.552,5.561C7.552,5.561,8.525,4.199,10.125,4.021z M8.745,18.869c-1.951,0-2.375-1.625-2.375-1.625
	c-1.279-5.638,2.608-8.697,2.608-8.697h8.09c0,0,1.535,1.209,2.356,3.506c-0.539,0.628-1.037,1.366-1.453,2.208
	c-0.391,0.795-0.665,1.596-0.837,2.361c-1.974,0.065-5.016,0.417-6.481,2.247H8.745z M18.315,28c-4.181,0-7.573-3.432-7.573-6.565
	c0-2.791,2.697-3.697,6.237-3.862c-0.024,0.254-0.028,0.493-0.029,0.732c-2.777,0.224-4.85,1.072-4.85,2.089
	c0,1.188,2.815,2.151,6.288,2.151c3.472,0,6.287-0.964,6.287-2.151c0-0.513-0.55-0.979-1.43-1.35
	c0.166-0.226,0.333-0.45,0.487-0.697c1.33,0.585,2.155,1.547,2.155,3.088C25.888,24.568,22.497,28,18.315,28z M12.28,15.313
	c-0.124-0.138-0.205-0.3-0.25-0.484l-1.087,0.097c0.083,0.461,0.273,0.819,0.573,1.072c0.3,0.253,0.69,0.403,1.172,0.453v0.639
	h0.604v-0.656c0.541-0.067,0.964-0.245,1.269-0.534c0.305-0.291,0.456-0.648,0.456-1.07c0-0.381-0.12-0.694-0.364-0.935
	c-0.239-0.244-0.694-0.44-1.361-0.594v-1.373c0.271,0.097,0.436,0.286,0.5,0.563l1.055-0.117c-0.072-0.35-0.239-0.631-0.5-0.841
	c-0.261-0.209-0.614-0.336-1.055-0.381v-0.348h-0.604v0.348c-0.478,0.039-0.861,0.191-1.148,0.452
	c-0.289,0.261-0.431,0.584-0.431,0.967c0,0.381,0.126,0.703,0.381,0.97c0.254,0.264,0.653,0.464,1.198,0.595v1.472
	C12.539,15.547,12.401,15.447,12.28,15.313z M13.292,14.444c0.249,0.063,0.43,0.15,0.539,0.262c0.111,0.116,0.164,0.25,0.164,0.406
	c0,0.175-0.064,0.328-0.195,0.459c-0.129,0.128-0.298,0.209-0.508,0.244V14.444z M12.283,13.033
	c-0.087-0.104-0.134-0.222-0.134-0.345c0-0.138,0.05-0.259,0.147-0.374c0.097-0.111,0.228-0.192,0.392-0.239v1.217
	C12.508,13.225,12.374,13.141,12.283,13.033z"/>
</svg>
