<?xml version="1.0" encoding="utf-8"?>
<!-- Generator: Adobe Illustrator 16.0.3, SVG Export Plug-In . SVG Version: 6.00 Build 0)  -->
<!DOCTYPE svg PUBLIC "-//W3C//DTD SVG 1.1//EN" "http://www.w3.org/Graphics/SVG/1.1/DTD/svg11.dtd">
<svg version="1.1" id="Layer_1" xmlns="http://www.w3.org/2000/svg" xmlns:xlink="http://www.w3.org/1999/xlink" x="0px" y="0px"
	 width="32px" height="32px" viewBox="0 0 32 32" enable-background="new 0 0 32 32" xml:space="preserve">
<path fill="#407CCA" d="M10.234,8.396h0.788V9.44h-0.788V8.396z M14.727,7.194h1.28V6.31h-1.28V7.194z M11.931,9.44h0.783V8.396
	h-0.783V9.44z M14.727,5.8h1.28V4.915h-1.28V5.8z M16.659,7.194h1.28V6.31h-1.28V7.194z M32,6.4v19.203c0,3.52-2.88,6.4-6.4,6.4H6.4
	c-3.52,0-6.4-2.881-6.4-6.4V6.4C0,2.88,2.88,0,6.4,0h19.2C29.12,0,32,2.88,32,6.4z M24.597,28l-0.612-1.065
	c-0.341-0.587-0.894-1.546-1.232-2.132c-0.341-0.588-0.895-0.588-1.233,0c-0.146,0.253-0.337,0.582-0.529,0.917l-3.739-6.479
	c-0.471-0.813-1.236-0.813-1.706-0.001c0,0-1.883,3.262-2.236,3.875c-0.073-0.125-0.69-1.194-0.69-1.194
	c-0.469-0.813-1.236-0.813-1.706,0l-2.655,4.601L7.403,28H24.597z M24.597,14.19h-2.192V8.733h-2.43v5.457h-1.615V4.001h-4.052
	V14.19h-1.076V7.64h-3.51v6.55H7.403v1.822h17.193V14.19z M16.659,5.8h1.28V4.915h-1.28V5.8z"/>
</svg>
