<?xml version="1.0" encoding="utf-8"?>
<!-- Generator: Adobe Illustrator 16.0.3, SVG Export Plug-In . SVG Version: 6.00 Build 0)  -->
<!DOCTYPE svg PUBLIC "-//W3C//DTD SVG 1.1//EN" "http://www.w3.org/Graphics/SVG/1.1/DTD/svg11.dtd">
<svg version="1.1" id="Layer_1" xmlns="http://www.w3.org/2000/svg" xmlns:xlink="http://www.w3.org/1999/xlink" x="0px" y="0px"
	 width="32px" height="32px" viewBox="0 0 32 32" enable-background="new 0 0 32 32" xml:space="preserve">
<path fill="#407CCA" d="M25.6,0H6.4C2.88,0,0,2.88,0,6.4v19.2C0,29.12,2.88,32,6.4,32h19.2c3.521,0,6.4-2.88,6.4-6.4V6.4
	C32,2.88,29.12,0,25.6,0z M28,27.604H4v-14.25l12.001-8.959L28,13.353V27.604z M16.001,18.771l10.48,8.113H5.519L16.001,18.771z
	 M12.681,10.788c-0.354,0.647-0.53,1.344-0.53,2.09c0,0.682,0.155,1.313,0.466,1.891c0.313,0.578,0.786,1.016,1.427,1.313
	c0.637,0.297,1.395,0.444,2.275,0.444c0.905,0,1.675-0.175,2.306-0.525c0.55-0.31,0.958-0.731,1.224-1.272H19
	c-0.279,0.356-0.648,0.619-1.106,0.797c-0.459,0.178-1.006,0.266-1.641,0.266c-0.659,0-1.245-0.106-1.758-0.315
	c-0.511-0.212-0.908-0.547-1.193-1.009c-0.281-0.459-0.425-0.972-0.425-1.531c0-0.578,0.126-1.135,0.38-1.666
	c0.258-0.534,0.634-0.95,1.134-1.24c0.501-0.297,1.112-0.444,1.834-0.444c0.848,0,1.511,0.222,1.986,0.659
	c0.474,0.444,0.709,0.991,0.709,1.644c0,0.365-0.084,0.719-0.253,1.059c-0.167,0.337-0.386,0.613-0.657,0.813
	c-0.202,0.156-0.366,0.231-0.496,0.231c-0.042,0-0.079-0.016-0.109-0.05c-0.031-0.034-0.045-0.081-0.045-0.15
	c0-0.053,0.019-0.168,0.057-0.35l0.603-2.862h-1.055l-0.102,0.444c-0.225-0.363-0.575-0.544-1.048-0.544
	c-0.666,0-1.209,0.316-1.636,0.944c-0.352,0.516-0.527,1.084-0.527,1.712c0,0.503,0.147,0.91,0.438,1.216
	c0.291,0.303,0.656,0.456,1.099,0.456c0.409,0,0.773-0.153,1.086-0.456c0.036,0.15,0.112,0.262,0.224,0.34
	c0.112,0.078,0.278,0.116,0.498,0.116c0.82,0,1.491-0.347,2.016-1.038c0.417-0.55,0.627-1.162,0.627-1.84
	c0-0.569-0.14-1.094-0.413-1.575c-0.276-0.481-0.673-0.85-1.195-1.112c-0.521-0.259-1.118-0.391-1.787-0.391
	c-0.792,0-1.494,0.163-2.108,0.487C13.519,9.659,13.034,10.144,12.681,10.788z M16.491,13c-0.102,0.313-0.224,0.55-0.364,0.712
	c-0.098,0.113-0.2,0.197-0.301,0.25c-0.133,0.075-0.273,0.113-0.425,0.113c-0.203,0-0.372-0.082-0.511-0.241
	c-0.136-0.16-0.203-0.406-0.203-0.744c0-0.253,0.048-0.544,0.147-0.872c0.098-0.328,0.245-0.578,0.439-0.756
	c0.195-0.178,0.406-0.266,0.634-0.266c0.212,0,0.389,0.082,0.528,0.244c0.141,0.16,0.211,0.391,0.211,0.691
	C16.646,12.4,16.592,12.69,16.491,13z M13.702,19.575l-8.855,6.853v-12.79L13.702,19.575z M18.299,19.575l8.854-5.938v12.79
	L18.299,19.575z"/>
</svg>
