<?xml version="1.0" encoding="utf-8"?>
<!-- Generator: Adobe Illustrator 16.0.3, SVG Export Plug-In . SVG Version: 6.00 Build 0)  -->
<!DOCTYPE svg PUBLIC "-//W3C//DTD SVG 1.1//EN" "http://www.w3.org/Graphics/SVG/1.1/DTD/svg11.dtd">
<svg version="1.1" id="Layer_1" xmlns="http://www.w3.org/2000/svg" xmlns:xlink="http://www.w3.org/1999/xlink" x="0px" y="0px"
	 width="32px" height="32px" viewBox="0 0 32 32" enable-background="new 0 0 32 32" xml:space="preserve">
<path fill="#407CCA" d="M16.622,9.352H8.303V5.955h8.319V9.352z M8.303,26.042h15.394v-6.938H8.303V26.042z M32,6.4v19.2
	c0,3.521-2.88,6.4-6.4,6.4H6.4C2.88,32,0,29.12,0,25.6V6.4C0,2.88,2.88,0,6.4,0h19.2C29.12,0,32,2.88,32,6.4z M28,14.228
	c0-2.7-0.847-4.876-1.9-4.876h-3.738l-4.83-4.455H7.241v4.455H5.9c-1.05,0-1.9,2.177-1.9,4.876c0,2.697,0.85,4.876,1.9,4.876h1.341
	v7.997H24.76v-7.997h1.34C27.153,19.104,28,16.925,28,14.228z M17.682,6.47v2.881H20.8L17.682,6.47z"/>
</svg>
