<?xml version="1.0" encoding="utf-8"?>
<!-- Generator: Adobe Illustrator 16.0.3, SVG Export Plug-In . SVG Version: 6.00 Build 0)  -->
<!DOCTYPE svg PUBLIC "-//W3C//DTD SVG 1.1//EN" "http://www.w3.org/Graphics/SVG/1.1/DTD/svg11.dtd">
<svg version="1.1" id="Layer_1" xmlns="http://www.w3.org/2000/svg" xmlns:xlink="http://www.w3.org/1999/xlink" x="0px" y="0px"
	 width="32px" height="32px" viewBox="0 0 32 32" enable-background="new 0 0 32 32" xml:space="preserve">
<path fill="#407CCA" d="M16.001,4.394L4,13.353v14.25h24v-14.25L16.001,4.394z M12.681,10.788c0.353-0.644,0.837-1.128,1.453-1.45
	c0.614-0.325,1.316-0.487,2.108-0.487c0.669,0,1.266,0.131,1.787,0.391c0.522,0.262,0.919,0.631,1.195,1.112
	c0.273,0.481,0.413,1.006,0.413,1.575c0,0.678-0.21,1.291-0.627,1.84c-0.524,0.691-1.195,1.038-2.016,1.038
	c-0.22,0-0.386-0.038-0.498-0.116c-0.111-0.078-0.188-0.19-0.224-0.34c-0.313,0.303-0.677,0.456-1.086,0.456
	c-0.442,0-0.808-0.153-1.099-0.456c-0.291-0.306-0.438-0.712-0.438-1.216c0-0.628,0.175-1.197,0.527-1.712
	c0.426-0.628,0.97-0.944,1.636-0.944c0.474,0,0.824,0.181,1.048,0.544l0.102-0.444h1.055l-0.603,2.862
	c-0.038,0.182-0.057,0.297-0.057,0.35c0,0.069,0.014,0.116,0.045,0.15c0.03,0.035,0.067,0.05,0.109,0.05
	c0.13,0,0.294-0.075,0.496-0.231c0.271-0.2,0.49-0.475,0.657-0.813c0.169-0.34,0.253-0.694,0.253-1.059
	c0-0.653-0.235-1.2-0.709-1.644c-0.475-0.438-1.138-0.659-1.986-0.659c-0.722,0-1.333,0.147-1.834,0.444
	c-0.5,0.291-0.876,0.706-1.134,1.24c-0.253,0.531-0.38,1.088-0.38,1.666c0,0.559,0.144,1.072,0.425,1.531
	c0.286,0.462,0.683,0.797,1.193,1.009c0.513,0.209,1.099,0.315,1.758,0.315c0.635,0,1.182-0.087,1.641-0.266
	c0.458-0.178,0.827-0.44,1.106-0.797h0.849c-0.266,0.541-0.674,0.962-1.224,1.272c-0.631,0.35-1.401,0.525-2.306,0.525
	c-0.88,0-1.638-0.147-2.275-0.444c-0.641-0.297-1.114-0.734-1.427-1.313c-0.311-0.578-0.466-1.209-0.466-1.891
	C12.151,12.131,12.327,11.435,12.681,10.788z M4.847,13.638l8.855,5.938l-8.855,6.853V13.638z M5.519,26.885l10.483-8.113
	l10.48,8.113H5.519z M27.153,26.428l-8.854-6.853l8.854-5.938V26.428z M16.435,11.44c0.141,0.16,0.211,0.391,0.211,0.691
	c0,0.269-0.054,0.559-0.155,0.869c-0.102,0.313-0.224,0.55-0.364,0.712c-0.098,0.113-0.2,0.197-0.301,0.25
	c-0.133,0.075-0.273,0.113-0.425,0.113c-0.203,0-0.372-0.082-0.511-0.241c-0.136-0.16-0.203-0.406-0.203-0.744
	c0-0.253,0.048-0.544,0.147-0.872c0.098-0.328,0.245-0.578,0.439-0.756c0.195-0.178,0.406-0.266,0.634-0.266
	C16.119,11.197,16.295,11.278,16.435,11.44z"/>
</svg>
